<?xml version="1.0" encoding="utf-8"?>
<!-- Generator: Adobe Illustrator 22.1.0, SVG Export Plug-In . SVG Version: 6.00 Build 0)  -->
<svg version="1.1" id="Слой_1" xmlns="http://www.w3.org/2000/svg" xmlns:xlink="http://www.w3.org/1999/xlink" x="0px" y="0px"
	 viewBox="0 0 253 50" style="enable-background:new 0 0 253 50;" xml:space="preserve">
<style type="text/css">
	.st0{clip-path:url(#SVGID_2_);}
	.st1{display:none;fill:#EA6079;}
	.st2{fill:#EA6079;}
	.st3{clip-path:url(#SVGID_4_);}
</style>
<g>
	<defs>
		<rect id="SVGID_1_" x="69" y="9" width="184" height="33"/>
	</defs>
	<clipPath id="SVGID_2_">
		<use xlink:href="#SVGID_1_"  style="overflow:visible;"/>
	</clipPath>
	<g class="st0">
		<path class="st1" d="M252,14.6h-0.7c-0.3-1.4-0.8-2.5-1.7-3.2c-0.9-0.9-2.1-1.3-3.5-1.3c-1.9,0-3.3,0.7-4.4,2.1
			c-1,1.3-1.5,2.9-1.5,4.8c0,1.8,0.5,3.4,1.6,4.9c1.2,1.6,2.7,2.4,4.5,2.4c1.5,0,2.7-0.5,3.7-1.5c0.8-0.8,1.5-1.9,2.1-3.5l0.7,0.2
			l-1.4,4.8c-0.8,0.4-1.7,0.6-2.6,0.8c-0.9,0.2-1.8,0.2-2.7,0.2c-2.7,0-4.9-0.7-6.7-2c-2-1.5-2.9-3.4-2.9-6c0-2.6,1-4.7,3-6.2
			c1.9-1.4,4.2-2.2,6.9-2.2c1,0,2,0.1,2.9,0.3c1,0.2,1.9,0.5,2.7,0.9V14.6z M230.5,22.7c0.5,0.5,1,0.9,1.5,1.2
			c0.5,0.3,1.2,0.5,1.9,0.7l-0.1,0.6c-1,0-1.9-0.1-2.8-0.2c-0.9-0.1-1.7-0.3-2.4-0.5c-0.9-0.3-1.7-0.8-2.3-1.6l-4.9-5.7l3.1-3.4
			c0.8-0.9,1.4-1.5,1.7-2c0.2-0.4,0.4-0.7,0.4-0.9c0-0.5-0.4-0.8-1.3-0.9V9.4h7.1V10c-1.4,0.3-2.5,0.7-3.5,1.3
			c-0.7,0.5-1.7,1.3-2.8,2.5l-1.9,1.9L230.5,22.7z M218,14.5c0-2-0.2-3.2-0.5-3.6c-0.3-0.3-1.1-0.6-2.6-0.8V9.4h9.3V10
			c-1.5,0.2-2.3,0.5-2.6,0.8c-0.3,0.4-0.5,1.6-0.5,3.6v5.4c0,2,0.2,3.2,0.5,3.6c0.3,0.3,1.1,0.6,2.6,0.8v0.6h-9.3v-0.6
			c1.5-0.2,2.3-0.5,2.6-0.8c0.3-0.4,0.5-1.6,0.5-3.6V14.5z M192.5,17.4h-2.7v2.4c0,1.4,0,2.3,0.1,2.7c0.2,1,1.2,1.6,3,1.7v0.7h-9.3
			v-0.6c1.5-0.2,2.3-0.5,2.6-0.8c0.3-0.4,0.5-1.6,0.5-3.6v-5.4c0-2-0.2-3.2-0.5-3.6c-0.3-0.3-1.1-0.6-2.6-0.8V9.4h9.3V10
			c-1.5,0.1-2.4,0.5-2.8,1.1c-0.2,0.4-0.3,1.5-0.3,3.3v1.6h2.8c0.3-2.1,1.2-3.9,2.8-5.1c1.6-1.3,3.6-1.9,5.9-1.9
			c2.6,0,4.7,0.7,6.3,2c1.7,1.5,2.6,3.5,2.6,6c0,2.5-0.8,4.5-2.5,6c-1.7,1.5-3.8,2.2-6.4,2.2c-2.6,0-4.6-0.7-6.3-2.1
			C193.4,21.8,192.5,19.8,192.5,17.4z M196.3,16.8c0,1.9,0.4,3.6,1.2,4.9c0.9,1.7,2.3,2.5,4.1,2.5c1.7,0,2.9-0.7,3.8-2.2
			c0.6-1.2,1-2.6,1-4.5c0-1.9-0.4-3.6-1.2-5c-1-1.7-2.4-2.6-4.2-2.6c-1.6,0-2.9,0.8-3.7,2.3C196.6,13.6,196.3,15.1,196.3,16.8z
			 M163,25.3c-0.5,0-1-0.2-1.3-0.5c-0.4-0.3-0.5-0.7-0.5-1.2c0-0.7,0.4-1.3,1.2-1.7c0.1,0.2,0.3,0.5,0.6,0.6
			c0.2,0.1,0.5,0.2,0.7,0.2c1,0,1.8-0.8,2.1-2.3c0.3-1.1,0.4-3.2,0.4-6c0-2-0.2-3.2-0.5-3.6c-0.3-0.3-1.2-0.6-2.8-0.8V9.4h16.3V10
			c-1.5,0.2-2.3,0.5-2.6,0.8c-0.3,0.4-0.5,1.6-0.5,3.6v5.4c0,2,0.2,3.2,0.5,3.6c0.3,0.3,1.1,0.6,2.6,0.8v0.6H170v-0.6
			c1.5-0.1,2.4-0.5,2.8-1.1c0.2-0.4,0.3-1.5,0.3-3.3v-9.3h-5.6v3.9c0,2.5-0.1,4.3-0.2,5.5c-0.2,1.7-0.6,3.1-1.2,3.9
			C165.3,24.8,164.3,25.3,163,25.3z M142.5,19.9c0,1.4,0,2.3,0.1,2.7c0.2,1,1.2,1.6,3,1.7V25h-9.3v-0.7c1.5-0.2,2.3-0.5,2.6-0.8
			c0.3-0.4,0.5-1.6,0.5-3.6v-5.4c0-2-0.2-3.2-0.5-3.6c-0.3-0.3-1.1-0.6-2.6-0.8V9.4h9.4V10c-1.5,0.1-2.4,0.5-2.8,1.1
			c-0.2,0.4-0.3,1.5-0.3,3.3v1.6h8.6v-1.6c0-1.4,0-2.3-0.1-2.7c-0.2-1-1.2-1.6-3-1.7V9.4h9.3V10c-1.5,0.2-2.3,0.5-2.6,0.8
			c-0.3,0.4-0.5,1.6-0.5,3.6v5.4c0,2,0.2,3.2,0.5,3.6c0.3,0.3,1.1,0.6,2.6,0.8v0.6H148v-0.6c1.5-0.1,2.4-0.5,2.8-1.1
			c0.2-0.4,0.3-1.5,0.3-3.3v-2.4h-8.6L142.5,19.9L142.5,19.9z M117.3,21.2c0,1.1,0.1,1.8,0.3,2.1c0.4,0.5,1.3,0.9,2.8,1v0.6h-9.3
			v-0.6c1.5-0.2,2.3-0.5,2.6-0.8c0.3-0.4,0.5-1.6,0.5-3.6v-5.4c0-2-0.2-3.2-0.5-3.6c-0.3-0.3-1.1-0.6-2.6-0.8V9.4h9.3V10
			c-1.5,0.1-2.4,0.5-2.8,1.1c-0.2,0.4-0.3,1.5-0.3,3.3v5.2l8.6-7c0-0.8-0.1-1.4-0.3-1.7c-0.4-0.5-1.3-0.8-2.8-0.9V9.4h9.3V10
			c-1.5,0.2-2.3,0.5-2.6,0.8c-0.3,0.4-0.5,1.6-0.5,3.6v5.4c0,2,0.2,3.2,0.5,3.6c0.3,0.3,1.1,0.6,2.6,0.8v0.6h-9.3v-0.6
			c1.5-0.1,2.4-0.5,2.8-1.1c0.2-0.4,0.3-1.5,0.3-3.3v-5.7L117.3,21.2z M105.1,22.7c0.5,0.5,1,0.9,1.5,1.2c0.5,0.3,1.2,0.5,1.9,0.7
			l-0.1,0.6c-1,0-1.9-0.1-2.8-0.2c-0.9-0.1-1.7-0.3-2.4-0.5c-0.9-0.3-1.7-0.8-2.3-1.6l-5-5.7l3.1-3.4c0.8-0.9,1.4-1.5,1.7-2
			c0.2-0.4,0.4-0.7,0.4-0.9c0-0.5-0.4-0.8-1.3-0.9V9.4h7.1V10c-1.4,0.3-2.5,0.7-3.5,1.3c-0.7,0.5-1.7,1.3-2.8,2.5l-1.9,1.9
			L105.1,22.7z M92.6,14.5c0-2-0.2-3.2-0.5-3.6c-0.3-0.3-1.1-0.6-2.6-0.8V9.4h9.3V10c-1.5,0.2-2.3,0.5-2.6,0.8
			c-0.3,0.4-0.5,1.6-0.5,3.6v5.4c0,2,0.2,3.2,0.5,3.6c0.3,0.3,1.1,0.6,2.6,0.8v0.6h-9.4v-0.6c1.5-0.2,2.3-0.5,2.6-0.8
			c0.3-0.4,0.5-1.6,0.5-3.6L92.6,14.5L92.6,14.5z M84.5,14.6h-0.7c-0.3-1.4-0.8-2.5-1.7-3.2c-0.9-0.9-2-1.3-3.5-1.3
			c-1.9,0-3.3,0.7-4.4,2.1c-1,1.3-1.5,2.9-1.5,4.8c0,1.8,0.5,3.4,1.6,4.9c1.2,1.6,2.7,2.4,4.5,2.4c1.5,0,2.7-0.5,3.7-1.5
			c0.8-0.8,1.5-1.9,2.1-3.5l0.7,0.2L84,24.3c-0.8,0.4-1.7,0.6-2.6,0.8c-0.9,0.2-1.8,0.2-2.7,0.2c-2.7,0-4.9-0.7-6.7-2
			c-2-1.4-2.9-3.4-2.9-5.9c0-2.6,1-4.7,3-6.2C73.9,9.7,76.2,9,78.9,9c1,0,2,0.1,2.9,0.3c1,0.2,1.9,0.5,2.7,0.9V14.6z"/>
		<g>
			<path class="st2" d="M70.1,35.8c0,1.5,0.9,2.4,2.1,2.4c0.8,0,1.4-0.3,1.8-1l0.3,0.1c-0.4,1-1.2,1.6-2.4,1.6
				c-1.8,0-2.9-1.2-2.9-3.1c0-1.9,1.4-3.1,3-3.1c1.2,0,2.1,0.7,2.3,1.6c-0.1,0.3-0.3,0.5-0.6,0.5c-0.4,0-0.6-0.2-0.7-0.6l-0.3-1.1
				l0.6,0.5c-0.4-0.2-0.9-0.3-1.3-0.3C70.9,33.3,70.1,34.2,70.1,35.8z"/>
			<path class="st2" d="M75.3,33h6l0.1,2h-0.6l-0.5-2l0.7,0.5h-5.4l0.7-0.5l-0.5,2h-0.6L75.3,33z M76.7,38.3l1.5-0.2h0.3l1.5,0.2
				v0.4h-3.2V38.3z M77.8,36.2v-0.7c0-0.8,0-2,0-2.6h1.1c0,0.6,0,1.8,0,2.6v0.7c0,0.8,0,2,0,2.6h-1.1C77.8,38.2,77.8,37,77.8,36.2z"
				/>
			<path class="st2" d="M81.9,41c0.1-0.3,0.5-0.5,0.9-0.5c0.3,0,0.6,0.1,1,0.5l0.4,0.4l-0.5,0.3l-0.4-0.3c0.9-0.4,1.4-1.3,1.7-2.1
				l0.4-1.1l2-5.2h0.7l-2.3,5.7c-0.9,2.2-1.6,3.1-2.7,3.1C82.4,41.8,81.9,41.5,81.9,41z M83.2,33.6l-1.3-0.2V33h3.1v0.4l-1.6,0.2
				H83.2z M85.2,39.4L82.4,33h1.2l2.1,5.2L85.2,39.4z M87.4,33.6L86,33.4V33h2.6v0.4l-0.9,0.2H87.4z"/>
			<path class="st2" d="M88.6,38.8l0.6-0.5l-0.4,2.4h-0.6l-0.1-2.4h6.7l-0.1,2.4h-0.6l-0.4-2.4l0.6,0.5H88.6z M90.8,33h0.6
				c-0.1,2.2-0.9,4.1-1.9,5.7l-0.7-0.4C89.9,36.8,90.7,35.1,90.8,33z M89.8,33h1.4v0.7h-0.2l-1.2-0.2V33z M91.1,33h2.2v0.5h-2.2V33z
				 M92.8,36.2v-0.7c0-0.8,0-2,0-2.6h1.1c0,0.6,0,1.8,0,2.6v0.7c0,0.8,0,2,0,2.6h-1.1C92.7,38.2,92.8,37,92.8,36.2z M93.3,33h1.5
				v0.4l-1.3,0.2h-0.2V33z"/>
			<path class="st2" d="M96,33h3v0.4l-1.3,0.2h-0.3L96,33.4V33z M96,38.3l1.4-0.2h0.3l1.3,0.2v0.4h-3V38.3z M96.9,36.2v-0.7
				c0-0.8,0-2,0-2.6h1.1v5.8h-1.1C96.9,38.2,96.9,37,96.9,36.2z M101.5,33.6h0.7l-4.5,4.5H97L101.5,33.6z M100.3,33h3v0.4l-1.3,0.2
				h-0.3l-1.4-0.2V33z M100.3,38.3l1.4-0.2h0.3l1.3,0.2v0.4h-3V38.3z M101.3,33h1c0,0.6,0,1.8,0,2.6v0.7c0,0.8,0,2,0,2.6h-1V33z"/>
			<path class="st2" d="M104,38.3l1.4-0.2l-0.6,0.4l0.6-1.3c0.4-0.7,1-1.1,1.6-1.2l-0.1,0.1c-1.6,0-2.2-0.7-2.2-1.5
				c0-0.9,0.7-1.6,2.3-1.6h1.7v0.5h-1.6c-0.9,0-1.4,0.4-1.4,1.1c0,0.9,0.5,1.2,1.5,1.2h1.4v0.5h-1.1c-0.7,0-0.7,0.2-1.1,0.8
				l-0.7,1.3c-0.2,0.3-0.4,0.4-1,0.4c-0.4,0-0.7-0.1-0.9-0.1V38.3z M107.2,38.3l1.4-0.2h0.3l1.3,0.2v0.4h-3V38.3z M108.2,36.2v-0.7
				c0-0.8,0-2,0-2.6h1.1c0,0.6,0,1.8,0,2.6v0.7c0,0.8,0,2,0,2.6h-1.1C108.2,38.2,108.2,37,108.2,36.2z M108.7,33h1.5v0.4l-1.4,0.2
				h-0.1V33z"/>
			<path class="st2" d="M116.5,38.4c1.2,0,2-0.6,2-2.6s-0.8-2.5-1.9-2.5c-0.7,0-1.1,0.1-1.5,0.5l0.5-0.6l-0.3,1.5h-0.7l0-1.5
				c0.6-0.3,1.4-0.5,2.2-0.5c1.6,0,2.9,1,2.9,3c0,2-1.1,3.1-3.1,3.1c-1.2,0-2-0.6-2-1.5c0.1-0.2,0.3-0.4,0.6-0.4
				c0.4,0,0.5,0.2,0.6,0.6l0.2,0.9l-0.6-0.4C115.6,38.3,116,38.4,116.5,38.4z M115.9,35.5l3.1,0V36l-3.1,0.1V35.5z"/>
			<path class="st2" d="M121.8,35.8c0,1.5,0.9,2.4,2.1,2.4c0.8,0,1.4-0.3,1.8-1l0.3,0.1c-0.4,1-1.2,1.6-2.4,1.6
				c-1.8,0-2.9-1.2-2.9-3.1c0-1.9,1.4-3.1,3-3.1c1.2,0,2.1,0.7,2.3,1.6c-0.1,0.3-0.3,0.5-0.6,0.5c-0.4,0-0.6-0.2-0.7-0.6l-0.3-1.1
				l0.6,0.5c-0.4-0.2-0.9-0.3-1.3-0.3C122.6,33.3,121.8,34.2,121.8,35.8z"/>
			<path class="st2" d="M127,33h6l0.1,2h-0.6l-0.5-2l0.7,0.5h-5.4L128,33l-0.5,2h-0.6L127,33z M128.4,38.3l1.5-0.2h0.3l1.5,0.2v0.4
				h-3.2V38.3z M129.5,36.2v-0.7c0-0.8,0-2,0-2.6h1.1c0,0.6,0,1.8,0,2.6v0.7c0,0.8,0,2,0,2.6h-1.1C129.5,38.2,129.5,37,129.5,36.2z"
				/>
			<path class="st2" d="M139.5,35.1c0,0.3,0,0.5-0.1,0.7h-4.8v-0.5h3.1c0.6,0,0.8-0.3,0.8-0.6c0-0.7-0.6-1.3-1.5-1.3
				c-0.8,0-1.8,0.7-1.8,2.4c0,1.6,0.8,2.4,2.2,2.4c0.8,0,1.4-0.4,1.8-0.9l0.3,0.2c-0.5,0.9-1.3,1.4-2.5,1.4c-1.8,0-2.9-1.1-2.9-3
				c0-1.9,1.4-3.1,3-3.1C138.4,32.8,139.5,33.7,139.5,35.1z"/>
			<path class="st2" d="M140.6,33h6l0.1,2h-0.6l-0.5-2l0.7,0.5h-5.4l0.7-0.5l-0.5,2h-0.6L140.6,33z M142,38.3l1.5-0.2h0.3l1.5,0.2
				v0.4H142V38.3z M143.1,36.2v-0.7c0-0.8,0-2,0-2.6h1.1c0,0.6,0,1.8,0,2.6v0.7c0,0.8,0,2,0,2.6H143C143.1,38.2,143.1,37,143.1,36.2
				z"/>
			<path class="st2" d="M147.7,33h3v0.4l-1.3,0.2h-0.3l-1.4-0.2V33z M147.7,38.3l1.4-0.2h0.3l1.3,0.2v0.4h-3V38.3z M148.6,36.2v-0.7
				c0-0.8,0-2,0-2.6h1.1v5.8h-1.1C148.6,38.2,148.6,37,148.6,36.2z M153.2,33.6h0.7l-4.5,4.5h-0.7L153.2,33.6z M152,33h3v0.4
				l-1.3,0.2h-0.3l-1.4-0.2V33z M152,38.3l1.4-0.2h0.3l1.3,0.2v0.4h-3V38.3z M153,33h1c0,0.6,0,1.8,0,2.6v0.7c0,0.8,0,2,0,2.6h-1V33
				z"/>
			<path class="st2" d="M155.7,33h2.8v0.4l-1.3,0.2h-0.3l-1.2-0.2V33z M156.5,33h1.1c0,0.4,0,0.8,0,1.2c0,1.3,0.3,1.7,1.7,1.7
				c0.5,0,1,0,1.5-0.1v0.5c-0.6,0.2-1.3,0.3-1.9,0.3c-1.8,0-2.3-0.7-2.3-2.3V33z M159.2,33h3v0.4l-1.3,0.2h-0.3l-1.4-0.2V33z
				 M159.2,38.3l1.3-0.2h0.3l1.4,0.2v0.4h-3V38.3z M160.2,36.2v-0.7c0-0.8,0-2,0-2.6h1.1c0,0.6,0,1.8,0,2.6v0.7c0,0.8,0,2,0,2.6
				h-1.1C160.2,38.2,160.2,37,160.2,36.2z"/>
			<path class="st2" d="M168.8,35.1c0,0.3,0,0.5-0.1,0.7h-4.8v-0.5h3.1c0.6,0,0.8-0.3,0.8-0.6c0-0.7-0.6-1.3-1.5-1.3
				c-0.8,0-1.8,0.7-1.8,2.4c0,1.6,0.8,2.4,2.2,2.4c0.8,0,1.4-0.4,1.8-0.9l0.3,0.2c-0.5,0.9-1.3,1.4-2.5,1.4c-1.8,0-2.9-1.1-2.9-3
				c0-1.9,1.4-3.1,3-3.1C167.7,32.8,168.8,33.7,168.8,35.1z"/>
			<path class="st2" d="M171.1,35.8c0,1.5,0.9,2.4,2.1,2.4c0.8,0,1.4-0.3,1.8-1l0.3,0.1c-0.4,1-1.2,1.6-2.4,1.6
				c-1.8,0-2.9-1.2-2.9-3.1c0-1.9,1.4-3.1,3-3.1c1.2,0,2.1,0.7,2.3,1.6c-0.1,0.3-0.3,0.5-0.6,0.5c-0.4,0-0.6-0.2-0.7-0.6l-0.3-1.1
				l0.6,0.5c-0.4-0.2-0.9-0.3-1.3-0.3C172,33.3,171.1,34.2,171.1,35.8z"/>
			<path class="st2" d="M176.5,33h3v0.4l-1.3,0.2h-0.3l-1.4-0.2V33z M176.5,38.3l1.4-0.2h0.3l1.3,0.2v0.4h-3V38.3z M177.4,36.2v-0.7
				c0-0.8,0-2,0-2.6h1.1c0,0.6,0,1.8,0,2.7v0.4c0,0.9,0,2.2,0,2.7h-1.1C177.4,38.2,177.4,37,177.4,36.2z M180.2,36.9
				c-0.2-0.6-0.5-0.8-1.2-0.8h-1.1v-0.5h1c0.6,0,0.9-0.2,1.3-1.2c0.4-1.1,0.8-1.6,1.7-1.6c0.4,0.1,0.6,0.3,0.6,0.6
				c0,0.4-0.2,0.6-0.8,0.6c-0.4,0-0.6,0-1-0.1l0.8-0.5c-0.2,0.2-0.5,0.6-0.7,1.2c-0.3,0.8-0.7,1.2-1.4,1.3l-0.2-0.2
				c1.2,0.1,1.8,0.5,2.2,1.4l0.6,1.5l-0.8-0.6l1.6,0.2v0.4c-0.3,0.1-0.6,0.1-0.8,0.1c-0.7,0-1-0.1-1.2-0.8L180.2,36.9z"/>
			<path class="st2" d="M183.2,35.9c0-2,1.5-3.1,3-3.1c1.5,0,3,1.1,3,3.1c0,2-1.5,3-3,3C184.7,38.9,183.2,37.9,183.2,35.9z
				 M188.1,35.9c0-1.6-0.7-2.5-1.8-2.5c-1.2,0-1.8,0.9-1.8,2.5c0,1.6,0.6,2.5,1.8,2.5C187.4,38.4,188.1,37.5,188.1,35.9z"/>
			<path class="st2" d="M190.4,33h3v0.4l-1.3,0.2h-0.3l-1.4-0.2V33z M190.4,38.3l1.4-0.2h0.3l1.3,0.2v0.4h-3V38.3z M191.4,36.2v-0.7
				c0-0.8,0-2,0-2.6h1.1v5.8h-1.1C191.4,38.2,191.4,37,191.4,36.2z M196,33.6h0.7l-4.5,4.5h-0.7L196,33.6z M192,30
				c0.1-0.2,0.3-0.3,0.5-0.3c0.3,0,0.6,0.2,0.6,0.8c0,0.5,0,0.7-0.1,1l-0.2-0.6c0.2,0.4,0.8,0.5,1.3,0.5c0.5,0,1.1-0.2,1.3-0.5
				l-0.2,0.6c-0.1-0.3-0.1-0.5-0.1-1c0-0.6,0.3-0.8,0.6-0.8c0.3,0,0.4,0.1,0.5,0.3c0,1-0.8,1.9-2.2,1.9S192,31,192,30z M194.7,33h3
				v0.4l-1.3,0.2h-0.3l-1.4-0.2V33z M194.7,38.3l1.4-0.2h0.3l1.3,0.2v0.4h-3V38.3z M195.8,33h1c0,0.6,0,1.8,0,2.6v0.7
				c0,0.8,0,2,0,2.6h-1V33z"/>
			<path class="st2" d="M202,33h3v0.4l-1.3,0.2h-0.3l-1.4-0.2V33z M202,38.3l1.4-0.2h0.3l1.3,0.2v0.4h-3V38.3z M202.9,36.2v-0.7
				c0-0.8,0-2,0-2.6h1.1c0,0.6,0,1.8,0,2.7v0.4c0,0.9,0,2.2,0,2.7h-1.1C202.9,38.2,202.9,37,202.9,36.2z M205.7,36.9
				c-0.2-0.6-0.5-0.8-1.2-0.8h-1.1v-0.5h1c0.6,0,0.9-0.2,1.3-1.2c0.4-1.1,0.8-1.6,1.7-1.6c0.4,0.1,0.6,0.3,0.6,0.6
				c0,0.4-0.2,0.6-0.8,0.6c-0.4,0-0.6,0-1-0.1l0.8-0.5c-0.2,0.2-0.5,0.6-0.7,1.2c-0.3,0.8-0.7,1.2-1.4,1.3l-0.2-0.2
				c1.2,0.1,1.8,0.5,2.2,1.4l0.6,1.5l-0.8-0.6l1.6,0.2v0.4c-0.3,0.1-0.6,0.1-0.8,0.1c-0.7,0-1-0.1-1.2-0.8L205.7,36.9z"/>
			<path class="st2" d="M212.2,41.3v0.4h-3.4v-0.4l1.5-0.2h0.3L212.2,41.3z M210,35.6c0-0.7,0-1.1,0-1.5l-1.1-0.1v-0.4l1.8-0.7
				l0.2,0.1l0.1,1l0.1,0v3.8l0,0.1v1.2c0,0.9,0,1.7,0,2.6h-1.1c0-0.9,0-1.7,0-2.6V35.6z M212.7,33.5c-0.5,0-1.1,0.2-2.1,1.1
				l-0.1-0.2c0.8-1.1,1.6-1.5,2.5-1.5c1.4,0,2.5,1.2,2.5,3c0,1.9-1.2,3.1-2.7,3.1c-0.8,0-1.6-0.3-2.3-1.6l0.1-0.2
				c0.7,0.8,1.3,1.1,2,1.1c1,0,1.8-0.7,1.8-2.3C214.3,34.4,213.6,33.5,212.7,33.5z"/>
			<path class="st2" d="M218.8,35.6c0.6-0.2,1.4-0.4,2-0.5v0.4c-0.6,0.1-1.4,0.3-1.8,0.5c-1.2,0.4-1.3,0.9-1.3,1.3
				c0,0.7,0.5,0.9,1.1,0.9c0.5,0,0.7-0.2,1.6-0.7l0.3-0.2l0.2,0.3l-0.4,0.4c-0.8,0.7-1.2,1.1-2,1.1c-1,0-1.8-0.5-1.8-1.5
				C216.7,36.7,217,36.2,218.8,35.6z M220.3,37.6v-2.8c0-1.2-0.4-1.5-1.2-1.5c-0.3,0-0.7,0-1.2,0.2l0.5-0.4l-0.3,1.1
				c-0.1,0.4-0.3,0.6-0.7,0.6s-0.6-0.2-0.6-0.5c0.2-0.9,1.2-1.5,2.5-1.5c1.4,0,2,0.6,2,2.1v2.6c0,0.6,0.2,0.7,0.5,0.7
				c0.2,0,0.4-0.1,0.5-0.3l0.3,0.3c-0.3,0.5-0.7,0.6-1.1,0.6C220.8,38.9,220.3,38.4,220.3,37.6z"/>
			<path class="st2" d="M224.4,35.8c0,1.5,0.9,2.4,2.1,2.4c0.8,0,1.4-0.3,1.8-1l0.3,0.1c-0.4,1-1.2,1.6-2.4,1.6
				c-1.8,0-2.9-1.2-2.9-3.1c0-1.9,1.4-3.1,3-3.1c1.2,0,2.1,0.7,2.3,1.6c-0.1,0.3-0.3,0.5-0.6,0.5c-0.4,0-0.6-0.2-0.7-0.6l-0.3-1.1
				l0.6,0.5c-0.4-0.2-0.9-0.3-1.3-0.3C225.2,33.3,224.4,34.2,224.4,35.8z"/>
			<path class="st2" d="M229.7,35.9c0-2,1.5-3.1,3-3.1c1.5,0,3,1.1,3,3.1c0,2-1.5,3-3,3C231.2,38.9,229.7,37.9,229.7,35.9z
				 M234.5,35.9c0-1.6-0.7-2.5-1.8-2.5c-1.2,0-1.8,0.9-1.8,2.5c0,1.6,0.6,2.5,1.8,2.5C233.9,38.4,234.5,37.5,234.5,35.9z"/>
			<path class="st2" d="M236.8,33h6l0.1,2h-0.6l-0.5-2l0.7,0.5h-5.4l0.7-0.5l-0.5,2h-0.6L236.8,33z M238.2,38.3l1.5-0.2h0.3l1.5,0.2
				v0.4h-3.2V38.3z M239.2,36.2v-0.7c0-0.8,0-2,0-2.6h1.1c0,0.6,0,1.8,0,2.6v0.7c0,0.8,0,2,0,2.6h-1.1
				C239.2,38.2,239.2,37,239.2,36.2z"/>
			<path class="st2" d="M243.8,33h3v0.4l-1.3,0.2h-0.3l-1.4-0.2V33z M243.8,38.3l1.4-0.2h0.1v0.7h-1.5V38.3z M244.8,36.2v-0.7
				c0-0.8,0-2,0-2.6h1.1c0,0.6,0,1.8,0,2.6v0.6c0,0.8,0,2,0,2.6h-1.1C244.8,38.2,244.8,37,244.8,36.2z M245.2,38.3h1.2
				c1,0,1.5-0.5,1.5-1.3c0-0.9-0.5-1.2-1.6-1.2c-0.4,0-0.8,0-1.2,0.1v-0.6c0.5-0.1,1-0.1,1.5-0.1c1.7,0,2.4,0.8,2.4,1.8
				s-0.8,1.8-2.5,1.8h-1.4V38.3z M249.5,33h3v0.4l-1.3,0.2h-0.3l-1.4-0.2V33z M249.5,38.3l1.4-0.2h0.3l1.3,0.2v0.4h-3V38.3z
				 M250.4,36.2v-0.7c0-0.8,0-2,0-2.6h1.1c0,0.6,0,1.8,0,2.6v0.7c0,0.8,0,2,0,2.6h-1.1C250.4,38.2,250.4,37,250.4,36.2z"/>
		</g>
		<path class="st1" d="M252.9,39.1h-1.2c0.1-0.7,0.1-1.7,0.1-2.9c0-0.4,0-0.8,0.1-1.5h0c-0.1,0.3-0.7,1.1-1.8,2.3
			c-1,1.2-1.5,1.9-1.5,2.1h-0.9c0.1-0.8,0.1-1.8,0.1-2.9c0-1.2-0.1-2.2-0.2-3.1l1.3-0.2c-0.1,0.8-0.1,1.8-0.1,3c0,0.4,0,1,0,1.6h0.1
			c0.1-0.3,0.7-1,1.8-2.3c1-1.2,1.5-1.9,1.5-2.1l0.9-0.2c-0.1,0.9-0.1,2-0.1,3.3C252.8,37.2,252.8,38.2,252.9,39.1z M245.8,39.1
			h-1.2c0.1-0.7,0.1-1.7,0.1-2.9c0-0.4,0-0.8,0.1-1.5h-0.1c-0.1,0.3-0.7,1.1-1.8,2.3c-1,1.2-1.5,1.9-1.5,2.1h-0.9
			c0.1-0.8,0.1-1.8,0.1-2.9c0-1.2-0.1-2.2-0.2-3.1l1.3-0.2c-0.1,0.8-0.1,1.8-0.1,3c0,0.4,0,1,0,1.6h0.1c0.1-0.3,0.7-1,1.8-2.3
			c1-1.2,1.5-1.9,1.5-2.1l0.9-0.2c-0.1,0.9-0.1,2-0.1,3.3C245.7,37.2,245.8,38.2,245.8,39.1z M239.5,33.1l0,1
			c-0.8-0.1-1.8-0.1-3.1-0.1c0,0.8,0,1.6,0,2.3c0,1,0,2,0.1,2.9h-1.2c0.1-0.8,0.1-1.8,0.1-2.9c0-1.2,0-2.3-0.1-3.1L239.5,33.1
			L239.5,33.1z M232.8,36.1c0-0.7-0.2-1.3-0.5-1.7c-0.3-0.5-0.8-0.8-1.5-0.8c-0.6,0-1.1,0.2-1.4,0.7c-0.3,0.5-0.5,1-0.5,1.7
			c0,0.7,0.2,1.3,0.5,1.8c0.3,0.5,0.8,0.8,1.5,0.8c0.6,0,1.1-0.2,1.4-0.7C232.6,37.3,232.8,36.8,232.8,36.1z M233.9,35.9
			c0,1.1-0.3,1.9-1,2.5c-0.6,0.6-1.4,0.9-2.2,0.9c-0.8,0-1.5-0.3-2.1-0.8c-0.6-0.5-0.9-1.3-0.9-2.3c0-1.1,0.3-1.9,1-2.6
			c0.6-0.6,1.4-0.9,2.2-0.9c0.8,0,1.5,0.3,2.1,0.8C233.6,34.2,233.9,34.9,233.9,35.9z M226.2,39.1h-1.1c0.1-0.8,0.1-1.7,0.1-2.8
			c0-0.8,0-1.7-0.1-2.5h-1.3c-0.1,0.5-0.3,0.9-0.4,1.4c-0.2,0.4-0.3,0.9-0.5,1.3c-0.2,0.4-0.4,0.8-0.6,1.1c-0.2,0.3-0.4,0.6-0.6,0.8
			c-0.2,0.2-0.4,0.4-0.6,0.5c-0.2,0.1-0.4,0.2-0.6,0.2l-0.1-1c0.1,0,0.2-0.1,0.4-0.2c0.1-0.1,0.3-0.3,0.4-0.5
			c0.2-0.2,0.3-0.5,0.5-0.8c0.2-0.3,0.3-0.7,0.5-1c0.2-0.4,0.3-0.8,0.5-1.2c0.1-0.4,0.3-0.9,0.4-1.3h2.1l0.9-0.1
			c-0.1,0.9-0.1,2-0.1,3.3C226.1,37.2,226.2,38.2,226.2,39.1z M218.6,36.1c0-0.7-0.2-1.3-0.5-1.7c-0.3-0.5-0.8-0.8-1.5-0.8
			c-0.6,0-1.1,0.2-1.4,0.7c-0.3,0.5-0.5,1-0.5,1.7c0,0.7,0.2,1.3,0.5,1.8c0.3,0.5,0.8,0.8,1.5,0.8c0.6,0,1.1-0.2,1.4-0.7
			C218.5,37.3,218.6,36.8,218.6,36.1z M219.8,35.9c0,1.1-0.3,1.9-1,2.5c-0.6,0.6-1.4,0.9-2.2,0.9c-0.8,0-1.5-0.3-2.1-0.8
			c-0.6-0.5-0.9-1.3-0.9-2.3c0-1.1,0.3-1.9,1-2.6s1.4-0.9,2.2-0.9c0.8,0,1.5,0.3,2.1,0.8C219.5,34.2,219.8,34.9,219.8,35.9z
			 M212.7,33.1l0,1c-0.7-0.1-1.4-0.1-2.1-0.1c0,0.6,0,1.3,0,2.3c0,1,0,2,0.1,2.9h-1.2c0.1-0.8,0.1-1.8,0.1-2.9c0-0.9,0-1.7-0.1-2.3
			c-0.7,0-1.4,0-2.1,0.1l0-1H212.7z M205.3,35.4c0-1.2-0.5-1.8-1.5-1.8s-1.7,0.6-1.9,1.9L205.3,35.4z M206.4,35.4c0,0.2,0,0.4,0,0.7
			l-4.5,0.1c0.1,0.6,0.3,1.1,0.7,1.6c0.4,0.4,1,0.6,1.8,0.6c0.6,0,1.3-0.1,1.9-0.2l-0.1,0.9c-0.4,0.2-1,0.2-1.9,0.2
			c-1.1,0-2-0.3-2.6-0.9c-0.6-0.6-0.9-1.3-0.9-2.2c0-0.9,0.3-1.7,0.8-2.4c0.5-0.7,1.3-1,2.2-1c0.8,0,1.5,0.2,1.9,0.7
			C206.2,34,206.4,34.6,206.4,35.4z M199.3,39.1h-1.1c0-0.8,0-1.8,0-3s0-1.9,0-2.1h-0.1c-0.1,0.3-0.4,0.9-0.8,1.8
			c-1,1.9-1.4,3-1.4,3.3h-0.9c0-0.4-0.4-1.4-1.2-3.2c-0.2-0.4-0.4-1-0.7-1.9h-0.1c0,0.3,0,1.1-0.1,2.4c-0.1,1.4-0.1,2.2-0.1,2.6h-1
			c0-0.1,0.1-1,0.3-2.7c0.2-1.7,0.3-2.8,0.3-3.3h1.6c0,0.5,0.3,1.4,0.8,2.7c0.6,1.3,0.8,2,0.8,2.2h0.1c0-0.2,0.3-0.9,0.9-2.2
			c0.6-1.3,0.9-2.2,0.9-2.7h1.5c0,0.5,0,1.6,0.1,3.3C199.3,38,199.3,38.9,199.3,39.1z M190.7,38.1l-0.1,0.8
			c-0.4,0.2-0.8,0.3-1.4,0.3c-1.1,0-2-0.3-2.6-0.9c-0.6-0.6-0.9-1.3-0.9-2.2c0-0.9,0.3-1.7,0.9-2.3c0.6-0.7,1.5-1,2.5-1
			c0.5,0,0.9,0.1,1.3,0.2l-0.2,1c-0.4-0.2-0.9-0.2-1.4-0.2c-0.6,0-1.1,0.2-1.5,0.6c-0.4,0.4-0.5,1-0.5,1.6c0,0.7,0.2,1.3,0.6,1.7
			c0.4,0.5,1,0.7,1.9,0.7C189.6,38.4,190.1,38.3,190.7,38.1z M183.3,36.1c0-0.7-0.2-1.3-0.5-1.7c-0.4-0.5-0.8-0.8-1.5-0.8
			c-0.6,0-1.1,0.2-1.4,0.7c-0.3,0.5-0.5,1-0.5,1.7s0.2,1.3,0.5,1.8c0.3,0.5,0.8,0.8,1.5,0.8s1.1-0.2,1.4-0.7
			C183.1,37.3,183.3,36.8,183.3,36.1z M184.4,35.9c0,1.1-0.3,1.9-1,2.5c-0.6,0.6-1.4,0.9-2.2,0.9c-0.8,0-1.5-0.3-2.1-0.8
			c-0.6-0.5-0.9-1.3-0.9-2.3c0-1.1,0.3-1.9,1-2.6s1.4-0.9,2.2-0.9c0.8,0,1.5,0.3,2.1,0.8C184.1,34.2,184.4,34.9,184.4,35.9z
			 M177.2,39.1H176c0-0.1-0.1-0.2-0.2-0.3c-0.3-0.9-0.6-1.5-0.9-1.8c-0.3-0.4-0.7-0.5-1.3-0.5c-0.2,0-0.4,0-0.7,0c0,1,0,1.9,0.1,2.7
			h-1.2c0.1-0.8,0.1-1.8,0.1-2.9c0-1.2-0.1-2.2-0.2-3.1L173,33c-0.1,0.8-0.1,1.7-0.1,2.7c0.3,0,0.5,0,0.7,0c1,0,1.6-0.8,2-2.3
			c0-0.1,0.1-0.2,0.1-0.3h1.1c-0.1,0.1-0.1,0.3-0.2,0.5c-0.5,1.3-1,2.1-1.7,2.3V36c0.4,0.1,0.8,0.4,1,0.7c0.3,0.4,0.5,0.9,0.8,1.7
			C177,38.6,177.1,38.9,177.2,39.1z M166.8,30.4c0,0.5-0.1,0.9-0.4,1.3c-0.3,0.4-0.8,0.6-1.5,0.6c-0.8,0-1.3-0.2-1.6-0.6
			c-0.3-0.4-0.5-0.8-0.5-1.3l0.9-0.1c0,0.8,0.4,1.3,1.1,1.3c0.4,0,0.7-0.1,0.9-0.3c0.2-0.2,0.2-0.5,0.2-0.9L166.8,30.4z M167.3,39.1
			h-1.2c0.1-0.7,0.1-1.7,0.1-2.9c0-0.4,0-0.8,0.1-1.5h-0.1c-0.1,0.3-0.7,1.1-1.8,2.3c-1,1.2-1.5,1.9-1.5,2.1H162
			c0.1-0.8,0.1-1.8,0.1-2.9c0-1.2-0.1-2.2-0.2-3.1l1.3-0.2c-0.1,0.8-0.1,1.8-0.1,3c0,0.4,0,1,0,1.6h0.1c0.1-0.3,0.7-1,1.8-2.3
			c1-1.2,1.5-1.9,1.5-2.1l0.9-0.2c-0.1,0.9-0.1,2-0.1,3.3C167.2,37.2,167.3,38.2,167.3,39.1z M159.4,36.1c0-0.7-0.2-1.3-0.5-1.7
			c-0.3-0.5-0.8-0.8-1.5-0.8c-0.6,0-1.1,0.2-1.4,0.7c-0.3,0.5-0.5,1-0.5,1.7c0,0.7,0.2,1.3,0.5,1.8c0.3,0.5,0.8,0.8,1.5,0.8
			s1.1-0.2,1.4-0.7C159.2,37.3,159.4,36.8,159.4,36.1z M160.5,35.9c0,1.1-0.3,1.9-1,2.5c-0.6,0.6-1.4,0.9-2.2,0.9
			c-0.8,0-1.5-0.3-2.1-0.8c-0.6-0.5-0.9-1.3-0.9-2.3c0-1.1,0.3-1.9,1-2.6c0.6-0.6,1.4-0.9,2.2-0.9c0.8,0,1.5,0.3,2.1,0.8
			C160.2,34.2,160.5,34.9,160.5,35.9z M152.8,39.1h-1.2c0.1-0.8,0.1-1.7,0.1-2.8h-3.1c0,1,0,1.9,0.1,2.8h-1.2
			c0.1-0.8,0.1-1.8,0.1-2.9c0-1.2-0.1-2.2-0.2-3.1l1.3-0.2c0,0.3-0.1,1.1-0.1,2.5h3.1c0-1-0.1-1.7-0.2-2.4l1.3-0.2
			c-0.1,0.9-0.1,2-0.1,3.3C152.7,37.2,152.8,38.2,152.8,39.1z M145.1,36.3c0-0.7-0.2-1.2-0.5-1.6c-0.3-0.4-0.8-0.7-1.5-0.7
			c-0.9,0-1.6,0.3-2.1,0.9c0,1.3,0.2,2.2,0.5,2.8s0.8,0.8,1.5,0.8c0.6,0,1.1-0.2,1.5-0.7C144.9,37.4,145.1,36.9,145.1,36.3z
			 M146.2,36c0,1.1-0.3,1.9-1,2.5c-0.6,0.6-1.4,0.8-2.3,0.8c-1.2,0-2-0.4-2.4-1.3c-0.3-0.7-0.5-1.7-0.5-3.1c0-1.6,0.4-2.7,1.1-3.5
			c0.6-0.6,1.5-0.9,2.7-1.1c0.7-0.1,1.4-0.2,2.2-0.3l-0.1,1c-0.4,0-1.1,0.1-2.3,0.2c-0.9,0.1-1.5,0.3-1.9,0.6
			c-0.5,0.4-0.7,1.1-0.7,2.2h0.1c0.5-0.6,1.3-0.9,2.2-0.9c0.8,0,1.5,0.2,2.1,0.7C146,34.4,146.2,35.1,146.2,36z M137.5,35.4
			c0-1.2-0.5-1.8-1.5-1.8s-1.7,0.6-1.9,1.9L137.5,35.4z M138.6,35.4c0,0.2,0,0.4,0,0.7l-4.5,0.1c0.1,0.6,0.3,1.1,0.7,1.6
			c0.4,0.4,1,0.6,1.8,0.6c0.6,0,1.3-0.1,1.9-0.2l-0.1,0.9c-0.4,0.2-1,0.2-1.9,0.2c-1.1,0-2-0.3-2.6-0.9c-0.6-0.6-0.9-1.3-0.9-2.2
			c0-0.9,0.3-1.7,0.8-2.4c0.5-0.7,1.3-1,2.2-1c0.8,0,1.5,0.2,1.9,0.7C138.4,34,138.6,34.6,138.6,35.4z M131.6,39.1h-1.2
			c0.1-0.8,0.1-1.7,0.1-2.8c-0.5,0.3-1.1,0.4-1.8,0.4c-0.7,0-1.3-0.2-1.6-0.5s-0.5-1-0.5-2.1c0-0.2,0-0.6-0.1-1.1l1.2-0.2
			c0,0.4-0.1,0.7-0.1,1c0,0.8,0.1,1.3,0.3,1.6c0.2,0.3,0.6,0.4,1.1,0.4c0.6,0,1.2-0.1,1.5-0.3c0-1-0.1-1.8-0.2-2.5l1.3-0.2
			c-0.1,0.9-0.1,2-0.1,3.3C131.5,37.2,131.5,38.2,131.6,39.1z M124.2,37.9c0-0.7,0-1.2,0-1.7c-0.8,0-1.4,0.1-1.9,0.2
			c-0.7,0.2-1.1,0.6-1.1,1.2s0.4,0.9,1.3,0.9C123.2,38.4,123.8,38.2,124.2,37.9z M125.4,39.1l-1,0c-0.1-0.2-0.1-0.4-0.1-0.6h-0.1
			c-0.5,0.5-1.3,0.7-2.2,0.7c-0.5,0-0.9-0.1-1.3-0.4c-0.4-0.3-0.5-0.7-0.5-1.2c0-0.7,0.3-1.2,0.8-1.6c0.6-0.4,1.6-0.6,3.1-0.6
			c0-0.1,0-0.2,0-0.4c0-0.5-0.1-0.9-0.4-1c-0.3-0.2-0.7-0.3-1.3-0.3c-0.7,0-1.3,0.1-2,0.2l0.1-0.9c0.6-0.2,1.4-0.3,2.2-0.3
			c0.8,0,1.4,0.2,1.8,0.5s0.6,0.8,0.6,1.6c0,0.2,0,0.6,0,1.1c0,0.5,0,0.9,0,1C125.2,37.8,125.2,38.5,125.4,39.1z M117.8,36
			c0-0.6-0.2-1.1-0.5-1.6c-0.3-0.5-0.8-0.7-1.4-0.7c-0.8,0-1.3,0.2-1.7,0.7c0.1,1.4,0.1,2.6,0.1,3.7c0.4,0.3,0.8,0.4,1.4,0.4
			c0.7,0,1.3-0.2,1.6-0.7C117.6,37.3,117.8,36.7,117.8,36z M119,35.8c0,0.9-0.3,1.7-0.8,2.4c-0.5,0.7-1.3,1-2.2,1
			c-0.8,0-1.3-0.1-1.6-0.4h-0.1c0,1.2,0,2.2,0,3.1h-1.2c0.1-1.1,0.1-2.5,0.1-4.2c0-2-0.1-3.6-0.3-4.7l1.2-0.2l0.1,0.6h0.1
			c0.4-0.5,1.1-0.7,2-0.7c0.8,0,1.5,0.3,2,0.9C118.7,34.3,119,35,119,35.8z M110.2,34.7c0-0.6-0.5-0.9-1.3-0.9c-0.4,0-0.9,0-1.5,0.1
			c0,0.6,0.1,1.2,0.1,1.8c0.5,0,1,0,1.4,0c0.4,0,0.8-0.1,1-0.3C110.1,35.2,110.2,35,110.2,34.7z M110.4,37.4c0-0.4-0.2-0.7-0.6-0.9
			c-0.3-0.1-0.6-0.1-1.2-0.1c-0.4,0-0.8,0-1.2,0.1c0,0.8,0,1.4,0,1.9c0.4,0.1,0.9,0.1,1.4,0.1C109.9,38.3,110.4,38,110.4,37.4z
			 M111.5,37.3c0,0.6-0.3,1-0.7,1.4c-0.5,0.3-1.2,0.5-2.1,0.5c-0.5,0-1.2,0-2.2,0c0.1-0.6,0.1-1.6,0.1-2.9c0-1.3-0.1-2.3-0.2-3.1
			h0.7c0.6-0.1,1.3-0.1,2-0.1c1.5,0,2.3,0.5,2.3,1.4c0,0.7-0.3,1.1-1,1.4v0.1C111.1,36,111.5,36.5,111.5,37.3z M100.8,36
			c0-0.6-0.2-1.1-0.5-1.6c-0.3-0.4-0.8-0.7-1.4-0.7c-0.8,0-1.3,0.2-1.7,0.7c0.1,1.4,0.1,2.6,0.1,3.7c0.4,0.3,0.8,0.4,1.4,0.4
			c0.7,0,1.3-0.2,1.6-0.7C100.6,37.3,100.8,36.7,100.8,36z M102,35.8c0,0.9-0.3,1.7-0.8,2.4c-0.5,0.7-1.3,1-2.2,1
			c-0.8,0-1.3-0.1-1.6-0.4h-0.1c0,1.2,0,2.2,0,3.1h-1.2c0.1-1.1,0.1-2.5,0.1-4.2c0-2-0.1-3.6-0.3-4.7l1.2-0.2l0.1,0.6h0.1
			c0.4-0.5,1.1-0.7,2-0.7c0.8,0,1.5,0.3,2,0.9C101.7,34.3,102,35,102,35.8z M94.9,33.1l0,1c-0.7-0.1-1.4-0.1-2.1-0.1
			c0,0.6,0,1.3,0,2.3c0,1,0,2,0.1,2.9h-1.2c0.1-0.8,0.1-1.8,0.1-2.9c0-0.9,0-1.7-0.1-2.3c-0.7,0-1.4,0-2.1,0.1l0-1H94.9z M88.5,39.1
			h-1.2c0.1-0.8,0.1-1.7,0.1-2.8h-3.1c0,1,0,1.9,0.1,2.8h-1.2c0.1-0.8,0.1-1.8,0.1-2.9c0-1.2-0.1-2.2-0.2-3.1l1.3-0.2
			c0,0.3-0.1,1.1-0.1,2.5h3.1c0-1-0.1-1.7-0.2-2.4l1.3-0.2c0,0.9,0,2,0,3.3C88.4,37.2,88.4,38.2,88.5,39.1z M80.7,35.4
			c0-1.2-0.5-1.8-1.5-1.8c-1,0-1.7,0.6-1.9,1.9L80.7,35.4z M81.7,35.4c0,0.2,0,0.4,0,0.7l-4.5,0.1c0.1,0.6,0.3,1.1,0.7,1.6
			c0.4,0.4,1,0.6,1.8,0.6c0.6,0,1.3-0.1,1.9-0.2L81.5,39c-0.4,0.2-1,0.2-1.9,0.2c-1.1,0-2-0.3-2.6-0.9c-0.6-0.6-0.9-1.3-0.9-2.2
			c0-0.9,0.3-1.7,0.8-2.4c0.5-0.7,1.3-1,2.2-1c0.8,0,1.5,0.2,1.9,0.7C81.5,34,81.7,34.6,81.7,35.4z M75.2,38.3
			c0,0.2-0.1,0.7-0.1,1.6c-0.1,0.8-0.1,1.4-0.1,1.9h-0.7c0-0.5,0-1.4,0-2.6h-4.9c0.1-0.8,0.1-1.8,0.1-2.9c0-1.2-0.1-2.2-0.2-3.1
			l1.3-0.2c-0.1,0.9-0.1,2-0.1,3.3c0,0.5,0,1.2,0,2.1h2.8c0-0.8,0-1.6,0-2.1c0-1.2-0.1-2.2-0.2-3.1l1.3-0.2c-0.1,0.9-0.1,2-0.1,3.3
			c0,0.7,0,1.4,0.1,2.1H75.2z"/>
	</g>
</g>
<g>
	<defs>
		<rect id="SVGID_3_" width="50" height="50"/>
	</defs>
	<clipPath id="SVGID_4_">
		<use xlink:href="#SVGID_3_"  style="overflow:visible;"/>
	</clipPath>
	<g class="st3">
		<path class="st2" d="M18.4,18.4c-0.8-0.5-1.6-0.7-2.5,0c-0.3-0.5-0.1-1.4,0.5-2c0.6-0.6,1.5-0.8,2-0.5
			C17.6,16.8,17.9,17.6,18.4,18.4z"/>
		<path class="st2" d="M25,6.6c0.2,0.3,0.4,0.7,0.5,1c0.2,0.3,0.2,0.5,0.2,0.8s0,0.6-0.2,0.9C25.4,9.6,25.2,9.8,25,10
			c-0.2-0.2-0.5-0.4-0.6-0.7c-0.2-0.3-0.2-0.7-0.2-0.9c0-0.2,0.1-0.5,0.2-0.8C24.6,7.3,24.7,6.9,25,6.6z M27.6,0
			c-1.1-0.1-2.3,0.7-2.6,1.8C25,2.2,25,2.6,25.1,3.1c0.4,1.1,1.5,2,2,3.1c0.4,0.8,0.7,2.2,0.7,3.2c0,0.4-0.1,0.8-0.2,1.1
			c-0.1,0.3-0.2,0.6-0.4,0.8c-0.2,0.2-0.5,0.3-0.8,0.3c-0.3,0-0.5,0-0.5,0c0,0,0-0.2,0-0.4c0.1-0.2,0.4-0.6,0.6-0.9
			c0.2-0.5,0.4-1.3,0.3-1.8c-0.1-0.3-0.2-0.7-0.5-1.1c-0.2-0.4-0.6-1-0.8-1.4c-0.2-0.4-0.4-0.7-0.5-0.9C25,4.8,25,4.5,24.9,4.5
			c0,0.1-0.1,0.3-0.2,0.6c-0.1,0.3-0.2,0.5-0.5,0.9c-0.2,0.4-0.5,0.9-0.8,1.4c-0.2,0.4-0.4,0.8-0.5,1.1c-0.1,0.5,0,1.4,0.3,1.8
			c0.2,0.3,0.5,0.7,0.6,0.9c0.1,0.2,0.1,0.4,0,0.4c0,0-0.3,0-0.5,0c-0.3,0-0.6-0.1-0.8-0.3c-0.2-0.2-0.4-0.5-0.4-0.8
			C22.1,10.1,22,9.7,22,9.3c0-0.9,0.3-2.4,0.7-3.2c0.5-1,1.6-1.9,2-3.1c0.2-0.5,0.2-0.9,0.1-1.2c-0.3-1.2-1.5-2-2.6-1.8
			c0.8,0.4,1.7,1.2,1.4,1.9c-0.1,0.3-0.4,0.7-0.7,1.1c-0.3,0.4-1.8,1.4-2,1.7c-0.2,0.3-0.4,0.6-0.4,1c0,0.4,0.1,0.9,0.1,1
			c-0.2-0.1-0.2-0.1-0.5-0.3c-0.3-0.2-0.6-0.3-1-0.3c-0.4,0-0.8,0.1-1.1,0.3c-0.4,0.2-0.7,0.4-0.9,0.7c-0.2,0.3-0.3,0.6-0.3,0.7
			c0,0.1,0.1-0.1,0.4-0.3c0.2-0.1,0.7-0.2,1.1-0.2c0.4,0,0.9,0.4,1.2,0.7l0,0.1c0.6,0.8,0.8,2.7,1.2,3.7c0.2,0.6,0.7,1,1.2,1.3
			c0.4,0.2,0.9,0.4,1.4,0.4c0,0.1-0.3,0.3-0.4,0.3c-0.8,0.3-1.8,0.2-2.5-0.2c-1.2-0.6-2.5-2.6-2-3.9c0.1-0.3,0.4-0.5,0.8-0.5
			c-0.4-0.2-1,0-1.2,0.3c-0.2,0.3-0.2,0.7-0.2,0.9c-0.2-0.2-0.7-0.3-0.9-0.3c-0.3-0.1-0.8,0-1.1,0.1c-0.3,0.1-0.6,0.2-0.9,0.4
			c-0.3,0.2-0.6,0.5-0.9,0.8c-0.2,0.3-0.4,0.5-0.5,0.8c-0.1,0.3-0.1,0.3-0.1,0.5c0,0.1-0.1,0.6,0.1,0.8c0-0.5,0.3-1.2,0.9-1.2
			c-0.1,0.1-0.1,0.3-0.2,0.5C14,14,15,15.1,16,15.6c-0.1-0.1-0.3-0.5-0.4-0.8c-0.1-0.3-0.1-0.4-0.1-0.7c0-0.3,0-0.5,0.1-0.8
			c0.2-0.7,1-0.9,1.7-0.7c0.2,0.1,0.5,0.3,0.6,0.4c0.4,0.8,0.4,1.2,1.3,1.8c0.1,0.1,0.3,0.2,0.8,0.4c-0.2,0.3-0.3,0.5-0.5,0.8
			c-0.2,0.5-0.2,1.3,0.2,1.7c0.2,0.2,0.7,0.6,1.2,0.7c-0.3-0.2-0.3-0.4-0.3-0.6c0-0.2,0-0.4,0-0.7c0-0.3,0.2-0.6,0.4-0.8
			c0.3-0.3,1.4-0.3,1.8-0.4c0.7-0.1,1.1-0.4,1.4-0.8c0.2-0.2,0.4-0.5,0.6-1.1c0.1-0.3,0.1-0.6,0.1-1.1c0-0.3,0-0.7,0-1.1
			c0,0.4,0,0.8,0,1.1c0,0.5,0.1,0.8,0.1,1.1c0.1,0.6,0.4,0.9,0.6,1.1c0.4,0.4,0.8,0.6,1.4,0.8c0.4,0.1,1.6,0.2,1.8,0.4
			c0.2,0.2,0.3,0.5,0.4,0.8c0,0.3,0,0.5,0,0.7c0,0.2-0.1,0.4-0.3,0.6c0.5,0,1-0.4,1.2-0.7c0.3-0.4,0.4-1.2,0.2-1.7
			c-0.1-0.3-0.2-0.4-0.5-0.8c0.5-0.2,0.7-0.3,0.8-0.4c0.8-0.6,0.8-1,1.3-1.8c0.1-0.2,0.3-0.4,0.6-0.4c0.6-0.2,1.4,0,1.7,0.7
			c0.1,0.3,0.1,0.5,0.1,0.8c0,0.3,0,0.5-0.1,0.7c-0.1,0.3-0.2,0.7-0.4,0.8c1.1-0.5,2.1-1.6,1.7-2.8c-0.1-0.2-0.1-0.4-0.2-0.5
			c0.6,0,0.9,0.6,0.9,1.2c0.2-0.2,0.1-0.7,0.1-0.8c0-0.2,0-0.2-0.1-0.5c-0.1-0.3-0.2-0.5-0.5-0.8c-0.2-0.3-0.6-0.6-0.9-0.8
			c-0.3-0.2-0.6-0.3-0.9-0.4C33.7,10,33.2,10,32.9,10c-0.2,0-0.6,0.1-0.9,0.3c0-0.2,0-0.6-0.2-0.9S31,8.9,30.6,9.1
			c0.4,0,0.7,0.2,0.8,0.5c0.4,1.3-0.9,3.2-2,3.9c-0.7,0.4-1.8,0.4-2.5,0.2c-0.2-0.1-0.4-0.3-0.4-0.3c0.5,0,1-0.2,1.4-0.4
			c0.6-0.3,1-0.7,1.2-1.3c0.4-1,0.6-2.9,1.2-3.7l0-0.1c0.3-0.3,0.8-0.7,1.2-0.7c0.4,0,0.9,0.1,1.1,0.2c0.2,0.1,0.4,0.4,0.4,0.3
			c0-0.1-0.1-0.4-0.3-0.7c-0.2-0.3-0.5-0.5-0.9-0.7c-0.4-0.2-0.7-0.3-1.1-0.3c-0.4,0-0.7,0.2-1,0.3c-0.3,0.2-0.2,0.2-0.5,0.3
			c0-0.1,0.1-0.7,0.1-1c0-0.4-0.2-0.7-0.4-1c-0.2-0.3-1.7-1.3-2-1.7s-0.6-0.8-0.7-1.1C26,1.2,26.9,0.4,27.6,0z"/>
		<path class="st2" d="M43.4,24.9c-0.3,0.2-0.7,0.4-1,0.5c-0.3,0.2-0.5,0.2-0.8,0.2c-0.2,0-0.6,0-0.9-0.2c-0.3-0.2-0.5-0.4-0.7-0.6
			c0.2-0.2,0.4-0.5,0.7-0.6c0.3-0.2,0.7-0.2,0.9-0.2c0.2,0,0.5,0.1,0.8,0.2C42.7,24.5,43.1,24.7,43.4,24.9z M50,27.6
			c0.1-1.1-0.7-2.3-1.8-2.6c-0.4-0.1-0.8-0.1-1.2,0.1c-1.1,0.4-2,1.5-3.1,2c-0.8,0.4-2.2,0.7-3.2,0.7c-0.4,0-0.8-0.1-1.1-0.2
			c-0.3-0.1-0.6-0.2-0.8-0.5c-0.2-0.2-0.3-0.5-0.3-0.8c0-0.3,0-0.5,0-0.5c0,0,0.2,0,0.4,0c0.2,0.1,0.6,0.4,0.9,0.6
			c0.5,0.2,1.3,0.4,1.8,0.3c0.3-0.1,0.7-0.2,1.1-0.5c0.4-0.2,1-0.6,1.4-0.8c0.4-0.2,0.7-0.4,0.9-0.5c0.3-0.1,0.5-0.1,0.6-0.2
			c-0.1,0-0.3-0.1-0.6-0.2c-0.3-0.1-0.5-0.2-0.9-0.5c-0.4-0.2-0.9-0.5-1.4-0.8c-0.4-0.2-0.8-0.4-1.1-0.5c-0.5-0.1-1.4,0-1.8,0.3
			c-0.3,0.2-0.7,0.5-0.9,0.6c-0.2,0.1-0.4,0.1-0.4,0c0,0,0-0.3,0-0.5c0-0.3,0.1-0.6,0.3-0.8s0.5-0.4,0.8-0.5
			c0.3-0.1,0.7-0.2,1.1-0.2c0.9,0,2.4,0.3,3.2,0.7c1,0.5,1.9,1.6,3.1,2c0.5,0.2,0.8,0.2,1.2,0.1c1.2-0.3,2-1.5,1.8-2.6
			c-0.4,0.8-1.2,1.7-1.9,1.4c-0.3-0.1-0.7-0.5-1.1-0.7c-0.4-0.3-1.4-1.8-1.7-2c-0.3-0.2-0.6-0.4-1-0.4c-0.4,0-0.9,0.1-1,0.1
			c0.1-0.2,0.1-0.2,0.3-0.5c0.2-0.3,0.3-0.6,0.3-1c0-0.4-0.1-0.8-0.3-1.1c-0.2-0.4-0.4-0.7-0.7-0.9c-0.3-0.2-0.6-0.3-0.7-0.3
			c-0.1,0,0.1,0.1,0.3,0.4c0.1,0.2,0.2,0.7,0.2,1.1c0,0.4-0.4,0.9-0.7,1.2l-0.1,0c-0.8,0.6-2.6,0.8-3.7,1.2c-0.6,0.2-1,0.7-1.3,1.2
			c-0.2,0.4-0.4,0.9-0.4,1.4c-0.1,0-0.3-0.3-0.3-0.5c-0.3-0.8-0.2-1.8,0.2-2.5c0.6-1.2,2.6-2.5,3.9-2c0.3,0.1,0.5,0.4,0.5,0.8
			c0.2-0.4,0-1-0.3-1.2c-0.3-0.2-0.7-0.2-0.9-0.2c0.2-0.2,0.3-0.7,0.3-0.9c0.1-0.3,0-0.8-0.1-1.1c-0.1-0.3-0.2-0.6-0.4-0.9
			c-0.2-0.3-0.5-0.6-0.8-0.9c-0.3-0.2-0.5-0.4-0.8-0.5c-0.3-0.1-0.3-0.1-0.5-0.1c-0.1,0-0.6-0.1-0.8,0.1c0.5,0,1.2,0.3,1.2,0.9
			c-0.1-0.1-0.3-0.1-0.5-0.2C36,13.9,35,14.9,34.5,16c0.1-0.1,0.5-0.3,0.8-0.4c0.3-0.1,0.4-0.1,0.7-0.1c0.3,0,0.5,0,0.8,0.1
			c0.7,0.2,0.9,1,0.7,1.7c-0.1,0.2-0.3,0.5-0.4,0.6c-0.8,0.5-1.2,0.4-1.8,1.3c-0.1,0.1-0.2,0.3-0.4,0.8c-0.3-0.2-0.5-0.3-0.8-0.5
			c-0.5-0.2-1.3-0.2-1.7,0.2c-0.2,0.2-0.6,0.7-0.7,1.2c0.2-0.3,0.4-0.3,0.6-0.3c0.2,0,0.4,0,0.7,0c0.3,0,0.6,0.2,0.8,0.4
			c0.3,0.3,0.3,1.4,0.4,1.8c0.1,0.7,0.4,1.1,0.8,1.4c0.2,0.2,0.5,0.4,1.1,0.6c0.3,0.1,0.6,0.1,1.1,0.1c0.3,0,0.7,0,1.1,0
			c-0.4,0-0.8,0-1.1,0c-0.5,0-0.8,0.1-1.1,0.1c-0.6,0.1-0.9,0.4-1.1,0.6c-0.4,0.4-0.6,0.8-0.8,1.4c-0.1,0.4-0.2,1.6-0.4,1.8
			c-0.2,0.2-0.5,0.3-0.8,0.4c-0.3,0-0.5,0-0.7,0c-0.2,0-0.4-0.1-0.6-0.3c0,0.5,0.4,1,0.7,1.2c0.4,0.3,1.2,0.4,1.7,0.2
			c0.3-0.1,0.4-0.2,0.8-0.5c0.2,0.5,0.3,0.7,0.4,0.8c0.6,0.8,1,0.8,1.8,1.3c0.2,0.1,0.4,0.3,0.4,0.6c0.2,0.6,0,1.4-0.7,1.7
			c-0.3,0.1-0.5,0.1-0.8,0.1c-0.3,0-0.5,0-0.7-0.1c-0.3-0.1-0.7-0.2-0.8-0.4c0.5,1.1,1.6,2.1,2.8,1.7c0.2-0.1,0.4-0.1,0.5-0.2
			c0,0.6-0.6,0.9-1.2,0.9c0.2,0.2,0.7,0.1,0.8,0.1c0.2,0,0.2,0,0.5-0.1c0.3-0.1,0.5-0.2,0.8-0.5c0.3-0.2,0.6-0.6,0.8-0.9
			c0.2-0.3,0.3-0.6,0.4-0.9c0.1-0.3,0.1-0.8,0.1-1.1c0-0.2-0.1-0.6-0.3-0.9c0.2,0,0.6,0,0.9-0.2c0.3-0.2,0.5-0.8,0.3-1.2
			c0,0.4-0.2,0.7-0.5,0.8c-1.3,0.4-3.2-0.9-3.9-2c-0.4-0.7-0.4-1.8-0.2-2.5c0.1-0.2,0.3-0.4,0.3-0.5c0,0.5,0.2,1,0.4,1.4
			c0.3,0.6,0.7,1,1.3,1.2c1,0.4,2.9,0.6,3.7,1.2l0.1,0c0.3,0.3,0.7,0.8,0.7,1.2c0,0.4-0.1,0.9-0.2,1.1c-0.1,0.2-0.4,0.4-0.3,0.4
			c0.1,0,0.4-0.1,0.7-0.3c0.3-0.2,0.5-0.5,0.7-0.9c0.2-0.4,0.3-0.7,0.3-1.1c0-0.4-0.2-0.7-0.3-1c-0.2-0.3-0.2-0.2-0.3-0.5
			c0.1,0,0.7,0.1,1,0.1c0.4,0,0.7-0.2,1-0.4s1.3-1.7,1.7-2c0.4-0.3,0.8-0.6,1.1-0.7C48.8,25.9,49.6,26.9,50,27.6z"/>
		<path class="st2" d="M24.7,43.4c-0.2-0.3-0.4-0.7-0.5-1C24,42.1,24,41.9,24,41.6c0-0.2,0-0.6,0.2-0.9c0.2-0.3,0.4-0.5,0.6-0.7
			c0.2,0.2,0.5,0.4,0.6,0.7c0.2,0.3,0.2,0.7,0.2,0.9c0,0.2-0.1,0.5-0.2,0.8C25.1,42.7,24.9,43.1,24.7,43.4z M22.1,50
			c1.1,0.1,2.3-0.7,2.6-1.8c0.1-0.4,0.1-0.8-0.1-1.2c-0.4-1.1-1.5-2-2-3.1c-0.4-0.8-0.7-2.2-0.7-3.2c0-0.4,0.1-0.8,0.2-1.1
			c0.1-0.3,0.2-0.6,0.4-0.8c0.2-0.2,0.5-0.3,0.8-0.3c0.3,0,0.5,0,0.5,0c0,0,0,0.2,0,0.4c-0.1,0.2-0.4,0.6-0.6,0.9
			c-0.2,0.5-0.4,1.3-0.3,1.8c0.1,0.3,0.2,0.7,0.5,1.1c0.2,0.4,0.6,1,0.8,1.4c0.2,0.4,0.4,0.7,0.5,0.9c0.1,0.3,0.1,0.5,0.2,0.6
			c0-0.1,0.1-0.3,0.2-0.6c0.1-0.3,0.2-0.5,0.5-0.9c0.2-0.4,0.5-0.9,0.8-1.4c0.2-0.4,0.4-0.8,0.5-1.1c0.1-0.5,0-1.4-0.3-1.8
			c-0.2-0.3-0.5-0.7-0.6-0.9c-0.1-0.2-0.1-0.4,0-0.4c0,0,0.3,0,0.5,0c0.3,0,0.6,0.1,0.8,0.3c0.2,0.2,0.4,0.5,0.4,0.8
			c0.1,0.3,0.2,0.7,0.2,1.1c0,0.9-0.3,2.4-0.7,3.2c-0.5,1-1.6,1.9-2,3.1c-0.2,0.5-0.2,0.9-0.1,1.2c0.3,1.2,1.5,2,2.6,1.8
			c-0.8-0.4-1.7-1.2-1.4-1.9c0.1-0.3,0.4-0.7,0.7-1.1c0.3-0.4,1.8-1.4,2-1.7c0.2-0.3,0.4-0.6,0.4-1c0-0.4-0.1-0.9-0.1-1
			c0.2,0.1,0.2,0.1,0.5,0.3c0.3,0.2,0.6,0.3,1,0.3c0.4,0,0.8-0.1,1.1-0.3c0.4-0.2,0.7-0.4,0.9-0.7c0.2-0.3,0.3-0.6,0.3-0.7
			c0-0.1-0.1,0.1-0.4,0.3c-0.2,0.1-0.7,0.2-1.1,0.2c-0.4,0-0.9-0.4-1.2-0.7l0-0.1c-0.6-0.8-0.8-2.7-1.2-3.7c-0.2-0.6-0.7-1-1.2-1.3
			c-0.4-0.2-0.9-0.4-1.4-0.4c0-0.1,0.3-0.3,0.4-0.3c0.8-0.3,1.8-0.2,2.5,0.2c1.2,0.6,2.5,2.6,2,3.9c-0.1,0.3-0.4,0.5-0.8,0.5
			c0.4,0.2,1,0,1.2-0.3c0.2-0.3,0.2-0.7,0.2-0.9c0.2,0.2,0.7,0.3,0.9,0.3c0.3,0.1,0.8,0,1.1-0.1c0.3-0.1,0.6-0.2,0.9-0.4
			c0.3-0.2,0.6-0.5,0.9-0.8c0.2-0.3,0.4-0.5,0.5-0.8c0.1-0.3,0.1-0.3,0.1-0.5c0-0.1,0.1-0.6-0.1-0.8c0,0.5-0.3,1.2-0.9,1.2
			c0.1-0.1,0.1-0.3,0.2-0.5c0.3-1.3-0.6-2.4-1.7-2.8c0.1,0.1,0.3,0.5,0.4,0.8c0.1,0.3,0.1,0.5,0.1,0.7c0,0.3,0,0.5-0.1,0.8
			c-0.2,0.7-1,0.9-1.7,0.7c-0.2-0.1-0.5-0.3-0.6-0.5c-0.4-0.8-0.4-1.2-1.3-1.8c-0.1-0.1-0.3-0.2-0.8-0.4c0.2-0.3,0.3-0.5,0.5-0.8
			c0.2-0.5,0.2-1.3-0.2-1.7c-0.2-0.2-0.7-0.6-1.2-0.7c0.3,0.2,0.3,0.4,0.3,0.6c0,0.2,0,0.4,0,0.7c0,0.3-0.2,0.6-0.4,0.8
			c-0.3,0.3-1.4,0.3-1.8,0.4c-0.7,0.1-1.1,0.4-1.4,0.8c-0.2,0.2-0.4,0.5-0.6,1.1c-0.1,0.3-0.1,0.6-0.1,1.1c0,0.3,0,0.7,0,1.1
			c0-0.4,0-0.8,0-1.1c0-0.5-0.1-0.8-0.1-1.1c-0.1-0.6-0.4-0.9-0.6-1.1c-0.4-0.4-0.8-0.6-1.4-0.8c-0.4-0.1-1.6-0.2-1.8-0.4
			c-0.2-0.2-0.3-0.5-0.4-0.8c0-0.3,0-0.5,0-0.7c0-0.2,0.1-0.4,0.3-0.6c-0.5,0-1,0.4-1.2,0.7c-0.3,0.4-0.4,1.2-0.2,1.7
			c0.1,0.3,0.2,0.4,0.5,0.8c-0.5,0.2-0.7,0.3-0.8,0.4c-0.8,0.6-0.8,1-1.3,1.8c-0.1,0.2-0.3,0.4-0.6,0.5c-0.6,0.2-1.4,0-1.7-0.7
			c-0.1-0.3-0.1-0.5-0.1-0.8c0-0.3,0-0.5,0.1-0.7c0.1-0.3,0.2-0.7,0.4-0.8c-1.1,0.5-2.1,1.6-1.7,2.8c0.1,0.2,0.1,0.4,0.2,0.5
			c-0.6,0-0.9-0.6-0.9-1.2c-0.2,0.2-0.1,0.7-0.1,0.8c0,0.2,0,0.2,0.1,0.5c0.1,0.3,0.2,0.5,0.5,0.8c0.2,0.3,0.6,0.6,0.9,0.8
			c0.3,0.2,0.6,0.3,0.9,0.4C16,40,16.5,40,16.8,40c0.2,0,0.6-0.1,0.9-0.3c0,0.2,0,0.6,0.2,0.9c0.2,0.3,0.8,0.5,1.2,0.3
			c-0.4,0-0.7-0.2-0.8-0.5c-0.4-1.3,0.9-3.2,2-3.9c0.7-0.4,1.8-0.5,2.5-0.2c0.2,0.1,0.4,0.3,0.4,0.3c-0.5,0-1,0.2-1.4,0.4
			c-0.6,0.3-1,0.7-1.2,1.3c-0.4,1-0.6,2.9-1.2,3.7l0,0.1c-0.3,0.3-0.8,0.7-1.2,0.7c-0.4,0-0.9-0.1-1.1-0.2c-0.2-0.1-0.4-0.4-0.4-0.3
			c0,0.1,0.1,0.4,0.3,0.7c0.2,0.3,0.5,0.5,0.9,0.7c0.4,0.2,0.7,0.3,1.1,0.3c0.4,0,0.7-0.2,1-0.3c0.3-0.2,0.2-0.2,0.5-0.3
			c0,0.1-0.1,0.7-0.1,1c0,0.4,0.2,0.7,0.4,1c0.2,0.3,1.7,1.3,2,1.7c0.3,0.4,0.6,0.8,0.7,1.1C23.7,48.8,22.8,49.5,22.1,50z"/>
		<path class="st2" d="M6.6,24.9c0.3-0.2,0.7-0.4,1-0.5c0.3-0.2,0.5-0.2,0.8-0.2c0.2,0,0.6,0,0.9,0.2c0.3,0.2,0.5,0.4,0.7,0.6
			c-0.2,0.2-0.4,0.5-0.7,0.6c-0.3,0.2-0.7,0.2-0.9,0.2c-0.2,0-0.5-0.1-0.8-0.2C7.3,25.3,6.9,25.1,6.6,24.9z M0,22.2
			c-0.1,1.1,0.7,2.3,1.8,2.6c0.4,0.1,0.8,0.1,1.2-0.1c1.1-0.4,2-1.5,3.1-2C7,22.3,8.4,22,9.3,22c0.4,0,0.8,0.1,1.1,0.2
			c0.3,0.1,0.6,0.2,0.8,0.4c0.2,0.2,0.3,0.5,0.3,0.8c0,0.3,0,0.5,0,0.5c0,0-0.2,0-0.4,0c-0.2-0.1-0.6-0.4-0.9-0.6
			C9.8,23.1,9,22.9,8.5,23c-0.3,0.1-0.7,0.2-1.1,0.5c-0.4,0.2-1,0.6-1.4,0.8c-0.4,0.2-0.7,0.4-0.9,0.5c-0.3,0.1-0.5,0.1-0.6,0.2
			C4.5,25,4.8,25,5,25.1c0.3,0.1,0.5,0.2,0.9,0.5c0.4,0.2,0.9,0.5,1.4,0.8c0.4,0.2,0.8,0.4,1.1,0.5c0.5,0.1,1.4,0,1.8-0.3
			c0.3-0.2,0.7-0.5,0.9-0.6c0.2-0.1,0.4-0.1,0.4,0c0,0,0,0.3,0,0.5c0,0.3-0.1,0.6-0.3,0.8c-0.2,0.2-0.5,0.4-0.8,0.4
			c-0.3,0.1-0.7,0.2-1.1,0.2c-0.9,0-2.4-0.3-3.2-0.7c-1-0.5-1.9-1.6-3.1-2C2.6,25,2.2,25,1.8,25.1c-1.2,0.3-2,1.5-1.8,2.6
			c0.4-0.8,1.2-1.7,1.9-1.4c0.3,0.1,0.7,0.5,1.1,0.7c0.4,0.3,1.4,1.8,1.7,2s0.6,0.4,1,0.4c0.4,0,0.9-0.1,1-0.1
			c-0.1,0.2-0.1,0.2-0.3,0.5c-0.2,0.3-0.3,0.6-0.3,1c0,0.4,0.1,0.8,0.3,1.1c0.2,0.4,0.4,0.7,0.7,0.9C7.3,32.9,7.6,33,7.7,33
			c0.1,0-0.1-0.1-0.3-0.4c-0.1-0.2-0.2-0.7-0.2-1.1c0-0.4,0.4-0.9,0.7-1.2l0.1,0c0.8-0.6,2.6-0.8,3.7-1.2c0.6-0.2,1-0.7,1.3-1.2
			c0.2-0.4,0.4-0.9,0.4-1.4c0.1,0,0.3,0.3,0.3,0.5c0.3,0.8,0.2,1.8-0.2,2.5c-0.6,1.2-2.6,2.5-3.9,2c-0.3-0.1-0.5-0.4-0.5-0.8
			c-0.2,0.4,0,1,0.3,1.2c0.3,0.2,0.7,0.2,0.9,0.2c-0.2,0.2-0.3,0.7-0.3,0.9c-0.1,0.3,0,0.8,0.1,1.1c0.1,0.3,0.2,0.6,0.4,0.9
			c0.2,0.3,0.5,0.6,0.8,0.9c0.3,0.2,0.5,0.4,0.8,0.5s0.3,0.1,0.5,0.1c0.1,0,0.6,0.1,0.8-0.1c-0.5,0-1.2-0.3-1.2-0.9
			c0.1,0.1,0.3,0.1,0.5,0.2c1.3,0.3,2.4-0.6,2.8-1.7c-0.1,0.1-0.5,0.3-0.8,0.4c-0.3,0.1-0.4,0.1-0.7,0.1c-0.3,0-0.5,0-0.8-0.1
			c-0.7-0.2-0.9-1-0.7-1.7c0.1-0.2,0.3-0.5,0.4-0.6c0.8-0.4,1.2-0.4,1.8-1.3c0.1-0.1,0.2-0.3,0.4-0.8c0.3,0.2,0.5,0.3,0.8,0.5
			c0.5,0.2,1.3,0.2,1.7-0.2c0.2-0.2,0.6-0.7,0.7-1.2c-0.2,0.3-0.4,0.3-0.6,0.3c-0.2,0-0.4,0-0.7,0c-0.3,0-0.6-0.2-0.8-0.4
			c-0.3-0.3-0.3-1.4-0.4-1.8c-0.1-0.7-0.4-1.1-0.8-1.4c-0.2-0.2-0.5-0.4-1.1-0.6C13.5,25,13.2,25,12.7,25c-0.3,0-0.7,0-1.1,0
			c0.4,0,0.8,0,1.1,0c0.5,0,0.8-0.1,1.1-0.1c0.6-0.1,0.9-0.4,1.1-0.6c0.4-0.4,0.6-0.8,0.8-1.4c0.1-0.4,0.2-1.6,0.4-1.8
			c0.2-0.2,0.5-0.3,0.8-0.4c0.3,0,0.5,0,0.7,0c0.2,0,0.4,0.1,0.6,0.3c0-0.5-0.4-1-0.7-1.2c-0.4-0.3-1.2-0.4-1.7-0.2
			c-0.3,0.1-0.4,0.2-0.8,0.5c-0.2-0.5-0.3-0.7-0.4-0.8c-0.6-0.8-1-0.8-1.8-1.3c-0.2-0.1-0.4-0.3-0.4-0.6c-0.2-0.6,0-1.4,0.7-1.7
			c0.3-0.1,0.5-0.1,0.8-0.1c0.3,0,0.5,0,0.7,0.1c0.3,0.1,0.7,0.2,0.8,0.4C15,15,14,14,12.7,14.3c-0.2,0.1-0.4,0.1-0.5,0.2
			c0-0.6,0.6-0.9,1.2-0.9c-0.2-0.2-0.7-0.1-0.8-0.1c-0.2,0-0.2,0-0.5,0.1c-0.3,0.1-0.5,0.2-0.8,0.5c-0.3,0.2-0.6,0.6-0.8,0.9
			c-0.2,0.3-0.3,0.6-0.4,0.9C10,16.2,10,16.7,10,17c0,0.2,0.1,0.6,0.3,0.9c-0.2,0-0.6,0-0.9,0.2s-0.5,0.8-0.3,1.2
			c0-0.4,0.2-0.7,0.5-0.8c1.3-0.4,3.2,0.9,3.9,2c0.4,0.7,0.4,1.8,0.2,2.5c-0.1,0.2-0.3,0.4-0.3,0.4c0-0.5-0.2-1-0.4-1.4
			c-0.3-0.6-0.7-1-1.3-1.2c-1-0.4-2.9-0.6-3.7-1.2l-0.1,0c-0.3-0.3-0.7-0.8-0.7-1.2c0-0.4,0.1-0.9,0.2-1.1c0.1-0.2,0.4-0.4,0.3-0.4
			c-0.1,0-0.4,0.1-0.7,0.3c-0.3,0.2-0.5,0.5-0.7,0.9c-0.2,0.4-0.3,0.7-0.3,1.1c0,0.4,0.2,0.7,0.3,1c0.2,0.3,0.2,0.2,0.3,0.5
			c-0.1,0-0.7-0.1-1-0.1c-0.4,0-0.7,0.2-1,0.4S3.3,22.7,3,23c-0.4,0.3-0.8,0.6-1.1,0.7C1.2,23.9,0.4,23,0,22.2z"/>
		<path class="st2" d="M31.4,18.4c0.8-0.5,1.6-0.7,2.5,0c0.3-0.5,0.1-1.4-0.5-2c-0.6-0.6-1.5-0.8-2-0.5
			C32.1,16.8,31.9,17.6,31.4,18.4z"/>
		<path class="st2" d="M18.4,31.2c-0.8,0.5-1.6,0.7-2.5,0c-0.3,0.5-0.1,1.4,0.5,2c0.6,0.6,1.5,0.8,2,0.5
			C17.6,32.7,17.9,31.9,18.4,31.2z"/>
		<path class="st2" d="M31.4,31.2c0.8,0.5,1.6,0.7,2.5,0c0.3,0.5,0.1,1.4-0.5,2c-0.6,0.6-1.5,0.8-2,0.5
			C32.1,32.7,31.9,31.9,31.4,31.2z"/>
		<path class="st1" d="M29.4,22h-0.7c-0.3-1.2-0.6-2.1-0.9-2.6c-0.5-0.8-1.3-1.2-2.3-1.2c-0.7,0-1.2,0.2-1.6,0.6
			c-0.4,0.4-0.6,1-0.6,1.6c0,1,0.6,1.8,1.8,2.6c1.1,0.7,2.3,1.3,3.5,2c1.2,0.9,1.8,2,1.8,3.3c0,1.5-0.6,2.6-1.8,3.4
			c-1.1,0.7-2.4,1-3.9,1c-1.5,0-3-0.4-4.4-1.1l-0.7-4.3l0.7-0.1c0.4,1.3,1,2.3,1.7,3.1c0.9,1,2,1.5,3.1,1.5c0.7,0,1.3-0.2,1.8-0.6
			c0.5-0.4,0.7-1,0.7-1.7c0-1-0.6-1.9-1.8-2.7c-1.2-0.6-2.3-1.3-3.5-1.9c-1.2-0.9-1.8-1.9-1.8-3.1c0-1.4,0.6-2.5,1.7-3.3
			c1-0.8,2.3-1.2,3.7-1.2c1.3,0,2.6,0.3,3.7,1L29.4,22z"/>
		<g>
			<path class="st2" d="M24.9,30.4h-5.7l0.7-1v-4.5c-0.4,0-0.8,0.2-1.1,0.6c0.1-0.9,0.5-1.3,1.1-1.3v-3.7l-0.7-1h5.5
				c-0.4,0.8-0.7,1.7-0.9,2.6c-0.2-0.8-0.4-1.3-0.6-1.5c-0.2-0.2-0.6-0.3-1.2-0.3c-0.3,0-0.6,0-0.9,0.1v3.9h1.4l0.7-1.3v3.3
				l-0.7-1.3H21v4.7c0.3,0,0.6,0.1,0.7,0.1c0.7,0,1.1-0.1,1.4-0.4c0.2-0.2,0.5-0.8,0.8-1.7c0.1,0.6,0.2,1.1,0.3,1.5
				C24.4,29.5,24.6,29.9,24.9,30.4z"/>
			<path class="st2" d="M30.9,27.3c0,1-0.2,1.8-0.7,2.4c-0.5,0.6-1,0.9-1.7,0.9c-0.4,0-0.8-0.1-1.3-0.4c-0.5-0.3-0.9-0.4-1.1-0.4
				c-0.2,0-0.4,0.2-0.8,0.5c0.4-1.1,0.8-2.2,1-3.3c0.1,0.6,0.2,1.1,0.3,1.4c0.2,0.5,0.4,0.9,0.8,1.1c0.3,0.2,0.7,0.3,1.1,0.3
				c0.4,0,0.8-0.2,1.1-0.5c0.3-0.3,0.5-0.8,0.5-1.5c0-0.4-0.1-0.7-0.2-1c-0.2-0.5-0.6-0.9-1-1.2c-0.4-0.2-0.9-0.3-1.3-0.5
				c-0.5-0.2-0.9-0.5-1.1-0.9c-0.3-0.5-0.5-1.2-0.5-2.1c0-0.9,0.2-1.7,0.6-2.3c0.4-0.6,0.9-0.9,1.5-0.9c0.4,0,0.9,0.1,1.4,0.4
				c0.3,0.1,0.5,0.2,0.6,0.2c0.2,0,0.4-0.1,0.6-0.2c-0.2,0.4-0.3,0.8-0.5,1.4c-0.1,0.5-0.3,1-0.4,1.5c-0.1-1-0.4-1.7-0.8-2.1
				c-0.3-0.2-0.5-0.4-0.8-0.4c-0.4,0-0.7,0.2-0.9,0.5c-0.2,0.3-0.4,0.8-0.4,1.3c0,0.9,0.4,1.6,1.3,2c0.4,0.2,0.8,0.3,1.2,0.5
				c0.5,0.2,0.8,0.5,1.1,1C30.8,25.8,30.9,26.5,30.9,27.3z"/>
		</g>
	</g>
</g>
<g>
	<path class="st2" d="M69,10.2v-1h3.4v1.3h-0.3L69,10.2z M72.4,24.1v1.4H69v-1l3.2-0.4H72.4z M71.3,16.7c0-2.5,0-5-0.1-7.5h2.4
		c-0.1,2.4-0.1,5-0.1,7.5v0.9c0,2.8,0,5.3,0.1,7.8h-2.4c0.1-2.4,0.1-5,0.1-7.5V16.7z M79.1,9.2l1.1,1.2h-7.8V9.2h8.6l0.2,4.3h-1.4
		L79.1,9.2z M77.9,17.7h-5.5v-1.1h5.5V17.7z M81.7,21.1l-0.2,4.3h-9.1v-1.2h8.3l-1.1,1.2l0.7-4.3H81.7z M77.1,16.8l0.4-2.6h1.1V20
		h-1.1l-0.4-2.7V16.8z"/>
	<path class="st2" d="M92,21.6c0-1.6-0.9-2.3-3-3.1L88,18.2c-2.5-1-4.2-2.4-4.2-4.9c0-2.8,2.3-4.5,5.5-4.5c1.6,0,2.9,0.5,4,1.3
		l-0.1,3.2h-1.5L91,9.6l1.6,0.8v1.2c-1.2-1.1-2.1-1.6-3.4-1.6c-1.9,0-3.3,0.9-3.3,2.7c0,1.5,1,2.4,2.7,3.1l1,0.4
		c3.2,1.2,4.4,2.6,4.4,4.9c0,2.9-2.4,4.6-5.7,4.6c-1.8,0-3.6-0.6-4.7-1.3l0.1-3.4h1.5l0.6,3.7l-1.6-0.7V23c1.5,1.1,2.3,1.6,4,1.6
		C90.5,24.6,92,23.5,92,21.6z"/>
	<path class="st2" d="M96.3,10.4l1.1-1.2l-0.8,4.3h-1.4l0.2-4.3h13.3l0.2,4.3h-1.4l-0.8-4.3l1.1,1.2H96.3z M102.3,24.1l3.4,0.4v1
		h-7.3v-1l3.4-0.4H102.3z M100.9,16.7c0-2.5,0-5-0.1-7.5h2.4c-0.1,2.4-0.1,5-0.1,7.5v1.2c0,2.5,0,5,0.1,7.5h-2.4
		c0.1-2.4,0.1-5,0.1-7.5V16.7z"/>
	<path class="st2" d="M110.5,10.2v-1h3.4v1.3h-0.3L110.5,10.2z M113.9,24.1v1.4h-3.4v-1l3.2-0.4H113.9z M112.8,16.7
		c0-2.5,0-5-0.1-7.5h2.4c-0.1,2.4-0.1,5-0.1,7.5v0.9c0,2.8,0,5.3,0.1,7.8h-2.4c0.1-2.4,0.1-5,0.1-7.5V16.7z M120.6,9.2l1.1,1.2h-7.8
		V9.2h8.6l0.2,4.3h-1.4L120.6,9.2z M119.4,17.7h-5.5v-1.1h5.5V17.7z M123.2,21.1l-0.2,4.3h-9.1v-1.2h8.3l-1.1,1.2l0.7-4.3H123.2z
		 M118.6,16.8l0.4-2.6h1.1V20H119l-0.4-2.7V16.8z"/>
	<path class="st2" d="M125.6,10.4l1.1-1.2l-0.8,4.3h-1.4l0.2-4.3H138l0.2,4.3h-1.4L136,9.2l1.1,1.2H125.6z M131.6,24.1l3.4,0.4v1
		h-7.3v-1l3.4-0.4H131.6z M130.2,16.7c0-2.5,0-5-0.1-7.5h2.4c-0.1,2.4-0.1,5-0.1,7.5v1.2c0,2.5,0,5,0.1,7.5h-2.4
		c0.1-2.4,0.1-5,0.1-7.5V16.7z"/>
	<path class="st2" d="M139.8,10.2v-1h6.8v1l-3.2,0.4H143L139.8,10.2z M143.5,24.1l3.2,0.4v1h-6.8v-1l3.2-0.4H143.5z M142.1,16.7
		c0-2.5,0-5-0.1-7.5h2.4c-0.1,2.4-0.1,5-0.1,7.5v1.2c0,2.5,0,5,0.1,7.5H142c0.1-2.4,0.1-5,0.1-7.5V16.7z"/>
	<path class="st2" d="M160.9,23v1.3l-1.5,0.3l0.6-3.6h1.5l-0.1,3.5c-1.5,0.8-3.2,1.2-4.9,1.2c-4.9,0-8.2-3.5-8.2-8.5
		c0-4.9,3.5-8.5,8.2-8.5c1.3,0,3,0.2,4.7,1.2l0.1,3.5h-1.5l-0.6-3.6l1.5,0.3v1.5c-1.4-1.3-2.7-1.7-3.9-1.7c-3.2,0-5.8,2.5-5.8,7.2
		c0,4.7,2.4,7.2,5.7,7.2C158,24.6,159.5,24.1,160.9,23z"/>
	<path class="st2" d="M177.6,21.6c0-1.6-0.9-2.3-3-3.1l-0.9-0.4c-2.5-1-4.2-2.4-4.2-4.9c0-2.8,2.3-4.5,5.5-4.5c1.6,0,2.9,0.5,4,1.3
		l-0.1,3.2h-1.5l-0.7-3.7l1.6,0.8v1.2c-1.2-1.1-2.1-1.6-3.4-1.6c-1.9,0-3.3,0.9-3.3,2.7c0,1.5,1,2.4,2.7,3.1l1,0.4
		c3.2,1.2,4.4,2.6,4.4,4.9c0,2.9-2.4,4.6-5.7,4.6c-1.8,0-3.6-0.6-4.7-1.3l0.1-3.4h1.5l0.6,3.7l-1.6-0.7V23c1.5,1.1,2.3,1.6,4,1.6
		C176.1,24.6,177.6,23.5,177.6,21.6z"/>
	<path class="st2" d="M181.9,10.4l1.1-1.2l-0.8,4.3h-1.4l0.2-4.3h13.3l0.2,4.3h-1.4l-0.8-4.3l1.1,1.2H181.9z M187.9,24.1l3.4,0.4v1
		H184v-1l3.4-0.4H187.9z M186.5,16.7c0-2.5,0-5-0.1-7.5h2.4c-0.1,2.4-0.1,5-0.1,7.5v1.2c0,2.5,0,5,0.1,7.5h-2.4
		c0.1-2.4,0.1-5,0.1-7.5V16.7z"/>
	<path class="st2" d="M195.7,10.2v-1h6.8v1l-3.2,0.4h-0.5L195.7,10.2z M204.1,24.1c2.7,0,4.1-1.6,4.1-5.9v-9h1.2v9.6
		c0,5.1-2.5,7-5.8,7c-3.5,0-5.9-1.9-5.9-6.5v-2.6c0-2.5,0-5-0.1-7.5h2.4c-0.1,2.4-0.1,5-0.1,7.5v1.9
		C200.1,22.7,201.6,24.1,204.1,24.1z M208.4,10.6l-2.7-0.4v-1h5.8v1l-2.7,0.4H208.4z"/>
	<path class="st2" d="M213,10.2v-1h3.4v1.3h-0.3L213,10.2z M216.4,24.1v1.4H213v-1l3.2-0.4H216.4z M215.3,16.7c0-2.5,0-5-0.1-7.5
		h2.4c-0.1,2.4-0.1,5-0.1,7.5v0.9c0,2.8,0,5.3,0.1,7.8h-2.4c0.1-2.4,0.1-5,0.1-7.8V16.7z M216.4,24.3h3.1c3.7,0,5.8-2.6,5.8-6.9
		c0-4.6-2.1-7-5.6-7h-3.3V9.2h3.7c4.6,0,7.8,2.9,7.8,8.1c0,5.2-3.6,8.1-8.3,8.1h-3.2V24.3z"/>
	<path class="st2" d="M229.5,10.2v-1h6.8v1l-3.2,0.4h-0.5L229.5,10.2z M233.2,24.1l3.2,0.4v1h-6.8v-1l3.2-0.4H233.2z M231.8,16.7
		c0-2.5,0-5-0.1-7.5h2.4c-0.1,2.4-0.1,5-0.1,7.5v1.2c0,2.5,0,5,0.1,7.5h-2.4c0.1-2.4,0.1-5,0.1-7.5V16.7z"/>
	<path class="st2" d="M252.9,17.3c0,5.3-3.6,8.5-7.4,8.5c-3.8,0-7.4-2.9-7.4-8.5c0-5.3,3.7-8.5,7.4-8.5
		C249.2,8.8,252.9,11.8,252.9,17.3z M245.5,24.6c3.4,0,4.8-3.6,4.8-7.2c0-3.7-1.4-7.2-4.8-7.2c-3.4,0-4.8,3.6-4.8,7.2
		C240.7,21,242.1,24.6,245.5,24.6z"/>
</g>
</svg>
