<?xml version="1.0" encoding="utf-8"?>
<!-- Generator: Adobe Illustrator 22.1.0, SVG Export Plug-In . SVG Version: 6.00 Build 0)  -->
<svg version="1.1" id="Слой_1" xmlns="http://www.w3.org/2000/svg" xmlns:xlink="http://www.w3.org/1999/xlink" x="0px" y="0px"
	 viewBox="0 0 253 50" style="enable-background:new 0 0 253 50;" xml:space="preserve">
<style type="text/css">
	.st0{clip-path:url(#SVGID_2_);}
	.st1{display:none;fill:#EA6079;}
	.st2{fill:#EA6079;}
	.st3{clip-path:url(#SVGID_4_);}
</style>
<g>
	<defs>
		<rect id="SVGID_1_" x="58.5" y="6.5" width="194.5" height="38"/>
	</defs>
	<clipPath id="SVGID_2_">
		<use xlink:href="#SVGID_1_"  style="overflow:visible;"/>
	</clipPath>
	<g class="st0">
		<path class="st1" d="M245.3,16.1h-0.7c-0.3-1.3-0.8-2.4-1.6-3.1c-0.9-0.9-2-1.3-3.4-1.3c-1.8,0-3.2,0.7-4.3,2.1
			c-1,1.3-1.4,2.8-1.4,4.7c0,1.8,0.5,3.4,1.6,4.8c1.1,1.6,2.6,2.3,4.4,2.3c1.4,0,2.7-0.5,3.6-1.5c0.7-0.7,1.4-1.9,2.1-3.4l0.7,0.2
			l-1.4,4.7c-0.8,0.3-1.6,0.6-2.5,0.7c-0.9,0.2-1.7,0.2-2.7,0.2c-2.6,0-4.8-0.6-6.6-1.9c-1.9-1.4-2.9-3.4-2.9-5.8
			c0-2.5,1-4.5,2.9-6.1c1.8-1.4,4-2.1,6.7-2.1c1,0,1.9,0.1,2.8,0.3c0.9,0.2,1.8,0.5,2.6,0.9V16.1z M224.4,24c0.5,0.5,1,0.9,1.5,1.2
			c0.5,0.3,1.1,0.5,1.9,0.7l-0.1,0.6c-1,0-1.9-0.1-2.7-0.2c-0.8-0.1-1.6-0.3-2.4-0.5c-0.9-0.3-1.6-0.8-2.3-1.6l-4.8-5.5l3.1-3.4
			c0.8-0.9,1.3-1.5,1.6-1.9c0.2-0.3,0.4-0.6,0.4-0.9c0-0.5-0.4-0.7-1.3-0.9v-0.6h6.9v0.6c-1.3,0.3-2.5,0.7-3.4,1.3
			c-0.7,0.5-1.6,1.2-2.7,2.4l-1.9,1.9L224.4,24z M212.1,16c0-1.9-0.2-3.1-0.5-3.5c-0.2-0.3-1.1-0.6-2.5-0.8v-0.6h9v0.6
			c-1.4,0.2-2.3,0.5-2.5,0.8c-0.3,0.4-0.5,1.6-0.5,3.5v5.3c0,1.9,0.2,3.1,0.5,3.5c0.2,0.3,1.1,0.6,2.5,0.8v0.6h-9v-0.6
			c1.4-0.2,2.3-0.5,2.5-0.8c0.3-0.4,0.5-1.6,0.5-3.5V16z M187.4,18.9h-2.7v2.3c0,1.4,0,2.3,0.1,2.6c0.2,1,1.2,1.5,2.9,1.7v0.6h-9
			v-0.6c1.4-0.2,2.3-0.5,2.5-0.8c0.3-0.4,0.5-1.6,0.5-3.5v-5.2c0-1.9-0.2-3.1-0.5-3.5c-0.2-0.3-1.1-0.6-2.5-0.8v-0.7h9v0.6
			c-1.5,0.1-2.4,0.5-2.7,1.1c-0.2,0.4-0.3,1.5-0.3,3.2v1.6h2.7c0.2-2.1,1.1-3.7,2.7-5c1.6-1.2,3.5-1.9,5.8-1.9c2.5,0,4.6,0.7,6.1,2
			c1.7,1.4,2.5,3.4,2.5,5.9c0,2.5-0.8,4.4-2.4,5.9c-1.6,1.5-3.7,2.2-6.3,2.2c-2.5,0-4.5-0.7-6.1-2C188.2,23.2,187.4,21.3,187.4,18.9
			z M191.1,18.3c0,1.9,0.4,3.5,1.1,4.8c0.9,1.6,2.3,2.4,4,2.4c1.6,0,2.9-0.7,3.7-2.2c0.6-1.1,1-2.6,1-4.3c0-1.9-0.4-3.5-1.1-4.8
			c-1-1.7-2.3-2.5-4.1-2.5c-1.6,0-2.8,0.7-3.6,2.3C191.4,15.2,191.1,16.6,191.1,18.3z M158.6,26.6c-0.5,0-0.9-0.2-1.3-0.5
			c-0.4-0.3-0.5-0.7-0.5-1.1c0-0.7,0.4-1.3,1.2-1.7c0.1,0.2,0.3,0.5,0.5,0.6c0.2,0.1,0.5,0.2,0.7,0.2c1,0,1.7-0.7,2.1-2.2
			c0.3-1.1,0.4-3.1,0.4-5.8c0-1.9-0.2-3.1-0.5-3.5c-0.2-0.3-1.2-0.6-2.7-0.8v-0.6h15.9v0.6c-1.4,0.2-2.3,0.5-2.5,0.8
			c-0.3,0.4-0.5,1.6-0.5,3.5v5.3c0,1.9,0.2,3.1,0.5,3.5c0.2,0.3,1.1,0.6,2.5,0.8v0.6h-9v-0.6c1.5-0.1,2.4-0.5,2.7-1.1
			c0.2-0.4,0.3-1.5,0.3-3.2v-9H163V16c0,2.4-0.1,4.2-0.2,5.4c-0.2,1.7-0.6,3-1.2,3.8C160.9,26.1,159.9,26.6,158.6,26.6z M138.7,21.3
			c0,1.4,0,2.3,0.1,2.6c0.2,1,1.2,1.5,2.9,1.7v0.6h-9v-0.6c1.4-0.2,2.3-0.5,2.5-0.8c0.3-0.4,0.5-1.6,0.5-3.5V16
			c0-1.9-0.2-3.1-0.5-3.5c-0.2-0.3-1.1-0.6-2.5-0.8v-0.6h9.1v0.6c-1.5,0.1-2.4,0.5-2.7,1.1c-0.2,0.4-0.3,1.5-0.3,3.2v1.6h8.3V16
			c0-1.4,0-2.3-0.1-2.6c-0.2-1-1.2-1.5-2.9-1.7v-0.6h9v0.6c-1.4,0.2-2.3,0.5-2.5,0.8c-0.3,0.4-0.5,1.6-0.5,3.5v5.3
			c0,1.9,0.2,3.1,0.5,3.5c0.2,0.3,1.1,0.6,2.5,0.8v0.6h-9v-0.6c1.5-0.1,2.4-0.5,2.7-1.1c0.2-0.4,0.3-1.5,0.3-3.2v-2.4h-8.3
			L138.7,21.3L138.7,21.3z M114.1,22.6c0,1.1,0.1,1.8,0.3,2c0.4,0.5,1.3,0.9,2.7,1v0.6h-9v-0.6c1.4-0.2,2.3-0.5,2.5-0.8
			c0.3-0.4,0.5-1.6,0.5-3.5V16c0-1.9-0.2-3.1-0.5-3.5c-0.2-0.3-1.1-0.6-2.5-0.8v-0.6h9.1v0.6c-1.5,0.1-2.4,0.5-2.7,1.1
			c-0.2,0.4-0.3,1.5-0.3,3.2v5l8.3-6.8c0-0.8-0.1-1.4-0.3-1.6c-0.4-0.5-1.3-0.8-2.7-0.9v-0.6h9v0.6c-1.4,0.2-2.3,0.5-2.5,0.8
			c-0.3,0.4-0.5,1.6-0.5,3.5v5.3c0,1.9,0.2,3.1,0.5,3.5c0.2,0.3,1.1,0.6,2.5,0.8v0.6h-9v-0.6c1.5-0.1,2.4-0.5,2.7-1.1
			c0.2-0.4,0.3-1.5,0.3-3.2v-5.5L114.1,22.6z M102.3,24c0.5,0.5,1,0.9,1.5,1.2c0.5,0.3,1.1,0.5,1.9,0.7l-0.1,0.6
			c-1,0-1.9-0.1-2.7-0.2c-0.8-0.1-1.6-0.3-2.4-0.5c-0.9-0.3-1.6-0.8-2.3-1.6l-4.8-5.5l3.1-3.4c0.8-0.9,1.3-1.5,1.6-1.9
			c0.2-0.3,0.4-0.6,0.4-0.9c0-0.5-0.4-0.7-1.3-0.9v-0.6h6.9v0.6c-1.3,0.3-2.5,0.7-3.4,1.3c-0.7,0.5-1.6,1.2-2.7,2.4L96,17.3
			L102.3,24z M90,16c0-1.9-0.2-3.1-0.5-3.5c-0.2-0.3-1.1-0.6-2.5-0.8v-0.6h9.1v0.6c-1.4,0.2-2.3,0.5-2.5,0.8
			c-0.3,0.4-0.5,1.6-0.5,3.5v5.3c0,1.9,0.2,3.1,0.5,3.5c0.2,0.3,1.1,0.6,2.5,0.8v0.6H87v-0.6c1.4-0.2,2.3-0.5,2.5-0.8
			c0.3-0.4,0.5-1.6,0.5-3.5L90,16L90,16z M82.2,16.1h-0.7c-0.3-1.3-0.8-2.4-1.6-3.1c-0.9-0.9-2-1.3-3.4-1.3c-1.8,0-3.2,0.7-4.3,2.1
			c-1,1.3-1.4,2.8-1.4,4.7c0,1.8,0.5,3.4,1.6,4.8c1.1,1.6,2.6,2.3,4.4,2.3c1.4,0,2.7-0.5,3.6-1.5c0.7-0.7,1.4-1.9,2.1-3.4l0.7,0.2
			l-1.4,4.7c-0.8,0.3-1.6,0.6-2.5,0.7c-0.9,0.2-1.7,0.2-2.7,0.2c-2.6,0-4.8-0.6-6.6-1.9c-1.9-1.4-2.9-3.3-2.9-5.8c0-2.5,1-4.5,2.9-6
			c1.8-1.4,4-2.1,6.7-2.1c1,0,1.9,0.1,2.8,0.3c0.9,0.2,1.8,0.5,2.6,0.9V16.1z"/>
		<g>
			<path class="st2" d="M62.1,39.4c-0.5-0.3-0.9-0.6-1.2-1.1c-0.3-0.5-0.4-1-0.4-1.7c0-0.7,0.2-1.2,0.5-1.7c0.3-0.5,0.7-0.9,1.2-1.1
				s1-0.4,1.6-0.4c0.5,0,0.9,0.1,1.3,0.2s0.7,0.4,1,0.7c0.2,0.3,0.4,0.6,0.4,0.9c0,0.3-0.1,0.5-0.2,0.6C66,36,65.8,36,65.6,36
				c-0.2,0-0.4-0.1-0.6-0.2c-0.2-0.1-0.2-0.3-0.2-0.5c0.1-0.1,0.2-0.2,0.3-0.3c0.1-0.1,0.1-0.2,0.1-0.4c0-0.3-0.1-0.5-0.4-0.7
				c-0.3-0.2-0.6-0.3-1-0.3c-0.6,0-1.1,0.2-1.4,0.6c-0.3,0.4-0.5,1-0.5,1.7v1.2c0,0.7,0.2,1.3,0.5,1.7c0.3,0.4,0.8,0.6,1.4,0.6
				c0.6,0,1.1-0.2,1.5-0.5s0.7-0.7,0.8-1.2h0.3c-0.1,0.6-0.4,1.1-0.9,1.4c-0.5,0.4-1,0.5-1.7,0.5C63.1,39.8,62.6,39.7,62.1,39.4z"/>
			<path class="st2" d="M68.7,39.7v-0.2l1-0.1v-5.5h-1.1l-1.1,2h-0.4l0.2-2.3h6l0.2,2.3h-0.4l-1.1-2H71v5.5l1,0.1v0.2H68.7z"/>
			<path class="st2" d="M74.3,42.9c-0.3-0.2-0.4-0.5-0.4-0.8c0-0.2,0.1-0.4,0.2-0.6s0.3-0.2,0.6-0.2c0.2,0,0.3,0,0.4,0.1
				s0.2,0.2,0.3,0.3c-0.1,0.2-0.2,0.3-0.2,0.5c0,0.2,0.1,0.3,0.2,0.4c0.1,0.1,0.3,0.2,0.4,0.2c0.2,0,0.4-0.1,0.5-0.2
				c0.1-0.1,0.3-0.4,0.4-0.7l0.8-2.1l-3-5.9l-0.9-0.1v-0.2h3.2v0.2l-0.9,0.1l2.1,4.3l1.5-4.1l-1.1-0.3v-0.2h2.3v0.2l-0.9,0.3
				l-2.9,7.8c-0.2,0.5-0.4,0.8-0.6,1c-0.3,0.2-0.6,0.3-1.1,0.3C74.9,43.2,74.5,43.1,74.3,42.9z"/>
			<path class="st2" d="M87.4,41.7H87l-1.1-2h-4.1l-1.1,2h-0.4l0.2-2.3h0.4c0.2,0,0.4-0.1,0.5-0.2c0.2-0.2,0.3-0.4,0.5-0.7
				c0.1-0.3,0.2-0.6,0.3-1c0.1-0.4,0.1-1,0.2-1.8l0.1-1.4l-1.2-0.5v-0.2h5.8v0.2l-0.9,0.1v5.5h0.9L87.4,41.7z M85,33.8h-2.1
				l-0.1,1.9c-0.1,0.8-0.1,1.5-0.2,1.9c-0.1,0.4-0.2,0.7-0.3,1c-0.1,0.2-0.2,0.3-0.2,0.4c-0.1,0.1-0.2,0.2-0.2,0.3s-0.1,0.1-0.1,0.1
				H85V33.8z"/>
			<path class="st2" d="M87.8,39.7v-0.2l0.9-0.1v-5.5l-0.9-0.1v-0.2h2.9v0.2L90,33.9v4.6l3.2-4.4v-0.2l-0.8-0.1v-0.2h2.9v0.2
				l-0.9,0.1v5.5l0.9,0.1v0.2h-2.9v-0.2l0.8-0.1v-4.7L90,39v0.3l0.8,0.1v0.2H87.8z"/>
			<path class="st2" d="M96.2,39.7c-0.2-0.1-0.4-0.2-0.6-0.4l0.2-0.2c0.2,0.1,0.3,0.2,0.4,0.2c0.1,0,0.2,0,0.3-0.1s0.1-0.3,0.2-0.5
				l0.1-0.7c0.1-0.4,0.2-0.7,0.4-0.9c0.2-0.2,0.5-0.3,1-0.4v-0.1c-0.5-0.1-0.8-0.2-1.1-0.5c-0.3-0.2-0.4-0.6-0.4-1.1
				c0-0.5,0.2-0.9,0.6-1.2c0.4-0.3,1-0.4,1.9-0.4h3.7v0.3l-0.9,0.1v5.4l0.9,0.1v0.2h-3.1v-0.2l0.9-0.1v-2.5h-1.2
				c-0.4,0-0.7,0.1-0.9,0.2c-0.2,0.2-0.3,0.4-0.4,0.8l-0.2,1c-0.1,0.4-0.2,0.6-0.4,0.7s-0.5,0.2-0.8,0.2
				C96.6,39.8,96.4,39.8,96.2,39.7z M100.6,36.6v-2.7h-1.1c-0.5,0-0.9,0.1-1.1,0.3c-0.2,0.2-0.4,0.5-0.4,1v0.2c0,0.4,0.1,0.8,0.4,1
				s0.6,0.3,1,0.3H100.6z"/>
			<path class="st2" d="M107.4,39.4c-0.4-0.3-0.6-0.6-0.6-1c0-0.2,0.1-0.4,0.2-0.6s0.3-0.2,0.6-0.2c0.2,0,0.3,0,0.4,0.1
				c0.1,0.1,0.2,0.2,0.3,0.3c-0.1,0.2-0.2,0.3-0.2,0.5c0,0.3,0.1,0.5,0.4,0.7c0.3,0.2,0.6,0.3,1,0.3c0.6,0,1.1-0.2,1.4-0.6
				s0.5-1,0.5-1.7v-0.5h-2.9v-0.3h2.9V36c0-0.7-0.2-1.3-0.5-1.7c-0.3-0.4-0.8-0.6-1.4-0.6c-0.6,0-1.1,0.1-1.6,0.4l-0.7,1.6h-0.3
				l0.1-2.3l0.8,0.4c0.5-0.2,1.1-0.4,1.6-0.4c0.6,0,1.2,0.1,1.7,0.4c0.5,0.3,0.9,0.7,1.2,1.1c0.3,0.5,0.4,1,0.4,1.6
				c0,0.6-0.1,1.2-0.4,1.7c-0.3,0.5-0.7,0.9-1.2,1.1c-0.5,0.3-1.1,0.4-1.7,0.4C108.5,39.8,107.8,39.7,107.4,39.4z"/>
			<path class="st2" d="M115.5,39.4c-0.5-0.3-0.9-0.6-1.2-1.1c-0.3-0.5-0.4-1-0.4-1.7c0-0.7,0.2-1.2,0.5-1.7
				c0.3-0.5,0.7-0.9,1.2-1.1s1-0.4,1.6-0.4c0.5,0,0.9,0.1,1.3,0.2s0.7,0.4,1,0.7c0.2,0.3,0.4,0.6,0.4,0.9c0,0.3-0.1,0.5-0.2,0.6
				c-0.1,0.1-0.3,0.2-0.6,0.2c-0.2,0-0.4-0.1-0.6-0.2c-0.2-0.1-0.2-0.3-0.2-0.5c0.1-0.1,0.2-0.2,0.3-0.3c0.1-0.1,0.1-0.2,0.1-0.4
				c0-0.3-0.1-0.5-0.4-0.7c-0.3-0.2-0.6-0.3-1-0.3c-0.6,0-1.1,0.2-1.4,0.6c-0.3,0.4-0.5,1-0.5,1.7v1.2c0,0.7,0.2,1.3,0.5,1.7
				c0.3,0.4,0.8,0.6,1.4,0.6c0.6,0,1.1-0.2,1.5-0.5s0.7-0.7,0.8-1.2h0.3c-0.1,0.6-0.4,1.1-0.9,1.4c-0.5,0.4-1,0.5-1.7,0.5
				C116.6,39.8,116,39.7,115.5,39.4z"/>
			<path class="st2" d="M122.1,39.7v-0.2l1-0.1v-5.5H122l-1.1,2h-0.4l0.2-2.3h6l0.2,2.3h-0.4l-1.1-2h-1.1v5.5l1,0.1v0.2H122.1z"/>
			<path class="st2" d="M129.5,39.4c-0.5-0.3-0.9-0.6-1.2-1.1c-0.3-0.5-0.4-1-0.4-1.7c0-0.6,0.1-1.2,0.4-1.7
				c0.3-0.5,0.7-0.9,1.2-1.1s1.1-0.4,1.7-0.4c0.5,0,1,0.1,1.4,0.3s0.8,0.5,1,0.9c0.2,0.4,0.4,0.8,0.4,1.4h-4.7v1.2
				c0,0.7,0.2,1.3,0.5,1.7c0.3,0.4,0.8,0.7,1.5,0.7c0.6,0,1.1-0.2,1.6-0.5s0.7-0.7,0.8-1.2h0.3c-0.1,0.6-0.4,1.1-0.9,1.4
				s-1.1,0.5-1.8,0.5C130.6,39.8,130,39.7,129.5,39.4z M132.5,35.7c0-0.7-0.1-1.2-0.3-1.5c-0.2-0.3-0.6-0.5-1.1-0.5
				c-0.6,0-1,0.2-1.3,0.6c-0.3,0.4-0.5,0.9-0.5,1.5H132.5z"/>
			<path class="st2" d="M136.3,39.7v-0.2l1-0.1v-5.5h-1.1l-1.1,2h-0.4l0.2-2.3h6l0.2,2.3h-0.4l-1.1-2h-1.1v5.5l1,0.1v0.2H136.3z"/>
			<path class="st2" d="M141.7,39.7v-0.2l0.9-0.1v-5.5l-0.9-0.1v-0.2h2.9v0.2l-0.8,0.1v4.6l3.2-4.4v-0.2l-0.8-0.1v-0.2h2.9v0.2
				l-0.9,0.1v5.5l0.9,0.1v0.2h-2.9v-0.2l0.8-0.1v-4.7l-3.2,4.4v0.3l0.8,0.1v0.2H141.7z"/>
			<path class="st2" d="M153.7,39.5l1.3-0.1V37c-0.2,0.1-0.5,0.2-0.9,0.3c-0.4,0.1-0.8,0.1-1.2,0.1c-0.7,0-1.2-0.1-1.6-0.4
				c-0.4-0.3-0.6-0.7-0.6-1.3v-1.9l-0.9-0.1v-0.2h2.9v0.2l-0.8,0.1v1.9c0,0.4,0.1,0.8,0.3,1c0.2,0.2,0.5,0.3,1,0.3
				c0.4,0,0.7,0,1-0.1c0.3-0.1,0.5-0.2,0.7-0.3v-2.8l-0.8-0.1v-0.2h2.9v0.2l-0.9,0.1v5.5l0.9,0.1v0.2h-3.5V39.5z"/>
			<path class="st2" d="M159.7,39.4c-0.5-0.3-0.9-0.6-1.2-1.1c-0.3-0.5-0.4-1-0.4-1.7c0-0.6,0.1-1.2,0.4-1.7
				c0.3-0.5,0.7-0.9,1.2-1.1s1.1-0.4,1.7-0.4c0.5,0,1,0.1,1.4,0.3s0.8,0.5,1,0.9c0.2,0.4,0.4,0.8,0.4,1.4h-4.7v1.2
				c0,0.7,0.2,1.3,0.5,1.7c0.3,0.4,0.8,0.7,1.5,0.7c0.6,0,1.1-0.2,1.6-0.5s0.7-0.7,0.8-1.2h0.3c-0.1,0.6-0.4,1.1-0.9,1.4
				s-1.1,0.5-1.8,0.5C160.8,39.8,160.2,39.7,159.7,39.4z M162.7,35.7c0-0.7-0.1-1.2-0.3-1.5c-0.2-0.3-0.6-0.5-1.1-0.5
				c-0.6,0-1,0.2-1.3,0.6c-0.3,0.4-0.5,0.9-0.5,1.5H162.7z"/>
			<path class="st2" d="M166.8,39.4c-0.5-0.3-0.9-0.6-1.2-1.1c-0.3-0.5-0.4-1-0.4-1.7c0-0.7,0.2-1.2,0.5-1.7
				c0.3-0.5,0.7-0.9,1.2-1.1s1-0.4,1.6-0.4c0.5,0,0.9,0.1,1.3,0.2c0.4,0.2,0.7,0.4,1,0.7c0.2,0.3,0.4,0.6,0.4,0.9
				c0,0.3-0.1,0.5-0.2,0.6c-0.1,0.1-0.3,0.2-0.6,0.2c-0.2,0-0.4-0.1-0.6-0.2c-0.2-0.1-0.2-0.3-0.2-0.5c0.1-0.1,0.2-0.2,0.3-0.3
				c0.1-0.1,0.1-0.2,0.1-0.4c0-0.3-0.1-0.5-0.4-0.7c-0.3-0.2-0.6-0.3-1-0.3c-0.6,0-1.1,0.2-1.4,0.6c-0.3,0.4-0.5,1-0.5,1.7v1.2
				c0,0.7,0.2,1.3,0.5,1.7c0.3,0.4,0.8,0.6,1.4,0.6c0.6,0,1.1-0.2,1.5-0.5s0.7-0.7,0.8-1.2h0.3c-0.1,0.6-0.4,1.1-0.9,1.4
				c-0.5,0.4-1,0.5-1.7,0.5C167.9,39.8,167.3,39.7,166.8,39.4z"/>
			<path class="st2" d="M177.1,39.6c-0.2-0.1-0.3-0.4-0.4-0.7l-0.3-1.3c-0.1-0.4-0.2-0.6-0.4-0.8c-0.2-0.2-0.4-0.2-0.7-0.2h-1.2v2.8
				l0.9,0.1v0.2H172v-0.2l0.9-0.1v-5.4l-0.9-0.1v-0.3h3.1v0.3l-0.9,0.1v2.4h1.2c0.2,0,0.4-0.1,0.5-0.2c0.1-0.1,0.2-0.3,0.3-0.6
				l0.2-0.9c0.1-0.4,0.2-0.7,0.4-0.9s0.4-0.3,0.8-0.3c0.3,0,0.5,0.1,0.7,0.2c0.2,0.2,0.3,0.3,0.3,0.6c0,0.2-0.1,0.4-0.2,0.5
				c-0.1,0.1-0.3,0.2-0.6,0.2c-0.1,0-0.3,0-0.4-0.1c0-0.1,0-0.1,0-0.2c0-0.1,0-0.2-0.1-0.3c-0.1-0.1-0.2-0.1-0.3-0.1
				c-0.2,0-0.3,0.1-0.4,0.3l-0.2,0.9c-0.1,0.4-0.3,0.6-0.4,0.8c0.6,0,1,0.2,1.2,0.4c0.3,0.2,0.4,0.5,0.5,0.9l0.2,1
				c0.1,0.3,0.1,0.4,0.2,0.5c0.1,0.1,0.2,0.1,0.3,0.1c0.1,0,0.3-0.1,0.4-0.2l0.2,0.2c-0.2,0.2-0.4,0.3-0.6,0.4
				c-0.2,0.1-0.4,0.1-0.7,0.1C177.6,39.8,177.3,39.7,177.1,39.6z"/>
			<path class="st2" d="M181.3,39.4c-0.5-0.3-0.9-0.6-1.2-1.1c-0.3-0.5-0.4-1-0.4-1.7s0.1-1.2,0.4-1.7c0.3-0.5,0.7-0.9,1.2-1.1
				c0.5-0.3,1.1-0.4,1.7-0.4s1.2,0.1,1.7,0.4c0.5,0.3,0.9,0.6,1.2,1.1c0.3,0.5,0.4,1,0.4,1.7s-0.1,1.2-0.4,1.7
				c-0.3,0.5-0.7,0.9-1.2,1.1c-0.5,0.3-1.1,0.4-1.7,0.4S181.8,39.7,181.3,39.4z M184.4,38.9c0.3-0.4,0.5-1,0.5-1.7V36
				c0-0.7-0.2-1.3-0.5-1.7c-0.3-0.4-0.8-0.6-1.4-0.6c-0.6,0-1.1,0.2-1.4,0.6c-0.3,0.4-0.5,1-0.5,1.7v1.2c0,0.7,0.2,1.3,0.5,1.7
				c0.3,0.4,0.8,0.6,1.4,0.6C183.6,39.5,184.1,39.3,184.4,38.9z"/>
			<path class="st2" d="M187.2,39.7v-0.2l0.9-0.1v-5.5l-0.9-0.1v-0.2h2.9v0.2l-0.8,0.1v4.6l3.2-4.4v-0.2l-0.8-0.1v-0.2h2.9v0.2
				l-0.9,0.1v5.5l0.9,0.1v0.2h-2.9v-0.2l0.8-0.1v-4.7l-3.2,4.4v0.3l0.8,0.1v0.2H187.2z M189.4,32.4c-0.4-0.2-0.6-0.5-0.6-1
				c0-0.2,0.1-0.4,0.2-0.5c0.1-0.1,0.3-0.2,0.5-0.2c0.2,0,0.4,0.1,0.6,0.2c0.2,0.1,0.2,0.3,0.2,0.5c-0.1,0.1-0.2,0.1-0.3,0.2
				s-0.1,0.2-0.1,0.3c0,0.2,0.1,0.3,0.3,0.4c0.2,0.1,0.5,0.2,0.8,0.2c0.3,0,0.6-0.1,0.8-0.2c0.2-0.1,0.3-0.2,0.3-0.4
				c0-0.2-0.1-0.3-0.4-0.5c0-0.2,0.1-0.4,0.2-0.5c0.2-0.1,0.3-0.2,0.6-0.2c0.2,0,0.4,0.1,0.5,0.2c0.1,0.1,0.2,0.3,0.2,0.5
				c0,0.4-0.2,0.8-0.6,1c-0.4,0.2-1,0.3-1.6,0.3C190.4,32.7,189.9,32.6,189.4,32.4z"/>
			<path class="st2" d="M203.7,39.6c-0.2-0.1-0.3-0.4-0.4-0.7l-0.3-1.3c-0.1-0.4-0.2-0.6-0.4-0.8c-0.2-0.2-0.4-0.2-0.7-0.2h-1.2v2.8
				l0.9,0.1v0.2h-3.1v-0.2l0.9-0.1v-5.4l-0.9-0.1v-0.3h3.1v0.3l-0.9,0.1v2.4h1.2c0.2,0,0.4-0.1,0.5-0.2c0.1-0.1,0.2-0.3,0.3-0.6
				l0.2-0.9c0.1-0.4,0.2-0.7,0.4-0.9s0.4-0.3,0.8-0.3c0.3,0,0.5,0.1,0.7,0.2c0.2,0.2,0.3,0.3,0.3,0.6c0,0.2-0.1,0.4-0.2,0.5
				c-0.1,0.1-0.3,0.2-0.6,0.2c-0.1,0-0.3,0-0.4-0.1c0-0.1,0-0.1,0-0.2c0-0.1,0-0.2-0.1-0.3c-0.1-0.1-0.2-0.1-0.3-0.1
				c-0.2,0-0.3,0.1-0.4,0.3l-0.2,0.9c-0.1,0.4-0.3,0.6-0.4,0.8c0.6,0,1,0.2,1.2,0.4c0.3,0.2,0.4,0.5,0.5,0.9l0.2,1
				c0.1,0.3,0.1,0.4,0.2,0.5c0.1,0.1,0.2,0.1,0.3,0.1c0.1,0,0.3-0.1,0.4-0.2l0.2,0.2c-0.2,0.2-0.4,0.3-0.6,0.4
				c-0.2,0.1-0.4,0.1-0.7,0.1C204.1,39.8,203.8,39.7,203.7,39.6z"/>
			<path class="st2" d="M205.9,42.8l0.9-0.1v-8.8l-0.9-0.1v-0.2h2.2v1.3c0.2-0.4,0.5-0.8,0.9-1c0.4-0.2,0.8-0.4,1.3-0.4
				c0.6,0,1.1,0.1,1.6,0.4s0.8,0.6,1.1,1.1c0.3,0.5,0.4,1,0.4,1.7s-0.1,1.2-0.4,1.7s-0.6,0.9-1.1,1.1s-1,0.4-1.6,0.4
				c-0.5,0-0.9-0.1-1.3-0.4c-0.4-0.2-0.7-0.6-0.9-1v4.3l1.2,0.1v0.2h-3.4V42.8z M211.9,37.2V36c0-1.5-0.6-2.3-1.8-2.3
				c-0.4,0-0.7,0.1-1,0.3c-0.3,0.2-0.6,0.5-0.7,0.8s-0.3,0.7-0.3,1.1v1.3c0,0.4,0.1,0.8,0.3,1.1s0.4,0.6,0.7,0.8
				c0.3,0.2,0.7,0.3,1,0.3C211.3,39.5,211.9,38.7,211.9,37.2z"/>
			<path class="st2" d="M215,39.4c-0.3-0.3-0.5-0.7-0.5-1.2c0-0.7,0.3-1.3,1-1.6c0.7-0.3,1.5-0.5,2.3-0.5h0.9v-0.9
				c0-0.4,0-0.7-0.1-1c-0.1-0.2-0.2-0.4-0.5-0.5s-0.5-0.1-0.8-0.1c-0.4,0-0.7,0.1-0.9,0.2s-0.3,0.3-0.3,0.6c0,0.2,0.1,0.4,0.4,0.5
				c0,0.2-0.1,0.4-0.2,0.5c-0.2,0.2-0.4,0.2-0.6,0.2c-0.2,0-0.4-0.1-0.6-0.2c-0.1-0.1-0.2-0.3-0.2-0.6c0-0.5,0.2-0.8,0.7-1.1
				c0.5-0.3,1.1-0.4,1.9-0.4c1.7,0,2.6,0.7,2.6,2.1v3.4c0,0.2,0,0.3,0.1,0.4c0.1,0.1,0.2,0.1,0.4,0.1c0.1,0,0.3,0,0.3-0.1
				c0.1-0.1,0.1-0.2,0.1-0.4h0.3c0,0.3-0.1,0.5-0.3,0.7c-0.2,0.2-0.5,0.2-0.8,0.2c-0.4,0-0.7-0.1-1-0.3c-0.3-0.2-0.4-0.5-0.4-1
				c-0.2,0.4-0.5,0.7-0.9,1c-0.4,0.2-0.9,0.3-1.4,0.3C215.8,39.8,215.3,39.7,215,39.4z M217.8,39.1c0.2-0.1,0.4-0.3,0.6-0.6
				c0.2-0.2,0.3-0.5,0.3-0.9v-1.2h-0.9c-0.7,0-1.2,0.1-1.6,0.4c-0.3,0.3-0.5,0.7-0.5,1.2c0,0.4,0.1,0.7,0.3,0.9
				c0.2,0.2,0.5,0.3,1,0.3C217.3,39.3,217.5,39.2,217.8,39.1z"/>
			<path class="st2" d="M223.3,39.4c-0.5-0.3-0.9-0.6-1.2-1.1c-0.3-0.5-0.4-1-0.4-1.7c0-0.7,0.2-1.2,0.5-1.7
				c0.3-0.5,0.7-0.9,1.2-1.1s1-0.4,1.6-0.4c0.5,0,0.9,0.1,1.3,0.2c0.4,0.2,0.7,0.4,1,0.7c0.2,0.3,0.4,0.6,0.4,0.9
				c0,0.3-0.1,0.5-0.2,0.6c-0.1,0.1-0.3,0.2-0.6,0.2c-0.2,0-0.4-0.1-0.6-0.2c-0.2-0.1-0.2-0.3-0.2-0.5c0.1-0.1,0.2-0.2,0.3-0.3
				c0.1-0.1,0.1-0.2,0.1-0.4c0-0.3-0.1-0.5-0.4-0.7c-0.3-0.2-0.6-0.3-1-0.3c-0.6,0-1.1,0.2-1.4,0.6c-0.3,0.4-0.5,1-0.5,1.7v1.2
				c0,0.7,0.2,1.3,0.5,1.7c0.3,0.4,0.8,0.6,1.4,0.6c0.6,0,1.1-0.2,1.5-0.5s0.7-0.7,0.8-1.2h0.3c-0.1,0.6-0.4,1.1-0.9,1.4
				c-0.5,0.4-1,0.5-1.7,0.5C224.4,39.8,223.8,39.7,223.3,39.4z"/>
			<path class="st2" d="M230.3,39.4c-0.5-0.3-0.9-0.6-1.2-1.1c-0.3-0.5-0.4-1-0.4-1.7s0.1-1.2,0.4-1.7c0.3-0.5,0.7-0.9,1.2-1.1
				c0.5-0.3,1.1-0.4,1.7-0.4s1.2,0.1,1.7,0.4c0.5,0.3,0.9,0.6,1.2,1.1c0.3,0.5,0.4,1,0.4,1.7s-0.1,1.2-0.4,1.7
				c-0.3,0.5-0.7,0.9-1.2,1.1c-0.5,0.3-1.1,0.4-1.7,0.4S230.8,39.7,230.3,39.4z M233.4,38.9c0.3-0.4,0.5-1,0.5-1.7V36
				c0-0.7-0.2-1.3-0.5-1.7c-0.3-0.4-0.8-0.6-1.4-0.6c-0.6,0-1.1,0.2-1.4,0.6c-0.3,0.4-0.5,1-0.5,1.7v1.2c0,0.7,0.2,1.3,0.5,1.7
				c0.3,0.4,0.8,0.6,1.4,0.6C232.6,39.5,233.1,39.3,233.4,38.9z"/>
			<path class="st2" d="M237.7,39.7v-0.2l1-0.1v-5.5h-1.1l-1.1,2h-0.4l0.2-2.3h6l0.2,2.3h-0.4l-1.1-2H240v5.5l1,0.1v0.2H237.7z"/>
			<path class="st2" d="M243.2,39.5l0.9-0.1v-5.5l-0.9-0.1v-0.2h3.1v0.2l-0.9,0.1v2.2h1.6c0.8,0,1.4,0.2,1.8,0.5
				c0.4,0.3,0.7,0.7,0.7,1.3c0,0.6-0.2,1-0.7,1.3c-0.4,0.3-1,0.5-1.8,0.5h-3.8V39.5z M246.6,39.4c0.5,0,0.8-0.1,1.1-0.4
				s0.4-0.6,0.4-1.1v0c0-0.5-0.1-0.8-0.4-1.1c-0.3-0.3-0.6-0.4-1.1-0.4h-1.2v3H246.6z M249.6,39.7v-0.2l0.9-0.1v-5.5l-0.9-0.1v-0.2
				h3.1v0.2l-0.9,0.1v5.5l0.9,0.1v0.2H249.6z"/>
		</g>
		<g>
			<path class="st2" d="M60.3,25.7v-0.4l2-0.3V9.4l-2-0.3V8.7h12.8v4.9h-0.6l-1.6-4.3h-6.3v7.6h2.8l1.3-3.1h0.6v6.7h-0.6l-1.3-3.1
				h-2.7v7.8h6.7l1.7-4.7h0.6v5.2H60.3z"/>
			<path class="st2" d="M78.5,25l-1.8,0.9h-0.5v-5.5h0.5l1.8,4c1.2,0.8,2.5,1.3,4,1.3c1.2,0,2.3-0.3,3.1-1c0.8-0.7,1.2-1.6,1.2-2.8
				c0-0.9-0.3-1.5-0.8-2c-0.5-0.5-1.4-0.9-2.5-1.2L80,17.7c-1.2-0.3-2.2-0.9-2.8-1.7c-0.6-0.8-0.9-1.7-0.9-2.8c0-1,0.2-1.8,0.6-2.6
				c0.4-0.8,1-1.3,1.7-1.8c0.8-0.4,1.6-0.6,2.7-0.6c1.3,0,2.4,0.2,3.5,0.7l1.6-0.7h0.5v4.3h-0.5l-1.5-3.1c-1.1-0.5-2.2-0.8-3.5-0.8
				c-1.2,0-2.2,0.3-2.9,0.9c-0.7,0.6-1.1,1.5-1.1,2.5c0,0.8,0.3,1.4,0.8,1.8s1.2,0.8,2.2,1l3.8,1c1.2,0.3,2.1,0.8,2.8,1.6
				c0.6,0.8,0.9,1.9,0.9,3.5c0,1.6-0.5,2.8-1.5,3.7c-1,0.9-2.3,1.3-3.9,1.3C81.1,26.1,79.8,25.7,78.5,25z"/>
			<path class="st2" d="M93.3,25.7v-0.4l2-0.3V9.2h-3.5l-1.6,4.2h-0.6V8.7h13.8v4.7h-0.6l-1.6-4.2h-3.5v15.7l2,0.3v0.4H93.3z"/>
			<path class="st2" d="M104.7,25.7v-0.4l2-0.3V9.4l-2-0.3V8.7h12.8v4.9h-0.6l-1.6-4.3H109v7.6h2.8l1.3-3.1h0.6v6.7H113l-1.3-3.1
				H109v7.8h6.7l1.7-4.7h0.6v5.2H104.7z"/>
			<path class="st2" d="M123.6,25.7v-0.4l2-0.3V9.2H122l-1.6,4.2h-0.6V8.7h13.8v4.7H133l-1.6-4.2h-3.5v15.7l2,0.3v0.4H123.6z"/>
			<path class="st2" d="M135,25.7v-0.4l2-0.3V9.4l-2-0.3V8.7h6.2v0.5l-2,0.3v15.5l2,0.3v0.4H135z"/>
			<path class="st2" d="M146.9,25c-1.2-0.8-2.1-1.8-2.7-3.1c-0.6-1.3-0.9-2.9-0.9-4.7c0-1.8,0.3-3.3,1-4.7c0.6-1.4,1.6-2.4,2.7-3.1
				c1.2-0.7,2.5-1.1,4.1-1.1c0.6,0,1.2,0.1,1.9,0.3c0.6,0.2,1.2,0.5,1.7,0.9l1.4-1.2h0.4v5.3h-0.4l-1.3-3.3
				c-0.5-0.5-1.1-0.8-1.7-1.1c-0.7-0.3-1.3-0.4-1.9-0.4c-1,0-1.9,0.3-2.6,0.8c-0.8,0.5-1.3,1.3-1.8,2.2c-0.4,1-0.6,2.1-0.6,3.5v3.9
				c0,1.3,0.2,2.5,0.6,3.5c0.4,1,1,1.7,1.7,2.2c0.7,0.5,1.6,0.8,2.6,0.8c0.7,0,1.4-0.2,2.2-0.5c0.7-0.3,1.3-0.7,1.8-1.3l1.2-3.4h0.4
				v5.5h-0.4l-1.5-1.1c-0.5,0.4-1.1,0.7-1.7,1s-1.3,0.3-1.9,0.3C149.4,26.1,148.1,25.7,146.9,25z"/>
			<path class="st2" d="M166.8,25l-1.8,0.9h-0.5v-5.5h0.5l1.8,4c1.2,0.8,2.5,1.3,4,1.3c1.2,0,2.3-0.3,3.1-1s1.2-1.6,1.2-2.8
				c0-0.9-0.3-1.5-0.8-2c-0.5-0.5-1.4-0.9-2.5-1.2l-3.5-0.9c-1.2-0.3-2.2-0.9-2.8-1.7c-0.6-0.8-0.9-1.7-0.9-2.8c0-1,0.2-1.8,0.6-2.6
				c0.4-0.8,1-1.3,1.7-1.8c0.8-0.4,1.6-0.6,2.7-0.6c1.3,0,2.4,0.2,3.5,0.7l1.6-0.7h0.5v4.3h-0.5l-1.5-3.1c-1.1-0.5-2.2-0.8-3.5-0.8
				c-1.2,0-2.2,0.3-2.9,0.9c-0.7,0.6-1.1,1.5-1.1,2.5c0,0.8,0.3,1.4,0.8,1.8s1.2,0.8,2.2,1l3.8,1c1.2,0.3,2.1,0.8,2.8,1.6
				c0.6,0.8,0.9,1.9,0.9,3.5c0,1.6-0.5,2.8-1.5,3.7s-2.3,1.3-3.9,1.3C169.4,26.1,168.1,25.7,166.8,25z"/>
			<path class="st2" d="M181.6,25.7v-0.4l2-0.3V9.2h-3.5l-1.6,4.2h-0.6V8.7h13.8v4.7H191l-1.6-4.2h-3.5v15.7l2,0.3v0.4H181.6z"/>
			<path class="st2" d="M196.2,24.7c-1-0.9-1.4-2.2-1.4-3.7V9.4l-2-0.3V8.7h6.2v0.5l-2,0.3V21c0,1.4,0.4,2.5,1.2,3.2s2,1.1,3.5,1.1
				c3,0,4.5-1.4,4.5-4.3V10l-2-0.8V8.7h4.5v0.5l-2,0.8v11c0,1.7-0.5,3-1.4,3.8c-0.9,0.8-2.5,1.3-4.6,1.3
				C198.7,26.1,197.1,25.6,196.2,24.7z"/>
			<path class="st2" d="M210.3,25.2l2-0.3V9.4l-2-0.3V8.7h8.1c1.6,0,2.9,0.4,4.2,1.1c1.2,0.7,2.2,1.7,2.8,3c0.7,1.3,1,2.8,1,4.5
				c0,1.7-0.3,3.2-1,4.5c-0.7,1.3-1.6,2.3-2.8,3c-1.2,0.7-2.6,1.1-4.1,1.1h-8.1V25.2z M218.4,25.2c1,0,2-0.2,2.8-0.7
				s1.4-1.2,1.9-2.2c0.5-1,0.7-2.1,0.7-3.5v-3.3c0-1.4-0.2-2.5-0.7-3.5s-1.1-1.7-1.9-2.1s-1.7-0.7-2.8-0.7h-3.8v16H218.4z"/>
			<path class="st2" d="M228.5,25.7v-0.4l2-0.3V9.4l-2-0.3V8.7h6.2v0.5l-2,0.3v15.5l2,0.3v0.4H228.5z"/>
			<path class="st2" d="M240.6,25c-1.2-0.8-2.2-1.8-2.8-3.2s-1-2.9-1-4.6c0-1.7,0.3-3.3,1-4.6c0.7-1.4,1.6-2.4,2.8-3.2
				c1.2-0.8,2.6-1.1,4.1-1.1s2.9,0.4,4.1,1.1c1.2,0.8,2.2,1.8,2.8,3.2c0.7,1.4,1,2.9,1,4.6c0,1.7-0.3,3.3-1,4.6s-1.6,2.4-2.8,3.2
				s-2.6,1.1-4.1,1.1S241.8,25.7,240.6,25z M247.5,24.8c0.8-0.5,1.5-1.3,1.9-2.3c0.5-1,0.7-2.2,0.7-3.6v-3.3c0-1.4-0.2-2.6-0.7-3.6
				c-0.5-1-1.1-1.8-1.9-2.3c-0.8-0.5-1.7-0.8-2.8-0.8c-1,0-2,0.3-2.8,0.8c-0.8,0.5-1.4,1.3-1.9,2.3c-0.5,1-0.7,2.2-0.7,3.6v3.3
				c0,1.4,0.2,2.6,0.7,3.6c0.5,1,1.1,1.8,1.9,2.3c0.8,0.5,1.7,0.8,2.8,0.8C245.8,25.6,246.7,25.3,247.5,24.8z"/>
		</g>
		<path class="st1" d="M246.1,40H245c0.1-0.7,0.1-1.6,0.1-2.8c0-0.3,0-0.8,0.1-1.5h0c-0.1,0.3-0.7,1-1.7,2.2c-1,1.2-1.5,1.9-1.5,2.1
			h-0.9c0.1-0.8,0.1-1.8,0.1-2.8c0-1.2-0.1-2.2-0.2-3l1.3-0.2c-0.1,0.8-0.1,1.7-0.1,2.9c0,0.4,0,0.9,0,1.6h0.1
			c0.1-0.3,0.7-1,1.7-2.2c1-1.1,1.5-1.9,1.5-2.1l0.9-0.2c-0.1,0.9-0.1,1.9-0.1,3.2C246,38.2,246.1,39.1,246.1,40z M239.2,40h-1.1
			c0.1-0.7,0.1-1.6,0.1-2.8c0-0.3,0-0.8,0.1-1.5h-0.1c-0.1,0.3-0.7,1-1.7,2.2c-1,1.2-1.5,1.9-1.5,2.1h-0.9c0.1-0.8,0.1-1.8,0.1-2.8
			c0-1.2-0.1-2.2-0.2-3l1.3-0.2c-0.1,0.8-0.1,1.7-0.1,2.9c0,0.4,0,0.9,0,1.6h0.1c0.1-0.3,0.7-1,1.7-2.2c1-1.1,1.5-1.9,1.5-2.1
			l0.9-0.2c-0.1,0.9-0.1,1.9-0.1,3.2C239.2,38.2,239.2,39.1,239.2,40z M233.1,34.1l0,1c-0.7-0.1-1.8-0.1-3.1-0.1c0,0.8,0,1.6,0,2.2
			c0,1,0,1.9,0.1,2.8H229c0.1-0.8,0.1-1.8,0.1-2.8c0-1.2,0-2.2-0.1-3L233.1,34.1L233.1,34.1z M226.5,37.1c0-0.6-0.2-1.2-0.5-1.7
			c-0.3-0.5-0.8-0.7-1.4-0.7c-0.6,0-1.1,0.2-1.4,0.7s-0.5,1-0.5,1.6c0,0.6,0.2,1.2,0.5,1.7c0.3,0.5,0.8,0.7,1.4,0.7
			c0.6,0,1.1-0.2,1.4-0.7C226.4,38.3,226.5,37.7,226.5,37.1z M227.6,36.9c0,1.1-0.3,1.9-0.9,2.5c-0.6,0.6-1.4,0.9-2.2,0.9
			c-0.8,0-1.4-0.3-2-0.8c-0.6-0.5-0.8-1.3-0.8-2.2c0-1.1,0.3-1.9,0.9-2.5c0.6-0.6,1.4-0.9,2.2-0.9c0.8,0,1.4,0.3,2,0.8
			C227.4,35.2,227.6,36,227.6,36.9z M220.2,40h-1.1c0.1-0.7,0.1-1.6,0.1-2.7c0-0.8,0-1.6-0.1-2.4h-1.3c-0.1,0.5-0.3,0.9-0.4,1.4
			c-0.2,0.4-0.3,0.9-0.5,1.2c-0.2,0.4-0.4,0.7-0.5,1.1c-0.2,0.3-0.4,0.6-0.6,0.8c-0.2,0.2-0.4,0.4-0.6,0.5c-0.2,0.1-0.4,0.2-0.6,0.2
			l-0.1-1c0.1,0,0.2-0.1,0.4-0.2c0.1-0.1,0.3-0.3,0.4-0.5c0.2-0.2,0.3-0.5,0.5-0.8c0.2-0.3,0.3-0.6,0.5-1c0.2-0.4,0.3-0.7,0.5-1.2
			c0.1-0.4,0.3-0.9,0.4-1.3h2.1l0.8-0.1c-0.1,0.9-0.1,1.9-0.1,3.2C220.1,38.2,220.1,39.1,220.2,40z M212.8,37.1
			c0-0.6-0.2-1.2-0.5-1.7c-0.3-0.5-0.8-0.7-1.4-0.7c-0.6,0-1.1,0.2-1.4,0.7c-0.3,0.5-0.5,1-0.5,1.6c0,0.6,0.2,1.2,0.5,1.7
			c0.3,0.5,0.8,0.7,1.4,0.7c0.6,0,1.1-0.2,1.4-0.7C212.6,38.3,212.8,37.7,212.8,37.1z M213.9,36.9c0,1.1-0.3,1.9-0.9,2.5
			c-0.6,0.6-1.4,0.9-2.2,0.9c-0.8,0-1.4-0.3-2-0.8c-0.6-0.5-0.8-1.3-0.8-2.2c0-1.1,0.3-1.9,0.9-2.5c0.6-0.6,1.4-0.9,2.2-0.9
			c0.8,0,1.4,0.3,2,0.8C213.6,35.2,213.9,36,213.9,36.9z M207,34.1l0,0.9c-0.7-0.1-1.4-0.1-2-0.1c0,0.6,0,1.3,0,2.2
			c0,1,0,1.9,0.1,2.8h-1.1c0.1-0.8,0.1-1.8,0.1-2.8c0-0.9,0-1.6-0.1-2.2c-0.7,0-1.3,0-2.1,0.1l0-0.9H207z M199.8,36.4
			c0-1.2-0.5-1.7-1.5-1.7s-1.6,0.6-1.8,1.8L199.8,36.4z M200.9,36.4c0,0.2,0,0.4,0,0.7l-4.3,0.1c0.1,0.6,0.3,1.1,0.7,1.5
			c0.4,0.4,1,0.6,1.7,0.6c0.6,0,1.3-0.1,1.8-0.2l-0.1,0.9c-0.4,0.2-1,0.2-1.8,0.2c-1.1,0-1.9-0.3-2.5-0.9c-0.6-0.6-0.9-1.3-0.9-2.1
			c0-0.9,0.3-1.7,0.8-2.3c0.5-0.6,1.2-1,2.1-1c0.8,0,1.4,0.2,1.9,0.7C200.7,35,200.9,35.7,200.9,36.4z M194,40h-1.1
			c0-0.8,0-1.7,0-2.9s0-1.8,0-2.1h-0.1c-0.1,0.3-0.4,0.9-0.7,1.8c-0.9,1.9-1.4,3-1.4,3.2h-0.9c0-0.3-0.4-1.4-1.1-3.1
			c-0.2-0.4-0.4-1-0.7-1.8H188c0,0.3,0,1.1-0.1,2.4c-0.1,1.3-0.1,2.2-0.1,2.6h-1c0-0.1,0.1-1,0.2-2.6c0.2-1.6,0.2-2.7,0.2-3.2h1.6
			c0,0.5,0.3,1.4,0.8,2.6c0.5,1.3,0.8,2,0.8,2.1h0.1c0-0.2,0.3-0.9,0.9-2.1c0.6-1.2,0.9-2.1,0.9-2.6h1.5c0,0.5,0,1.6,0.1,3.2
			C194,39,194,39.8,194,40z M185.6,39.1l-0.1,0.8c-0.4,0.2-0.8,0.3-1.4,0.3c-1.1,0-1.9-0.3-2.5-0.9c-0.6-0.6-0.9-1.3-0.9-2.1
			c0-0.9,0.3-1.6,0.9-2.3c0.6-0.6,1.4-1,2.4-1c0.5,0,0.9,0.1,1.2,0.2l-0.2,1c-0.4-0.2-0.9-0.2-1.3-0.2c-0.6,0-1.1,0.2-1.4,0.6
			c-0.4,0.4-0.5,0.9-0.5,1.5c0,0.7,0.2,1.2,0.6,1.7c0.4,0.5,1,0.7,1.8,0.7C184.5,39.3,185,39.2,185.6,39.1z M178.4,37.1
			c0-0.6-0.2-1.2-0.5-1.7c-0.4-0.5-0.8-0.8-1.4-0.8c-0.6,0-1.1,0.2-1.4,0.7c-0.3,0.5-0.5,1-0.5,1.6c0,0.6,0.2,1.2,0.5,1.7
			c0.3,0.5,0.8,0.7,1.4,0.7c0.6,0,1.1-0.2,1.4-0.7C178.2,38.3,178.4,37.7,178.4,37.1z M179.5,36.9c0,1.1-0.3,1.9-0.9,2.5
			s-1.4,0.9-2.2,0.9c-0.8,0-1.4-0.3-2-0.8c-0.6-0.5-0.8-1.3-0.8-2.2c0-1.1,0.3-1.9,0.9-2.5c0.6-0.6,1.4-0.9,2.2-0.9
			c0.8,0,1.4,0.3,2,0.8C179.2,35.2,179.5,36,179.5,36.9z M172.4,40h-1.1c0-0.1-0.1-0.2-0.2-0.3c-0.3-0.9-0.6-1.5-0.9-1.8
			c-0.3-0.3-0.7-0.5-1.2-0.5c-0.2,0-0.4,0-0.7,0c0,1,0,1.8,0.1,2.6h-1.1c0.1-0.8,0.1-1.8,0.1-2.8c0-1.2-0.1-2.2-0.2-3l1.3-0.2
			c-0.1,0.8-0.1,1.7-0.1,2.6c0.2,0,0.5,0,0.7,0c0.9,0,1.6-0.7,2-2.2c0-0.1,0.1-0.2,0.1-0.3h1c-0.1,0.1-0.1,0.3-0.2,0.5
			c-0.5,1.3-1,2-1.6,2.3V37c0.4,0.1,0.7,0.3,1,0.7c0.3,0.4,0.5,0.9,0.8,1.6C172.2,39.5,172.3,39.8,172.4,40z M162.3,31.5
			c0,0.5-0.1,0.9-0.4,1.2c-0.3,0.4-0.8,0.6-1.5,0.6c-0.7,0-1.3-0.2-1.6-0.6c-0.3-0.4-0.5-0.8-0.5-1.2l0.9-0.1c0,0.8,0.4,1.2,1.1,1.2
			c0.4,0,0.7-0.1,0.9-0.3c0.2-0.2,0.2-0.5,0.2-0.9L162.3,31.5z M162.8,40h-1.1c0.1-0.7,0.1-1.6,0.1-2.8c0-0.3,0-0.8,0.1-1.5h-0.1
			c-0.1,0.3-0.7,1-1.7,2.2c-1,1.2-1.5,1.9-1.5,2.1h-0.9c0.1-0.8,0.1-1.8,0.1-2.8c0-1.2-0.1-2.2-0.2-3l1.3-0.2
			c-0.1,0.8-0.1,1.7-0.1,2.9c0,0.4,0,0.9,0,1.6h0.1c0.1-0.3,0.7-1,1.7-2.2c1-1.1,1.5-1.9,1.5-2.1l0.9-0.2c-0.1,0.9-0.1,1.9-0.1,3.2
			C162.8,38.2,162.8,39.1,162.8,40z M155.1,37.1c0-0.6-0.2-1.2-0.5-1.7c-0.3-0.5-0.8-0.7-1.4-0.7c-0.6,0-1.1,0.2-1.4,0.7
			c-0.3,0.5-0.5,1-0.5,1.6c0,0.6,0.2,1.2,0.5,1.7c0.3,0.5,0.8,0.7,1.4,0.7c0.6,0,1.1-0.2,1.4-0.7C154.9,38.3,155.1,37.7,155.1,37.1z
			 M156.2,36.9c0,1.1-0.3,1.9-0.9,2.5s-1.4,0.9-2.2,0.9c-0.8,0-1.4-0.3-2-0.8c-0.6-0.5-0.8-1.3-0.8-2.2c0-1.1,0.3-1.9,0.9-2.5
			c0.6-0.6,1.4-0.9,2.2-0.9c0.8,0,1.4,0.3,2,0.8C155.9,35.2,156.2,36,156.2,36.9z M148.7,40h-1.1c0.1-0.8,0.1-1.7,0.1-2.7h-3
			c0,0.9,0,1.8,0.1,2.7h-1.1c0.1-0.8,0.1-1.8,0.1-2.8c0-1.2-0.1-2.2-0.2-3l1.2-0.2c0,0.3-0.1,1.1-0.1,2.5h3c0-0.9-0.1-1.7-0.2-2.3
			l1.2-0.2c-0.1,0.9-0.1,1.9-0.1,3.2C148.6,38.2,148.7,39.1,148.7,40z M141.2,37.3c0-0.6-0.2-1.1-0.5-1.6c-0.3-0.4-0.8-0.6-1.4-0.6
			c-0.9,0-1.6,0.3-2,0.9c0,1.2,0.2,2.2,0.5,2.7c0.3,0.6,0.8,0.8,1.5,0.8c0.6,0,1.1-0.2,1.4-0.7C141,38.4,141.2,37.8,141.2,37.3z
			 M142.3,37c0,1-0.3,1.8-1,2.4c-0.6,0.6-1.4,0.8-2.2,0.8c-1.1,0-1.9-0.4-2.4-1.3c-0.3-0.6-0.5-1.7-0.5-3.1c0-1.5,0.4-2.7,1-3.4
			c0.6-0.6,1.4-0.9,2.6-1c0.7-0.1,1.4-0.2,2.2-0.3l-0.1,1c-0.4,0-1.1,0.1-2.2,0.2c-0.9,0.1-1.5,0.3-1.8,0.6
			c-0.5,0.4-0.7,1.1-0.7,2.1h0.1c0.5-0.6,1.2-0.9,2.1-0.9c0.8,0,1.5,0.2,2.1,0.7C142,35.4,142.3,36.1,142.3,37z M133.8,36.4
			c0-1.2-0.5-1.7-1.5-1.7s-1.6,0.6-1.8,1.8L133.8,36.4z M134.9,36.4c0,0.2,0,0.4,0,0.7l-4.3,0.1c0.1,0.6,0.3,1.1,0.7,1.5
			c0.4,0.4,1,0.6,1.7,0.6c0.6,0,1.3-0.1,1.8-0.2l-0.1,0.9c-0.4,0.2-1,0.2-1.8,0.2c-1.1,0-1.9-0.3-2.5-0.9c-0.6-0.6-0.9-1.3-0.9-2.1
			c0-0.9,0.3-1.7,0.8-2.3c0.5-0.6,1.2-1,2.1-1c0.8,0,1.4,0.2,1.9,0.7C134.7,35,134.9,35.7,134.9,36.4z M128,40h-1.1
			c0.1-0.7,0.1-1.6,0.1-2.7c-0.5,0.3-1.1,0.4-1.8,0.4c-0.7,0-1.2-0.2-1.6-0.5c-0.4-0.3-0.5-1-0.5-2c0-0.2,0-0.6-0.1-1l1.1-0.2
			c0,0.4-0.1,0.7-0.1,1c0,0.7,0.1,1.2,0.3,1.5c0.2,0.3,0.5,0.4,1.1,0.4c0.6,0,1.1-0.1,1.5-0.3c0-1-0.1-1.8-0.2-2.4l1.2-0.2
			c-0.1,0.9-0.1,1.9-0.1,3.2C127.9,38.2,128,39.1,128,40z M120.9,38.8c0-0.6,0-1.2,0-1.7c-0.8,0-1.4,0.1-1.8,0.2
			c-0.7,0.2-1,0.6-1,1.2c0,0.6,0.4,0.9,1.2,0.9C119.9,39.3,120.4,39.1,120.9,38.8z M122,40l-1,0c-0.1-0.2-0.1-0.4-0.1-0.6h-0.1
			c-0.5,0.5-1.2,0.7-2.1,0.7c-0.5,0-0.9-0.1-1.3-0.4c-0.4-0.3-0.5-0.7-0.5-1.2c0-0.6,0.3-1.1,0.8-1.5c0.5-0.4,1.6-0.6,3.1-0.6
			c0-0.1,0-0.2,0-0.3c0-0.5-0.1-0.9-0.4-1c-0.3-0.2-0.7-0.3-1.3-0.3c-0.7,0-1.3,0.1-2,0.2l0.1-0.9c0.6-0.2,1.4-0.3,2.2-0.3
			c0.8,0,1.3,0.2,1.7,0.5c0.4,0.3,0.6,0.8,0.6,1.5c0,0.2,0,0.6,0,1.1c0,0.5,0,0.9,0,1C121.8,38.8,121.9,39.4,122,40z M114.6,37
			c0-0.6-0.2-1.1-0.5-1.6c-0.3-0.5-0.8-0.6-1.4-0.6c-0.8,0-1.3,0.2-1.6,0.7c0.1,1.4,0.1,2.6,0.1,3.6c0.4,0.3,0.8,0.4,1.3,0.4
			c0.7,0,1.2-0.2,1.6-0.7C114.4,38.2,114.6,37.7,114.6,37z M115.7,36.8c0,0.9-0.3,1.7-0.8,2.3c-0.5,0.7-1.3,1-2.2,1
			c-0.8,0-1.3-0.1-1.5-0.4h-0.1c0,1.1,0,2.2,0,3.1H110c0.1-1.1,0.1-2.4,0.1-4.1c0-2-0.1-3.5-0.3-4.6L111,34l0.1,0.6h0.1
			c0.4-0.5,1.1-0.7,2-0.7c0.8,0,1.4,0.3,1.9,0.9C115.5,35.4,115.7,36.1,115.7,36.8z M107.2,35.7c0-0.6-0.4-0.9-1.3-0.9
			c-0.4,0-0.9,0-1.5,0.1c0,0.6,0.1,1.2,0.1,1.7c0.5,0,1,0,1.3,0c0.4,0,0.8-0.1,1-0.3C107.1,36.2,107.2,36,107.2,35.7z M107.5,38.3
			c0-0.4-0.2-0.7-0.6-0.9c-0.2-0.1-0.6-0.1-1.1-0.1c-0.4,0-0.8,0-1.2,0.1c0,0.7,0,1.3,0,1.8c0.4,0.1,0.8,0.1,1.4,0.1
			C106.9,39.3,107.5,39,107.5,38.3z M108.5,38.3c0,0.6-0.2,1-0.7,1.3c-0.5,0.3-1.2,0.5-2.1,0.5c-0.5,0-1.2,0-2.2,0
			c0.1-0.6,0.1-1.5,0.1-2.8c0-1.2-0.1-2.2-0.2-3h0.7c0.6-0.1,1.3-0.1,1.9-0.1c1.5,0,2.3,0.5,2.3,1.4c0,0.7-0.3,1.1-0.9,1.4v0.1
			C108.1,37,108.5,37.5,108.5,38.3z M98.1,37c0-0.6-0.2-1.1-0.5-1.6c-0.3-0.4-0.8-0.6-1.4-0.6c-0.8,0-1.3,0.2-1.6,0.7
			c0.1,1.4,0.1,2.6,0.1,3.6c0.4,0.3,0.8,0.4,1.3,0.4c0.7,0,1.2-0.2,1.6-0.7C97.9,38.2,98.1,37.7,98.1,37z M99.2,36.8
			c0,0.9-0.3,1.7-0.8,2.3c-0.5,0.7-1.3,1-2.2,1c-0.8,0-1.3-0.1-1.5-0.4h-0.1c0,1.1,0,2.2,0,3.1h-1.2c0.1-1.1,0.1-2.4,0.1-4.1
			c0-2-0.1-3.5-0.3-4.6l1.1-0.2l0.1,0.6h0.1c0.4-0.5,1.1-0.7,2-0.7c0.8,0,1.4,0.3,1.9,0.9C99,35.4,99.2,36.1,99.2,36.8z M92.3,34.1
			l0,0.9C91.6,35,91,35,90.3,35c0,0.6,0,1.3,0,2.2c0,1,0,1.9,0.1,2.8h-1.1c0.1-0.8,0.1-1.8,0.1-2.8c0-0.9,0-1.6-0.1-2.2
			c-0.7,0-1.3,0-2.1,0.1l0-0.9H92.3z M86.1,40h-1.1c0.1-0.8,0.1-1.7,0.1-2.7h-3c0,0.9,0,1.8,0.1,2.7h-1.1c0.1-0.8,0.1-1.8,0.1-2.8
			c0-1.2-0.1-2.2-0.2-3L82,34c0,0.3-0.1,1.1-0.1,2.5h3c0-0.9-0.1-1.7-0.2-2.3L86,34c0,0.9,0,1.9,0,3.2C86,38.2,86,39.1,86.1,40z
			 M78.5,36.4c0-1.2-0.5-1.7-1.5-1.7c-1,0-1.6,0.6-1.8,1.8L78.5,36.4z M79.5,36.4c0,0.2,0,0.4,0,0.7l-4.3,0.1
			c0.1,0.6,0.3,1.1,0.7,1.5c0.4,0.4,1,0.6,1.7,0.6c0.6,0,1.3-0.1,1.8-0.2l-0.1,0.9c-0.4,0.2-1,0.2-1.8,0.2c-1.1,0-1.9-0.3-2.5-0.9
			c-0.6-0.6-0.9-1.3-0.9-2.1c0-0.9,0.3-1.7,0.8-2.3c0.5-0.6,1.2-1,2.1-1c0.8,0,1.4,0.2,1.9,0.7C79.3,35,79.5,35.7,79.5,36.4z
			 M73.1,39.2c0,0.2-0.1,0.7-0.1,1.5c-0.1,0.8-0.1,1.4-0.1,1.8h-0.7c0-0.5,0-1.4,0-2.6h-4.8c0.1-0.8,0.1-1.8,0.1-2.8
			c0-1.2-0.1-2.2-0.2-3l1.3-0.2c-0.1,0.9-0.1,1.9-0.1,3.2c0,0.5,0,1.2,0,2h2.7c0-0.8,0-1.5,0-2c0-1.2-0.1-2.2-0.2-3l1.3-0.2
			C72,34.9,72,36,72,37.2c0,0.7,0,1.4,0.1,2H73.1z"/>
	</g>
</g>
<g>
	<defs>
		<rect id="SVGID_3_" width="50" height="50"/>
	</defs>
	<clipPath id="SVGID_4_">
		<use xlink:href="#SVGID_3_"  style="overflow:visible;"/>
	</clipPath>
	<g class="st3">
		<path class="st2" d="M18.4,18.4c-0.8-0.5-1.6-0.7-2.5,0c-0.3-0.5-0.1-1.4,0.5-2c0.6-0.6,1.5-0.8,2-0.5
			C17.6,16.8,17.9,17.6,18.4,18.4z"/>
		<path class="st2" d="M25,6.6c0.2,0.3,0.4,0.7,0.5,1c0.2,0.3,0.2,0.5,0.2,0.8s0,0.6-0.2,0.9C25.4,9.6,25.2,9.8,25,10
			c-0.2-0.2-0.5-0.4-0.6-0.7c-0.2-0.3-0.2-0.7-0.2-0.9c0-0.2,0.1-0.5,0.2-0.8C24.6,7.3,24.7,6.9,25,6.6z M27.6,0
			c-1.1-0.1-2.3,0.7-2.6,1.8C25,2.2,25,2.6,25.1,3.1c0.4,1.1,1.5,2,2,3.1c0.4,0.8,0.7,2.2,0.7,3.2c0,0.4-0.1,0.8-0.2,1.1
			c-0.1,0.3-0.2,0.6-0.4,0.8c-0.2,0.2-0.5,0.3-0.8,0.3c-0.3,0-0.5,0-0.5,0c0,0,0-0.2,0-0.4c0.1-0.2,0.4-0.6,0.6-0.9
			c0.2-0.5,0.4-1.3,0.3-1.8c-0.1-0.3-0.2-0.7-0.5-1.1c-0.2-0.4-0.6-1-0.8-1.4c-0.2-0.4-0.4-0.7-0.5-0.9C25,4.8,25,4.5,24.9,4.5
			c0,0.1-0.1,0.3-0.2,0.6c-0.1,0.3-0.2,0.5-0.5,0.9c-0.2,0.4-0.5,0.9-0.8,1.4c-0.2,0.4-0.4,0.8-0.5,1.1c-0.1,0.5,0,1.4,0.3,1.8
			c0.2,0.3,0.5,0.7,0.6,0.9c0.1,0.2,0.1,0.4,0,0.4c0,0-0.3,0-0.5,0c-0.3,0-0.6-0.1-0.8-0.3c-0.2-0.2-0.4-0.5-0.4-0.8
			C22.1,10.1,22,9.7,22,9.3c0-0.9,0.3-2.4,0.7-3.2c0.5-1,1.6-1.9,2-3.1c0.2-0.5,0.2-0.9,0.1-1.2c-0.3-1.2-1.5-2-2.6-1.8
			c0.8,0.4,1.7,1.2,1.4,1.9c-0.1,0.3-0.4,0.7-0.7,1.1c-0.3,0.4-1.8,1.4-2,1.7c-0.2,0.3-0.4,0.6-0.4,1c0,0.4,0.1,0.9,0.1,1
			c-0.2-0.1-0.2-0.1-0.5-0.3c-0.3-0.2-0.6-0.3-1-0.3c-0.4,0-0.8,0.1-1.1,0.3c-0.4,0.2-0.7,0.4-0.9,0.7c-0.2,0.3-0.3,0.6-0.3,0.7
			c0,0.1,0.1-0.1,0.4-0.3c0.2-0.1,0.7-0.2,1.1-0.2c0.4,0,0.9,0.4,1.2,0.7l0,0.1c0.6,0.8,0.8,2.7,1.2,3.7c0.2,0.6,0.7,1,1.2,1.3
			c0.4,0.2,0.9,0.4,1.4,0.4c0,0.1-0.3,0.3-0.4,0.3c-0.8,0.3-1.8,0.2-2.5-0.2c-1.2-0.6-2.5-2.6-2-3.9c0.1-0.3,0.4-0.5,0.8-0.5
			c-0.4-0.2-1,0-1.2,0.3c-0.2,0.3-0.2,0.7-0.2,0.9c-0.2-0.2-0.7-0.3-0.9-0.3c-0.3-0.1-0.8,0-1.1,0.1c-0.3,0.1-0.6,0.2-0.9,0.4
			c-0.3,0.2-0.6,0.5-0.9,0.8c-0.2,0.3-0.4,0.5-0.5,0.8c-0.1,0.3-0.1,0.3-0.1,0.5c0,0.1-0.1,0.6,0.1,0.8c0-0.5,0.3-1.2,0.9-1.2
			c-0.1,0.1-0.1,0.3-0.2,0.5C14,14,15,15.1,16,15.6c-0.1-0.1-0.3-0.5-0.4-0.8c-0.1-0.3-0.1-0.4-0.1-0.7c0-0.3,0-0.5,0.1-0.8
			c0.2-0.7,1-0.9,1.7-0.7c0.2,0.1,0.5,0.3,0.6,0.4c0.4,0.8,0.4,1.2,1.3,1.8c0.1,0.1,0.3,0.2,0.8,0.4c-0.2,0.3-0.3,0.5-0.5,0.8
			c-0.2,0.5-0.2,1.3,0.2,1.7c0.2,0.2,0.7,0.6,1.2,0.7c-0.3-0.2-0.3-0.4-0.3-0.6c0-0.2,0-0.4,0-0.7c0-0.3,0.2-0.6,0.4-0.8
			c0.3-0.3,1.4-0.3,1.8-0.4c0.7-0.1,1.1-0.4,1.4-0.8c0.2-0.2,0.4-0.5,0.6-1.1c0.1-0.3,0.1-0.6,0.1-1.1c0-0.3,0-0.7,0-1.1
			c0,0.4,0,0.8,0,1.1c0,0.5,0.1,0.8,0.1,1.1c0.1,0.6,0.4,0.9,0.6,1.1c0.4,0.4,0.8,0.6,1.4,0.8c0.4,0.1,1.6,0.2,1.8,0.4
			c0.2,0.2,0.3,0.5,0.4,0.8c0,0.3,0,0.5,0,0.7c0,0.2-0.1,0.4-0.3,0.6c0.5,0,1-0.4,1.2-0.7c0.3-0.4,0.4-1.2,0.2-1.7
			c-0.1-0.3-0.2-0.4-0.5-0.8c0.5-0.2,0.7-0.3,0.8-0.4c0.8-0.6,0.8-1,1.3-1.8c0.1-0.2,0.3-0.4,0.6-0.4c0.6-0.2,1.4,0,1.7,0.7
			c0.1,0.3,0.1,0.5,0.1,0.8c0,0.3,0,0.5-0.1,0.7c-0.1,0.3-0.2,0.7-0.4,0.8c1.1-0.5,2.1-1.6,1.7-2.8c-0.1-0.2-0.1-0.4-0.2-0.5
			c0.6,0,0.9,0.6,0.9,1.2c0.2-0.2,0.1-0.7,0.1-0.8c0-0.2,0-0.2-0.1-0.5c-0.1-0.3-0.2-0.5-0.5-0.8c-0.2-0.3-0.6-0.6-0.9-0.8
			c-0.3-0.2-0.6-0.3-0.9-0.4C33.7,10,33.2,10,32.9,10c-0.2,0-0.6,0.1-0.9,0.3c0-0.2,0-0.6-0.2-0.9S31,8.9,30.6,9.1
			c0.4,0,0.7,0.2,0.8,0.5c0.4,1.3-0.9,3.2-2,3.9c-0.7,0.4-1.8,0.4-2.5,0.2c-0.2-0.1-0.4-0.3-0.4-0.3c0.5,0,1-0.2,1.4-0.4
			c0.6-0.3,1-0.7,1.2-1.3c0.4-1,0.6-2.9,1.2-3.7l0-0.1c0.3-0.3,0.8-0.7,1.2-0.7c0.4,0,0.9,0.1,1.1,0.2c0.2,0.1,0.4,0.4,0.4,0.3
			c0-0.1-0.1-0.4-0.3-0.7c-0.2-0.3-0.5-0.5-0.9-0.7c-0.4-0.2-0.7-0.3-1.1-0.3c-0.4,0-0.7,0.2-1,0.3c-0.3,0.2-0.2,0.2-0.5,0.3
			c0-0.1,0.1-0.7,0.1-1c0-0.4-0.2-0.7-0.4-1c-0.2-0.3-1.7-1.3-2-1.7s-0.6-0.8-0.7-1.1C26,1.2,26.9,0.4,27.6,0z"/>
		<path class="st2" d="M43.4,24.9c-0.3,0.2-0.7,0.4-1,0.5c-0.3,0.2-0.5,0.2-0.8,0.2c-0.2,0-0.6,0-0.9-0.2c-0.3-0.2-0.5-0.4-0.7-0.6
			c0.2-0.2,0.4-0.5,0.7-0.6c0.3-0.2,0.7-0.2,0.9-0.2c0.2,0,0.5,0.1,0.8,0.2C42.7,24.5,43.1,24.7,43.4,24.9z M50,27.6
			c0.1-1.1-0.7-2.3-1.8-2.6c-0.4-0.1-0.8-0.1-1.2,0.1c-1.1,0.4-2,1.5-3.1,2c-0.8,0.4-2.2,0.7-3.2,0.7c-0.4,0-0.8-0.1-1.1-0.2
			c-0.3-0.1-0.6-0.2-0.8-0.5c-0.2-0.2-0.3-0.5-0.3-0.8c0-0.3,0-0.5,0-0.5c0,0,0.2,0,0.4,0c0.2,0.1,0.6,0.4,0.9,0.6
			c0.5,0.2,1.3,0.4,1.8,0.3c0.3-0.1,0.7-0.2,1.1-0.5c0.4-0.2,1-0.6,1.4-0.8c0.4-0.2,0.7-0.4,0.9-0.5c0.3-0.1,0.5-0.1,0.6-0.2
			c-0.1,0-0.3-0.1-0.6-0.2c-0.3-0.1-0.5-0.2-0.9-0.5c-0.4-0.2-0.9-0.5-1.4-0.8c-0.4-0.2-0.8-0.4-1.1-0.5c-0.5-0.1-1.4,0-1.8,0.3
			c-0.3,0.2-0.7,0.5-0.9,0.6c-0.2,0.1-0.4,0.1-0.4,0c0,0,0-0.3,0-0.5c0-0.3,0.1-0.6,0.3-0.8s0.5-0.4,0.8-0.5
			c0.3-0.1,0.7-0.2,1.1-0.2c0.9,0,2.4,0.3,3.2,0.7c1,0.5,1.9,1.6,3.1,2c0.5,0.2,0.8,0.2,1.2,0.1c1.2-0.3,2-1.5,1.8-2.6
			c-0.4,0.8-1.2,1.7-1.9,1.4c-0.3-0.1-0.7-0.5-1.1-0.7c-0.4-0.3-1.4-1.8-1.7-2c-0.3-0.2-0.6-0.4-1-0.4c-0.4,0-0.9,0.1-1,0.1
			c0.1-0.2,0.1-0.2,0.3-0.5c0.2-0.3,0.3-0.6,0.3-1c0-0.4-0.1-0.8-0.3-1.1c-0.2-0.4-0.4-0.7-0.7-0.9c-0.3-0.2-0.6-0.3-0.7-0.3
			c-0.1,0,0.1,0.1,0.3,0.4c0.1,0.2,0.2,0.7,0.2,1.1c0,0.4-0.4,0.9-0.7,1.2l-0.1,0c-0.8,0.6-2.6,0.8-3.7,1.2c-0.6,0.2-1,0.7-1.3,1.2
			c-0.2,0.4-0.4,0.9-0.4,1.4c-0.1,0-0.3-0.3-0.3-0.5c-0.3-0.8-0.2-1.8,0.2-2.5c0.6-1.2,2.6-2.5,3.9-2c0.3,0.1,0.5,0.4,0.5,0.8
			c0.2-0.4,0-1-0.3-1.2c-0.3-0.2-0.7-0.2-0.9-0.2c0.2-0.2,0.3-0.7,0.3-0.9c0.1-0.3,0-0.8-0.1-1.1c-0.1-0.3-0.2-0.6-0.4-0.9
			c-0.2-0.3-0.5-0.6-0.8-0.9c-0.3-0.2-0.5-0.4-0.8-0.5c-0.3-0.1-0.3-0.1-0.5-0.1c-0.1,0-0.6-0.1-0.8,0.1c0.5,0,1.2,0.3,1.2,0.9
			c-0.1-0.1-0.3-0.1-0.5-0.2C36,13.9,35,14.9,34.5,16c0.1-0.1,0.5-0.3,0.8-0.4c0.3-0.1,0.4-0.1,0.7-0.1c0.3,0,0.5,0,0.8,0.1
			c0.7,0.2,0.9,1,0.7,1.7c-0.1,0.2-0.3,0.5-0.4,0.6c-0.8,0.5-1.2,0.4-1.8,1.3c-0.1,0.1-0.2,0.3-0.4,0.8c-0.3-0.2-0.5-0.3-0.8-0.5
			c-0.5-0.2-1.3-0.2-1.7,0.2c-0.2,0.2-0.6,0.7-0.7,1.2c0.2-0.3,0.4-0.3,0.6-0.3c0.2,0,0.4,0,0.7,0c0.3,0,0.6,0.2,0.8,0.4
			c0.3,0.3,0.3,1.4,0.4,1.8c0.1,0.7,0.4,1.1,0.8,1.4c0.2,0.2,0.5,0.4,1.1,0.6c0.3,0.1,0.6,0.1,1.1,0.1c0.3,0,0.7,0,1.1,0
			c-0.4,0-0.8,0-1.1,0c-0.5,0-0.8,0.1-1.1,0.1c-0.6,0.1-0.9,0.4-1.1,0.6c-0.4,0.4-0.6,0.8-0.8,1.4c-0.1,0.4-0.2,1.6-0.4,1.8
			c-0.2,0.2-0.5,0.3-0.8,0.4c-0.3,0-0.5,0-0.7,0c-0.2,0-0.4-0.1-0.6-0.3c0,0.5,0.4,1,0.7,1.2c0.4,0.3,1.2,0.4,1.7,0.2
			c0.3-0.1,0.4-0.2,0.8-0.5c0.2,0.5,0.3,0.7,0.4,0.8c0.6,0.8,1,0.8,1.8,1.3c0.2,0.1,0.4,0.3,0.4,0.6c0.2,0.6,0,1.4-0.7,1.7
			c-0.3,0.1-0.5,0.1-0.8,0.1c-0.3,0-0.5,0-0.7-0.1c-0.3-0.1-0.7-0.2-0.8-0.4c0.5,1.1,1.6,2.1,2.8,1.7c0.2-0.1,0.4-0.1,0.5-0.2
			c0,0.6-0.6,0.9-1.2,0.9c0.2,0.2,0.7,0.1,0.8,0.1c0.2,0,0.2,0,0.5-0.1c0.3-0.1,0.5-0.2,0.8-0.5c0.3-0.2,0.6-0.6,0.8-0.9
			c0.2-0.3,0.3-0.6,0.4-0.9c0.1-0.3,0.1-0.8,0.1-1.1c0-0.2-0.1-0.6-0.3-0.9c0.2,0,0.6,0,0.9-0.2c0.3-0.2,0.5-0.8,0.3-1.2
			c0,0.4-0.2,0.7-0.5,0.8c-1.3,0.4-3.2-0.9-3.9-2c-0.4-0.7-0.4-1.8-0.2-2.5c0.1-0.2,0.3-0.4,0.3-0.5c0,0.5,0.2,1,0.4,1.4
			c0.3,0.6,0.7,1,1.3,1.2c1,0.4,2.9,0.6,3.7,1.2l0.1,0c0.3,0.3,0.7,0.8,0.7,1.2c0,0.4-0.1,0.9-0.2,1.1c-0.1,0.2-0.4,0.4-0.3,0.4
			c0.1,0,0.4-0.1,0.7-0.3c0.3-0.2,0.5-0.5,0.7-0.9c0.2-0.4,0.3-0.7,0.3-1.1c0-0.4-0.2-0.7-0.3-1c-0.2-0.3-0.2-0.2-0.3-0.5
			c0.1,0,0.7,0.1,1,0.1c0.4,0,0.7-0.2,1-0.4s1.3-1.7,1.7-2c0.4-0.3,0.8-0.6,1.1-0.7C48.8,25.9,49.6,26.9,50,27.6z"/>
		<path class="st2" d="M24.7,43.4c-0.2-0.3-0.4-0.7-0.5-1C24,42.1,24,41.9,24,41.6c0-0.2,0-0.6,0.2-0.9c0.2-0.3,0.4-0.5,0.6-0.7
			c0.2,0.2,0.5,0.4,0.6,0.7c0.2,0.3,0.2,0.7,0.2,0.9c0,0.2-0.1,0.5-0.2,0.8C25.1,42.7,24.9,43.1,24.7,43.4z M22.1,50
			c1.1,0.1,2.3-0.7,2.6-1.8c0.1-0.4,0.1-0.8-0.1-1.2c-0.4-1.1-1.5-2-2-3.1c-0.4-0.8-0.7-2.2-0.7-3.2c0-0.4,0.1-0.8,0.2-1.1
			c0.1-0.3,0.2-0.6,0.4-0.8c0.2-0.2,0.5-0.3,0.8-0.3c0.3,0,0.5,0,0.5,0c0,0,0,0.2,0,0.4c-0.1,0.2-0.4,0.6-0.6,0.9
			c-0.2,0.5-0.4,1.3-0.3,1.8c0.1,0.3,0.2,0.7,0.5,1.1c0.2,0.4,0.6,1,0.8,1.4c0.2,0.4,0.4,0.7,0.5,0.9c0.1,0.3,0.1,0.5,0.2,0.6
			c0-0.1,0.1-0.3,0.2-0.6c0.1-0.3,0.2-0.5,0.5-0.9c0.2-0.4,0.5-0.9,0.8-1.4c0.2-0.4,0.4-0.8,0.5-1.1c0.1-0.5,0-1.4-0.3-1.8
			c-0.2-0.3-0.5-0.7-0.6-0.9c-0.1-0.2-0.1-0.4,0-0.4c0,0,0.3,0,0.5,0c0.3,0,0.6,0.1,0.8,0.3c0.2,0.2,0.4,0.5,0.4,0.8
			c0.1,0.3,0.2,0.7,0.2,1.1c0,0.9-0.3,2.4-0.7,3.2c-0.5,1-1.6,1.9-2,3.1c-0.2,0.5-0.2,0.9-0.1,1.2c0.3,1.2,1.5,2,2.6,1.8
			c-0.8-0.4-1.7-1.2-1.4-1.9c0.1-0.3,0.4-0.7,0.7-1.1c0.3-0.4,1.8-1.4,2-1.7c0.2-0.3,0.4-0.6,0.4-1c0-0.4-0.1-0.9-0.1-1
			c0.2,0.1,0.2,0.1,0.5,0.3c0.3,0.2,0.6,0.3,1,0.3c0.4,0,0.8-0.1,1.1-0.3c0.4-0.2,0.7-0.4,0.9-0.7c0.2-0.3,0.3-0.6,0.3-0.7
			c0-0.1-0.1,0.1-0.4,0.3c-0.2,0.1-0.7,0.2-1.1,0.2c-0.4,0-0.9-0.4-1.2-0.7l0-0.1c-0.6-0.8-0.8-2.7-1.2-3.7c-0.2-0.6-0.7-1-1.2-1.3
			c-0.4-0.2-0.9-0.4-1.4-0.4c0-0.1,0.3-0.3,0.4-0.3c0.8-0.3,1.8-0.2,2.5,0.2c1.2,0.6,2.5,2.6,2,3.9c-0.1,0.3-0.4,0.5-0.8,0.5
			c0.4,0.2,1,0,1.2-0.3c0.2-0.3,0.2-0.7,0.2-0.9c0.2,0.2,0.7,0.3,0.9,0.3c0.3,0.1,0.8,0,1.1-0.1c0.3-0.1,0.6-0.2,0.9-0.4
			c0.3-0.2,0.6-0.5,0.9-0.8c0.2-0.3,0.4-0.5,0.5-0.8c0.1-0.3,0.1-0.3,0.1-0.5c0-0.1,0.1-0.6-0.1-0.8c0,0.5-0.3,1.2-0.9,1.2
			c0.1-0.1,0.1-0.3,0.2-0.5c0.3-1.3-0.6-2.4-1.7-2.8c0.1,0.1,0.3,0.5,0.4,0.8c0.1,0.3,0.1,0.5,0.1,0.7c0,0.3,0,0.5-0.1,0.8
			c-0.2,0.7-1,0.9-1.7,0.7c-0.2-0.1-0.5-0.3-0.6-0.5c-0.4-0.8-0.4-1.2-1.3-1.8c-0.1-0.1-0.3-0.2-0.8-0.4c0.2-0.3,0.3-0.5,0.5-0.8
			c0.2-0.5,0.2-1.3-0.2-1.7c-0.2-0.2-0.7-0.6-1.2-0.7c0.3,0.2,0.3,0.4,0.3,0.6c0,0.2,0,0.4,0,0.7c0,0.3-0.2,0.6-0.4,0.8
			c-0.3,0.3-1.4,0.3-1.8,0.4c-0.7,0.1-1.1,0.4-1.4,0.8c-0.2,0.2-0.4,0.5-0.6,1.1c-0.1,0.3-0.1,0.6-0.1,1.1c0,0.3,0,0.7,0,1.1
			c0-0.4,0-0.8,0-1.1c0-0.5-0.1-0.8-0.1-1.1c-0.1-0.6-0.4-0.9-0.6-1.1c-0.4-0.4-0.8-0.6-1.4-0.8c-0.4-0.1-1.6-0.2-1.8-0.4
			c-0.2-0.2-0.3-0.5-0.4-0.8c0-0.3,0-0.5,0-0.7c0-0.2,0.1-0.4,0.3-0.6c-0.5,0-1,0.4-1.2,0.7c-0.3,0.4-0.4,1.2-0.2,1.7
			c0.1,0.3,0.2,0.4,0.5,0.8c-0.5,0.2-0.7,0.3-0.8,0.4c-0.8,0.6-0.8,1-1.3,1.8c-0.1,0.2-0.3,0.4-0.6,0.5c-0.6,0.2-1.4,0-1.7-0.7
			c-0.1-0.3-0.1-0.5-0.1-0.8c0-0.3,0-0.5,0.1-0.7c0.1-0.3,0.2-0.7,0.4-0.8c-1.1,0.5-2.1,1.6-1.7,2.8c0.1,0.2,0.1,0.4,0.2,0.5
			c-0.6,0-0.9-0.6-0.9-1.2c-0.2,0.2-0.1,0.7-0.1,0.8c0,0.2,0,0.2,0.1,0.5c0.1,0.3,0.2,0.5,0.5,0.8c0.2,0.3,0.6,0.6,0.9,0.8
			c0.3,0.2,0.6,0.3,0.9,0.4C16,40,16.5,40,16.8,40c0.2,0,0.6-0.1,0.9-0.3c0,0.2,0,0.6,0.2,0.9c0.2,0.3,0.8,0.5,1.2,0.3
			c-0.4,0-0.7-0.2-0.8-0.5c-0.4-1.3,0.9-3.2,2-3.9c0.7-0.4,1.8-0.5,2.5-0.2c0.2,0.1,0.4,0.3,0.4,0.3c-0.5,0-1,0.2-1.4,0.4
			c-0.6,0.3-1,0.7-1.2,1.3c-0.4,1-0.6,2.9-1.2,3.7l0,0.1c-0.3,0.3-0.8,0.7-1.2,0.7c-0.4,0-0.9-0.1-1.1-0.2c-0.2-0.1-0.4-0.4-0.4-0.3
			c0,0.1,0.1,0.4,0.3,0.7c0.2,0.3,0.5,0.5,0.9,0.7c0.4,0.2,0.7,0.3,1.1,0.3c0.4,0,0.7-0.2,1-0.3c0.3-0.2,0.2-0.2,0.5-0.3
			c0,0.1-0.1,0.7-0.1,1c0,0.4,0.2,0.7,0.4,1c0.2,0.3,1.7,1.3,2,1.7c0.3,0.4,0.6,0.8,0.7,1.1C23.7,48.8,22.8,49.5,22.1,50z"/>
		<path class="st2" d="M6.6,24.9c0.3-0.2,0.7-0.4,1-0.5c0.3-0.2,0.5-0.2,0.8-0.2c0.2,0,0.6,0,0.9,0.2c0.3,0.2,0.5,0.4,0.7,0.6
			c-0.2,0.2-0.4,0.5-0.7,0.6c-0.3,0.2-0.7,0.2-0.9,0.2c-0.2,0-0.5-0.1-0.8-0.2C7.3,25.3,6.9,25.1,6.6,24.9z M0,22.2
			c-0.1,1.1,0.7,2.3,1.8,2.6c0.4,0.1,0.8,0.1,1.2-0.1c1.1-0.4,2-1.5,3.1-2C7,22.3,8.4,22,9.3,22c0.4,0,0.8,0.1,1.1,0.2
			c0.3,0.1,0.6,0.2,0.8,0.4c0.2,0.2,0.3,0.5,0.3,0.8c0,0.3,0,0.5,0,0.5c0,0-0.2,0-0.4,0c-0.2-0.1-0.6-0.4-0.9-0.6
			C9.8,23.1,9,22.9,8.5,23c-0.3,0.1-0.7,0.2-1.1,0.5c-0.4,0.2-1,0.6-1.4,0.8c-0.4,0.2-0.7,0.4-0.9,0.5c-0.3,0.1-0.5,0.1-0.6,0.2
			C4.5,25,4.8,25,5,25.1c0.3,0.1,0.5,0.2,0.9,0.5c0.4,0.2,0.9,0.5,1.4,0.8c0.4,0.2,0.8,0.4,1.1,0.5c0.5,0.1,1.4,0,1.8-0.3
			c0.3-0.2,0.7-0.5,0.9-0.6c0.2-0.1,0.4-0.1,0.4,0c0,0,0,0.3,0,0.5c0,0.3-0.1,0.6-0.3,0.8c-0.2,0.2-0.5,0.4-0.8,0.4
			c-0.3,0.1-0.7,0.2-1.1,0.2c-0.9,0-2.4-0.3-3.2-0.7c-1-0.5-1.9-1.6-3.1-2C2.6,25,2.2,25,1.8,25.1c-1.2,0.3-2,1.5-1.8,2.6
			c0.4-0.8,1.2-1.7,1.9-1.4c0.3,0.1,0.7,0.5,1.1,0.7c0.4,0.3,1.4,1.8,1.7,2s0.6,0.4,1,0.4c0.4,0,0.9-0.1,1-0.1
			c-0.1,0.2-0.1,0.2-0.3,0.5c-0.2,0.3-0.3,0.6-0.3,1c0,0.4,0.1,0.8,0.3,1.1c0.2,0.4,0.4,0.7,0.7,0.9C7.3,32.9,7.6,33,7.7,33
			c0.1,0-0.1-0.1-0.3-0.4c-0.1-0.2-0.2-0.7-0.2-1.1c0-0.4,0.4-0.9,0.7-1.2l0.1,0c0.8-0.6,2.6-0.8,3.7-1.2c0.6-0.2,1-0.7,1.3-1.2
			c0.2-0.4,0.4-0.9,0.4-1.4c0.1,0,0.3,0.3,0.3,0.5c0.3,0.8,0.2,1.8-0.2,2.5c-0.6,1.2-2.6,2.5-3.9,2c-0.3-0.1-0.5-0.4-0.5-0.8
			c-0.2,0.4,0,1,0.3,1.2c0.3,0.2,0.7,0.2,0.9,0.2c-0.2,0.2-0.3,0.7-0.3,0.9c-0.1,0.3,0,0.8,0.1,1.1c0.1,0.3,0.2,0.6,0.4,0.9
			c0.2,0.3,0.5,0.6,0.8,0.9c0.3,0.2,0.5,0.4,0.8,0.5s0.3,0.1,0.5,0.1c0.1,0,0.6,0.1,0.8-0.1c-0.5,0-1.2-0.3-1.2-0.9
			c0.1,0.1,0.3,0.1,0.5,0.2c1.3,0.3,2.4-0.6,2.8-1.7c-0.1,0.1-0.5,0.3-0.8,0.4c-0.3,0.1-0.4,0.1-0.7,0.1c-0.3,0-0.5,0-0.8-0.1
			c-0.7-0.2-0.9-1-0.7-1.7c0.1-0.2,0.3-0.5,0.4-0.6c0.8-0.4,1.2-0.4,1.8-1.3c0.1-0.1,0.2-0.3,0.4-0.8c0.3,0.2,0.5,0.3,0.8,0.5
			c0.5,0.2,1.3,0.2,1.7-0.2c0.2-0.2,0.6-0.7,0.7-1.2c-0.2,0.3-0.4,0.3-0.6,0.3c-0.2,0-0.4,0-0.7,0c-0.3,0-0.6-0.2-0.8-0.4
			c-0.3-0.3-0.3-1.4-0.4-1.8c-0.1-0.7-0.4-1.1-0.8-1.4c-0.2-0.2-0.5-0.4-1.1-0.6C13.5,25,13.2,25,12.7,25c-0.3,0-0.7,0-1.1,0
			c0.4,0,0.8,0,1.1,0c0.5,0,0.8-0.1,1.1-0.1c0.6-0.1,0.9-0.4,1.1-0.6c0.4-0.4,0.6-0.8,0.8-1.4c0.1-0.4,0.2-1.6,0.4-1.8
			c0.2-0.2,0.5-0.3,0.8-0.4c0.3,0,0.5,0,0.7,0c0.2,0,0.4,0.1,0.6,0.3c0-0.5-0.4-1-0.7-1.2c-0.4-0.3-1.2-0.4-1.7-0.2
			c-0.3,0.1-0.4,0.2-0.8,0.5c-0.2-0.5-0.3-0.7-0.4-0.8c-0.6-0.8-1-0.8-1.8-1.3c-0.2-0.1-0.4-0.3-0.4-0.6c-0.2-0.6,0-1.4,0.7-1.7
			c0.3-0.1,0.5-0.1,0.8-0.1c0.3,0,0.5,0,0.7,0.1c0.3,0.1,0.7,0.2,0.8,0.4C15,15,14,14,12.7,14.3c-0.2,0.1-0.4,0.1-0.5,0.2
			c0-0.6,0.6-0.9,1.2-0.9c-0.2-0.2-0.7-0.1-0.8-0.1c-0.2,0-0.2,0-0.5,0.1c-0.3,0.1-0.5,0.2-0.8,0.5c-0.3,0.2-0.6,0.6-0.8,0.9
			c-0.2,0.3-0.3,0.6-0.4,0.9C10,16.2,10,16.7,10,17c0,0.2,0.1,0.6,0.3,0.9c-0.2,0-0.6,0-0.9,0.2s-0.5,0.8-0.3,1.2
			c0-0.4,0.2-0.7,0.5-0.8c1.3-0.4,3.2,0.9,3.9,2c0.4,0.7,0.4,1.8,0.2,2.5c-0.1,0.2-0.3,0.4-0.3,0.4c0-0.5-0.2-1-0.4-1.4
			c-0.3-0.6-0.7-1-1.3-1.2c-1-0.4-2.9-0.6-3.7-1.2l-0.1,0c-0.3-0.3-0.7-0.8-0.7-1.2c0-0.4,0.1-0.9,0.2-1.1c0.1-0.2,0.4-0.4,0.3-0.4
			c-0.1,0-0.4,0.1-0.7,0.3c-0.3,0.2-0.5,0.5-0.7,0.9c-0.2,0.4-0.3,0.7-0.3,1.1c0,0.4,0.2,0.7,0.3,1c0.2,0.3,0.2,0.2,0.3,0.5
			c-0.1,0-0.7-0.1-1-0.1c-0.4,0-0.7,0.2-1,0.4S3.3,22.7,3,23c-0.4,0.3-0.8,0.6-1.1,0.7C1.2,23.9,0.4,23,0,22.2z"/>
		<path class="st2" d="M31.4,18.4c0.8-0.5,1.6-0.7,2.5,0c0.3-0.5,0.1-1.4-0.5-2c-0.6-0.6-1.5-0.8-2-0.5
			C32.1,16.8,31.9,17.6,31.4,18.4z"/>
		<path class="st2" d="M18.4,31.2c-0.8,0.5-1.6,0.7-2.5,0c-0.3,0.5-0.1,1.4,0.5,2c0.6,0.6,1.5,0.8,2,0.5
			C17.6,32.7,17.9,31.9,18.4,31.2z"/>
		<path class="st2" d="M31.4,31.2c0.8,0.5,1.6,0.7,2.5,0c0.3,0.5,0.1,1.4-0.5,2c-0.6,0.6-1.5,0.8-2,0.5
			C32.1,32.7,31.9,31.9,31.4,31.2z"/>
		<path class="st1" d="M29.4,22h-0.7c-0.3-1.2-0.6-2.1-0.9-2.6c-0.5-0.8-1.3-1.2-2.3-1.2c-0.7,0-1.2,0.2-1.6,0.6
			c-0.4,0.4-0.6,1-0.6,1.6c0,1,0.6,1.8,1.8,2.6c1.1,0.7,2.3,1.3,3.5,2c1.2,0.9,1.8,2,1.8,3.3c0,1.5-0.6,2.6-1.8,3.4
			c-1.1,0.7-2.4,1-3.9,1c-1.5,0-3-0.4-4.4-1.1l-0.7-4.3l0.7-0.1c0.4,1.3,1,2.3,1.7,3.1c0.9,1,2,1.5,3.1,1.5c0.7,0,1.3-0.2,1.8-0.6
			c0.5-0.4,0.7-1,0.7-1.7c0-1-0.6-1.9-1.8-2.7c-1.2-0.6-2.3-1.3-3.5-1.9c-1.2-0.9-1.8-1.9-1.8-3.1c0-1.4,0.6-2.5,1.7-3.3
			c1-0.8,2.3-1.2,3.7-1.2c1.3,0,2.6,0.3,3.7,1L29.4,22z"/>
		<g>
			<path class="st2" d="M24.9,30.4h-5.7l0.7-1v-4.5c-0.4,0-0.8,0.2-1.1,0.6c0.1-0.9,0.5-1.3,1.1-1.3v-3.7l-0.7-1h5.5
				c-0.4,0.8-0.7,1.7-0.9,2.6c-0.2-0.8-0.4-1.3-0.6-1.5c-0.2-0.2-0.6-0.3-1.2-0.3c-0.3,0-0.6,0-0.9,0.1v3.9h1.4l0.7-1.3v3.3
				l-0.7-1.3H21v4.7c0.3,0,0.6,0.1,0.7,0.1c0.7,0,1.1-0.1,1.4-0.4c0.2-0.2,0.5-0.8,0.8-1.7c0.1,0.6,0.2,1.1,0.3,1.5
				C24.4,29.5,24.6,29.9,24.9,30.4z"/>
			<path class="st2" d="M30.9,27.3c0,1-0.2,1.8-0.7,2.4c-0.5,0.6-1,0.9-1.7,0.9c-0.4,0-0.8-0.1-1.3-0.4c-0.5-0.3-0.9-0.4-1.1-0.4
				c-0.2,0-0.4,0.2-0.8,0.5c0.4-1.1,0.8-2.2,1-3.3c0.1,0.6,0.2,1.1,0.3,1.4c0.2,0.5,0.4,0.9,0.8,1.1c0.3,0.2,0.7,0.3,1.1,0.3
				c0.4,0,0.8-0.2,1.1-0.5c0.3-0.3,0.5-0.8,0.5-1.5c0-0.4-0.1-0.7-0.2-1c-0.2-0.5-0.6-0.9-1-1.2c-0.4-0.2-0.9-0.3-1.3-0.5
				c-0.5-0.2-0.9-0.5-1.1-0.9c-0.3-0.5-0.5-1.2-0.5-2.1c0-0.9,0.2-1.7,0.6-2.3c0.4-0.6,0.9-0.9,1.5-0.9c0.4,0,0.9,0.1,1.4,0.4
				c0.3,0.1,0.5,0.2,0.6,0.2c0.2,0,0.4-0.1,0.6-0.2c-0.2,0.4-0.3,0.8-0.5,1.4c-0.1,0.5-0.3,1-0.4,1.5c-0.1-1-0.4-1.7-0.8-2.1
				c-0.3-0.2-0.5-0.4-0.8-0.4c-0.4,0-0.7,0.2-0.9,0.5c-0.2,0.3-0.4,0.8-0.4,1.3c0,0.9,0.4,1.6,1.3,2c0.4,0.2,0.8,0.3,1.2,0.5
				c0.5,0.2,0.8,0.5,1.1,1C30.8,25.8,30.9,26.5,30.9,27.3z"/>
		</g>
	</g>
</g>
</svg>
