<?xml version="1.0" encoding="UTF-8"?><svg width="253" height="50" viewBox="0 0 253 50" fill="none" xmlns="http://www.w3.org/2000/svg"><g clip-path="url(#clip0)"><path d="M252.017 14.5728H251.315C251.006 13.2069 250.473 12.1142 249.659 11.3493C248.76 10.4751 247.609 10.038 246.177 10.038C244.324 10.038 242.864 10.7483 241.768 12.1688C240.786 13.4528 240.28 15.0645 240.28 16.9768C240.28 18.7797 240.814 20.4188 241.881 21.8667C243.06 23.4784 244.548 24.2706 246.373 24.2706C247.834 24.2706 249.097 23.7516 250.108 22.7408C250.866 21.9759 251.596 20.8013 252.242 19.2715L252.944 19.49L251.512 24.298C250.669 24.6531 249.827 24.899 248.929 25.0629C248.03 25.2268 247.132 25.3087 246.205 25.3087C243.509 25.3087 241.263 24.6531 239.466 23.3145C237.501 21.8394 236.518 19.8725 236.518 17.3592C236.518 14.764 237.529 12.6879 239.522 11.1307C241.375 9.6829 243.678 8.94531 246.401 8.94531C247.412 8.94531 248.367 9.02727 249.322 9.21849C250.276 9.40972 251.175 9.71021 252.017 10.12V14.5728ZM230.509 22.6862C230.986 23.2052 231.492 23.615 232.025 23.8882C232.559 24.1887 233.176 24.4072 233.935 24.5711L233.85 25.1994C232.839 25.1994 231.913 25.1448 231.042 25.0355C230.172 24.9263 229.358 24.735 228.628 24.4892C227.729 24.1614 226.971 23.6423 226.297 22.8774L221.383 17.1953L224.528 13.7533C225.342 12.8791 225.904 12.2235 226.185 11.7864C226.409 11.4312 226.55 11.1307 226.55 10.8849C226.55 10.4205 226.101 10.12 225.202 9.98339V9.3824H232.334V10.0107C230.958 10.2839 229.807 10.721 228.88 11.322C228.178 11.7864 227.224 12.6059 226.072 13.7806L224.163 15.7201L230.509 22.6862ZM217.958 14.4635C217.958 12.4693 217.789 11.2946 217.452 10.8849C217.2 10.5571 216.329 10.2839 214.841 10.038V9.3824H224.135V10.0107C222.675 10.2566 221.805 10.5297 221.552 10.8302C221.215 11.2673 221.046 12.4693 221.046 14.4362V19.8451C221.046 21.8394 221.215 23.014 221.552 23.4238C221.805 23.7516 222.675 24.0248 224.163 24.2706V24.899H214.869V24.298C216.329 24.0521 217.2 23.7789 217.452 23.4784C217.789 23.0413 217.958 21.8393 217.958 19.8725V14.4635ZM192.518 17.4412H189.795V19.8451C189.795 21.293 189.823 22.1945 189.907 22.5223C190.132 23.5331 191.114 24.1067 192.883 24.2433V24.899H183.589V24.298C185.049 24.0521 185.92 23.7789 186.173 23.4784C186.51 23.0413 186.678 21.8393 186.678 19.8725V14.4908C186.678 12.524 186.51 11.322 186.173 10.9122C185.92 10.5844 185.049 10.3112 183.561 10.0653V9.3824H192.855V10.0107C191.339 10.12 190.441 10.5024 190.076 11.1581C189.851 11.5678 189.739 12.6605 189.739 14.4635V16.0753H192.546C192.799 13.9445 193.726 12.2235 195.326 10.9395C196.927 9.65558 198.892 8.99995 201.251 8.99995C203.834 8.99995 205.94 9.6829 207.541 11.0488C209.281 12.524 210.152 14.5182 210.152 17.0587C210.152 19.5993 209.338 21.5935 207.681 23.096C206.024 24.5985 203.89 25.336 201.251 25.336C198.696 25.336 196.618 24.6258 194.961 23.2326C193.361 21.7847 192.518 19.8451 192.518 17.4412ZM196.309 16.8129C196.309 18.7251 196.702 20.3915 197.46 21.7574C198.387 23.4238 199.791 24.2706 201.588 24.2706C203.273 24.2706 204.536 23.5331 205.378 22.0579C206.024 20.8832 206.361 19.4081 206.361 17.6051C206.361 15.6655 205.968 13.9991 205.182 12.6332C204.199 10.9122 202.795 10.0653 200.97 10.0653C199.342 10.0653 198.106 10.8302 197.292 12.3874C196.646 13.5894 196.309 15.0645 196.309 16.8129ZM163.008 25.336C162.502 25.336 162.053 25.1721 161.688 24.8716C161.323 24.5711 161.154 24.1887 161.154 23.697C161.154 22.9867 161.576 22.3857 162.39 21.9486C162.53 22.1945 162.727 22.413 162.951 22.5223C163.176 22.6589 163.429 22.7135 163.682 22.7135C164.72 22.7135 165.45 21.9486 165.815 20.4461C166.096 19.2988 166.237 17.2773 166.237 14.4635C166.237 12.4693 166.068 11.2946 165.731 10.8849C165.479 10.5571 164.524 10.2839 162.923 10.038V9.3824H179.265V10.0107C177.805 10.2566 176.935 10.5297 176.682 10.8302C176.345 11.2673 176.177 12.4693 176.177 14.4362V19.8451C176.177 21.8394 176.345 23.014 176.682 23.4238C176.935 23.7516 177.805 24.0248 179.293 24.2706V24.899H169.999V24.298C171.515 24.1887 172.414 23.8062 172.779 23.1506C173.004 22.7408 173.116 21.6481 173.116 19.8451V10.5571H167.528V14.4362C167.528 16.8948 167.444 18.7251 167.304 19.9817C167.079 21.7301 166.686 23.0413 166.068 23.8609C165.338 24.8443 164.327 25.336 163.008 25.336ZM142.538 19.8725C142.538 21.3203 142.566 22.2218 142.651 22.5769C142.875 23.5877 143.858 24.1614 145.627 24.3253V24.9536H136.333V24.298C137.793 24.0521 138.663 23.7789 138.916 23.4784C139.253 23.0413 139.421 21.8393 139.421 19.8725V14.4635C139.421 12.4693 139.253 11.2946 138.916 10.8849C138.663 10.5571 137.793 10.2839 136.305 10.038V9.3824H145.655V10.0107C144.139 10.12 143.24 10.5024 142.875 11.1581C142.651 11.5678 142.538 12.6605 142.538 14.4635V16.0753H151.102V14.4635C151.102 13.0157 151.074 12.1142 150.99 11.7591C150.765 10.7483 149.783 10.1746 148.014 10.0107V9.3824H157.308V10.0107C155.848 10.2566 154.977 10.5297 154.724 10.8302C154.387 11.2673 154.219 12.4693 154.219 14.4362V19.8451C154.219 21.8394 154.387 23.014 154.724 23.4238C154.977 23.7516 155.848 24.0248 157.336 24.2706V24.899H148.042V24.298C149.558 24.1887 150.485 23.8062 150.821 23.1506C151.046 22.7408 151.158 21.6481 151.158 19.8451V17.4139H142.594V19.8725H142.538ZM117.267 21.211C117.267 22.3038 117.38 23.014 117.604 23.3145C117.969 23.8609 118.896 24.1887 120.384 24.298V24.9263H111.09V24.298C112.55 24.0521 113.421 23.7789 113.673 23.4784C114.01 23.0413 114.179 21.8393 114.179 19.8725V14.4635C114.179 12.4693 114.01 11.2946 113.673 10.8849C113.421 10.5571 112.55 10.2839 111.062 10.038V9.3824H120.384V10.0107C118.868 10.12 117.969 10.5024 117.604 11.1581C117.38 11.5678 117.267 12.6605 117.267 14.4635V19.6266L125.831 12.6332C125.831 11.7864 125.719 11.24 125.494 10.9668C125.073 10.4751 124.175 10.1473 122.715 10.038V9.3824H132.009V10.0107C130.549 10.2566 129.678 10.5297 129.425 10.8302C129.089 11.2673 128.92 12.4693 128.92 14.4362V19.8451C128.92 21.8394 129.089 23.014 129.425 23.4238C129.678 23.7516 130.549 24.0248 132.037 24.2706V24.899H122.743V24.298C124.259 24.1887 125.157 23.8062 125.523 23.1506C125.747 22.7408 125.859 21.6481 125.859 19.8725V14.2177L117.267 21.211ZM105.109 22.6862C105.587 23.2052 106.092 23.615 106.626 23.8882C107.159 24.1887 107.777 24.4072 108.535 24.5711L108.451 25.1994C107.44 25.1994 106.513 25.1448 105.643 25.0355C104.772 24.9263 103.958 24.735 103.228 24.4892C102.329 24.1614 101.571 23.6423 100.897 22.8774L95.9275 17.2226L99.0723 13.7806C99.8866 12.9064 100.448 12.2508 100.729 11.8137C100.954 11.4586 101.094 11.1581 101.094 10.9122C101.094 10.4478 100.645 10.1473 99.7462 10.0107V9.3824H106.878V10.0107C105.502 10.2839 104.351 10.721 103.425 11.322C102.723 11.7864 101.768 12.6059 100.617 13.7806L98.7073 15.7201L105.109 22.6862ZM92.5581 14.4635C92.5581 12.4693 92.3896 11.2946 92.0526 10.8849C91.7999 10.5571 90.9295 10.2839 89.4413 10.038V9.3824H98.7635V10.0107C97.3034 10.2566 96.4329 10.5297 96.1802 10.8302C95.8433 11.2673 95.6748 12.4693 95.6748 14.4362V19.8451C95.6748 21.8394 95.8433 23.014 96.1802 23.4238C96.4329 23.7516 97.3034 24.0248 98.7915 24.2706V24.899H89.4413V24.298C90.9014 24.0521 91.7719 23.7789 92.0246 23.4784C92.3615 23.0413 92.53 21.8393 92.53 19.8725V14.4635H92.5581ZM84.4995 14.5728H83.7975C83.4886 13.2069 82.9551 12.1142 82.1409 11.3493C81.2423 10.4751 80.0911 10.038 78.6591 10.038C76.8059 10.038 75.3458 10.7483 74.2507 12.1688C73.268 13.4528 72.7626 15.0645 72.7626 16.9768C72.7626 18.7797 73.296 20.4188 74.363 21.8667C75.5423 23.4784 77.0305 24.2706 78.8556 24.2706C80.3157 24.2706 81.5793 23.7516 82.5901 22.7408C83.3482 21.9759 84.0783 20.8013 84.7241 19.2715L85.4261 19.49L83.994 24.298C83.1517 24.6531 82.3093 24.899 81.4108 25.0629C80.5123 25.2268 79.6138 25.3087 78.6872 25.3087C75.9916 25.3087 73.7453 24.6531 71.9483 23.3145C69.9828 21.8667 69 19.8998 69 17.3865C69 14.7913 70.0108 12.7152 72.0044 11.1854C73.8576 9.73753 76.1601 8.99995 78.8837 8.99995C79.8946 8.99995 80.8492 9.0819 81.8039 9.27313C82.7586 9.46435 83.6571 9.76485 84.4995 10.1746V14.5728Z" fill="#EA6079"/><path d="M252.86 39.1042H251.68C251.737 38.394 251.765 37.4105 251.765 36.2085C251.765 35.8534 251.793 35.3617 251.821 34.6787H251.793C251.708 34.9792 251.119 35.7441 250.024 36.9734C248.985 38.1754 248.479 38.8857 248.479 39.1042H247.553C247.609 38.2574 247.637 37.3012 247.637 36.2085C247.637 34.9792 247.553 33.9685 247.412 33.1216L248.704 32.9577C248.648 33.7499 248.62 34.7334 248.62 35.9354C248.62 36.3724 248.62 36.8915 248.592 37.5471H248.648C248.76 37.2739 249.35 36.509 250.417 35.2524C251.428 34.0777 251.933 33.3402 251.933 33.1216L252.86 32.9577C252.804 33.8319 252.775 34.9246 252.775 36.2085C252.775 37.2193 252.804 38.1754 252.86 39.1042ZM245.812 39.1042H244.633C244.689 38.394 244.717 37.4105 244.717 36.2085C244.717 35.8534 244.745 35.3617 244.773 34.6787H244.717C244.633 34.9792 244.043 35.7441 242.948 36.9734C241.909 38.1754 241.404 38.8857 241.404 39.1042H240.477C240.533 38.2574 240.561 37.3012 240.561 36.2085C240.561 34.9792 240.477 33.9685 240.337 33.1216L241.628 32.9577C241.572 33.7499 241.544 34.7334 241.544 35.9354C241.544 36.3724 241.544 36.8915 241.516 37.5471H241.572C241.684 37.2739 242.274 36.509 243.341 35.2524C244.352 34.0777 244.857 33.3402 244.857 33.1216L245.784 32.9577C245.728 33.8319 245.7 34.9246 245.7 36.2085C245.728 37.2193 245.756 38.1754 245.812 39.1042ZM239.494 33.067L239.466 34.0504C238.708 33.9685 237.641 33.9412 236.321 33.9412C236.349 34.788 236.349 35.5529 236.349 36.2085C236.349 37.2193 236.377 38.2027 236.434 39.1042H235.282C235.339 38.2574 235.367 37.3012 235.367 36.2085C235.367 34.9792 235.339 33.9411 235.282 33.0943H239.494V33.067ZM232.755 36.1266C232.755 35.471 232.587 34.87 232.25 34.3782C231.913 33.8592 231.436 33.6133 230.79 33.6133C230.172 33.6133 229.695 33.8592 229.358 34.3509C229.021 34.8426 228.852 35.389 228.852 36.0446C228.852 36.7003 229.021 37.3012 229.358 37.8203C229.695 38.3393 230.2 38.5852 230.818 38.5852C231.436 38.5852 231.913 38.3393 232.25 37.8476C232.587 37.3286 232.755 36.7549 232.755 36.1266ZM233.878 35.908C233.878 37.0008 233.57 37.8476 232.924 38.4486C232.278 39.0496 231.52 39.3501 230.677 39.3501C229.863 39.3501 229.189 39.0769 228.6 38.5579C228.01 38.0115 227.729 37.2739 227.729 36.2905C227.729 35.1978 228.038 34.3509 228.684 33.7226C229.33 33.0943 230.088 32.7938 230.93 32.7938C231.744 32.7938 232.418 33.067 233.008 33.6133C233.598 34.1597 233.878 34.9246 233.878 35.908ZM226.213 39.1042H225.09C225.146 38.3393 225.174 37.4105 225.174 36.3451C225.174 35.4983 225.146 34.6787 225.118 33.8865H223.826C223.714 34.3509 223.545 34.8153 223.405 35.2797C223.237 35.7168 223.068 36.1539 222.9 36.5364C222.731 36.9461 222.535 37.3013 222.338 37.6291C222.142 37.9569 221.945 38.2301 221.748 38.4759C221.552 38.7218 221.355 38.8857 221.131 39.0223C220.934 39.1589 220.738 39.2135 220.541 39.2135L220.485 38.2027C220.597 38.2027 220.71 38.1208 220.878 37.9842C221.018 37.8476 221.187 37.6837 221.327 37.4378C221.496 37.2193 221.664 36.9461 221.833 36.6183C222.001 36.2905 222.17 35.9627 222.338 35.5802C222.507 35.1978 222.647 34.8153 222.815 34.3782C222.956 33.9412 223.096 33.5041 223.209 33.067H225.343L226.213 32.9577C226.157 33.8319 226.129 34.9246 226.129 36.2085C226.101 37.2193 226.157 38.1754 226.213 39.1042ZM218.632 36.1266C218.632 35.471 218.463 34.87 218.126 34.3782C217.789 33.8592 217.312 33.6133 216.666 33.6133C216.048 33.6133 215.571 33.8592 215.234 34.3509C214.897 34.8426 214.729 35.389 214.729 36.0446C214.729 36.7003 214.897 37.3012 215.234 37.8203C215.571 38.3393 216.077 38.5852 216.694 38.5852C217.312 38.5852 217.789 38.3393 218.126 37.8476C218.463 37.3286 218.632 36.7549 218.632 36.1266ZM219.755 35.908C219.755 37.0008 219.446 37.8476 218.8 38.4486C218.154 39.0496 217.396 39.3501 216.554 39.3501C215.74 39.3501 215.066 39.0769 214.476 38.5579C213.886 38.0115 213.606 37.2739 213.606 36.2905C213.606 35.1978 213.914 34.3509 214.56 33.7226C215.206 33.0943 215.964 32.7938 216.807 32.7938C217.621 32.7938 218.295 33.067 218.884 33.6133C219.474 34.1597 219.755 34.9246 219.755 35.908ZM212.651 33.067L212.623 34.0231C211.921 33.9685 211.219 33.9138 210.545 33.9138C210.517 34.5148 210.517 35.2524 210.517 36.2085C210.517 37.2193 210.545 38.2027 210.601 39.1042H209.422C209.478 38.2574 209.506 37.3012 209.506 36.2085C209.506 35.307 209.478 34.5421 209.45 33.9138C208.776 33.9138 208.074 33.9412 207.344 34.0231L207.372 33.067H212.651ZM205.322 35.389C205.322 34.187 204.817 33.6133 203.778 33.6133C202.739 33.6133 202.121 34.2416 201.925 35.471L205.322 35.389ZM206.417 35.3617C206.417 35.5529 206.417 35.7988 206.389 36.0993L201.925 36.1812C201.981 36.8095 202.206 37.3286 202.655 37.7383C203.104 38.1481 203.694 38.3666 204.424 38.3666C205.07 38.3666 205.715 38.2847 206.277 38.1208L206.165 39.0223C205.744 39.1862 205.126 39.2681 204.312 39.2681C203.188 39.2681 202.318 38.9676 201.728 38.3666C201.139 37.7657 200.83 37.0281 200.83 36.1812C200.83 35.2524 201.111 34.4602 201.644 33.8046C202.178 33.1489 202.908 32.7938 203.834 32.7938C204.677 32.7938 205.322 33.0397 205.744 33.5041C206.193 33.9958 206.417 34.6241 206.417 35.3617ZM199.342 39.1042H198.247C198.247 38.312 198.247 37.3286 198.247 36.1539C198.247 34.9792 198.247 34.269 198.247 34.0231H198.162C198.05 34.3509 197.797 34.9519 197.404 35.8261C196.45 37.7657 196 38.8584 196 39.1315H195.074C195.074 38.7764 194.681 37.6837 193.922 35.908C193.754 35.4983 193.501 34.87 193.22 34.0231H193.136C193.136 34.2963 193.108 35.1158 193.052 36.4544C192.996 37.8203 192.968 38.6945 192.968 39.1042H191.985C191.985 38.9676 192.069 38.0935 192.238 36.3998C192.406 34.7334 192.49 33.6133 192.49 33.067H194.091C194.091 33.586 194.372 34.4875 194.905 35.7714C195.467 37.0554 195.719 37.793 195.719 37.9569H195.804C195.804 37.793 196.113 37.0554 196.702 35.7714C197.292 34.4875 197.601 33.586 197.601 33.067H199.145C199.145 33.6133 199.173 34.7061 199.257 36.3451C199.314 38.0115 199.342 38.913 199.342 39.1042ZM190.665 38.1208L190.609 38.9676C190.244 39.1589 189.795 39.2681 189.205 39.2681C188.082 39.2681 187.212 38.9676 186.622 38.3666C186.032 37.7657 185.723 37.0281 185.723 36.1812C185.723 35.2797 186.032 34.4875 186.65 33.8592C187.268 33.2036 188.11 32.8758 189.121 32.8758C189.626 32.8758 190.048 32.9304 190.384 33.0397L190.216 34.0231C189.767 33.8592 189.289 33.7772 188.84 33.7772C188.222 33.7772 187.745 33.9958 187.38 34.4056C187.015 34.8153 186.847 35.3617 186.847 35.99C186.847 36.6729 187.071 37.2466 187.492 37.711C187.914 38.1754 188.531 38.394 189.346 38.394C189.626 38.3666 190.104 38.2847 190.665 38.1208ZM183.309 36.1266C183.309 35.471 183.14 34.87 182.803 34.3782C182.438 33.8592 181.961 33.586 181.315 33.586C180.697 33.586 180.22 33.8319 179.883 34.3236C179.546 34.8153 179.378 35.3617 179.378 36.0173C179.378 36.6729 179.546 37.2739 179.883 37.793C180.22 38.312 180.725 38.5579 181.343 38.5579C181.961 38.5579 182.438 38.312 182.775 37.8203C183.14 37.3286 183.309 36.7549 183.309 36.1266ZM184.432 35.908C184.432 37.0008 184.123 37.8476 183.477 38.4486C182.831 39.0496 182.073 39.3501 181.231 39.3501C180.417 39.3501 179.743 39.0769 179.153 38.5579C178.563 38.0115 178.283 37.2739 178.283 36.2905C178.283 35.1978 178.591 34.3509 179.237 33.7226C179.883 33.0943 180.641 32.7938 181.484 32.7938C182.298 32.7938 182.972 33.067 183.561 33.6133C184.123 34.1597 184.432 34.9246 184.432 35.908ZM177.187 39.1042H176.008C175.98 39.0496 175.924 38.9403 175.84 38.7764C175.559 37.9022 175.25 37.2739 174.941 36.9461C174.632 36.591 174.211 36.4271 173.678 36.4271C173.509 36.4271 173.256 36.4271 172.976 36.4271C172.976 37.4105 173.004 38.2847 173.06 39.1042H171.881C171.937 38.2574 171.965 37.3012 171.965 36.2085C171.965 34.9792 171.881 33.9685 171.74 33.1216L173.032 32.9577C172.976 33.7772 172.948 34.6787 172.948 35.6622C173.2 35.6622 173.453 35.6622 173.65 35.6622C174.604 35.6622 175.278 34.8973 175.671 33.3675C175.699 33.2582 175.755 33.1762 175.812 33.067H176.879C176.822 33.1762 176.766 33.3402 176.654 33.6133C176.149 34.9246 175.615 35.7168 174.997 35.9354V35.99C175.419 36.0993 175.755 36.3451 176.036 36.7276C176.317 37.11 176.57 37.6564 176.822 38.394C176.991 38.6125 177.075 38.8584 177.187 39.1042ZM166.77 30.3625C166.77 30.8269 166.63 31.2367 166.321 31.6191C166.012 32.0016 165.507 32.1928 164.777 32.1928C164.019 32.1928 163.485 32.0016 163.176 31.6191C162.867 31.2367 162.699 30.8269 162.699 30.3625L163.625 30.2532C163.625 31.1001 163.99 31.5099 164.749 31.5099C165.198 31.5099 165.479 31.4006 165.647 31.182C165.816 30.9635 165.872 30.663 165.872 30.2532L166.77 30.3625ZM167.332 39.1042H166.153C166.209 38.394 166.237 37.4105 166.237 36.2085C166.237 35.8534 166.265 35.3617 166.293 34.6787H166.237C166.153 34.9792 165.563 35.7441 164.468 36.9734C163.429 38.1754 162.923 38.8857 162.923 39.1042H161.997C162.053 38.2574 162.081 37.3012 162.081 36.2085C162.081 34.9792 161.997 33.9685 161.857 33.1216L163.148 32.9577C163.092 33.7499 163.064 34.7334 163.064 35.9354C163.064 36.3724 163.064 36.8915 163.036 37.5471H163.092C163.204 37.2739 163.794 36.509 164.861 35.2524C165.872 34.0777 166.377 33.3402 166.377 33.1216L167.304 32.9577C167.248 33.8319 167.22 34.9246 167.22 36.2085C167.248 37.2193 167.276 38.1754 167.332 39.1042ZM159.357 36.1266C159.357 35.471 159.189 34.87 158.852 34.3782C158.515 33.8592 158.038 33.6133 157.392 33.6133C156.774 33.6133 156.297 33.8592 155.96 34.3509C155.623 34.8426 155.455 35.389 155.455 36.0446C155.455 36.7003 155.623 37.3012 155.96 37.8203C156.297 38.3393 156.802 38.5852 157.42 38.5852C158.038 38.5852 158.515 38.3393 158.852 37.8476C159.189 37.3286 159.357 36.7549 159.357 36.1266ZM160.509 35.908C160.509 37.0008 160.2 37.8476 159.554 38.4486C158.908 39.0496 158.15 39.3501 157.308 39.3501C156.493 39.3501 155.82 39.0769 155.23 38.5579C154.64 38.0115 154.359 37.2739 154.359 36.2905C154.359 35.1978 154.668 34.3509 155.314 33.7226C155.96 33.0943 156.718 32.7938 157.56 32.7938C158.375 32.7938 159.049 33.067 159.638 33.6133C160.2 34.1597 160.509 34.9246 160.509 35.908ZM152.815 39.1042H151.664C151.72 38.2847 151.748 37.3559 151.748 36.3178H148.631C148.631 37.2739 148.659 38.2027 148.716 39.1042H147.564C147.621 38.2574 147.649 37.3012 147.649 36.2085C147.649 34.9792 147.564 33.9685 147.424 33.1216L148.688 32.9577C148.659 33.2582 148.631 34.1051 148.603 35.4983H151.72C151.692 34.5421 151.636 33.7499 151.495 33.1216L152.759 32.9577C152.703 33.8319 152.675 34.9246 152.675 36.2085C152.731 37.2193 152.759 38.1754 152.815 39.1042ZM145.093 36.2632C145.093 35.6075 144.925 35.0885 144.588 34.6514C144.251 34.2143 143.774 33.9958 143.128 33.9958C142.229 33.9958 141.527 34.2963 141.05 34.9246C141.05 36.2085 141.219 37.1373 141.556 37.711C141.893 38.2847 142.398 38.5579 143.1 38.5579C143.718 38.5579 144.195 38.3393 144.56 37.8749C144.925 37.4105 145.093 36.8642 145.093 36.2632ZM146.245 36.0173C146.245 37.0827 145.908 37.9022 145.262 38.4759C144.616 39.0496 143.83 39.3228 142.96 39.3228C141.78 39.3228 140.966 38.8857 140.517 38.0115C140.18 37.3559 139.983 36.2905 139.983 34.87C139.983 33.2855 140.348 32.1382 141.05 31.4006C141.64 30.8269 142.51 30.4718 143.718 30.3352C144.392 30.2532 145.122 30.1713 145.936 30.062L145.88 31.0728C145.515 31.1001 144.757 31.1547 143.577 31.2913C142.679 31.4006 142.061 31.6191 141.724 31.9196C141.247 32.3294 141.022 33.0397 141.022 34.0777H141.078C141.612 33.4767 142.342 33.1763 143.268 33.1763C144.111 33.1763 144.813 33.3948 145.374 33.8865C145.964 34.3509 146.245 35.0612 146.245 36.0173ZM137.54 35.389C137.54 34.187 137.035 33.6133 135.996 33.6133C134.957 33.6133 134.339 34.2416 134.143 35.471L137.54 35.389ZM138.635 35.3617C138.635 35.5529 138.635 35.7988 138.607 36.0993L134.143 36.1812C134.199 36.8095 134.424 37.3286 134.873 37.7383C135.322 38.1481 135.912 38.3666 136.642 38.3666C137.288 38.3666 137.933 38.2847 138.495 38.1208L138.383 39.0223C137.961 39.1862 137.344 39.2681 136.529 39.2681C135.406 39.2681 134.536 38.9676 133.946 38.3666C133.357 37.7657 133.048 37.0281 133.048 36.1812C133.048 35.2524 133.328 34.4602 133.862 33.8046C134.395 33.1489 135.126 32.7938 136.052 32.7938C136.895 32.7938 137.54 33.0397 137.961 33.5041C138.411 33.9958 138.635 34.6241 138.635 35.3617ZM131.56 39.1042H130.408C130.464 38.3393 130.493 37.4105 130.493 36.3451C129.987 36.6183 129.397 36.7549 128.667 36.7549C127.937 36.7549 127.404 36.591 127.039 36.2632C126.674 35.9354 126.505 35.2251 126.505 34.187C126.505 33.9685 126.477 33.6133 126.421 33.1216L127.572 32.9577C127.544 33.3675 127.516 33.6953 127.516 33.9412C127.516 34.7061 127.629 35.2251 127.825 35.4983C128.022 35.7714 128.387 35.908 128.92 35.908C129.566 35.908 130.071 35.7988 130.464 35.6075C130.436 34.6241 130.38 33.8046 130.268 33.1489L131.531 32.985C131.475 33.8592 131.447 34.9519 131.447 36.2359C131.475 37.2193 131.503 38.1754 131.56 39.1042ZM124.203 37.8749C124.175 37.2193 124.175 36.6456 124.175 36.1539C123.361 36.1539 122.743 36.2085 122.322 36.3178C121.62 36.5363 121.255 36.9461 121.255 37.5198C121.255 38.0935 121.676 38.394 122.518 38.394C123.192 38.394 123.782 38.2027 124.203 37.8749ZM125.354 39.1042L124.343 39.1315C124.287 38.913 124.259 38.7218 124.259 38.5306H124.203C123.669 38.995 122.939 39.2408 122.013 39.2408C121.507 39.2408 121.086 39.1042 120.721 38.8037C120.356 38.5306 120.188 38.1208 120.188 37.5744C120.188 36.9188 120.468 36.3998 121.03 36.0173C121.592 35.6349 122.631 35.4163 124.175 35.389C124.175 35.2797 124.203 35.1705 124.203 35.0339C124.203 34.5148 124.063 34.1597 123.782 33.9958C123.501 33.8319 123.052 33.7226 122.49 33.7226C121.816 33.7226 121.142 33.8046 120.468 33.9685L120.581 33.0943C121.227 32.9031 121.985 32.8211 122.827 32.8211C123.613 32.8211 124.203 32.985 124.624 33.2855C125.045 33.586 125.27 34.1324 125.27 34.87C125.27 35.0612 125.27 35.4436 125.242 35.9627C125.214 36.4817 125.214 36.8368 125.214 37.0008C125.186 37.8203 125.242 38.5032 125.354 39.1042ZM117.801 35.99C117.801 35.3617 117.632 34.8426 117.296 34.3782C116.959 33.9138 116.481 33.7226 115.864 33.7226C115.077 33.7226 114.516 33.9412 114.179 34.4056C114.235 35.8261 114.291 37.0554 114.291 38.0662C114.656 38.3666 115.105 38.5032 115.667 38.5032C116.397 38.5032 116.931 38.2574 117.267 37.7657C117.604 37.2739 117.801 36.6729 117.801 35.99ZM118.952 35.8261C118.952 36.7276 118.671 37.5471 118.138 38.2301C117.604 38.913 116.846 39.2681 115.892 39.2681C115.077 39.2681 114.572 39.1315 114.319 38.8584H114.263C114.263 40.033 114.263 41.0711 114.291 41.9999H113.084C113.196 40.8799 113.224 39.4867 113.224 37.8203C113.224 35.7714 113.112 34.2143 112.887 33.0943L114.038 32.9304L114.123 33.5587H114.179C114.6 33.0943 115.274 32.8484 116.229 32.8484C117.071 32.8484 117.717 33.1489 118.194 33.7226C118.699 34.3236 118.952 35.0339 118.952 35.8261ZM110.22 34.6787C110.22 34.0777 109.77 33.8046 108.9 33.8046C108.451 33.8046 107.973 33.8319 107.384 33.8592C107.412 34.4602 107.44 35.0612 107.44 35.6349C107.973 35.6622 108.451 35.6622 108.816 35.6622C109.265 35.6622 109.602 35.5802 109.855 35.389C110.079 35.1978 110.22 34.9519 110.22 34.6787ZM110.444 37.3832C110.444 36.9461 110.248 36.6456 109.827 36.509C109.574 36.4271 109.181 36.3724 108.647 36.3724C108.226 36.3724 107.833 36.3998 107.44 36.4271C107.44 37.192 107.44 37.793 107.44 38.312C107.833 38.3666 108.31 38.394 108.872 38.394C109.911 38.3393 110.444 38.0388 110.444 37.3832ZM111.483 37.3012C111.483 37.9022 111.231 38.3393 110.753 38.6671C110.248 38.9676 109.546 39.1315 108.619 39.1315C108.142 39.1315 107.384 39.1315 106.373 39.1042C106.429 38.5306 106.457 37.5471 106.457 36.1812C106.457 34.9246 106.373 33.8865 106.233 33.067H106.906C107.552 33.0123 108.226 32.985 108.872 32.985C110.416 32.985 111.202 33.4494 111.202 34.3782C111.202 35.0612 110.894 35.5256 110.248 35.7988V35.8534C111.09 36.0173 111.483 36.509 111.483 37.3012ZM100.813 35.99C100.813 35.3617 100.645 34.8426 100.308 34.3782C99.971 33.9412 99.4936 33.7226 98.8759 33.7226C98.0897 33.7226 97.5281 33.9412 97.1912 34.4056C97.2473 35.8261 97.3035 37.0554 97.3035 38.0662C97.6685 38.3666 98.1178 38.5032 98.6793 38.5032C99.4094 38.5032 99.9429 38.2574 100.28 37.7657C100.645 37.2739 100.813 36.6729 100.813 35.99ZM101.965 35.8261C101.965 36.7276 101.684 37.5471 101.15 38.2301C100.617 38.913 99.8586 39.2681 98.904 39.2681C98.0897 39.2681 97.5843 39.1315 97.3316 38.8584H97.2754C97.2754 40.033 97.2754 41.0711 97.3035 41.9999H96.068C96.1803 40.8799 96.2084 39.4867 96.2084 37.8203C96.2084 35.7714 96.0961 34.2143 95.8715 33.0943L97.0227 32.9304L97.1069 33.5587H97.1631C97.5843 33.0943 98.2582 32.8484 99.2128 32.8484C100.055 32.8484 100.701 33.1489 101.178 33.7226C101.74 34.3236 101.965 35.0339 101.965 35.8261ZM94.9168 33.067L94.8887 34.0231C94.1867 33.9685 93.4848 33.9138 92.8109 33.9138C92.7828 34.5148 92.7828 35.2524 92.7828 36.2085C92.7828 37.2193 92.8109 38.2027 92.867 39.1042H91.6877C91.7439 38.2574 91.772 37.3012 91.772 36.2085C91.772 35.307 91.7439 34.5421 91.7158 33.9138C91.0419 33.9138 90.34 33.9412 89.6099 34.0231L89.638 33.067H94.9168ZM88.4587 39.1042H87.3074C87.3636 38.2847 87.3917 37.3559 87.3917 36.3178H84.2749C84.2749 37.2739 84.303 38.2027 84.3592 39.1042H83.208C83.2641 38.2574 83.2922 37.3012 83.2922 36.2085C83.2922 34.9792 83.208 33.9685 83.0676 33.1216L84.3311 32.9577C84.303 33.2582 84.2749 34.1051 84.2469 35.4983H87.3636C87.3355 34.5421 87.2794 33.7499 87.139 33.1216L88.4025 32.9577C88.3744 33.8319 88.3744 34.9246 88.3744 36.2085C88.3744 37.2193 88.4025 38.1754 88.4587 39.1042ZM80.6528 35.389C80.6528 34.187 80.1474 33.6133 79.1085 33.6133C78.0695 33.6133 77.4518 34.2416 77.2553 35.471L80.6528 35.389ZM81.7479 35.3617C81.7479 35.5529 81.7479 35.7988 81.7198 36.0993L77.2553 36.1812C77.3114 36.8095 77.536 37.3286 77.9853 37.7383C78.4346 38.1481 79.0242 38.3666 79.7543 38.3666C80.4001 38.3666 81.0459 38.2847 81.6075 38.1208L81.4951 39.0223C81.074 39.1862 80.4562 39.2681 79.642 39.2681C78.5188 39.2681 77.6484 38.9676 77.0587 38.3666C76.4691 37.7657 76.1602 37.0281 76.1602 36.1812C76.1602 35.2524 76.441 34.4602 76.9745 33.8046C77.508 33.1489 78.238 32.7938 79.1646 32.7938C80.007 32.7938 80.6528 33.0397 81.074 33.5041C81.5232 33.9958 81.7479 34.6241 81.7479 35.3617ZM75.1774 38.2847C75.1774 38.5032 75.1213 39.0223 75.037 39.8418C74.9247 40.6613 74.8966 41.2897 74.8966 41.7267H74.1666C74.1666 41.1804 74.1666 40.3062 74.1385 39.1042H69.2528C69.309 38.2574 69.3371 37.3012 69.3371 36.2085C69.3371 34.9792 69.2528 33.9685 69.1124 33.1216L70.4321 32.9577C70.376 33.8319 70.3479 34.9246 70.3479 36.2085C70.3479 36.7276 70.3479 37.4105 70.3198 38.2847H73.0715C73.0435 37.4378 73.0435 36.7276 73.0435 36.2085C73.0435 34.9792 72.9592 33.9685 72.8188 33.1216L74.1104 32.9577C74.0543 33.8319 74.0262 34.9246 74.0262 36.2085C74.0262 36.9188 74.0543 37.6291 74.0824 38.2847H75.1774Z" fill="#EA6079"/></g><g clip-path="url(#clip1)"><path fill-rule="evenodd" clip-rule="evenodd" d="M18.3594 18.4015C17.5977 17.8928 16.7969 17.6874 15.8692 18.4015C15.5567 17.9026 15.7813 16.9732 16.3672 16.4058C16.9336 15.8189 17.8614 15.5939 18.3594 15.9069C17.6368 16.8363 17.8516 17.6385 18.3594 18.4015Z" fill="#EA6079"/><path fill-rule="evenodd" clip-rule="evenodd" d="M24.9511 6.62269C25.1464 6.91618 25.3417 7.27814 25.498 7.60097C25.6542 7.92381 25.7128 8.13903 25.7421 8.3836C25.7714 8.62817 25.7519 9.0097 25.5761 9.31297C25.4101 9.61624 25.1952 9.83146 24.9511 10.0369C24.707 9.82167 24.4921 9.61624 24.3261 9.31297C24.1601 8.99992 24.1406 8.62817 24.1601 8.3836C24.1894 8.13903 24.248 7.92381 24.4042 7.60097C24.5605 7.27814 24.746 6.91618 24.9511 6.62269ZM27.6366 0.00950489C26.4941 -0.127455 25.3027 0.664954 25.0488 1.83889C24.9706 2.22042 24.9706 2.61174 25.1464 3.07153C25.5566 4.19655 26.6601 5.09657 27.1874 6.13355C27.6073 6.96509 27.8613 8.37382 27.871 9.31297C27.871 9.73363 27.8027 10.1152 27.7148 10.4478C27.6269 10.7804 27.4902 11.0739 27.2656 11.2695C27.0409 11.4652 26.7187 11.5435 26.4648 11.5924C26.2109 11.6413 25.9472 11.6119 25.9472 11.5826C25.8984 11.563 25.8984 11.3576 25.9765 11.1913C26.0546 11.0152 26.4062 10.5847 26.5624 10.2913C26.8066 9.83146 26.9433 8.99014 26.8359 8.47165C26.7675 8.13903 26.6113 7.80641 26.3671 7.37597C26.1327 6.94553 25.8105 6.41725 25.5761 6.00637C25.3417 5.60528 25.1952 5.32158 25.0976 5.05744C24.9999 4.7933 24.9511 4.52917 24.9316 4.45091C24.912 4.52917 24.8534 4.7933 24.7656 5.05744C24.6679 5.32158 24.5214 5.60528 24.287 6.00637C24.0527 6.40747 23.7402 6.93574 23.496 7.37597C23.2616 7.80641 23.0956 8.13903 23.0273 8.47165C22.9198 8.99014 23.0566 9.83146 23.3007 10.2913C23.457 10.5847 23.8085 11.0152 23.8866 11.1913C23.9648 11.3674 23.9648 11.563 23.9159 11.5826C23.9062 11.6021 23.6425 11.6315 23.3984 11.5924C23.1445 11.5435 22.8222 11.4652 22.5976 11.2695C22.373 11.0739 22.246 10.7804 22.1484 10.4478C22.0605 10.1152 21.9823 9.73363 21.9921 9.31297C22.0019 8.37382 22.2558 6.95531 22.6757 6.13355C23.2031 5.09657 24.3066 4.19655 24.7167 3.07153C24.8827 2.61174 24.8925 2.22042 24.8144 1.83889C24.5605 0.664954 23.3593 -0.127455 22.2265 0.00950489C22.9882 0.449732 23.9159 1.23236 23.6425 1.9465C23.5351 2.23999 23.1933 2.65087 22.9394 3.00305C22.6757 3.35523 21.1816 4.38243 20.9472 4.69548C20.7128 5.00853 20.5566 5.33136 20.537 5.68354C20.5175 6.04551 20.5956 6.57378 20.6347 6.71074C20.4101 6.564 20.4394 6.59334 20.1757 6.40747C19.912 6.2216 19.5507 6.08464 19.1894 6.06507C18.8183 6.04551 18.4374 6.15312 18.0859 6.33899C17.7343 6.52486 17.4023 6.77922 17.1972 7.04335C16.9921 7.30749 16.9238 7.61076 16.9042 7.73793C16.8847 7.86511 17.0116 7.62054 17.2558 7.48358C17.4999 7.3564 17.9394 7.23901 18.3593 7.26836C18.7792 7.29771 19.2968 7.62054 19.58 7.95316L19.6288 8.02164C20.2538 8.81404 20.4101 10.6728 20.83 11.7C21.0741 12.2967 21.4843 12.6783 22.0605 12.9717C22.4902 13.187 22.998 13.3337 23.4765 13.3337C23.4374 13.412 23.2128 13.6076 23.0273 13.6761C22.2558 13.9305 21.2011 13.862 20.4882 13.4805C19.3163 12.8544 18.0273 10.9174 18.457 9.61624C18.5644 9.30319 18.8671 9.10753 19.2187 9.11731C18.8476 8.94122 18.2128 9.15644 18.0468 9.45971C17.871 9.77276 17.8222 10.1249 17.8515 10.3793C17.6074 10.1836 17.1874 10.076 16.9824 10.0467C16.6601 9.98798 16.1913 10.0467 15.8886 10.1249C15.5859 10.2032 15.3124 10.3304 15.0097 10.526C14.707 10.7315 14.3749 11.0054 14.1406 11.2793C13.9062 11.5532 13.7792 11.8272 13.6816 12.0815C13.5839 12.3359 13.5937 12.3848 13.5546 12.5706C13.5449 12.6293 13.4765 13.1478 13.6327 13.3631C13.6132 12.8152 13.9452 12.1989 14.5214 12.1891C14.4433 12.2772 14.3749 12.4728 14.3066 12.7174C13.9648 13.9794 14.9511 15.0751 16.0351 15.5544C15.9081 15.4077 15.7421 15.0359 15.664 14.7522C15.5859 14.4685 15.5663 14.3022 15.5566 14.0087C15.5468 13.7055 15.5663 13.4609 15.664 13.1967C15.9081 12.5217 16.6894 12.2674 17.3339 12.4826C17.5781 12.5609 17.8027 12.7467 17.9199 12.9326C18.3691 13.7055 18.3593 14.175 19.1894 14.7522C19.3066 14.8403 19.4726 14.9283 19.9804 15.1044C19.7363 15.4174 19.6386 15.5935 19.5214 15.8577C19.3163 16.3468 19.3554 17.1197 19.6874 17.5305C19.8827 17.7751 20.4003 18.1762 20.9277 18.2153C20.6738 17.9805 20.6347 17.8045 20.5956 17.5892C20.5566 17.374 20.5468 17.2371 20.5956 16.9142C20.6445 16.5914 20.7812 16.3077 20.9667 16.112C21.2206 15.8479 22.3827 15.7696 22.7734 15.6914C23.4472 15.5544 23.8671 15.3294 24.2187 14.9087C24.4238 14.6642 24.6484 14.3903 24.7851 13.7935C24.8534 13.4902 24.8925 13.2163 24.912 12.7174C24.9218 12.4141 24.9218 12.0522 24.9218 11.6217C24.9218 12.0522 24.9218 12.4141 24.9316 12.7174C24.9511 13.2163 24.9902 13.4902 25.0585 13.7935C25.1952 14.3903 25.4296 14.6642 25.6249 14.9087C25.9765 15.3294 26.3964 15.5446 27.0702 15.6914C27.4511 15.7696 28.623 15.8577 28.8769 16.112C29.0624 16.3077 29.1991 16.5914 29.248 16.9142C29.2968 17.2371 29.287 17.3838 29.248 17.5892C29.2089 17.7947 29.1601 17.9805 28.9159 18.2153C29.4335 18.1762 29.9511 17.7653 30.1562 17.5305C30.498 17.1197 30.5273 16.3468 30.3222 15.8577C30.2148 15.5935 30.1171 15.4272 29.8632 15.1044C30.3612 14.9185 30.5273 14.8305 30.6542 14.7522C31.4843 14.175 31.4745 13.7055 31.9237 12.9326C32.0312 12.7467 32.2558 12.5609 32.5097 12.4826C33.1542 12.2674 33.9355 12.5217 34.1796 13.1967C34.2773 13.4511 34.2968 13.7055 34.287 14.0087C34.2773 14.312 34.2577 14.4685 34.1796 14.7522C34.1015 15.0359 33.9355 15.4077 33.8085 15.5544C34.8925 15.0751 35.8788 13.9794 35.537 12.7174C35.4687 12.4728 35.4003 12.2772 35.3222 12.1891C35.8984 12.1989 36.2304 12.8152 36.2109 13.3631C36.3671 13.1478 36.2987 12.6293 36.289 12.5706C36.2597 12.3848 36.2597 12.3359 36.162 12.0815C36.0644 11.8272 35.9374 11.5532 35.703 11.2793C35.4687 11.0054 35.1366 10.7217 34.8339 10.526C34.5312 10.3206 34.2577 10.1934 33.955 10.1249C33.6523 10.0467 33.1933 9.98798 32.8612 10.0467C32.6562 10.0858 32.2362 10.1836 31.9921 10.3793C32.0214 10.1347 31.9726 9.77276 31.7968 9.45971C31.621 9.14666 30.996 8.94122 30.6249 9.11731C30.9863 9.11731 31.289 9.30319 31.3866 9.61624C31.8163 10.9174 30.5273 12.8544 29.3554 13.4805C28.6425 13.862 27.5878 13.9305 26.8163 13.6761C26.6308 13.6174 26.3964 13.412 26.3671 13.3337C26.8456 13.3337 27.3534 13.1772 27.7831 12.9717C28.3593 12.688 28.7695 12.3065 29.0136 11.7C29.4335 10.6728 29.5898 8.81404 30.2148 8.02164L30.2636 7.95316C30.5468 7.62054 31.0644 7.29771 31.4843 7.26836C31.9042 7.23901 32.3437 7.3564 32.5878 7.48358C32.832 7.61076 32.9589 7.85533 32.9394 7.73793C32.9198 7.61076 32.8515 7.30749 32.6464 7.04335C32.4413 6.77922 32.1093 6.52486 31.7577 6.33899C31.4062 6.15312 31.0155 6.05529 30.6542 6.06507C30.2831 6.08464 29.9316 6.2216 29.6679 6.40747C29.4042 6.59334 29.4335 6.564 29.2089 6.71074C29.248 6.57378 29.3261 6.03572 29.3066 5.68354C29.287 5.32158 29.1308 5.00853 28.8964 4.69548C28.662 4.38243 27.1679 3.35523 26.9042 3.00305C26.6405 2.65087 26.3085 2.23999 26.2011 1.9465C25.957 1.24214 26.8749 0.449732 27.6366 0.00950489Z" fill="#EA6079"/><path fill-rule="evenodd" clip-rule="evenodd" d="M43.3888 24.9169C43.0958 25.1125 42.7345 25.3082 42.4122 25.4647C42.09 25.6212 41.8751 25.6799 41.631 25.7093C41.3868 25.7386 41.006 25.7191 40.7032 25.543C40.4005 25.3767 40.1857 25.1614 39.9806 24.9169C40.1954 24.6723 40.4005 24.4571 40.7032 24.2908C41.0157 24.1245 41.3868 24.1049 41.631 24.1245C41.8751 24.1538 42.09 24.2125 42.4122 24.369C42.7345 24.5256 43.1056 24.7212 43.3888 24.9169ZM49.9904 27.6169C50.1271 26.4723 49.3361 25.2788 48.1642 25.0245C47.7833 24.9462 47.3927 24.9462 46.9337 25.1223C45.8107 25.5332 44.9122 26.6387 43.8771 27.1669C43.047 27.5876 41.6407 27.8419 40.7032 27.8517C40.2833 27.8517 39.9025 27.7832 39.5704 27.6952C39.2384 27.6072 38.9454 27.4702 38.7501 27.2452C38.5548 27.0202 38.4669 26.6973 38.4279 26.443C38.379 26.1886 38.4083 25.9245 38.4376 25.9245C38.4572 25.8756 38.6622 25.8756 38.8282 25.9539C39.004 26.0321 39.4337 26.3843 39.7267 26.5408C40.1857 26.7854 41.0255 26.9224 41.5431 26.8147C41.8751 26.7463 42.2072 26.5897 42.6368 26.3452C43.0665 26.1104 43.5939 25.7875 44.004 25.5528C44.4044 25.318 44.6876 25.1712 44.9513 25.0734C45.215 24.9756 45.4786 24.9267 45.5568 24.9071C45.4786 24.8875 45.215 24.8288 44.9513 24.7408C44.6876 24.643 44.4044 24.4962 44.004 24.2614C43.6036 24.0266 43.0763 23.7136 42.6368 23.469C42.2072 23.2342 41.8751 23.0679 41.5431 22.9994C41.0255 22.8918 40.1857 23.0288 39.7267 23.2734C39.4337 23.4299 39.004 23.7821 38.8282 23.8603C38.6525 23.9386 38.4572 23.9386 38.4376 23.8897C38.4181 23.8799 38.3888 23.6158 38.4279 23.3712C38.4767 23.1168 38.5548 22.794 38.7501 22.569C38.9454 22.344 39.2384 22.2168 39.5704 22.119C39.9025 22.0309 40.2833 21.9527 40.7032 21.9625C41.6407 21.9722 43.0568 22.2266 43.8771 22.6473C44.9122 23.1755 45.8107 24.281 46.9337 24.6919C47.3927 24.8582 47.7833 24.868 48.1642 24.7897C49.3361 24.5353 50.1271 23.3321 49.9904 22.1973C49.5509 22.9603 48.7697 23.8897 48.0568 23.6158C47.7638 23.5081 47.3536 23.1658 47.0021 22.9114C46.6505 22.6473 45.6251 21.1505 45.3126 20.9157C45.0001 20.6809 44.6779 20.5244 44.3263 20.5048C43.965 20.4853 43.4376 20.5635 43.3009 20.6027C43.4474 20.3776 43.4181 20.407 43.6036 20.1429C43.7892 19.8787 43.9259 19.5168 43.9454 19.1548C43.965 18.783 43.8575 18.4015 43.672 18.0493C43.4865 17.6972 43.2325 17.3645 42.9689 17.1591C42.7052 16.9537 42.4025 16.8852 42.2755 16.8656C42.1486 16.846 42.3927 16.9732 42.5294 17.2178C42.6564 17.4624 42.7736 17.9026 42.7443 18.3233C42.715 18.7439 42.3927 19.2624 42.0607 19.5461L41.9923 19.595C41.2013 20.2211 39.3458 20.3776 38.3204 20.7983C37.7247 21.0429 37.3439 21.4538 37.0509 22.0309C36.8361 22.4614 36.6896 22.9701 36.6896 23.4495C36.6115 23.4103 36.4161 23.1853 36.3478 22.9994C36.0939 22.2266 36.1622 21.1701 36.5431 20.4559C37.1681 19.282 39.1017 17.9906 40.4005 18.4211C40.713 18.5287 40.9083 18.832 40.8986 19.1841C41.0743 18.8124 40.8595 18.1765 40.5568 18.0102C40.2443 17.8341 39.8927 17.7852 39.6388 17.8145C39.8341 17.57 39.9415 17.1493 39.9708 16.9439C40.0294 16.621 39.9708 16.1515 39.8927 15.8482C39.8146 15.5449 39.6876 15.271 39.4923 14.9677C39.2872 14.6645 39.0138 14.3319 38.7404 14.0971C38.4669 13.8623 38.1935 13.7351 37.9396 13.6373C37.6857 13.5395 37.6368 13.5492 37.4513 13.5101C37.3927 13.5003 36.8751 13.4318 36.6603 13.5884C37.2072 13.5688 37.8224 13.9014 37.8322 14.4786C37.7443 14.4003 37.549 14.3319 37.3048 14.2634C36.045 13.921 34.9513 14.909 34.4728 15.9949C34.6193 15.8678 34.9904 15.7015 35.2736 15.6232C35.5568 15.5449 35.7228 15.5254 36.0157 15.5156C36.3185 15.5058 36.5626 15.5254 36.8263 15.6232C37.5001 15.8678 37.754 16.6504 37.5392 17.2961C37.4611 17.5406 37.2755 17.7656 37.09 17.883C36.3185 18.333 35.8497 18.3233 35.2736 19.1548C35.1857 19.2722 35.0978 19.4385 34.922 19.9472C34.6095 19.7026 34.4337 19.6048 34.17 19.4874C33.6818 19.282 32.9103 19.3211 32.5001 19.6537C32.256 19.8494 31.8556 20.3679 31.8165 20.8961C32.0509 20.6418 32.2267 20.6027 32.4415 20.5635C32.6466 20.5244 32.7931 20.5146 33.1154 20.5635C33.4376 20.6124 33.7208 20.7494 33.9161 20.9353C34.1798 21.1896 34.2579 22.3538 34.3361 22.7451C34.4728 23.4201 34.6974 23.8408 35.1173 24.1929C35.3615 24.3984 35.6349 24.6234 36.2306 24.7604C36.5333 24.8288 36.8068 24.868 37.3048 24.8875C37.6075 24.8973 37.9689 24.8973 38.3986 24.8973C37.9689 24.8973 37.6075 24.8973 37.3048 24.9071C36.8068 24.9267 36.5333 24.9658 36.2306 25.0343C35.6349 25.1712 35.3615 25.406 35.1173 25.6017C34.6974 25.9539 34.4825 26.3745 34.3361 27.0495C34.2579 27.4311 34.17 28.605 33.9161 28.8594C33.7208 29.0452 33.4376 29.1822 33.1154 29.2311C32.7931 29.28 32.6466 29.2702 32.4415 29.2311C32.2365 29.192 32.0509 29.1431 31.8165 28.8985C31.8556 29.417 32.2657 29.9355 32.5001 30.1409C32.9103 30.4833 33.6818 30.5126 34.17 30.3072C34.4337 30.1996 34.5997 30.1018 34.922 29.8474C35.1075 30.3463 35.1954 30.5127 35.2736 30.6398C35.8497 31.4714 36.3185 31.4616 37.09 31.9116C37.2755 32.0192 37.4611 32.2442 37.5392 32.4986C37.754 33.1442 37.5001 33.9269 36.8263 34.1714C36.5724 34.2693 36.3185 34.2888 36.0157 34.279C35.713 34.2693 35.5568 34.2497 35.2736 34.1714C34.9904 34.0932 34.6193 33.9269 34.4728 33.7997C34.9513 34.8856 36.045 35.8736 37.3048 35.5312C37.549 35.4628 37.7443 35.3943 37.8322 35.316C37.8224 35.8932 37.2072 36.2258 36.6603 36.2063C36.8751 36.3628 37.3927 36.2943 37.4513 36.2845C37.6368 36.2552 37.6857 36.2552 37.9396 36.1573C38.1935 36.0595 38.4669 35.9323 38.7404 35.6975C39.0138 35.4628 39.297 35.1301 39.4923 34.8269C39.6974 34.5236 39.8243 34.2497 39.8927 33.9464C39.9708 33.6432 40.0294 33.1834 39.9708 32.8507C39.9318 32.6453 39.8341 32.2246 39.6388 31.9801C39.8829 32.0094 40.2443 31.9605 40.5568 31.7844C40.8693 31.6083 41.0743 30.9822 40.8986 30.6105C40.8986 30.9724 40.713 31.2757 40.4005 31.3735C39.1017 31.804 37.1681 30.5126 36.5431 29.3387C36.1622 28.6246 36.0939 27.568 36.3478 26.7952C36.4064 26.6093 36.6115 26.3745 36.6896 26.3452C36.6896 26.8245 36.8458 27.3332 37.0509 27.7637C37.3341 28.3409 37.715 28.7517 38.3204 28.9963C39.3458 29.417 41.2013 29.5735 41.9923 30.1996L42.0607 30.2485C42.3927 30.5322 42.715 31.0507 42.7443 31.4714C42.7736 31.892 42.6564 32.3323 42.5294 32.5768C42.4025 32.8214 42.1583 32.9486 42.2755 32.929C42.4025 32.9094 42.7052 32.841 42.9689 32.6355C43.2325 32.4301 43.4865 32.0975 43.672 31.7453C43.8575 31.3931 43.9552 31.0018 43.9454 30.6398C43.9259 30.2681 43.7892 29.9159 43.6036 29.6518C43.4181 29.3876 43.4474 29.417 43.3009 29.192C43.4376 29.2311 43.9747 29.3094 44.3263 29.2898C44.6876 29.2702 45.0001 29.1137 45.3126 28.8789C45.6251 28.6441 46.6505 27.1474 47.0021 26.8832C47.3536 26.6191 47.7638 26.2865 48.0568 26.1789C48.7697 25.9245 49.5509 26.8539 49.9904 27.6169Z" fill="#EA6079"/><path fill-rule="evenodd" clip-rule="evenodd" d="M24.7462 43.3768C24.5508 43.0833 24.3555 42.7214 24.1993 42.3985C24.043 42.0757 23.9844 41.8605 23.9551 41.6159C23.9258 41.3714 23.9454 40.9898 24.1212 40.6866C24.2872 40.3833 24.502 40.1681 24.7462 39.9626C24.9903 40.1778 25.2051 40.3833 25.3712 40.6866C25.5372 40.9996 25.5567 41.3714 25.5372 41.6159C25.5079 41.8605 25.4493 42.0757 25.293 42.3985C25.1368 42.7214 24.9415 43.0931 24.7462 43.3768ZM22.0508 49.99C23.1934 50.127 24.3848 49.3346 24.6387 48.1606C24.7169 47.7791 24.7169 47.3878 24.5411 46.928C24.1309 45.803 23.0274 44.903 22.5001 43.866C22.0801 43.0344 21.8262 41.6257 21.8165 40.6866C21.8165 40.2659 21.8848 39.8844 21.9727 39.5517C22.0606 39.2191 22.1973 38.9256 22.4219 38.73C22.6465 38.5343 22.9688 38.4561 23.2227 38.4072C23.4766 38.3582 23.7403 38.3876 23.7403 38.4169C23.7891 38.4365 23.7891 38.6419 23.711 38.8083C23.6329 38.9843 23.2813 39.4148 23.1251 39.7083C22.8809 40.1681 22.7442 41.0094 22.8516 41.5279C22.92 41.8605 23.0762 42.1931 23.3204 42.6236C23.5547 43.054 23.877 43.5823 24.1114 43.9932C24.3458 44.3942 24.4922 44.6779 24.5899 44.9421C24.6876 45.2062 24.7364 45.4704 24.7559 45.5486C24.7754 45.4704 24.834 45.2062 24.9219 44.9421C25.0196 44.6779 25.1661 44.3942 25.4004 43.9932C25.6348 43.5921 25.9473 43.0638 26.1915 42.6236C26.4258 42.1931 26.5919 41.8605 26.6602 41.5279C26.7676 41.0094 26.6309 40.1681 26.3868 39.7083C26.2305 39.4148 25.879 38.9843 25.8008 38.8083C25.7227 38.6322 25.7227 38.4365 25.7715 38.4169C25.7813 38.3974 26.045 38.368 26.2891 38.4072C26.543 38.4561 26.8653 38.5343 27.0899 38.73C27.3145 38.9256 27.4415 39.2191 27.5391 39.5517C27.627 39.8844 27.7051 40.2659 27.6954 40.6866C27.6856 41.6257 27.4317 43.0442 27.0118 43.866C26.4844 44.903 25.3809 45.803 24.9708 46.928C24.8047 47.3878 24.795 47.7791 24.8731 48.1606C25.127 49.3346 26.3282 50.127 27.461 49.99C26.6993 49.5498 25.7715 48.7672 26.045 48.053C26.1524 47.7595 26.4942 47.3487 26.7481 46.9965C27.0118 46.6443 28.5059 45.6171 28.7403 45.304C28.9747 44.991 29.1309 44.6682 29.1504 44.316C29.17 43.954 29.0919 43.4257 29.0528 43.2888C29.2774 43.4355 29.2481 43.4062 29.5118 43.5921C29.7754 43.7779 30.1368 43.9149 30.4981 43.9345C30.8692 43.954 31.2501 43.8464 31.6016 43.6605C31.9532 43.4747 32.2852 43.2203 32.4903 42.9562C32.6954 42.692 32.7637 42.3888 32.7833 42.2616C32.8028 42.1344 32.6758 42.379 32.4317 42.5159C32.1876 42.6431 31.7481 42.7605 31.3282 42.7312C30.9083 42.7018 30.3907 42.379 30.1075 42.0464L30.0587 41.9779C29.4337 41.1855 29.2774 39.3267 28.8575 38.2995C28.6133 37.7028 28.2032 37.3213 27.627 37.0278C27.1973 36.8126 26.6895 36.6658 26.211 36.6658C26.2501 36.5875 26.4747 36.3919 26.6602 36.3234C27.4317 36.0691 28.4864 36.1375 29.1993 36.5191C30.3712 37.1452 31.6602 39.0822 31.2305 40.3833C31.1231 40.6963 30.8204 40.892 30.4688 40.8822C30.8399 41.0583 31.4747 40.8431 31.6407 40.5398C31.8165 40.2268 31.8653 39.8746 31.836 39.6202C32.0801 39.8159 32.5001 39.9235 32.7051 39.9528C33.0274 40.0115 33.4962 39.9528 33.7989 39.8746C34.1016 39.7963 34.3751 39.6691 34.6778 39.4735C34.9805 39.268 35.3126 38.9941 35.5469 38.7202C35.7813 38.4463 35.9083 38.1724 36.0059 37.918C36.1036 37.6637 36.0938 37.6147 36.1329 37.4289C36.1426 37.3702 36.211 36.8517 36.0547 36.6365C36.0743 37.1843 35.7422 37.8006 35.1661 37.8104C35.2442 37.7224 35.3126 37.5267 35.3809 37.2821C35.7227 36.0201 34.7364 34.9245 33.6524 34.4451C33.7794 34.5919 33.9454 34.9636 34.0235 35.2473C34.1016 35.531 34.1212 35.6973 34.1309 35.9908C34.1407 36.2941 34.1212 36.5386 34.0235 36.8028C33.7794 37.4778 32.9981 37.7321 32.3536 37.5169C32.1094 37.4387 31.8848 37.2528 31.7676 37.0669C31.3184 36.2941 31.3282 35.8245 30.4981 35.2473C30.3809 35.1593 30.2149 35.0712 29.7071 34.8951C29.9512 34.5821 30.0489 34.406 30.1661 34.1418C30.3712 33.6527 30.3321 32.8799 30.0001 32.469C29.8047 32.2244 29.2872 31.8233 28.7598 31.7842C29.0137 32.019 29.0528 32.1951 29.0919 32.4103C29.1309 32.6157 29.1407 32.7625 29.0919 33.0853C29.043 33.4081 28.9063 33.6918 28.7208 33.8875C28.4669 34.1516 27.3047 34.2299 26.9141 34.3082C26.2403 34.4451 25.8204 34.6701 25.4688 35.0908C25.2637 35.3353 25.0391 35.6093 24.9024 36.206C24.834 36.5093 24.795 36.7832 24.7754 37.2821C24.7657 37.5854 24.7657 37.9474 24.7657 38.3778C24.7657 37.9474 24.7657 37.5854 24.7559 37.2821C24.7364 36.7832 24.6973 36.5093 24.629 36.206C24.4922 35.6093 24.2579 35.3353 24.0626 35.0908C23.711 34.6701 23.2911 34.4549 22.6172 34.3082C22.2364 34.2299 21.0645 34.1418 20.8106 33.8875C20.6251 33.6918 20.4883 33.4081 20.4395 33.0853C20.3907 32.7625 20.4004 32.6157 20.4395 32.4103C20.4786 32.2048 20.5274 32.019 20.7715 31.7842C20.254 31.8233 19.7364 32.2342 19.5313 32.469C19.1895 32.8799 19.1602 33.6527 19.3653 34.1418C19.4727 34.406 19.5704 34.5723 19.8243 34.8951C19.3262 35.081 19.1602 35.169 19.0333 35.2473C18.2032 35.8245 18.2129 36.2941 17.7637 37.0669C17.6563 37.2528 17.4317 37.4387 17.1778 37.5169C16.5333 37.7321 15.752 37.4778 15.5079 36.8028C15.4102 36.5484 15.3907 36.2941 15.4004 35.9908C15.4102 35.6875 15.4297 35.531 15.5079 35.2473C15.586 34.9636 15.752 34.5919 15.879 34.4451C14.795 34.9245 13.8086 36.0201 14.1504 37.2821C14.2188 37.5267 14.2872 37.7224 14.3653 37.8104C13.7891 37.8006 13.4571 37.1843 13.4766 36.6365C13.3204 36.8517 13.3887 37.3702 13.3985 37.4289C13.4278 37.6147 13.4278 37.6637 13.5254 37.918C13.6231 38.1724 13.7501 38.4463 13.9844 38.7202C14.2188 38.9941 14.5508 39.2778 14.8536 39.4735C15.1563 39.6789 15.4297 39.8061 15.7325 39.8746C16.0352 39.9528 16.4942 40.0115 16.8262 39.9528C17.0313 39.9137 17.4512 39.8159 17.6954 39.6202C17.6661 39.8648 17.7149 40.2268 17.8907 40.5398C18.0665 40.8529 18.6915 41.0583 19.0626 40.8822C18.7012 40.8822 18.3985 40.6963 18.3008 40.3833C17.8711 39.0822 19.1602 37.1452 20.3321 36.5191C21.045 36.1375 22.0997 36.0691 22.8712 36.3234C23.0567 36.3821 23.2911 36.5875 23.3204 36.6658C22.8419 36.6658 22.334 36.8223 21.9044 37.0278C21.3282 37.3115 20.918 37.693 20.6739 38.2995C20.254 39.3267 20.0977 41.1855 19.4727 41.9779L19.4239 42.0464C19.1407 42.379 18.6231 42.7018 18.2032 42.7312C17.7833 42.7605 17.3438 42.6431 17.0997 42.5159C16.8555 42.3888 16.7286 42.1442 16.7481 42.2616C16.7676 42.3888 16.836 42.692 17.0411 42.9562C17.2461 43.2203 17.5782 43.4747 17.9297 43.6605C18.2813 43.8464 18.6719 43.9442 19.0333 43.9345C19.4044 43.9149 19.7559 43.7779 20.0196 43.5921C20.2833 43.4062 20.254 43.4355 20.4786 43.2888C20.4395 43.4257 20.3614 43.9638 20.3809 44.316C20.4004 44.6779 20.5567 44.991 20.7911 45.304C21.0254 45.6171 22.5196 46.6443 22.7833 46.9965C23.0469 47.3487 23.379 47.7595 23.4864 48.053C23.7403 48.7672 22.8126 49.5498 22.0508 49.99Z" fill="#EA6079"/><path fill-rule="evenodd" clip-rule="evenodd" d="M6.61116 24.9266C6.90413 24.7309 7.26546 24.5352 7.58773 24.3787C7.90999 24.2222 8.12484 24.1635 8.36898 24.1341C8.61312 24.1048 8.99398 24.1244 9.29671 24.3004C9.59945 24.4668 9.81429 24.682 10.0194 24.9266C9.80452 25.1711 9.59945 25.3863 9.29671 25.5527C8.98421 25.719 8.61312 25.7385 8.36898 25.719C8.12484 25.6896 7.90999 25.6309 7.58773 25.4744C7.26546 25.3179 6.90413 25.132 6.61116 24.9266ZM0.00959996 22.2363C-0.127119 23.3809 0.663897 24.5744 1.83577 24.8287C2.21663 24.907 2.60726 24.907 3.06624 24.7309C4.18929 24.32 5.08773 23.2146 6.12288 22.6863C6.95296 22.2656 8.35921 22.0113 9.29671 22.0015C9.71663 22.0015 10.0975 22.07 10.4295 22.158C10.7616 22.2461 11.0545 22.383 11.2498 22.608C11.4452 22.833 11.533 23.1559 11.5721 23.4102C11.6209 23.6646 11.5916 23.9287 11.5623 23.9287C11.5428 23.9776 11.3377 23.9776 11.1717 23.8994C10.9959 23.8211 10.5662 23.4689 10.2733 23.3124C9.81429 23.0678 8.97445 22.9309 8.45687 23.0385C8.12484 23.1069 7.79281 23.2635 7.36312 23.508C6.93343 23.7428 6.40609 24.0657 5.99593 24.3004C5.59554 24.5352 5.31234 24.682 5.04866 24.7798C4.78499 24.8776 4.52132 24.9265 4.44319 24.9461C4.52132 24.9657 4.78499 25.0244 5.04866 25.1124C5.31234 25.2103 5.59554 25.357 5.99593 25.5918C6.39632 25.8266 6.92366 26.1396 7.36312 26.3842C7.79281 26.619 8.12484 26.7853 8.45687 26.8538C8.97445 26.9614 9.81429 26.8244 10.2733 26.5798C10.5662 26.4233 10.9959 26.0711 11.1717 25.9929C11.3475 25.9146 11.5428 25.9146 11.5623 25.9635C11.5819 25.9733 11.6112 26.2374 11.5721 26.482C11.5233 26.7364 11.4452 27.0592 11.2498 27.2842C11.0545 27.5092 10.7616 27.6364 10.4295 27.7342C10.0975 27.8223 9.71663 27.9005 9.29671 27.8907C8.35921 27.881 6.9432 27.6266 6.12288 27.2059C5.08773 26.6777 4.18929 25.5722 3.06624 25.1613C2.60726 24.995 2.21663 24.9852 1.83577 25.0635C0.663897 25.3179 -0.127119 26.5211 0.00959996 27.656C0.449053 26.8929 1.2303 25.9635 1.94319 26.2374C2.23616 26.3451 2.64632 26.6875 2.99788 26.9418C3.34944 27.2059 4.37484 28.7027 4.68734 28.9375C4.99984 29.1723 5.3221 29.3288 5.67366 29.3484C6.03499 29.3679 6.56234 29.2897 6.69905 29.2506C6.55257 29.4756 6.58187 29.4462 6.39632 29.7103C6.21077 29.9745 6.07405 30.3364 6.05452 30.6984C6.03499 31.0702 6.14241 31.4517 6.32796 31.8039C6.51351 32.1561 6.76741 32.4887 7.03109 32.6941C7.29476 32.8995 7.59749 32.968 7.72445 32.9876C7.8514 33.0072 7.60726 32.88 7.47054 32.6354C7.34359 32.3908 7.2264 31.9506 7.2557 31.5299C7.28499 31.1093 7.60726 30.5908 7.93929 30.3071L8.00765 30.2582C8.79867 29.6321 10.6541 29.4756 11.6795 29.0549C12.2752 28.8103 12.6561 28.3994 12.9491 27.8223C13.1639 27.3918 13.3104 26.8831 13.3104 26.4038C13.3885 26.4429 13.5838 26.6679 13.6522 26.8538C13.9061 27.6266 13.8377 28.6832 13.4569 29.3973C12.8319 30.5712 10.8983 31.8626 9.59945 31.4321C9.28695 31.3245 9.09163 31.0212 9.1014 30.6691C8.92562 31.0408 9.14046 31.6767 9.4432 31.843C9.7557 32.0191 10.1073 32.068 10.3612 32.0387C10.1659 32.2832 10.0584 32.7039 10.0291 32.9093C9.97054 33.2322 10.0291 33.7017 10.1073 34.005C10.1854 34.3083 10.3123 34.5822 10.5076 34.8855C10.7127 35.1887 10.9862 35.5213 11.2596 35.7561C11.533 35.9909 11.8065 36.1181 12.0604 36.2159C12.3143 36.3137 12.3631 36.304 12.5487 36.3431C12.6073 36.3529 13.1248 36.4214 13.3397 36.2648C12.7928 36.2844 12.1776 35.9518 12.1678 35.3746C12.2557 35.4529 12.451 35.5213 12.6952 35.5898C13.9549 35.9322 15.0487 34.9442 15.5272 33.8583C15.3807 33.9854 15.0096 34.1517 14.7264 34.23C14.4432 34.3083 14.2772 34.3278 13.9842 34.3376C13.6815 34.3474 13.4373 34.3278 13.1737 34.23C12.4998 33.9854 12.2459 33.2028 12.4608 32.5571C12.5389 32.3126 12.7244 32.0876 12.91 31.9702C13.6815 31.5202 14.1502 31.5299 14.7264 30.6984C14.8143 30.581 14.9022 30.4147 15.078 29.906C15.3905 30.1506 15.5662 30.2484 15.8299 30.3658C16.3182 30.5712 17.0897 30.5321 17.4998 30.1995C17.744 30.0038 18.1444 29.4853 18.1834 28.9571C17.9491 29.2114 17.7733 29.2506 17.5584 29.2897C17.3534 29.3288 17.2069 29.3386 16.8846 29.2897C16.5623 29.2408 16.2791 29.1038 16.0838 28.9179C15.8202 28.6636 15.742 27.4994 15.6639 27.1081C15.5272 26.4331 15.3026 26.0124 14.8827 25.6603C14.6385 25.4548 14.3651 25.2298 13.7694 25.0929C13.4666 25.0244 13.1932 24.9852 12.6952 24.9657C12.3924 24.9559 12.0311 24.9559 11.6014 24.9559C12.0311 24.9559 12.3924 24.9559 12.6952 24.9461C13.1932 24.9265 13.4666 24.8874 13.7694 24.8189C14.3651 24.682 14.6385 24.4472 14.8827 24.2515C15.3026 23.8994 15.5174 23.4787 15.6639 22.8037C15.742 22.4221 15.8299 21.2482 16.0838 20.9939C16.2791 20.808 16.5623 20.671 16.8846 20.6221C17.2069 20.5732 17.3534 20.583 17.5584 20.6221C17.7635 20.6612 17.9491 20.7102 18.1834 20.9547C18.1346 20.4362 17.7342 19.9177 17.4998 19.7123C17.0897 19.3699 16.3182 19.3406 15.8299 19.546C15.5662 19.6536 15.4002 19.7514 15.078 20.0058C14.8924 19.5069 14.8045 19.3406 14.7264 19.2134C14.1502 18.3818 13.6815 18.3916 12.91 17.9416C12.7244 17.834 12.5389 17.609 12.4608 17.3546C12.2459 16.709 12.5096 15.9264 13.1737 15.6818C13.4276 15.584 13.6815 15.5644 13.9842 15.5742C14.2869 15.584 14.4432 15.6035 14.7264 15.6818C15.0096 15.7601 15.3807 15.9264 15.5272 16.0535C15.0487 14.9676 13.9549 13.9796 12.6952 14.322C12.451 14.3905 12.2557 14.4589 12.1678 14.5372C12.1776 13.96 12.7928 13.6274 13.3397 13.647C13.1248 13.4904 12.6073 13.5589 12.5487 13.5687C12.3631 13.598 12.3143 13.598 12.0604 13.6959C11.8065 13.7937 11.533 13.9209 11.2596 14.1557C10.9862 14.3905 10.703 14.7231 10.5076 15.0263C10.3026 15.3296 10.1756 15.6035 10.1073 15.9068C10.0291 16.2101 9.97054 16.6699 10.0291 17.0025C10.0682 17.2079 10.1659 17.6286 10.3612 17.8731C10.117 17.8438 9.7557 17.8927 9.4432 18.0688C9.1307 18.2449 8.92562 18.871 9.1014 19.2427C9.1014 18.8808 9.28695 18.5775 9.59945 18.4797C10.8983 18.0492 12.8319 19.3406 13.4569 20.5145C13.8377 21.2286 13.9061 22.2852 13.6522 23.058C13.5936 23.2439 13.3885 23.4787 13.3104 23.508C13.3104 23.0287 13.1541 22.52 12.9491 22.0895C12.6659 21.5123 12.285 21.1015 11.6795 20.8569C10.6541 20.4362 8.79867 20.2797 8.00765 19.6536L7.93929 19.6047C7.60726 19.321 7.28499 18.8025 7.2557 18.3818C7.2264 17.9612 7.34359 17.521 7.47054 17.2764C7.59749 17.0318 7.84163 16.9046 7.72445 16.9242C7.59749 16.9438 7.29476 17.0123 7.03109 17.2177C6.76741 17.4231 6.51351 17.7557 6.32796 18.1079C6.14241 18.4601 6.04476 18.8514 6.05452 19.2134C6.07405 19.5851 6.21077 19.9373 6.39632 20.2014C6.58187 20.4656 6.55257 20.4362 6.69905 20.6612C6.56234 20.6221 6.02523 20.5438 5.67366 20.5634C5.31234 20.583 4.99984 20.7395 4.68734 20.9743C4.37484 21.2091 3.34944 22.7059 2.99788 22.97C2.64632 23.2341 2.23616 23.5667 1.94319 23.6743C1.24007 23.9287 0.449053 22.9993 0.00959996 22.2363Z" fill="#EA6079"/><path fill-rule="evenodd" clip-rule="evenodd" d="M31.3965 18.4015C32.1582 17.8928 32.959 17.6874 33.8867 18.4015C34.1992 17.9026 33.9746 16.9732 33.3887 16.4058C32.8223 15.8189 31.8945 15.5939 31.3965 15.9069C32.1094 16.8363 31.9043 17.6385 31.3965 18.4015Z" fill="#EA6079"/><path fill-rule="evenodd" clip-rule="evenodd" d="M18.3594 31.168C17.5977 31.6767 16.7969 31.8821 15.8692 31.168C15.5567 31.6669 15.7813 32.5963 16.3672 33.1637C16.9336 33.7506 17.8614 33.9756 18.3594 33.6626C17.6368 32.7332 17.8516 31.931 18.3594 31.168Z" fill="#EA6079"/><path fill-rule="evenodd" clip-rule="evenodd" d="M31.3965 31.168C32.1582 31.6767 32.959 31.8821 33.8867 31.168C34.1992 31.6669 33.9746 32.5963 33.3887 33.1637C32.8223 33.7506 31.8945 33.9756 31.3965 33.6626C32.1094 32.7332 31.9043 31.931 31.3965 31.168Z" fill="#EA6079"/><path d="M29.3555 21.9918H28.7012C28.4277 20.7885 28.125 19.9374 27.8125 19.4385C27.2949 18.6265 26.5332 18.2156 25.5273 18.2156C24.873 18.2156 24.3457 18.4308 23.9258 18.8613C23.5156 19.2917 23.3105 19.8298 23.3105 20.4852C23.3105 21.444 23.9258 22.3048 25.1562 23.0777C26.2988 23.7429 27.4512 24.4081 28.6133 25.0636C29.8437 25.9636 30.459 27.0495 30.459 28.3311C30.459 29.7887 29.8437 30.9137 28.6133 31.7355C27.5586 32.4301 26.2402 32.7822 24.6777 32.7822C23.1738 32.7822 21.6992 32.4105 20.2637 31.667L19.541 27.3528L20.2148 27.2256C20.6348 28.4778 21.2109 29.4952 21.9531 30.2974C22.8711 31.2855 23.9062 31.7746 25.0879 31.7746C25.8105 31.7746 26.416 31.5594 26.8848 31.1289C27.3535 30.6985 27.5879 30.1311 27.5879 29.417C27.5879 28.4191 26.9727 27.5289 25.7422 26.756C24.5801 26.1201 23.4277 25.4745 22.2852 24.819C21.0547 23.9581 20.4395 22.9309 20.4395 21.7277C20.4395 20.3483 21.0059 19.233 22.1387 18.3917C23.1836 17.6091 24.4238 17.2178 25.8594 17.2178C27.207 17.2178 28.4375 17.5406 29.5605 18.1961L29.3555 21.9918Z" fill="#EA6079"/></g><defs><clipPath id="clip0"><rect width="184" height="33" fill="white" transform="translate(69 9)"/></clipPath><clipPath id="clip1"><rect width="50" height="50" fill="white"/></clipPath></defs></svg>