<?xml version="1.0" encoding="UTF-8"?><svg width="276" height="55" viewBox="0 0 276 55" fill="none" xmlns="http://www.w3.org/2000/svg"><g clip-path="url(#clip0)"><path d="M274.926 15.2481H274.16C273.822 13.7166 273.239 12.4915 272.35 11.6338C271.368 10.6537 270.111 10.1636 268.546 10.1636C266.522 10.1636 264.927 10.96 263.731 12.5527C262.657 13.9923 262.105 15.7994 262.105 17.9434C262.105 19.965 262.688 21.8027 263.854 23.4261C265.142 25.2332 266.767 26.1214 268.761 26.1214C270.356 26.1214 271.736 25.5395 272.841 24.4062C273.669 23.5486 274.466 22.2315 275.172 20.5163L275.939 20.7613L274.374 26.1521C273.454 26.5502 272.534 26.8259 271.552 27.0097C270.571 27.1934 269.589 27.2853 268.577 27.2853C265.633 27.2853 263.179 26.5502 261.216 25.0494C259.069 23.3954 257.995 21.1901 257.995 18.3723C257.995 15.4625 259.099 13.1347 261.277 11.3888C263.301 9.76546 265.817 8.93848 268.792 8.93848C269.896 8.93848 270.939 9.03036 271.982 9.24477C273.025 9.45917 274.006 9.79609 274.926 10.2555V15.2481ZM251.431 24.3449C251.952 24.9269 252.504 25.3863 253.087 25.6926C253.67 26.0295 254.345 26.2746 255.173 26.4583L255.081 27.1628C253.977 27.1628 252.965 27.1016 252.014 26.979C251.063 26.8565 250.173 26.6421 249.376 26.3665C248.394 25.9989 247.566 25.417 246.83 24.5593L241.462 18.1885L244.898 14.3292C245.787 13.3491 246.401 12.614 246.707 12.1239C246.953 11.7257 247.106 11.3888 247.106 11.1131C247.106 10.5925 246.615 10.2555 245.634 10.1024V9.42854H253.425V10.133C251.922 10.4393 250.664 10.9294 249.652 11.6032C248.885 12.1239 247.842 13.0428 246.585 14.3598L244.499 16.5345L251.431 24.3449ZM237.72 15.1256C237.72 12.8896 237.536 11.5726 237.168 11.1131C236.892 10.7456 235.941 10.4393 234.315 10.1636V9.42854H244.468V10.133C242.873 10.4087 241.922 10.715 241.646 11.0519C241.278 11.542 241.094 12.8896 241.094 15.0949V21.1595C241.094 23.3954 241.278 24.7125 241.646 25.1719C241.922 25.5395 242.873 25.8458 244.499 26.1214V26.8259H234.346V26.1521C235.941 25.8764 236.892 25.5701 237.168 25.2332C237.536 24.7431 237.72 23.3954 237.72 21.1901V15.1256ZM209.93 18.4641H206.955V21.1595C206.955 22.7828 206.986 23.7936 207.078 24.1612C207.323 25.2944 208.397 25.9376 210.329 26.0908V26.8259H200.176V26.1521C201.771 25.8764 202.722 25.5701 202.998 25.2332C203.366 24.7431 203.55 23.3954 203.55 21.1901V15.1562C203.55 12.9509 203.366 11.6032 202.998 11.1438C202.722 10.7762 201.771 10.4699 200.146 10.1943V9.42854H210.298V10.133C208.642 10.2555 207.661 10.6843 207.262 11.4194C207.016 11.8789 206.894 13.104 206.894 15.1256V16.9327H209.961C210.237 14.5436 211.249 12.614 212.998 11.1744C214.746 9.73483 216.893 8.99973 219.47 8.99973C222.292 8.99973 224.592 9.76546 226.34 11.2969C228.242 12.9509 229.193 15.1868 229.193 18.0353C229.193 20.8838 228.304 23.1198 226.494 24.8044C224.684 26.489 222.353 27.316 219.47 27.316C216.678 27.316 214.409 26.5196 212.599 24.9575C210.851 23.3342 209.93 21.1595 209.93 18.4641ZM214.071 17.7597C214.071 19.9037 214.501 21.7721 215.329 23.3035C216.341 25.1719 217.875 26.1214 219.838 26.1214C221.678 26.1214 223.058 25.2944 223.979 23.6405C224.684 22.3234 225.052 20.6694 225.052 18.6479C225.052 16.4732 224.623 14.6049 223.764 13.0734C222.69 11.1438 221.157 10.1943 219.163 10.1943C217.384 10.1943 216.034 11.0519 215.145 12.7977C214.439 14.1454 214.071 15.7994 214.071 17.7597ZM177.693 27.316C177.141 27.316 176.65 27.1322 176.251 26.7953C175.853 26.4583 175.669 26.0295 175.669 25.4782C175.669 24.6819 176.129 24.008 177.018 23.5179C177.172 23.7936 177.386 24.0386 177.632 24.1612C177.877 24.3143 178.153 24.3756 178.429 24.3756C179.564 24.3756 180.362 23.5179 180.76 21.8333C181.067 20.5469 181.221 18.2804 181.221 15.1256C181.221 12.8896 181.036 11.5726 180.668 11.1131C180.392 10.7456 179.349 10.4393 177.601 10.1636V9.42854H195.453V10.133C193.858 10.4087 192.907 10.715 192.631 11.0519C192.263 11.542 192.079 12.8896 192.079 15.0949V21.1595C192.079 23.3954 192.263 24.7125 192.631 25.1719C192.907 25.5395 193.858 25.8458 195.483 26.1214V26.8259H185.331V26.1521C186.987 26.0295 187.969 25.6007 188.367 24.8656C188.613 24.4062 188.735 23.181 188.735 21.1595V10.7456H182.631V15.0949C182.631 17.8516 182.539 19.9037 182.386 21.3126C182.141 23.2729 181.711 24.7431 181.036 25.662C180.239 26.7646 179.135 27.316 177.693 27.316ZM155.333 21.1901C155.333 22.8135 155.363 23.8242 155.455 24.2224C155.701 25.3557 156.774 25.9989 158.707 26.1827V26.8872H148.554V26.1521C150.149 25.8764 151.1 25.5701 151.376 25.2332C151.744 24.7431 151.928 23.3954 151.928 21.1901V15.1256C151.928 12.8896 151.744 11.5726 151.376 11.1131C151.1 10.7456 150.149 10.4393 148.523 10.1636V9.42854H158.737V10.133C157.081 10.2555 156.099 10.6843 155.701 11.4194C155.455 11.8789 155.333 13.104 155.333 15.1256V16.9327H164.688V15.1256C164.688 13.5022 164.657 12.4915 164.565 12.0933C164.32 10.96 163.246 10.3168 161.314 10.133V9.42854H171.466V10.133C169.872 10.4087 168.921 10.715 168.645 11.0519C168.277 11.542 168.092 12.8896 168.092 15.0949V21.1595C168.092 23.3954 168.277 24.7125 168.645 25.1719C168.921 25.5395 169.872 25.8458 171.497 26.1214V26.8259H161.344V26.1521C163.001 26.0295 164.013 25.6007 164.381 24.8656C164.626 24.4062 164.749 23.181 164.749 21.1595V18.4335H155.394V21.1901H155.333ZM127.727 22.691C127.727 23.9161 127.85 24.7125 128.095 25.0494C128.494 25.662 129.506 26.0295 131.132 26.1521V26.8565H120.979V26.1521C122.574 25.8764 123.525 25.5701 123.801 25.2332C124.169 24.7431 124.353 23.3954 124.353 21.1901V15.1256C124.353 12.8896 124.169 11.5726 123.801 11.1131C123.525 10.7456 122.574 10.4393 120.948 10.1636V9.42854H131.132V10.133C129.475 10.2555 128.494 10.6843 128.095 11.4194C127.85 11.8789 127.727 13.104 127.727 15.1256V20.9145L137.082 13.0734C137.082 12.1239 136.959 11.5113 136.714 11.205C136.254 10.6537 135.272 10.2862 133.677 10.1636V9.42854H143.83V10.133C142.235 10.4087 141.284 10.715 141.008 11.0519C140.64 11.542 140.456 12.8896 140.456 15.0949V21.1595C140.456 23.3954 140.64 24.7125 141.008 25.1719C141.284 25.5395 142.235 25.8458 143.861 26.1214V26.8259H133.708V26.1521C135.364 26.0295 136.346 25.6007 136.745 24.8656C136.99 24.4062 137.113 23.181 137.113 21.1901V14.8499L127.727 22.691ZM114.445 24.3449C114.967 24.9269 115.519 25.3863 116.102 25.6926C116.685 26.0295 117.359 26.2746 118.188 26.4583L118.096 27.1628C116.991 27.1628 115.979 27.1016 115.028 26.979C114.077 26.8565 113.188 26.6421 112.39 26.3665C111.409 25.9989 110.581 25.417 109.844 24.5593L104.415 18.2191L107.851 14.3598C108.74 13.3797 109.354 12.6446 109.66 12.1545C109.906 11.7564 110.059 11.4194 110.059 11.1438C110.059 10.6231 109.568 10.2862 108.587 10.133V9.42854H116.378V10.133C114.875 10.4393 113.617 10.9294 112.605 11.6032C111.838 12.1239 110.795 13.0428 109.538 14.3598L107.452 16.5345L114.445 24.3449ZM100.735 15.1256C100.735 12.8896 100.551 11.5726 100.183 11.1131C99.9065 10.7456 98.9556 10.4393 97.3299 10.1636V9.42854H107.513V10.133C105.918 10.4087 104.967 10.715 104.691 11.0519C104.323 11.542 104.139 12.8896 104.139 15.0949V21.1595C104.139 23.3954 104.323 24.7125 104.691 25.1719C104.967 25.5395 105.918 25.8458 107.544 26.1214V26.8259H97.3299V26.1521C98.9249 25.8764 99.8758 25.5701 100.152 25.2332C100.52 24.7431 100.704 23.3954 100.704 21.1901V15.1256H100.735ZM91.9315 15.2481H91.1647C90.8273 13.7166 90.2445 12.4915 89.355 11.6338C88.3734 10.6537 87.1158 10.1636 85.5515 10.1636C83.5271 10.1636 81.9321 10.96 80.7358 12.5527C79.6623 13.9923 79.1102 15.7994 79.1102 17.9434C79.1102 19.965 79.693 21.8027 80.8585 23.4261C82.1468 25.2332 83.7725 26.1214 85.7662 26.1214C87.3612 26.1214 88.7415 25.5395 89.8457 24.4062C90.6739 23.5486 91.4714 22.2315 92.1769 20.5163L92.9437 20.7613L91.3794 26.1521C90.4592 26.5502 89.539 26.8259 88.5575 27.0097C87.5759 27.1934 86.5944 27.2853 85.5822 27.2853C82.6376 27.2853 80.1837 26.5502 78.2207 25.0494C76.0736 23.4261 75 21.2208 75 18.4029C75 15.4931 76.1042 13.1653 78.282 11.4501C80.3064 9.82672 82.8216 8.99973 85.7969 8.99973C86.9011 8.99973 87.944 9.09162 88.9869 9.30603C90.0298 9.52043 91.0113 9.85735 91.9315 10.3168V15.2481Z" fill="#445A69" fill-opacity="0.3"/><path d="M275.847 42.753H274.559C274.62 41.9566 274.651 40.854 274.651 39.5063C274.651 39.1081 274.682 38.5568 274.713 37.7911H274.682C274.59 38.128 273.946 38.9856 272.749 40.3639C271.615 41.7116 271.062 42.508 271.062 42.753H270.05C270.112 41.8035 270.142 40.7315 270.142 39.5063C270.142 38.128 270.05 36.9947 269.897 36.0452L271.308 35.8614C271.246 36.7497 271.216 37.8523 271.216 39.2C271.216 39.6901 271.216 40.272 271.185 41.0071H271.246C271.369 40.7008 272.013 39.8432 273.179 38.4343C274.283 37.1172 274.835 36.2902 274.835 36.0452L275.847 35.8614C275.786 36.8416 275.755 38.0667 275.755 39.5063C275.755 40.6396 275.786 41.7116 275.847 42.753ZM268.149 42.753H266.86C266.922 41.9566 266.952 40.854 266.952 39.5063C266.952 39.1081 266.983 38.5568 267.014 37.7911H266.952C266.86 38.128 266.216 38.9856 265.02 40.3639C263.885 41.7116 263.333 42.508 263.333 42.753H262.321C262.382 41.8035 262.413 40.7315 262.413 39.5063C262.413 38.128 262.321 36.9947 262.167 36.0452L263.578 35.8614C263.517 36.7497 263.486 37.8523 263.486 39.2C263.486 39.6901 263.486 40.272 263.456 41.0071H263.517C263.64 40.7008 264.284 39.8432 265.449 38.4343C266.554 37.1172 267.106 36.2902 267.106 36.0452L268.118 35.8614C268.056 36.8416 268.026 38.0667 268.026 39.5063C268.056 40.6396 268.087 41.7116 268.149 42.753ZM261.247 35.984L261.216 37.0866C260.388 36.9947 259.223 36.9641 257.781 36.9641C257.812 37.9136 257.812 38.7712 257.812 39.5063C257.812 40.6396 257.842 41.7422 257.904 42.753H256.646C256.708 41.8035 256.738 40.7315 256.738 39.5063C256.738 38.128 256.708 36.9641 256.646 36.0146H261.247V35.984ZM253.886 39.4144C253.886 38.6793 253.702 38.0055 253.333 37.4542C252.965 36.8722 252.444 36.5965 251.738 36.5965C251.064 36.5965 250.542 36.8722 250.174 37.4235C249.806 37.9748 249.622 38.5874 249.622 39.3225C249.622 40.0576 249.806 40.7315 250.174 41.3134C250.542 41.8954 251.094 42.171 251.769 42.171C252.444 42.171 252.965 41.8954 253.333 41.3441C253.702 40.7621 253.886 40.1189 253.886 39.4144ZM255.113 39.1694C255.113 40.3946 254.775 41.3441 254.07 42.0179C253.364 42.6917 252.536 43.0287 251.616 43.0287C250.726 43.0287 249.99 42.7224 249.346 42.1404C248.702 41.5278 248.395 40.7008 248.395 39.5982C248.395 38.373 248.733 37.4235 249.438 36.7191C250.143 36.0146 250.972 35.6777 251.892 35.6777C252.781 35.6777 253.518 35.984 254.162 36.5965C254.806 37.2091 255.113 38.0667 255.113 39.1694ZM246.739 42.753H245.512C245.573 41.8954 245.604 40.854 245.604 39.6595C245.604 38.7099 245.573 37.7911 245.543 36.9028H244.132C244.009 37.4235 243.825 37.9442 243.671 38.4649C243.487 38.955 243.303 39.445 243.119 39.8739C242.935 40.3333 242.721 40.7315 242.506 41.099C242.291 41.4666 242.076 41.7729 241.862 42.0485C241.647 42.3242 241.432 42.508 241.187 42.6611C240.972 42.8143 240.758 42.8755 240.543 42.8755L240.481 41.7422C240.604 41.7422 240.727 41.6503 240.911 41.4972C241.064 41.3441 241.248 41.1603 241.402 40.8846C241.586 40.6396 241.77 40.3333 241.954 39.9657C242.138 39.5982 242.322 39.2306 242.506 38.8018C242.69 38.373 242.843 37.9442 243.027 37.4542C243.181 36.9641 243.334 36.474 243.457 35.984H245.788L246.739 35.8614C246.677 36.8416 246.647 38.0667 246.647 39.5063C246.616 40.6396 246.677 41.7116 246.739 42.753ZM238.457 39.4144C238.457 38.6793 238.273 38.0055 237.905 37.4542C237.537 36.8722 237.015 36.5965 236.31 36.5965C235.635 36.5965 235.114 36.8722 234.746 37.4235C234.378 37.9748 234.194 38.5874 234.194 39.3225C234.194 40.0576 234.378 40.7315 234.746 41.3134C235.114 41.8954 235.666 42.171 236.341 42.171C237.015 42.171 237.537 41.8954 237.905 41.3441C238.273 40.7621 238.457 40.1189 238.457 39.4144ZM239.684 39.1694C239.684 40.3946 239.347 41.3441 238.641 42.0179C237.936 42.6917 237.107 43.0287 236.187 43.0287C235.298 43.0287 234.562 42.7224 233.917 42.1404C233.273 41.5278 232.967 40.7008 232.967 39.5982C232.967 38.373 233.304 37.4235 234.01 36.7191C234.715 36.0146 235.543 35.6777 236.463 35.6777C237.353 35.6777 238.089 35.984 238.733 36.5965C239.377 37.2091 239.684 38.0667 239.684 39.1694ZM231.924 35.984L231.893 37.056C231.126 36.9947 230.359 36.9335 229.623 36.9335C229.593 37.6073 229.593 38.4343 229.593 39.5063C229.593 40.6396 229.623 41.7422 229.685 42.753H228.396C228.458 41.8035 228.488 40.7315 228.488 39.5063C228.488 38.4955 228.458 37.6379 228.427 36.9335C227.691 36.9335 226.924 36.9641 226.127 37.056L226.157 35.984H231.924ZM223.918 38.5874C223.918 37.2397 223.366 36.5965 222.231 36.5965C221.096 36.5965 220.421 37.301 220.207 38.6793L223.918 38.5874ZM225.114 38.5568C225.114 38.7712 225.114 39.0469 225.084 39.3838L220.207 39.4757C220.268 40.1801 220.513 40.7621 221.004 41.2215C221.495 41.681 222.139 41.926 222.937 41.926C223.642 41.926 224.348 41.8341 224.961 41.6503L224.838 42.6611C224.378 42.8449 223.703 42.9368 222.814 42.9368C221.587 42.9368 220.636 42.5998 219.992 41.926C219.348 41.2522 219.01 40.4252 219.01 39.4757C219.01 38.4343 219.317 37.546 219.9 36.8109C220.483 36.0758 221.28 35.6777 222.292 35.6777C223.213 35.6777 223.918 35.9533 224.378 36.474C224.869 37.0253 225.114 37.7298 225.114 38.5568ZM217.385 42.753H216.189C216.189 41.8647 216.189 40.7621 216.189 39.445C216.189 38.128 216.189 37.3316 216.189 37.056H216.096C215.974 37.4235 215.698 38.0974 215.268 39.0775C214.225 41.2522 213.735 42.4773 213.735 42.7836H212.722C212.722 42.3854 212.293 41.1603 211.465 39.1694C211.281 38.7099 211.005 38.0055 210.698 37.056H210.606C210.606 37.3623 210.575 38.2811 210.514 39.782C210.453 41.3134 210.422 42.2936 210.422 42.753H209.348C209.348 42.5998 209.44 41.6197 209.624 39.7207C209.809 37.8523 209.901 36.5965 209.901 35.984H211.649C211.649 36.5659 211.956 37.5767 212.538 39.0162C213.152 40.4558 213.428 41.2828 213.428 41.4666H213.52C213.52 41.2828 213.857 40.4558 214.501 39.0162C215.146 37.5767 215.483 36.5659 215.483 35.984H217.17C217.17 36.5965 217.201 37.8217 217.293 39.6595C217.354 41.5278 217.385 42.5386 217.385 42.753ZM207.907 41.6503L207.845 42.5998C207.447 42.8143 206.956 42.9368 206.312 42.9368C205.085 42.9368 204.134 42.5998 203.49 41.926C202.846 41.2522 202.508 40.4252 202.508 39.4757C202.508 38.4649 202.846 37.5767 203.521 36.8722C204.195 36.1371 205.116 35.7695 206.22 35.7695C206.772 35.7695 207.232 35.8308 207.6 35.9533L207.416 37.056C206.925 36.8722 206.404 36.7803 205.913 36.7803C205.238 36.7803 204.717 37.0253 204.318 37.4848C203.919 37.9442 203.735 38.5568 203.735 39.2613C203.735 40.027 203.981 40.6702 204.441 41.1909C204.901 41.7116 205.576 41.9566 206.465 41.9566C206.772 41.926 207.293 41.8341 207.907 41.6503ZM199.87 39.4144C199.87 38.6793 199.686 38.0055 199.318 37.4542C198.92 36.8722 198.398 36.5659 197.693 36.5659C197.018 36.5659 196.496 36.8416 196.128 37.3929C195.76 37.9442 195.576 38.5568 195.576 39.2919C195.576 40.027 195.76 40.7008 196.128 41.2828C196.496 41.8647 197.049 42.1404 197.723 42.1404C198.398 42.1404 198.92 41.8647 199.288 41.3134C199.686 40.7621 199.87 40.1189 199.87 39.4144ZM201.097 39.1694C201.097 40.3946 200.76 41.3441 200.055 42.0179C199.349 42.6917 198.521 43.0287 197.601 43.0287C196.711 43.0287 195.975 42.7224 195.331 42.1404C194.687 41.5278 194.38 40.7008 194.38 39.5982C194.38 38.373 194.717 37.4235 195.423 36.7191C196.128 36.0146 196.957 35.6777 197.877 35.6777C198.766 35.6777 199.502 35.984 200.147 36.5965C200.76 37.2091 201.097 38.0667 201.097 39.1694ZM193.184 42.753H191.896C191.865 42.6917 191.804 42.5692 191.711 42.3854C191.405 41.4053 191.067 40.7008 190.73 40.3333C190.393 39.9351 189.932 39.7513 189.35 39.7513C189.166 39.7513 188.89 39.7513 188.583 39.7513C188.583 40.854 188.614 41.8341 188.675 42.753H187.387C187.448 41.8035 187.479 40.7315 187.479 39.5063C187.479 38.128 187.387 36.9947 187.233 36.0452L188.644 35.8614C188.583 36.7803 188.552 37.7911 188.552 38.8937C188.828 38.8937 189.104 38.8937 189.319 38.8937C190.362 38.8937 191.098 38.0361 191.527 36.3209C191.558 36.1984 191.619 36.1065 191.681 35.984H192.846C192.785 36.1065 192.724 36.2902 192.601 36.5965C192.049 38.0667 191.466 38.955 190.791 39.2V39.2613C191.251 39.3838 191.619 39.6595 191.926 40.0883C192.233 40.5171 192.509 41.1296 192.785 41.9566C192.969 42.2017 193.061 42.4773 193.184 42.753ZM181.804 32.9517C181.804 33.4724 181.651 33.9318 181.313 34.3606C180.976 34.7894 180.424 35.0038 179.626 35.0038C178.798 35.0038 178.215 34.7894 177.878 34.3606C177.541 33.9318 177.357 33.4724 177.357 32.9517L178.369 32.8292C178.369 33.7787 178.767 34.2381 179.596 34.2381C180.086 34.2381 180.393 34.1156 180.577 33.8705C180.761 33.6255 180.823 33.2886 180.823 32.8292L181.804 32.9517ZM182.418 42.753H181.129C181.191 41.9566 181.221 40.854 181.221 39.5063C181.221 39.1081 181.252 38.5568 181.283 37.7911H181.221C181.129 38.128 180.485 38.9856 179.289 40.3639C178.154 41.7116 177.602 42.508 177.602 42.753H176.59C176.651 41.8035 176.682 40.7315 176.682 39.5063C176.682 38.128 176.59 36.9947 176.436 36.0452L177.847 35.8614C177.786 36.7497 177.755 37.8523 177.755 39.2C177.755 39.6901 177.755 40.272 177.725 41.0071H177.786C177.909 40.7008 178.553 39.8432 179.718 38.4343C180.823 37.1172 181.375 36.2902 181.375 36.0452L182.387 35.8614C182.326 36.8416 182.295 38.0667 182.295 39.5063C182.326 40.6396 182.356 41.7116 182.418 42.753ZM173.706 39.4144C173.706 38.6793 173.522 38.0055 173.154 37.4542C172.786 36.8722 172.265 36.5965 171.559 36.5965C170.885 36.5965 170.363 36.8722 169.995 37.4235C169.627 37.9748 169.443 38.5874 169.443 39.3225C169.443 40.0576 169.627 40.7315 169.995 41.3134C170.363 41.8954 170.915 42.171 171.59 42.171C172.265 42.171 172.786 41.8954 173.154 41.3441C173.522 40.7621 173.706 40.1189 173.706 39.4144ZM174.964 39.1694C174.964 40.3946 174.627 41.3441 173.921 42.0179C173.216 42.6917 172.388 43.0287 171.467 43.0287C170.578 43.0287 169.842 42.7224 169.198 42.1404C168.553 41.5278 168.247 40.7008 168.247 39.5982C168.247 38.373 168.584 37.4235 169.29 36.7191C169.995 36.0146 170.823 35.6777 171.743 35.6777C172.633 35.6777 173.369 35.984 174.013 36.5965C174.627 37.2091 174.964 38.0667 174.964 39.1694ZM166.56 42.753H165.302C165.363 41.8341 165.394 40.7927 165.394 39.6288H161.989C161.989 40.7008 162.02 41.7422 162.081 42.753H160.824C160.885 41.8035 160.916 40.7315 160.916 39.5063C160.916 38.128 160.824 36.9947 160.67 36.0452L162.051 35.8614C162.02 36.1984 161.989 37.1479 161.959 38.7099H165.363C165.333 37.6379 165.271 36.7497 165.118 36.0452L166.498 35.8614C166.437 36.8416 166.406 38.0667 166.406 39.5063C166.468 40.6396 166.498 41.7116 166.56 42.753ZM158.125 39.5676C158.125 38.8325 157.941 38.2505 157.572 37.7604C157.204 37.2704 156.683 37.0253 155.977 37.0253C154.996 37.0253 154.229 37.3623 153.708 38.0667C153.708 39.5063 153.892 40.5477 154.26 41.1909C154.628 41.8341 155.18 42.1404 155.947 42.1404C156.622 42.1404 157.143 41.8954 157.542 41.3747C157.941 40.854 158.125 40.2414 158.125 39.5676ZM159.382 39.2919C159.382 40.4864 159.014 41.4053 158.309 42.0485C157.603 42.6917 156.744 42.998 155.793 42.998C154.505 42.998 153.616 42.508 153.125 41.5278C152.757 40.7927 152.542 39.5982 152.542 38.0055C152.542 36.229 152.941 34.9426 153.708 34.1156C154.352 33.4724 155.303 33.0742 156.622 32.921C157.358 32.8292 158.155 32.7373 159.045 32.6147L158.983 33.748C158.585 33.7787 157.757 33.8399 156.468 33.9931C155.487 34.1156 154.812 34.3606 154.444 34.6975C153.922 35.157 153.677 35.9533 153.677 37.1172H153.738C154.321 36.4434 155.119 36.1065 156.131 36.1065C157.051 36.1065 157.818 36.3515 158.431 36.9028C159.075 37.4235 159.382 38.2199 159.382 39.2919ZM149.874 38.5874C149.874 37.2397 149.321 36.5965 148.187 36.5965C147.052 36.5965 146.377 37.301 146.162 38.6793L149.874 38.5874ZM151.07 38.5568C151.07 38.7712 151.07 39.0469 151.039 39.3838L146.162 39.4757C146.223 40.1801 146.469 40.7621 146.96 41.2215C147.45 41.681 148.095 41.926 148.892 41.926C149.598 41.926 150.303 41.8341 150.916 41.6503L150.794 42.6611C150.334 42.8449 149.659 42.9368 148.769 42.9368C147.542 42.9368 146.592 42.5998 145.947 41.926C145.303 41.2522 144.966 40.4252 144.966 39.4757C144.966 38.4343 145.273 37.546 145.855 36.8109C146.438 36.0758 147.236 35.6777 148.248 35.6777C149.168 35.6777 149.874 35.9533 150.334 36.474C150.824 37.0253 151.07 37.7298 151.07 38.5568ZM143.34 42.753H142.083C142.144 41.8954 142.175 40.854 142.175 39.6595C141.623 39.9657 140.978 40.1189 140.181 40.1189C139.383 40.1189 138.801 39.9351 138.402 39.5676C138.003 39.2 137.819 38.4037 137.819 37.2397C137.819 36.9947 137.788 36.5965 137.727 36.0452L138.985 35.8614C138.954 36.3209 138.923 36.6884 138.923 36.9641C138.923 37.8217 139.046 38.4037 139.261 38.7099C139.475 39.0162 139.874 39.1694 140.457 39.1694C141.162 39.1694 141.715 39.0469 142.144 38.8325C142.113 37.7298 142.052 36.8109 141.929 36.0758L143.31 35.8921C143.248 36.8722 143.218 38.0974 143.218 39.5369C143.248 40.6396 143.279 41.7116 143.34 42.753ZM135.304 41.3747C135.273 40.6396 135.273 39.9964 135.273 39.445C134.384 39.445 133.709 39.5063 133.249 39.6288C132.482 39.8739 132.083 40.3333 132.083 40.9765C132.083 41.6197 132.543 41.9566 133.464 41.9566C134.2 41.9566 134.844 41.7422 135.304 41.3747ZM136.561 42.753L135.457 42.7836C135.396 42.5386 135.365 42.3242 135.365 42.1098H135.304C134.721 42.6305 133.924 42.9061 132.911 42.9061C132.359 42.9061 131.899 42.753 131.5 42.4161C131.102 42.1098 130.918 41.6503 130.918 41.0378C130.918 40.3027 131.224 39.7207 131.838 39.2919C132.451 38.8631 133.586 38.6181 135.273 38.5874C135.273 38.4649 135.304 38.3424 135.304 38.1893C135.304 37.6073 135.151 37.2091 134.844 37.0253C134.537 36.8416 134.046 36.7191 133.433 36.7191C132.697 36.7191 131.961 36.8109 131.224 36.9947L131.347 36.0146C132.053 35.8002 132.881 35.7083 133.801 35.7083C134.66 35.7083 135.304 35.8921 135.764 36.229C136.224 36.5659 136.469 37.1785 136.469 38.0055C136.469 38.2199 136.469 38.6487 136.439 39.2306C136.408 39.8126 136.408 40.2108 136.408 40.3946C136.377 41.3134 136.439 42.0792 136.561 42.753ZM128.31 39.2613C128.31 38.5568 128.126 37.9748 127.758 37.4542C127.39 36.9335 126.869 36.7191 126.194 36.7191C125.335 36.7191 124.722 36.9641 124.354 37.4848C124.415 39.0775 124.476 40.4558 124.476 41.5891C124.875 41.926 125.366 42.0792 125.979 42.0792C126.777 42.0792 127.36 41.8035 127.728 41.2522C128.096 40.7008 128.31 40.027 128.31 39.2613ZM129.568 39.0775C129.568 40.0883 129.261 41.0071 128.679 41.7729C128.096 42.5386 127.268 42.9368 126.225 42.9368C125.335 42.9368 124.783 42.7836 124.507 42.4773H124.446C124.446 43.7944 124.446 44.9583 124.476 45.9997H123.157C123.28 44.7439 123.311 43.1818 123.311 41.3134C123.311 39.0162 123.188 37.2704 122.943 36.0146L124.2 35.8308L124.292 36.5353H124.354C124.814 36.0146 125.55 35.7389 126.593 35.7389C127.513 35.7389 128.218 36.0758 128.74 36.7191C129.292 37.3929 129.568 38.1893 129.568 39.0775ZM120.029 37.7911C120.029 37.1172 119.538 36.8109 118.587 36.8109C118.096 36.8109 117.575 36.8416 116.931 36.8722C116.961 37.546 116.992 38.2199 116.992 38.8631C117.575 38.8937 118.096 38.8937 118.495 38.8937C118.986 38.8937 119.354 38.8018 119.63 38.5874C119.875 38.373 120.029 38.0974 120.029 37.7911ZM120.274 40.8234C120.274 40.3333 120.059 39.9964 119.599 39.8432C119.323 39.7513 118.894 39.6901 118.311 39.6901C117.851 39.6901 117.422 39.7207 116.992 39.7513C116.992 40.609 116.992 41.2828 116.992 41.8648C117.422 41.926 117.943 41.9566 118.556 41.9566C119.691 41.8954 120.274 41.5585 120.274 40.8234ZM121.409 40.7315C121.409 41.4053 121.133 41.8954 120.612 42.2629C120.059 42.5998 119.293 42.7836 118.28 42.7836C117.759 42.7836 116.931 42.7836 115.827 42.753C115.888 42.1098 115.919 41.0071 115.919 39.4757C115.919 38.0667 115.827 36.9028 115.673 35.984H116.409C117.115 35.9227 117.851 35.8921 118.556 35.8921C120.243 35.8921 121.102 36.4128 121.102 37.4542C121.102 38.2199 120.765 38.7406 120.059 39.0469V39.1081C120.98 39.2919 121.409 39.8432 121.409 40.7315ZM109.753 39.2613C109.753 38.5568 109.569 37.9748 109.201 37.4542C108.833 36.9641 108.312 36.7191 107.637 36.7191C106.778 36.7191 106.165 36.9641 105.797 37.4848C105.858 39.0775 105.919 40.4558 105.919 41.5891C106.318 41.926 106.809 42.0792 107.422 42.0792C108.22 42.0792 108.802 41.8035 109.171 41.2522C109.569 40.7008 109.753 40.027 109.753 39.2613ZM111.011 39.0775C111.011 40.0883 110.704 41.0071 110.121 41.7729C109.539 42.5386 108.71 42.9368 107.668 42.9368C106.778 42.9368 106.226 42.7836 105.95 42.4773H105.889C105.889 43.7944 105.889 44.9583 105.919 45.9997H104.57C104.692 44.7439 104.723 43.1818 104.723 41.3134C104.723 39.0162 104.6 37.2704 104.355 36.0146L105.612 35.8308L105.704 36.5353H105.766C106.226 36.0146 106.962 35.7389 108.005 35.7389C108.925 35.7389 109.631 36.0758 110.152 36.7191C110.766 37.3929 111.011 38.1893 111.011 39.0775ZM103.312 35.984L103.281 37.056C102.514 36.9947 101.748 36.9335 101.012 36.9335C100.981 37.6073 100.981 38.4343 100.981 39.5063C100.981 40.6396 101.012 41.7422 101.073 42.753H99.7846C99.8459 41.8035 99.8766 40.7315 99.8766 39.5063C99.8766 38.4955 99.8459 37.6379 99.8153 36.9335C99.0791 36.9335 98.3123 36.9641 97.5148 37.056L97.5455 35.984H103.312ZM96.2572 42.753H94.9996C95.061 41.8341 95.0916 40.7927 95.0916 39.6288H91.6869C91.6869 40.7008 91.7176 41.7422 91.779 42.753H90.5214C90.5827 41.8035 90.6134 40.7315 90.6134 39.5063C90.6134 38.128 90.5214 36.9947 90.368 36.0452L91.7483 35.8614C91.7176 36.1984 91.6869 37.1479 91.6563 38.7099H95.061C95.0303 37.6379 94.9689 36.7497 94.8156 36.0452L96.1959 35.8614C96.1652 36.8416 96.1652 38.0667 96.1652 39.5063C96.1652 40.6396 96.1959 41.7116 96.2572 42.753ZM87.7301 38.5874C87.7301 37.2397 87.178 36.5965 86.0431 36.5965C84.9082 36.5965 84.2334 37.301 84.0187 38.6793L87.7301 38.5874ZM88.9264 38.5568C88.9264 38.7712 88.9264 39.0469 88.8957 39.3838L84.0187 39.4757C84.08 40.1801 84.3254 40.7621 84.8162 41.2215C85.307 41.681 85.9511 41.926 86.7486 41.926C87.4541 41.926 88.1595 41.8341 88.773 41.6503L88.6503 42.6611C88.1902 42.8449 87.5154 42.9368 86.6259 42.9368C85.399 42.9368 84.4481 42.5998 83.804 41.926C83.1599 41.2522 82.8225 40.4252 82.8225 39.4757C82.8225 38.4343 83.1292 37.546 83.712 36.8109C84.2948 36.0758 85.0922 35.6777 86.1045 35.6777C87.0246 35.6777 87.7301 35.9533 88.1902 36.474C88.681 37.0253 88.9264 37.7298 88.9264 38.5568ZM81.7489 41.8341C81.7489 42.0792 81.6876 42.6611 81.5955 43.58C81.4728 44.4989 81.4422 45.2033 81.4422 45.6934H80.6447C80.6447 45.0808 80.6447 44.1007 80.614 42.753H75.2769C75.3382 41.8035 75.3689 40.7315 75.3689 39.5063C75.3689 38.128 75.2769 36.9947 75.1235 36.0452L76.5652 35.8614C76.5038 36.8416 76.4731 38.0667 76.4731 39.5063C76.4731 40.0883 76.4731 40.854 76.4425 41.8341H79.4484C79.4178 40.8846 79.4178 40.0883 79.4178 39.5063C79.4178 38.128 79.3257 36.9947 79.1724 36.0452L80.5833 35.8614C80.522 36.8416 80.4913 38.0667 80.4913 39.5063C80.4913 40.3027 80.522 41.099 80.5527 41.8341H81.7489Z" fill="#445A69" fill-opacity="0.3"/></g><g clip-path="url(#clip1)"><path fill-rule="evenodd" clip-rule="evenodd" d="M20.1953 20.2413C19.3574 19.6817 18.4765 19.4557 17.456 20.2413C17.1123 19.6925 17.3594 18.6702 18.0039 18.046C18.6269 17.4004 19.6474 17.1529 20.1953 17.4972C19.4004 18.5195 19.6367 19.4019 20.1953 20.2413Z" fill="#445A69" fill-opacity="0.3"/><path fill-rule="evenodd" clip-rule="evenodd" d="M27.4463 7.28506C27.6612 7.60789 27.876 8.00605 28.0479 8.36117C28.2198 8.71629 28.2842 8.95303 28.3165 9.22206C28.3487 9.49109 28.3272 9.91077 28.1338 10.2444C27.9512 10.578 27.7149 10.8147 27.4463 11.0407C27.1778 10.8039 26.9415 10.578 26.7588 10.2444C26.5762 9.90001 26.5547 9.49109 26.5762 9.22206C26.6084 8.95303 26.6729 8.71629 26.8448 8.36117C27.0167 8.00605 27.2208 7.60789 27.4463 7.28506ZM30.4004 0.010553C29.1436 -0.140102 27.8331 0.731547 27.5538 2.02288C27.4678 2.44256 27.4678 2.87301 27.6612 3.37878C28.1124 4.61631 29.3262 5.60633 29.9063 6.747C30.3682 7.6617 30.6475 9.2113 30.6582 10.2444C30.6582 10.7071 30.5831 11.1268 30.4864 11.4927C30.3897 11.8585 30.2393 12.1814 29.9922 12.3966C29.7452 12.6118 29.3907 12.6979 29.1114 12.7517C28.8321 12.8055 28.542 12.7732 28.542 12.7409C28.4883 12.7194 28.4883 12.4934 28.5743 12.3105C28.6602 12.1168 29.0469 11.6433 29.2188 11.3205C29.4874 10.8147 29.6377 9.88925 29.5196 9.31891C29.4444 8.95303 29.2725 8.58715 29.004 8.11367C28.7461 7.64018 28.3917 7.05908 28.1338 6.60711C27.876 6.16591 27.7149 5.85383 27.6075 5.56328C27.5001 5.27273 27.4463 4.98218 27.4249 4.89609C27.4034 4.98218 27.3389 5.27273 27.2422 5.56328C27.1348 5.85383 26.9737 6.16591 26.7159 6.60711C26.4581 7.04832 26.1143 7.62942 25.8458 8.11367C25.5879 8.58715 25.4053 8.95303 25.3301 9.31891C25.212 9.88925 25.3624 10.8147 25.6309 11.3205C25.8028 11.6433 26.1895 12.1168 26.2754 12.3105C26.3614 12.5042 26.3614 12.7194 26.3077 12.7409C26.2969 12.7625 26.0069 12.7947 25.7383 12.7517C25.459 12.6979 25.1045 12.6118 24.8575 12.3966C24.6104 12.1814 24.4708 11.8585 24.3633 11.4927C24.2667 11.1268 24.1807 10.7071 24.1915 10.2444C24.2022 9.2113 24.4815 7.65094 24.9434 6.747C25.5235 5.60633 26.7374 4.61631 27.1885 3.37878C27.3711 2.87301 27.3819 2.44256 27.2959 2.02288C27.0167 0.731547 25.6954 -0.140102 24.4493 0.010553C25.2872 0.494803 26.3077 1.35569 26.0069 2.14125C25.8887 2.46408 25.5127 2.91605 25.2334 3.30345C24.9434 3.69085 23.2999 4.82077 23.042 5.16512C22.7842 5.50948 22.6124 5.86459 22.5909 6.25199C22.5694 6.65015 22.6553 7.23125 22.6983 7.38191C22.4512 7.22049 22.4835 7.25278 22.1934 7.04832C21.9034 6.84385 21.5059 6.6932 21.1085 6.67168C20.7003 6.65016 20.2813 6.76853 19.8946 6.97299C19.5079 7.17745 19.1426 7.45724 18.917 7.74779C18.6915 8.03834 18.6163 8.37193 18.5948 8.51183C18.5733 8.65172 18.7129 8.38269 18.9815 8.23204C19.2501 8.09214 19.7335 7.96301 20.1954 7.99529C20.6573 8.02758 21.2266 8.38269 21.5381 8.74857L21.5919 8.8239C22.2794 9.69555 22.4512 11.7402 22.9131 12.8701C23.1817 13.5265 23.6329 13.9462 24.2667 14.269C24.7393 14.5058 25.2979 14.6672 25.8243 14.6672C25.7813 14.7533 25.5342 14.9685 25.3301 15.0438C24.4815 15.3236 23.3213 15.2483 22.5372 14.8286C21.2481 14.1399 19.8301 12.0092 20.3028 10.578C20.421 10.2336 20.754 10.0184 21.1407 10.0291C20.7325 9.83544 20.0342 10.0722 19.8516 10.4058C19.6583 10.7501 19.6045 11.1375 19.6368 11.4173C19.3682 11.2021 18.9063 11.0837 18.6807 11.0514C18.3262 10.9869 17.8106 11.0514 17.4776 11.1375C17.1446 11.2236 16.8438 11.3635 16.5108 11.5787C16.1778 11.8047 15.8126 12.106 15.5547 12.4073C15.2969 12.7087 15.1573 13.01 15.0499 13.2898C14.9424 13.5695 14.9532 13.6234 14.9102 13.8278C14.8995 13.8924 14.8243 14.4627 14.9962 14.6995C14.9747 14.0968 15.3399 13.4189 15.9737 13.4081C15.8878 13.505 15.8126 13.7202 15.7374 13.9892C15.3614 15.3774 16.4463 16.5827 17.6387 17.1099C17.4991 16.9485 17.3165 16.5396 17.2305 16.2275C17.1446 15.9155 17.1231 15.7325 17.1124 15.4097C17.1016 15.0761 17.1231 14.8071 17.2305 14.5165C17.4991 13.774 18.3585 13.4942 19.0674 13.731C19.336 13.8171 19.5831 14.0215 19.712 14.226C20.2061 15.0761 20.1954 15.5926 21.1085 16.2275C21.2374 16.3244 21.42 16.4212 21.9786 16.6149C21.71 16.9593 21.6026 17.153 21.4737 17.4435C21.2481 17.9816 21.2911 18.8317 21.6563 19.2837C21.8711 19.5527 22.4405 19.9939 23.0206 20.037C22.7413 19.7787 22.6983 19.585 22.6553 19.3483C22.6124 19.1115 22.6016 18.9609 22.6553 18.6057C22.709 18.2506 22.8594 17.9386 23.0635 17.7233C23.3428 17.4328 24.6211 17.3467 25.0508 17.2606C25.792 17.1099 26.254 16.8624 26.6407 16.3997C26.8663 16.1307 27.1133 15.8294 27.2637 15.1729C27.3389 14.8394 27.3819 14.538 27.4034 13.9892C27.4141 13.6556 27.4141 13.2575 27.4141 12.784C27.4141 13.2575 27.4141 13.6556 27.4249 13.9892C27.4463 14.538 27.4893 14.8394 27.5645 15.1729C27.7149 15.8294 27.9727 16.1307 28.1875 16.3997C28.5743 16.8624 29.0362 17.0992 29.7774 17.2606C30.1963 17.3467 31.4854 17.4435 31.7647 17.7233C31.9688 17.9386 32.1192 18.2506 32.1729 18.6057C32.2266 18.9609 32.2159 19.1223 32.1729 19.3483C32.1299 19.5742 32.0762 19.7787 31.8077 20.037C32.377 19.9939 32.9463 19.542 33.1719 19.2837C33.5479 18.8317 33.5801 17.9816 33.3545 17.4435C33.2364 17.153 33.129 16.9701 32.8497 16.6149C33.3975 16.4105 33.5801 16.3136 33.7198 16.2275C34.6329 15.5926 34.6221 15.0761 35.1163 14.226C35.2344 14.0215 35.4815 13.8171 35.7608 13.731C36.4698 13.4942 37.3291 13.774 37.5977 14.5165C37.7051 14.7963 37.7266 15.0761 37.7159 15.4097C37.7051 15.7433 37.6836 15.9155 37.5977 16.2275C37.5118 16.5396 37.3291 16.9485 37.1895 17.1099C38.3819 16.5827 39.4668 15.3774 39.0909 13.9892C39.0157 13.7202 38.9405 13.505 38.8545 13.4081C39.4883 13.4189 39.8536 14.0968 39.8321 14.6995C40.0039 14.4627 39.9288 13.8924 39.918 13.8278C39.8858 13.6234 39.8858 13.5695 39.7784 13.2898C39.6709 13.01 39.5313 12.7087 39.2735 12.4073C39.0157 12.106 38.6504 11.794 38.3174 11.5787C37.9844 11.3528 37.6836 11.2129 37.3506 11.1375C37.0176 11.0514 36.5127 10.9869 36.1475 11.0514C35.9219 11.0945 35.46 11.2021 35.1915 11.4173C35.2237 11.1483 35.17 10.7501 34.9766 10.4058C34.7832 10.0614 34.0957 9.83544 33.6875 10.0291C34.085 10.0291 34.418 10.2336 34.5254 10.578C34.9981 12.0092 33.5801 14.1399 32.2911 14.8286C31.5069 15.2483 30.3467 15.3236 29.4981 15.0438C29.294 14.9793 29.0362 14.7533 29.004 14.6672C29.5303 14.6672 30.0889 14.495 30.5616 14.269C31.1954 13.9569 31.6465 13.5373 31.9151 12.8701C32.377 11.7402 32.5489 9.69555 33.2364 8.8239L33.2901 8.74857C33.6016 8.38269 34.1709 8.02758 34.6329 7.99529C35.0948 7.96301 35.5782 8.09214 35.8467 8.23204C36.1153 8.37193 36.2549 8.64096 36.2334 8.51183C36.212 8.37193 36.1368 8.03834 35.9112 7.74779C35.6856 7.45724 35.3204 7.17745 34.9336 6.97299C34.5469 6.76853 34.1172 6.66092 33.7198 6.67168C33.3116 6.6932 32.9248 6.84385 32.6348 7.04832C32.3448 7.25278 32.377 7.22049 32.1299 7.38191C32.1729 7.23125 32.2588 6.63939 32.2374 6.25199C32.2159 5.85383 32.044 5.50948 31.7862 5.16512C31.5284 4.82077 29.8848 3.69085 29.5948 3.30345C29.3047 2.91605 28.9395 2.46408 28.8213 2.14125C28.5528 1.36645 29.5625 0.494803 30.4004 0.010553Z" fill="#445A69" fill-opacity="0.3"/><path fill-rule="evenodd" clip-rule="evenodd" d="M47.7277 27.4085C47.4054 27.6237 47.0079 27.839 46.6534 28.0111C46.299 28.1833 46.0626 28.2479 45.7941 28.2802C45.5255 28.3124 45.1066 28.2909 44.7736 28.0972C44.4406 27.9143 44.2042 27.6775 43.9786 27.4085C44.215 27.1395 44.4406 26.9027 44.7736 26.7198C45.1173 26.5369 45.5255 26.5153 45.7941 26.5369C46.0626 26.5691 46.299 26.6337 46.6534 26.8059C47.0079 26.9781 47.4161 27.1933 47.7277 27.4085ZM54.9894 30.3786C55.1398 29.1195 54.2697 27.8067 52.9806 27.5269C52.5616 27.4408 52.132 27.4408 51.6271 27.6345C50.3917 28.0865 49.4034 29.3025 48.2648 29.8836C47.3517 30.3463 45.8048 30.6261 44.7736 30.6368C44.3116 30.6368 43.8927 30.5615 43.5275 30.4647C43.1622 30.3678 42.84 30.2172 42.6251 29.9697C42.4103 29.7222 42.3136 29.367 42.2706 29.0872C42.2169 28.8075 42.2491 28.5169 42.2814 28.5169C42.3029 28.4631 42.5284 28.4631 42.7111 28.5492C42.9044 28.6353 43.3771 29.0227 43.6993 29.1949C44.2042 29.4639 45.1281 29.6145 45.6974 29.4962C46.0626 29.4208 46.4279 29.2487 46.9005 28.9796C47.3732 28.7214 47.9532 28.3663 48.4044 28.108C48.8449 27.8497 49.1564 27.6883 49.4464 27.5807C49.7365 27.4731 50.0265 27.4193 50.1124 27.3978C50.0265 27.3762 49.7365 27.3117 49.4464 27.2148C49.1564 27.1072 48.8449 26.9458 48.4044 26.6875C47.964 26.4293 47.3839 26.0849 46.9005 25.8159C46.4279 25.5576 46.0626 25.3747 45.6974 25.2993C45.1281 25.181 44.2042 25.3316 43.6993 25.6006C43.3771 25.7728 42.9044 26.1602 42.7111 26.2463C42.5177 26.3324 42.3029 26.3324 42.2814 26.2786C42.2599 26.2678 42.2277 25.9773 42.2706 25.7083C42.3243 25.4285 42.4103 25.0734 42.6251 24.8258C42.84 24.5783 43.1622 24.4384 43.5275 24.3308C43.8927 24.234 44.3116 24.1479 44.7736 24.1587C45.8048 24.1694 47.3624 24.4492 48.2648 24.9119C49.4034 25.493 50.3917 26.709 51.6271 27.161C52.132 27.3439 52.5616 27.3547 52.9806 27.2686C54.2697 26.9888 55.1398 25.6652 54.9894 24.4169C54.506 25.2563 53.6466 26.2786 52.8624 25.9773C52.5402 25.8589 52.089 25.4823 51.7023 25.2025C51.3156 24.9119 50.1876 23.2655 49.8439 23.0072C49.5001 22.749 49.1456 22.5768 48.7589 22.5553C48.3615 22.5337 47.7814 22.6198 47.631 22.6629C47.7921 22.4154 47.7599 22.4476 47.964 22.1571C48.1681 21.8665 48.3185 21.4684 48.34 21.0702C48.3615 20.6613 48.2433 20.2416 48.0392 19.8542C47.8351 19.4668 47.5558 19.1009 47.2657 18.875C46.9757 18.649 46.6427 18.5736 46.5031 18.5521C46.3634 18.5306 46.632 18.6705 46.7823 18.9395C46.922 19.2086 47.0509 19.6928 47.0187 20.1555C46.9865 20.6183 46.632 21.1886 46.2667 21.5007L46.1915 21.5545C45.3214 22.2432 43.2804 22.4154 42.1525 22.8781C41.4972 23.1471 41.0782 23.5991 40.756 24.234C40.5197 24.7075 40.3585 25.2671 40.3585 25.7943C40.2726 25.7513 40.0577 25.5038 39.9825 25.2993C39.7032 24.4492 39.7784 23.287 40.1974 22.5015C40.8849 21.2101 43.0118 19.7897 44.4406 20.2631C44.7843 20.3815 44.9991 20.7151 44.9884 21.1025C45.1818 20.6936 44.9454 19.9941 44.6124 19.8112C44.2687 19.6175 43.882 19.5637 43.6027 19.596C43.8175 19.3269 43.9357 18.8642 43.9679 18.6382C44.0323 18.2831 43.9679 17.7666 43.882 17.433C43.796 17.0994 43.6564 16.7981 43.4415 16.4645C43.2159 16.1309 42.9152 15.765 42.6144 15.5067C42.3136 15.2485 42.0128 15.1086 41.7335 15.001C41.4542 14.8933 41.4005 14.9041 41.1964 14.8611C41.132 14.8503 40.5626 14.775 40.3263 14.9472C40.9279 14.9256 41.6046 15.2915 41.6154 15.9264C41.5187 15.8403 41.3038 15.765 41.0353 15.6897C39.6495 15.313 38.4464 16.3999 37.92 17.5944C38.0812 17.4545 38.4894 17.2716 38.8009 17.1855C39.1124 17.0994 39.295 17.0779 39.6173 17.0671C39.9503 17.0563 40.2189 17.0779 40.5089 17.1855C41.2501 17.4545 41.5294 18.3154 41.2931 19.0256C41.2072 19.2946 41.0031 19.5421 40.799 19.6713C39.9503 20.1663 39.4347 20.1555 38.8009 21.0702C38.7042 21.1994 38.6075 21.3823 38.4142 21.9419C38.0704 21.6728 37.8771 21.5652 37.587 21.4361C37.0499 21.2101 36.2013 21.2532 35.7501 21.619C35.4816 21.8343 35.0411 22.4046 34.9982 22.9857C35.256 22.7059 35.4493 22.6629 35.6857 22.6198C35.9113 22.5768 36.0724 22.566 36.4269 22.6198C36.7814 22.6736 37.0929 22.8243 37.3077 23.0287C37.5978 23.3085 37.6837 24.5891 37.7697 25.0195C37.92 25.7621 38.1671 26.2248 38.629 26.6122C38.8976 26.8382 39.1984 27.0857 39.8536 27.2363C40.1866 27.3117 40.4874 27.3547 41.0353 27.3762C41.3683 27.387 41.7657 27.387 42.2384 27.387C41.7657 27.387 41.3683 27.387 41.0353 27.3978C40.4874 27.4193 40.1866 27.4623 39.8536 27.5376C39.1984 27.6883 38.8976 27.9466 38.629 28.1618C38.1671 28.5492 37.9308 29.0119 37.7697 29.7544C37.6837 30.1741 37.587 31.4654 37.3077 31.7452C37.0929 31.9497 36.7814 32.1004 36.4269 32.1542C36.0724 32.208 35.9113 32.1972 35.6857 32.1542C35.4601 32.1111 35.256 32.0573 34.9982 31.7883C35.0411 32.3586 35.4923 32.929 35.7501 33.1549C36.2013 33.5316 37.0499 33.5639 37.587 33.3379C37.8771 33.2195 38.0597 33.1119 38.4142 32.8321C38.6183 33.3809 38.715 33.5639 38.8009 33.7038C39.4347 34.6185 39.9503 34.6077 40.799 35.1027C41.0031 35.2211 41.2072 35.4686 41.2931 35.7484C41.5294 36.4586 41.2501 37.3195 40.5089 37.5885C40.2296 37.6961 39.9503 37.7176 39.6173 37.7069C39.2843 37.6961 39.1124 37.6746 38.8009 37.5885C38.4894 37.5024 38.0812 37.3195 37.92 37.1796C38.4464 38.3741 39.6495 39.461 41.0353 39.0843C41.3038 39.009 41.5187 38.9337 41.6154 38.8476C41.6046 39.4825 40.9279 39.8483 40.3263 39.8268C40.5626 39.999 41.132 39.9237 41.1964 39.9129C41.4005 39.8806 41.4542 39.8806 41.7335 39.773C42.0128 39.6654 42.3136 39.5255 42.6144 39.2672C42.9152 39.009 43.2267 38.6431 43.4415 38.3095C43.6671 37.9759 43.8068 37.6746 43.882 37.341C43.9679 37.0074 44.0323 36.5016 43.9679 36.1358C43.9249 35.9098 43.8175 35.4471 43.6027 35.178C43.8712 35.2103 44.2687 35.1565 44.6124 34.9628C44.9562 34.7691 45.1818 34.0804 44.9884 33.6715C44.9884 34.0696 44.7843 34.4032 44.4406 34.5108C43.0118 34.9843 40.8849 33.5639 40.1974 32.2725C39.7784 31.487 39.7032 30.3248 39.9825 29.4746C40.047 29.2702 40.2726 29.0119 40.3585 28.9796C40.3585 29.5069 40.5304 30.0665 40.756 30.54C41.0675 31.1749 41.4865 31.6269 42.1525 31.8959C43.2804 32.3586 45.3214 32.5308 46.1915 33.2195L46.2667 33.2733C46.632 33.5854 46.9865 34.1557 47.0187 34.6185C47.0509 35.0812 46.922 35.5654 46.7823 35.8345C46.6427 36.1035 46.3741 36.2434 46.5031 36.2219C46.6427 36.2003 46.9757 36.125 47.2657 35.899C47.5558 35.673 47.8351 35.3072 48.0392 34.9198C48.2433 34.5324 48.3507 34.1019 48.34 33.7038C48.3185 33.2948 48.1681 32.9074 47.964 32.6169C47.7599 32.3263 47.7921 32.3586 47.631 32.1111C47.7814 32.1542 48.3722 32.2402 48.7589 32.2187C49.1564 32.1972 49.5001 32.025 49.8439 31.7668C50.1876 31.5085 51.3156 29.862 51.7023 29.5715C52.089 29.2809 52.5402 28.9151 52.8624 28.7967C53.6466 28.5169 54.506 29.5392 54.9894 30.3786Z" fill="#445A69" fill-opacity="0.3"/><path fill-rule="evenodd" clip-rule="evenodd" d="M27.2208 47.7148C27.0059 47.392 26.7911 46.9938 26.6192 46.6387C26.4473 46.2836 26.3829 46.0468 26.3506 45.7778C26.3184 45.5088 26.3399 45.0891 26.5333 44.7555C26.7159 44.4219 26.9522 44.1852 27.2208 43.9592C27.4893 44.1959 27.7256 44.4219 27.9083 44.7555C28.0909 45.0999 28.1124 45.5088 28.0909 45.7778C28.0587 46.0468 27.9942 46.2836 27.8223 46.6387C27.6504 46.9938 27.4356 47.4027 27.2208 47.7148ZM24.2559 54.9893C25.5128 55.14 26.8233 54.2683 27.1026 52.977C27.1885 52.5573 27.1885 52.1269 26.9952 51.6211C26.544 50.3836 25.3301 49.3935 24.7501 48.2529C24.2881 47.3382 24.0088 45.7886 23.9981 44.7555C23.9981 44.2928 24.0733 43.8731 24.17 43.5072C24.2667 43.1413 24.4171 42.8185 24.6641 42.6033C24.9112 42.3881 25.2657 42.302 25.545 42.2482C25.8243 42.1944 26.1143 42.2266 26.1143 42.2589C26.168 42.2804 26.168 42.5064 26.0821 42.6894C25.9962 42.8831 25.6094 43.3566 25.4376 43.6794C25.169 44.1852 25.0186 45.1106 25.1368 45.681C25.212 46.0468 25.3838 46.4127 25.6524 46.8862C25.9102 47.3597 26.2647 47.9408 26.5225 48.3928C26.7803 48.834 26.9415 49.146 27.0489 49.4366C27.1563 49.7271 27.21 50.0177 27.2315 50.1038C27.253 50.0177 27.3174 49.7271 27.4141 49.4366C27.5215 49.146 27.6827 48.834 27.9405 48.3928C28.1983 47.9516 28.5421 47.3705 28.8106 46.8862C29.0684 46.4127 29.251 46.0468 29.3262 45.681C29.4444 45.1106 29.294 44.1852 29.0255 43.6794C28.8536 43.3566 28.4669 42.8831 28.3809 42.6894C28.295 42.4957 28.295 42.2804 28.3487 42.2589C28.3594 42.2374 28.6495 42.2051 28.918 42.2482C29.1973 42.302 29.5518 42.3881 29.7989 42.6033C30.046 42.8185 30.1856 43.1413 30.293 43.5072C30.3897 43.8731 30.4756 44.2928 30.4649 44.7555C30.4542 45.7886 30.1749 47.3489 29.7129 48.2529C29.1329 49.3935 27.919 50.3836 27.4678 51.6211C27.2852 52.1269 27.2745 52.5573 27.3604 52.977C27.6397 54.2683 28.961 55.14 30.2071 54.9893C29.3692 54.5051 28.3487 53.6442 28.6495 52.8586C28.7676 52.5358 29.1436 52.0838 29.4229 51.6964C29.7129 51.309 31.3565 50.1791 31.6143 49.8347C31.8721 49.4904 32.044 49.1353 32.0655 48.7479C32.087 48.3497 32.001 47.7686 31.9581 47.618C32.2051 47.7794 32.1729 47.7471 32.4629 47.9516C32.753 48.156 33.1504 48.3067 33.5479 48.3282C33.9561 48.3497 34.3751 48.2313 34.7618 48.0269C35.1485 47.8224 35.5137 47.5426 35.7393 47.2521C35.9649 46.9615 36.0401 46.6279 36.0616 46.488C36.0831 46.3481 35.9434 46.6172 35.6749 46.7678C35.4063 46.9077 34.9229 47.0369 34.461 47.0046C33.9991 46.9723 33.4297 46.6172 33.1182 46.2513L33.0645 46.176C32.377 45.3043 32.2051 43.2597 31.7432 42.1298C31.4747 41.4734 31.0235 41.0537 30.3897 40.7308C29.9171 40.4941 29.3585 40.3327 28.8321 40.3327C28.8751 40.2466 29.1221 40.0314 29.3262 39.956C30.1749 39.6763 31.335 39.7516 32.1192 40.1713C33.4083 40.86 34.8262 42.9907 34.3536 44.4219C34.2354 44.7663 33.9024 44.9815 33.5157 44.9707C33.9239 45.1644 34.6221 44.9277 34.8047 44.5941C34.9981 44.2497 35.0518 43.8623 35.0196 43.5825C35.2881 43.7978 35.7501 43.9161 35.9756 43.9484C36.3301 44.013 36.8458 43.9484 37.1788 43.8623C37.5118 43.7762 37.8126 43.6363 38.1456 43.4211C38.4786 43.1951 38.8438 42.8938 39.1016 42.5925C39.3594 42.2912 39.4991 41.9899 39.6065 41.7101C39.7139 41.4303 39.7032 41.3765 39.7462 41.1721C39.7569 41.1075 39.8321 40.5371 39.6602 40.3004C39.6817 40.903 39.3165 41.581 38.6827 41.5917C38.7686 41.4949 38.8438 41.2797 38.919 41.0106C39.295 39.6225 38.21 38.4172 37.0176 37.8899C37.1573 38.0513 37.3399 38.4603 37.4258 38.7723C37.5118 39.0844 37.5333 39.2673 37.544 39.5902C37.5547 39.9238 37.5333 40.1928 37.4258 40.4833C37.1573 41.2259 36.2979 41.5056 35.5889 41.2689C35.3204 41.1828 35.0733 40.9784 34.9444 40.7739C34.4503 39.9238 34.461 39.4072 33.5479 38.7723C33.419 38.6755 33.2364 38.5786 32.6778 38.3849C32.9463 38.0406 33.0538 37.8469 33.1827 37.5563C33.4083 37.0183 33.3653 36.1681 33.0001 35.7162C32.7852 35.4471 32.2159 35.0059 31.6358 34.9629C31.9151 35.2212 31.9581 35.4149 32.001 35.6516C32.044 35.8776 32.0547 36.039 32.001 36.3941C31.9473 36.7492 31.7969 37.0613 31.5928 37.2765C31.3135 37.5671 30.0352 37.6532 29.6055 37.7393C28.8643 37.8899 28.4024 38.1374 28.0157 38.6001C27.7901 38.8692 27.543 39.1705 27.3926 39.8269C27.3174 40.1605 27.2745 40.4618 27.253 41.0106C27.2422 41.3442 27.2422 41.7424 27.2422 42.2159C27.2422 41.7424 27.2422 41.3442 27.2315 41.0106C27.21 40.4618 27.1671 40.1605 27.0919 39.8269C26.9415 39.1705 26.6837 38.8692 26.4688 38.6001C26.0821 38.1374 25.6202 37.9007 24.879 37.7393C24.46 37.6532 23.171 37.5563 22.8917 37.2765C22.6876 37.0613 22.5372 36.7492 22.4835 36.3941C22.4297 36.039 22.4405 35.8776 22.4835 35.6516C22.5264 35.4256 22.5801 35.2212 22.8487 34.9629C22.2794 35.0059 21.71 35.4579 21.4844 35.7162C21.1085 36.1681 21.0762 37.0183 21.3018 37.5563C21.42 37.8469 21.5274 38.0298 21.8067 38.3849C21.2588 38.5894 21.0762 38.6862 20.9366 38.7723C20.0235 39.4072 20.0342 39.9238 19.5401 40.7739C19.4219 40.9784 19.1749 41.1828 18.8956 41.2689C18.1866 41.5056 17.3272 41.2259 17.0587 40.4833C16.9512 40.2036 16.9297 39.9238 16.9405 39.5902C16.9512 39.2566 16.9727 39.0844 17.0587 38.7723C17.1446 38.4603 17.3272 38.0513 17.4669 37.8899C16.2745 38.4172 15.1895 39.6225 15.5655 41.0106C15.6407 41.2797 15.7159 41.4949 15.8018 41.5917C15.168 41.581 14.8028 40.903 14.8243 40.3004C14.6524 40.5371 14.7276 41.1075 14.7383 41.1721C14.7706 41.3765 14.7706 41.4303 14.878 41.7101C14.9854 41.9899 15.1251 42.2912 15.3829 42.5925C15.6407 42.8938 16.0059 43.2059 16.3389 43.4211C16.6719 43.6471 16.9727 43.787 17.3057 43.8623C17.6387 43.9484 18.1436 44.013 18.5088 43.9484C18.7344 43.9054 19.1963 43.7978 19.4649 43.5825C19.4327 43.8516 19.4864 44.2497 19.6797 44.5941C19.8731 44.9384 20.5606 45.1644 20.9688 44.9707C20.5713 44.9707 20.2383 44.7663 20.1309 44.4219C19.6583 42.9907 21.0762 40.86 22.3653 40.1713C23.1495 39.7516 24.3096 39.6763 25.1583 39.956C25.3624 40.0206 25.6202 40.2466 25.6524 40.3327C25.126 40.3327 24.5674 40.5049 24.0948 40.7308C23.461 41.0429 23.0098 41.4626 22.7413 42.1298C22.2794 43.2597 22.1075 45.3043 21.42 46.176L21.3663 46.2513C21.0547 46.6172 20.4854 46.9723 20.0235 47.0046C19.5616 47.0369 19.0782 46.9077 18.8096 46.7678C18.5411 46.6279 18.4014 46.3589 18.4229 46.488C18.4444 46.6279 18.5196 46.9615 18.7452 47.2521C18.9708 47.5426 19.336 47.8224 19.7227 48.0269C20.1094 48.2313 20.5391 48.339 20.9366 48.3282C21.3448 48.3067 21.7315 48.156 22.0215 47.9516C22.3116 47.7471 22.2794 47.7794 22.5264 47.618C22.4835 47.7686 22.3975 48.3605 22.419 48.7479C22.4405 49.146 22.6124 49.4904 22.8702 49.8347C23.128 50.1791 24.7715 51.309 25.0616 51.6964C25.3516 52.0838 25.7169 52.5358 25.835 52.8586C26.1143 53.6442 25.0938 54.5051 24.2559 54.9893Z" fill="#445A69" fill-opacity="0.3"/><path fill-rule="evenodd" clip-rule="evenodd" d="M7.27237 27.4192C7.59463 27.2039 7.99209 26.9887 8.34658 26.8165C8.70108 26.6444 8.93741 26.5798 9.20596 26.5475C9.47451 26.5152 9.89346 26.5367 10.2265 26.7304C10.5595 26.9134 10.7958 27.1501 11.0214 27.4192C10.7851 27.6882 10.5595 27.9249 10.2265 28.1079C9.88272 28.2908 9.47451 28.3123 9.20596 28.2908C8.93741 28.2585 8.70108 28.194 8.34658 28.0218C7.99209 27.8496 7.59463 27.6451 7.27237 27.4192ZM0.0106454 24.4599C-0.139745 25.7189 0.730372 27.0318 2.01943 27.3115C2.43838 27.3976 2.86807 27.3976 3.37295 27.2039C4.6083 26.752 5.59658 25.536 6.73526 24.9549C7.64834 24.4921 9.19522 24.2123 10.2265 24.2016C10.6884 24.2016 11.1073 24.2769 11.4726 24.3738C11.8378 24.4706 12.1601 24.6213 12.3749 24.8688C12.5898 25.1163 12.6864 25.4714 12.7294 25.7512C12.7831 26.031 12.7509 26.3215 12.7187 26.3215C12.6972 26.3753 12.4716 26.3753 12.289 26.2892C12.0956 26.2032 11.623 25.8158 11.3007 25.6436C10.7958 25.3745 9.87198 25.2239 9.30264 25.3423C8.93741 25.4176 8.57217 25.5898 8.09951 25.8588C7.62686 26.1171 7.04678 26.4722 6.59561 26.7304C6.15518 26.9887 5.84365 27.1501 5.55362 27.2577C5.26358 27.3654 4.97354 27.4192 4.8876 27.4407C4.97354 27.4622 5.26358 27.5268 5.55362 27.6236C5.84365 27.7312 6.15518 27.8926 6.59561 28.1509C7.03604 28.4092 7.61612 28.7535 8.09951 29.0226C8.57217 29.2808 8.93741 29.4638 9.30264 29.5391C9.87198 29.6575 10.7958 29.5068 11.3007 29.2378C11.623 29.0656 12.0956 28.6782 12.289 28.5921C12.4823 28.506 12.6972 28.506 12.7187 28.5598C12.7401 28.5706 12.7724 28.8611 12.7294 29.1302C12.6757 29.41 12.5898 29.7651 12.3749 30.0126C12.1601 30.2601 11.8378 30.4 11.4726 30.5076C11.1073 30.6044 10.6884 30.6905 10.2265 30.6798C9.19522 30.669 7.6376 30.3892 6.73526 29.9265C5.59658 29.3454 4.6083 28.1294 3.37295 27.6774C2.86807 27.4945 2.43838 27.4837 2.01943 27.5698C0.730372 27.8496 -0.139745 29.1732 0.0106454 30.4215C0.494044 29.5821 1.35342 28.5598 2.1376 28.8611C2.45986 28.9795 2.91104 29.3562 3.29776 29.6359C3.68447 29.9265 4.8124 31.5729 5.15615 31.8312C5.4999 32.0895 5.8544 32.2617 6.24112 32.2832C6.63858 32.3047 7.21866 32.2186 7.36905 32.1756C7.20791 32.4231 7.24014 32.3908 7.03604 32.6813C6.83194 32.9719 6.68155 33.37 6.66006 33.7682C6.63858 34.1771 6.75674 34.5968 6.96084 34.9842C7.16494 35.3716 7.44424 35.7375 7.73428 35.9635C8.02432 36.1895 8.35733 36.2648 8.49698 36.2863C8.63662 36.3078 8.36807 36.1679 8.21768 35.8989C8.07803 35.6299 7.94912 35.1456 7.98135 34.6829C8.01358 34.2202 8.36807 33.6498 8.7333 33.3378L8.8085 33.284C9.67862 32.5952 11.7196 32.4231 12.8476 31.9603C13.5028 31.6913 13.9218 31.2393 14.244 30.6044C14.4804 30.131 14.6415 29.5714 14.6415 29.0441C14.7274 29.0871 14.9423 29.3346 15.0175 29.5391C15.2968 30.3892 15.2216 31.5514 14.8026 32.337C14.1151 33.6283 11.9882 35.0488 10.5595 34.5753C10.2157 34.4569 10.0009 34.1233 10.0116 33.7359C9.81826 34.1448 10.0546 34.8443 10.3876 35.0273C10.7314 35.221 11.1181 35.2748 11.3974 35.2425C11.1825 35.5115 11.0644 35.9742 11.0321 36.2002C10.9677 36.5553 11.0321 37.0719 11.1181 37.4055C11.204 37.739 11.3437 38.0404 11.5585 38.374C11.7841 38.7075 12.0849 39.0734 12.3856 39.3317C12.6864 39.59 12.9872 39.7299 13.2665 39.8375C13.5458 39.9451 13.5995 39.9343 13.8036 39.9774C13.8681 39.9881 14.4374 40.0634 14.6737 39.8913C14.0722 39.9128 13.3954 39.5469 13.3847 38.912C13.4814 38.9981 13.6962 39.0734 13.9648 39.1488C15.3505 39.5254 16.5536 38.4385 17.08 37.244C16.9189 37.3839 16.5107 37.5669 16.1991 37.653C15.8876 37.739 15.705 37.7606 15.3827 37.7713C15.0497 37.7821 14.7812 37.7606 14.4911 37.653C13.7499 37.3839 13.4706 36.523 13.7069 35.8128C13.7929 35.5438 13.997 35.2963 14.2011 35.1671C15.0497 34.6721 15.5653 34.6829 16.1991 33.7682C16.2958 33.6391 16.3925 33.4561 16.5858 32.8966C16.9296 33.1656 17.123 33.2732 17.413 33.4023C17.9501 33.6283 18.7987 33.5853 19.2499 33.2194C19.5185 33.0042 19.9589 32.4338 20.0019 31.8527C19.744 32.1325 19.5507 32.1756 19.3144 32.2186C19.0888 32.2616 18.9276 32.2724 18.5732 32.2186C18.2187 32.1648 17.9071 32.0141 17.6923 31.8097C17.4023 31.5299 17.3163 30.2493 17.2304 29.8189C17.08 29.0764 16.8329 28.6136 16.371 28.2262C16.1024 28.0003 15.8017 27.7528 15.1464 27.6021C14.8134 27.5268 14.5126 27.4837 13.9648 27.4622C13.6317 27.4514 13.2343 27.4514 12.7616 27.4514C13.2343 27.4514 13.6317 27.4514 13.9648 27.4407C14.5126 27.4192 14.8134 27.3761 15.1464 27.3008C15.8017 27.1501 16.1024 26.8919 16.371 26.6766C16.8329 26.2892 17.0692 25.8265 17.2304 25.084C17.3163 24.6643 17.413 23.373 17.6923 23.0932C17.9071 22.8887 18.2187 22.7381 18.5732 22.6843C18.9276 22.6305 19.0888 22.6412 19.3144 22.6843C19.5399 22.7273 19.744 22.7811 20.0019 23.0501C19.9482 22.4798 19.5077 21.9095 19.2499 21.6835C18.7987 21.3069 17.9501 21.2746 17.413 21.5006C17.123 21.6189 16.9403 21.7265 16.5858 22.0063C16.3817 21.4575 16.2851 21.2746 16.1991 21.1347C15.5653 20.22 15.0497 20.2307 14.2011 19.7357C13.997 19.6174 13.7929 19.3699 13.7069 19.0901C13.4706 18.3798 13.7606 17.5189 14.4911 17.2499C14.7704 17.1423 15.0497 17.1208 15.3827 17.1315C15.7157 17.1423 15.8876 17.1638 16.1991 17.2499C16.5107 17.336 16.9189 17.5189 17.08 17.6588C16.5536 16.4644 15.3505 15.3775 13.9648 15.7541C13.6962 15.8295 13.4814 15.9048 13.3847 15.9909C13.3954 15.356 14.0722 14.9901 14.6737 15.0116C14.4374 14.8394 13.8681 14.9148 13.8036 14.9255C13.5995 14.9578 13.5458 14.9578 13.2665 15.0654C12.9872 15.173 12.6864 15.3129 12.3856 15.5712C12.0849 15.8295 11.7733 16.1953 11.5585 16.5289C11.3329 16.8625 11.1933 17.1638 11.1181 17.4974C11.0321 17.831 10.9677 18.3368 11.0321 18.7027C11.0751 18.9286 11.1825 19.3914 11.3974 19.6604C11.1288 19.6281 10.7314 19.6819 10.3876 19.8756C10.0439 20.0693 9.81826 20.758 10.0116 21.167C10.0116 20.7688 10.2157 20.4352 10.5595 20.3276C11.9882 19.8541 14.1151 21.2746 14.8026 22.5659C15.2216 23.3515 15.2968 24.5137 15.0175 25.3638C14.953 25.5682 14.7274 25.8265 14.6415 25.8588C14.6415 25.3315 14.4696 24.7719 14.244 24.2984C13.9325 23.6635 13.5136 23.2116 12.8476 22.9425C11.7196 22.4798 9.67862 22.3076 8.8085 21.6189L8.7333 21.5651C8.36807 21.253 8.01358 20.6827 7.98135 20.22C7.94912 19.7573 8.07803 19.273 8.21768 19.004C8.35733 18.735 8.62588 18.5951 8.49698 18.6166C8.35733 18.6381 8.02432 18.7134 7.73428 18.9394C7.44424 19.1654 7.16494 19.5313 6.96084 19.9187C6.75674 20.3061 6.64932 20.7365 6.66006 21.1347C6.68155 21.5436 6.83194 21.931 7.03604 22.2215C7.24014 22.5121 7.20791 22.4798 7.36905 22.7273C7.21866 22.6843 6.62783 22.5982 6.24112 22.6197C5.84365 22.6412 5.4999 22.8134 5.15615 23.0717C4.8124 23.3299 3.68447 24.9764 3.29776 25.2669C2.91104 25.5575 2.45986 25.9234 2.1376 26.0417C1.36416 26.3215 0.494044 25.2992 0.0106454 24.4599Z" fill="#445A69" fill-opacity="0.3"/><path fill-rule="evenodd" clip-rule="evenodd" d="M34.5361 20.2413C35.374 19.6817 36.2549 19.4557 37.2754 20.2413C37.6191 19.6925 37.3721 18.6702 36.7275 18.046C36.1045 17.4004 35.084 17.1529 34.5361 17.4972C35.3203 18.5195 35.0947 19.4019 34.5361 20.2413Z" fill="#445A69" fill-opacity="0.3"/><path fill-rule="evenodd" clip-rule="evenodd" d="M20.1953 34.2852C19.3574 34.8447 18.4765 35.0707 17.456 34.2852C17.1123 34.834 17.3594 35.8563 18.0039 36.4804C18.6269 37.1261 19.6474 37.3736 20.1953 37.0292C19.4004 36.0069 19.6367 35.1245 20.1953 34.2852Z" fill="#445A69" fill-opacity="0.3"/><path fill-rule="evenodd" clip-rule="evenodd" d="M34.5361 34.2852C35.374 34.8447 36.2549 35.0707 37.2754 34.2852C37.6191 34.834 37.3721 35.8563 36.7275 36.4804C36.1045 37.1261 35.084 37.3736 34.5361 37.0292C35.3203 36.0069 35.0947 35.1245 34.5361 34.2852Z" fill="#445A69" fill-opacity="0.3"/><path d="M32.2909 24.1914H31.5712C31.2704 22.8677 30.9374 21.9315 30.5936 21.3827C30.0243 20.4895 29.1864 20.0376 28.0799 20.0376C27.3602 20.0376 26.7801 20.2743 26.3182 20.7478C25.8671 21.2213 25.6415 21.8132 25.6415 22.5341C25.6415 23.5887 26.3182 24.5357 27.6717 25.3858C28.9286 26.1176 30.1962 26.8494 31.4745 27.5703C32.828 28.5604 33.5047 29.7549 33.5047 31.1646C33.5047 32.768 32.828 34.0055 31.4745 34.9094C30.3143 35.6735 28.8641 36.0609 27.1454 36.0609C25.4911 36.0609 23.869 35.6519 22.2899 34.8341L21.495 30.0884L22.2362 29.9485C22.6981 31.326 23.3319 32.4451 24.1483 33.3275C25.1581 34.4144 26.2967 34.9525 27.5965 34.9525C28.3915 34.9525 29.0575 34.7157 29.5731 34.2422C30.0887 33.7687 30.3465 33.1446 30.3465 32.359C30.3465 31.2614 29.6698 30.2821 28.3163 29.432C27.038 28.7325 25.7704 28.0223 24.5135 27.3013C23.16 26.3543 22.4833 25.2244 22.4833 23.9008C22.4833 22.3835 23.1063 21.1567 24.3524 20.2313C25.5018 19.3704 26.8661 18.9399 28.4452 18.9399C29.9276 18.9399 31.2811 19.2951 32.5165 20.0161L32.2909 24.1914Z" fill="#445A69" fill-opacity="0.3"/></g><defs><clipPath id="clip0"><rect width="201" height="37" fill="white" transform="translate(75 9)"/></clipPath><clipPath id="clip1"><rect width="55" height="55" fill="white"/></clipPath></defs></svg>