<svg width="50" height="50" viewBox="0 0 50 50" fill="none" xmlns="http://www.w3.org/2000/svg"><g clip-path="url(#clip0)"><path fill-rule="evenodd" clip-rule="evenodd" d="M18.3593 18.4015C17.5976 17.8928 16.7968 17.6874 15.8691 18.4015C15.5566 17.9026 15.7812 16.9732 16.3671 16.4058C16.9335 15.8189 17.8612 15.5939 18.3593 15.9069C17.6366 16.8363 17.8515 17.6385 18.3593 18.4015Z" fill="#EA6079"/><path fill-rule="evenodd" clip-rule="evenodd" d="M24.951 6.62269C25.1463 6.91618 25.3416 7.27814 25.4979 7.60097C25.6541 7.92381 25.7127 8.13903 25.742 8.3836C25.7713 8.62817 25.7518 9.0097 25.576 9.31297C25.41 9.61624 25.1951 9.83146 24.951 10.0369C24.7068 9.82167 24.492 9.61624 24.326 9.31297C24.16 8.99992 24.1404 8.62817 24.16 8.3836C24.1893 8.13903 24.2479 7.92381 24.4041 7.60097C24.5604 7.27814 24.7459 6.91618 24.951 6.62269ZM27.6365 0.00950489C26.4939 -0.127455 25.3025 0.664954 25.0486 1.83889C24.9705 2.22042 24.9705 2.61174 25.1463 3.07153C25.5564 4.19655 26.66 5.09657 27.1873 6.13355C27.6072 6.96509 27.8611 8.37382 27.8709 9.31297C27.8709 9.73363 27.8025 10.1152 27.7146 10.4478C27.6268 10.7804 27.49 11.0739 27.2654 11.2695C27.0408 11.4652 26.7186 11.5435 26.4646 11.5924C26.2107 11.6413 25.9471 11.6119 25.9471 11.5826C25.8982 11.563 25.8982 11.3576 25.9764 11.1913C26.0545 11.0152 26.4061 10.5847 26.5623 10.2913C26.8064 9.83146 26.9432 8.99014 26.8357 8.47165C26.7674 8.13903 26.6111 7.80641 26.367 7.37597C26.1326 6.94553 25.8104 6.41725 25.576 6.00637C25.3416 5.60528 25.1951 5.32158 25.0975 5.05744C24.9998 4.7933 24.951 4.52917 24.9314 4.45091C24.9119 4.52917 24.8533 4.7933 24.7654 5.05744C24.6678 5.32158 24.5213 5.60528 24.2869 6.00637C24.0525 6.40747 23.74 6.93574 23.4959 7.37597C23.2615 7.80641 23.0955 8.13903 23.0271 8.47165C22.9197 8.99014 23.0564 9.83146 23.3006 10.2913C23.4568 10.5847 23.8084 11.0152 23.8865 11.1913C23.9646 11.3674 23.9646 11.563 23.9158 11.5826C23.9061 11.6021 23.6424 11.6315 23.3982 11.5924C23.1443 11.5435 22.8221 11.4652 22.5975 11.2695C22.3729 11.0739 22.2459 10.7804 22.1482 10.4478C22.0604 10.1152 21.9822 9.73363 21.992 9.31297C22.0018 8.37382 22.2557 6.95531 22.6756 6.13355C23.2029 5.09657 24.3064 4.19655 24.7166 3.07153C24.8826 2.61174 24.8924 2.22042 24.8143 1.83889C24.5604 0.664954 23.3592 -0.127455 22.2264 0.00950489C22.9881 0.449732 23.9158 1.23236 23.6424 1.9465C23.535 2.23999 23.1932 2.65087 22.9393 3.00305C22.6756 3.35523 21.1814 4.38243 20.9471 4.69548C20.7127 5.00853 20.5564 5.33136 20.5369 5.68354C20.5174 6.04551 20.5955 6.57378 20.6346 6.71074C20.41 6.564 20.4393 6.59334 20.1756 6.40747C19.9119 6.2216 19.5506 6.08464 19.1893 6.06507C18.8182 6.04551 18.4373 6.15312 18.0857 6.33899C17.7342 6.52486 17.4022 6.77922 17.1971 7.04335C16.992 7.30749 16.9236 7.61076 16.9041 7.73793C16.8846 7.86511 17.0115 7.62054 17.2557 7.48358C17.4998 7.3564 17.9393 7.23901 18.3592 7.26836C18.7791 7.29771 19.2967 7.62054 19.5799 7.95316L19.6287 8.02164C20.2537 8.81404 20.41 10.6728 20.8299 11.7C21.074 12.2967 21.4842 12.6783 22.0604 12.9717C22.49 13.187 22.9979 13.3337 23.4764 13.3337C23.4373 13.412 23.2127 13.6076 23.0271 13.6761C22.2557 13.9305 21.201 13.862 20.4881 13.4805C19.3162 12.8544 18.0272 10.9174 18.4568 9.61624C18.5643 9.30319 18.867 9.10753 19.2186 9.11731C18.8475 8.94122 18.2127 9.15644 18.0467 9.45971C17.8709 9.77276 17.8221 10.1249 17.8514 10.3793C17.6072 10.1836 17.1873 10.076 16.9822 10.0467C16.66 9.98798 16.1912 10.0467 15.8885 10.1249C15.5857 10.2032 15.3123 10.3304 15.0096 10.526C14.7068 10.7315 14.3748 11.0054 14.1404 11.2793C13.9061 11.5532 13.7791 11.8272 13.6815 12.0815C13.5838 12.3359 13.5936 12.3848 13.5545 12.5706C13.5447 12.6293 13.4764 13.1478 13.6326 13.3631C13.6131 12.8152 13.9451 12.1989 14.5213 12.1891C14.4432 12.2772 14.3748 12.4728 14.3065 12.7174C13.9647 13.9794 14.951 15.0751 16.035 15.5544C15.908 15.4077 15.742 15.0359 15.6639 14.7522C15.5857 14.4685 15.5662 14.3022 15.5565 14.0087C15.5467 13.7055 15.5662 13.4609 15.6639 13.1967C15.908 12.5217 16.6893 12.2674 17.3338 12.4826C17.5779 12.5609 17.8025 12.7467 17.9197 12.9326C18.3689 13.7055 18.3592 14.175 19.1893 14.7522C19.3064 14.8403 19.4725 14.9283 19.9803 15.1044C19.7361 15.4174 19.6385 15.5935 19.5213 15.8577C19.3162 16.3468 19.3553 17.1197 19.6873 17.5305C19.8826 17.7751 20.4002 18.1762 20.9275 18.2153C20.6736 17.9805 20.6346 17.8045 20.5955 17.5892C20.5564 17.374 20.5467 17.2371 20.5955 16.9142C20.6443 16.5914 20.7811 16.3077 20.9666 16.112C21.2205 15.8479 22.3826 15.7696 22.7732 15.6914C23.4471 15.5544 23.867 15.3294 24.2186 14.9087C24.4236 14.6642 24.6482 14.3903 24.785 13.7935C24.8533 13.4902 24.8924 13.2163 24.9119 12.7174C24.9217 12.4141 24.9217 12.0522 24.9217 11.6217C24.9217 12.0522 24.9217 12.4141 24.9314 12.7174C24.951 13.2163 24.99 13.4902 25.0584 13.7935C25.1951 14.3903 25.4295 14.6642 25.6248 14.9087C25.9764 15.3294 26.3963 15.5446 27.0701 15.6914C27.451 15.7696 28.6228 15.8577 28.8768 16.112C29.0623 16.3077 29.199 16.5914 29.2478 16.9142C29.2967 17.2371 29.2869 17.3838 29.2478 17.5892C29.2088 17.7947 29.16 17.9805 28.9158 18.2153C29.4334 18.1762 29.951 17.7653 30.156 17.5305C30.4978 17.1197 30.5271 16.3468 30.3221 15.8577C30.2146 15.5935 30.117 15.4272 29.8631 15.1044C30.3611 14.9185 30.5271 14.8305 30.6541 14.7522C31.4842 14.175 31.4744 13.7055 31.9236 12.9326C32.031 12.7467 32.2557 12.5609 32.5096 12.4826C33.1541 12.2674 33.9353 12.5217 34.1795 13.1967C34.2771 13.4511 34.2967 13.7055 34.2869 14.0087C34.2771 14.312 34.2576 14.4685 34.1795 14.7522C34.1014 15.0359 33.9353 15.4077 33.8084 15.5544C34.8924 15.0751 35.8787 13.9794 35.5369 12.7174C35.4685 12.4728 35.4002 12.2772 35.3221 12.1891C35.8982 12.1989 36.2303 12.8152 36.2107 13.3631C36.367 13.1478 36.2986 12.6293 36.2889 12.5706C36.2596 12.3848 36.2596 12.3359 36.1619 12.0815C36.0642 11.8272 35.9373 11.5532 35.7029 11.2793C35.4685 11.0054 35.1365 10.7217 34.8338 10.526C34.531 10.3206 34.2576 10.1934 33.9549 10.1249C33.6521 10.0467 33.1932 9.98798 32.8611 10.0467C32.656 10.0858 32.2361 10.1836 31.992 10.3793C32.0213 10.1347 31.9725 9.77276 31.7967 9.45971C31.6209 9.14666 30.9959 8.94122 30.6248 9.11731C30.9861 9.11731 31.2889 9.30319 31.3865 9.61624C31.8162 10.9174 30.5271 12.8544 29.3553 13.4805C28.6424 13.862 27.5877 13.9305 26.8162 13.6761C26.6307 13.6174 26.3963 13.412 26.367 13.3337C26.8455 13.3337 27.3533 13.1772 27.783 12.9717C28.3592 12.688 28.7693 12.3065 29.0135 11.7C29.4334 10.6728 29.5896 8.81404 30.2146 8.02164L30.2635 7.95316C30.5467 7.62054 31.0643 7.29771 31.4842 7.26836C31.9041 7.23901 32.3435 7.3564 32.5877 7.48358C32.8318 7.61076 32.9588 7.85533 32.9393 7.73793C32.9197 7.61076 32.8514 7.30749 32.6463 7.04335C32.4412 6.77922 32.1092 6.52486 31.7576 6.33899C31.4061 6.15312 31.0154 6.05529 30.6541 6.06507C30.283 6.08464 29.9314 6.2216 29.6678 6.40747C29.4041 6.59334 29.4334 6.564 29.2088 6.71074C29.2478 6.57378 29.326 6.03572 29.3064 5.68354C29.2869 5.32158 29.1307 5.00853 28.8963 4.69548C28.6619 4.38243 27.1678 3.35523 26.9041 3.00305C26.6404 2.65087 26.3084 2.23999 26.201 1.9465C25.9568 1.24214 26.8748 0.449732 27.6365 0.00950489Z" fill="#EA6079"/><path fill-rule="evenodd" clip-rule="evenodd" d="M43.3887 24.9169C43.0957 25.1125 42.7344 25.3082 42.4121 25.4647C42.0898 25.6212 41.875 25.6799 41.6309 25.7093C41.3867 25.7386 41.0059 25.7191 40.7031 25.543C40.4004 25.3767 40.1855 25.1614 39.9805 24.9169C40.1953 24.6723 40.4004 24.4571 40.7031 24.2908C41.0156 24.1245 41.3867 24.1049 41.6309 24.1245C41.875 24.1538 42.0898 24.2125 42.4121 24.369C42.7344 24.5256 43.1055 24.7212 43.3887 24.9169ZM49.9902 27.6169C50.127 26.4723 49.3359 25.2788 48.1641 25.0245C47.7832 24.9462 47.3926 24.9462 46.9336 25.1223C45.8106 25.5332 44.9121 26.6387 43.877 27.1669C43.0469 27.5876 41.6406 27.8419 40.7031 27.8517C40.2832 27.8517 39.9023 27.7832 39.5703 27.6952C39.2383 27.6072 38.9453 27.4702 38.75 27.2452C38.5547 27.0202 38.4668 26.6973 38.4277 26.443C38.3789 26.1886 38.4082 25.9245 38.4375 25.9245C38.457 25.8756 38.6621 25.8756 38.8281 25.9539C39.0039 26.0321 39.4336 26.3843 39.7266 26.5408C40.1855 26.7854 41.0254 26.9224 41.543 26.8147C41.875 26.7463 42.207 26.5897 42.6367 26.3452C43.0664 26.1104 43.5938 25.7875 44.0039 25.5528C44.4043 25.318 44.6875 25.1712 44.9512 25.0734C45.2148 24.9756 45.4785 24.9267 45.5566 24.9071C45.4785 24.8875 45.2148 24.8288 44.9512 24.7408C44.6875 24.643 44.4043 24.4962 44.0039 24.2614C43.6035 24.0266 43.0762 23.7136 42.6367 23.469C42.207 23.2342 41.875 23.0679 41.543 22.9994C41.0254 22.8918 40.1855 23.0288 39.7266 23.2734C39.4336 23.4299 39.0039 23.7821 38.8281 23.8603C38.6523 23.9386 38.457 23.9386 38.4375 23.8897C38.418 23.8799 38.3887 23.6158 38.4277 23.3712C38.4766 23.1168 38.5547 22.794 38.75 22.569C38.9453 22.344 39.2383 22.2168 39.5703 22.119C39.9023 22.0309 40.2832 21.9527 40.7031 21.9625C41.6406 21.9722 43.0566 22.2266 43.877 22.6473C44.9121 23.1755 45.8106 24.281 46.9336 24.6919C47.3926 24.8582 47.7832 24.868 48.1641 24.7897C49.3359 24.5353 50.127 23.3321 49.9902 22.1973C49.5508 22.9603 48.7695 23.8897 48.0566 23.6158C47.7637 23.5081 47.3535 23.1658 47.002 22.9114C46.6504 22.6473 45.625 21.1505 45.3125 20.9157C45 20.6809 44.6777 20.5244 44.3262 20.5048C43.9648 20.4853 43.4375 20.5635 43.3008 20.6027C43.4473 20.3776 43.418 20.407 43.6035 20.1429C43.7891 19.8787 43.9258 19.5168 43.9453 19.1548C43.9648 18.783 43.8574 18.4015 43.6719 18.0493C43.4863 17.6972 43.2324 17.3645 42.9688 17.1591C42.7051 16.9537 42.4023 16.8852 42.2754 16.8656C42.1484 16.846 42.3926 16.9732 42.5293 17.2178C42.6563 17.4624 42.7734 17.9026 42.7441 18.3233C42.7148 18.7439 42.3926 19.2624 42.0606 19.5461L41.9922 19.595C41.2012 20.2211 39.3457 20.3776 38.3203 20.7983C37.7246 21.0429 37.3438 21.4538 37.0508 22.0309C36.8359 22.4614 36.6895 22.9701 36.6895 23.4495C36.6113 23.4103 36.416 23.1853 36.3477 22.9994C36.0938 22.2266 36.1621 21.1701 36.543 20.4559C37.168 19.282 39.1016 17.9906 40.4004 18.4211C40.7129 18.5287 40.9082 18.832 40.8984 19.1841C41.0742 18.8124 40.8594 18.1765 40.5566 18.0102C40.2441 17.8341 39.8926 17.7852 39.6387 17.8145C39.834 17.57 39.9414 17.1493 39.9707 16.9439C40.0293 16.621 39.9707 16.1515 39.8926 15.8482C39.8145 15.5449 39.6875 15.271 39.4922 14.9677C39.2871 14.6645 39.0137 14.3319 38.7402 14.0971C38.4668 13.8623 38.1934 13.7351 37.9395 13.6373C37.6855 13.5395 37.6367 13.5492 37.4512 13.5101C37.3926 13.5003 36.875 13.4318 36.6602 13.5884C37.207 13.5688 37.8223 13.9014 37.832 14.4786C37.7441 14.4003 37.5488 14.3319 37.3047 14.2634C36.0449 13.921 34.9512 14.909 34.4727 15.9949C34.6191 15.8678 34.9902 15.7015 35.2734 15.6232C35.5566 15.5449 35.7227 15.5254 36.0156 15.5156C36.3184 15.5058 36.5625 15.5254 36.8262 15.6232C37.5 15.8678 37.7539 16.6504 37.5391 17.2961C37.4609 17.5406 37.2754 17.7656 37.0898 17.883C36.3184 18.333 35.8496 18.3233 35.2734 19.1548C35.1855 19.2722 35.0977 19.4385 34.9219 19.9472C34.6094 19.7026 34.4336 19.6048 34.1699 19.4874C33.6816 19.282 32.9102 19.3211 32.5 19.6537C32.2559 19.8494 31.8555 20.3679 31.8164 20.8961C32.0508 20.6418 32.2266 20.6027 32.4414 20.5635C32.6465 20.5244 32.793 20.5146 33.1152 20.5635C33.4375 20.6124 33.7207 20.7494 33.916 20.9353C34.1797 21.1896 34.2578 22.3538 34.3359 22.7451C34.4727 23.4201 34.6973 23.8408 35.1172 24.1929C35.3613 24.3984 35.6348 24.6234 36.2305 24.7604C36.5332 24.8288 36.8066 24.868 37.3047 24.8875C37.6074 24.8973 37.9688 24.8973 38.3984 24.8973C37.9688 24.8973 37.6074 24.8973 37.3047 24.9071C36.8066 24.9267 36.5332 24.9658 36.2305 25.0343C35.6348 25.1712 35.3613 25.406 35.1172 25.6017C34.6973 25.9539 34.4824 26.3745 34.3359 27.0495C34.2578 27.4311 34.1699 28.605 33.916 28.8594C33.7207 29.0452 33.4375 29.1822 33.1152 29.2311C32.793 29.28 32.6465 29.2702 32.4414 29.2311C32.2363 29.192 32.0508 29.1431 31.8164 28.8985C31.8555 29.417 32.2656 29.9355 32.5 30.1409C32.9102 30.4833 33.6816 30.5126 34.1699 30.3072C34.4336 30.1996 34.5996 30.1018 34.9219 29.8474C35.1074 30.3463 35.1953 30.5127 35.2734 30.6398C35.8496 31.4714 36.3184 31.4616 37.0898 31.9116C37.2754 32.0192 37.4609 32.2442 37.5391 32.4986C37.7539 33.1442 37.5 33.9269 36.8262 34.1714C36.5723 34.2693 36.3184 34.2888 36.0156 34.279C35.7129 34.2693 35.5566 34.2497 35.2734 34.1714C34.9902 34.0932 34.6191 33.9269 34.4727 33.7997C34.9512 34.8856 36.0449 35.8736 37.3047 35.5312C37.5488 35.4628 37.7441 35.3943 37.832 35.316C37.8223 35.8932 37.207 36.2258 36.6602 36.2063C36.875 36.3628 37.3926 36.2943 37.4512 36.2845C37.6367 36.2552 37.6855 36.2552 37.9395 36.1573C38.1934 36.0595 38.4668 35.9323 38.7402 35.6975C39.0137 35.4628 39.2969 35.1301 39.4922 34.8269C39.6973 34.5236 39.8242 34.2497 39.8926 33.9464C39.9707 33.6432 40.0293 33.1834 39.9707 32.8507C39.9316 32.6453 39.834 32.2246 39.6387 31.9801C39.8828 32.0094 40.2441 31.9605 40.5566 31.7844C40.8691 31.6083 41.0742 30.9822 40.8984 30.6105C40.8984 30.9724 40.7129 31.2757 40.4004 31.3735C39.1016 31.804 37.168 30.5126 36.543 29.3387C36.1621 28.6246 36.0938 27.568 36.3477 26.7952C36.4063 26.6093 36.6113 26.3745 36.6895 26.3452C36.6895 26.8245 36.8457 27.3332 37.0508 27.7637C37.334 28.3409 37.7148 28.7517 38.3203 28.9963C39.3457 29.417 41.2012 29.5735 41.9922 30.1996L42.0606 30.2485C42.3926 30.5322 42.7148 31.0507 42.7441 31.4714C42.7734 31.892 42.6563 32.3323 42.5293 32.5768C42.4023 32.8214 42.1582 32.9486 42.2754 32.929C42.4023 32.9094 42.7051 32.841 42.9688 32.6355C43.2324 32.4301 43.4863 32.0975 43.6719 31.7453C43.8574 31.3931 43.9551 31.0018 43.9453 30.6398C43.9258 30.2681 43.7891 29.9159 43.6035 29.6518C43.418 29.3876 43.4473 29.417 43.3008 29.192C43.4375 29.2311 43.9746 29.3094 44.3262 29.2898C44.6875 29.2702 45 29.1137 45.3125 28.8789C45.625 28.6441 46.6504 27.1474 47.002 26.8832C47.3535 26.6191 47.7637 26.2865 48.0566 26.1789C48.7695 25.9245 49.5508 26.8539 49.9902 27.6169Z" fill="#EA6079"/><path fill-rule="evenodd" clip-rule="evenodd" d="M24.7459 43.3771C24.5506 43.0836 24.3553 42.7216 24.199 42.3988C24.0428 42.076 23.9842 41.8607 23.9549 41.6162C23.9256 41.3716 23.9451 40.9901 24.1209 40.6868C24.2869 40.3835 24.5018 40.1683 24.7459 39.9629C24.99 40.1781 25.2049 40.3835 25.3709 40.6868C25.5369 40.9998 25.5565 41.3716 25.5369 41.6162C25.5076 41.8607 25.449 42.076 25.2928 42.3988C25.1365 42.7216 24.9412 43.0934 24.7459 43.3771ZM22.0506 49.9903C23.1932 50.1272 24.3846 49.3348 24.6385 48.1609C24.7166 47.7793 24.7166 47.388 24.5408 46.9282C24.1307 45.8032 23.0272 44.9032 22.4998 43.8662C22.0799 43.0347 21.826 41.6259 21.8162 40.6868C21.8162 40.2661 21.8846 39.8846 21.9725 39.552C22.0604 39.2194 22.1971 38.9259 22.4217 38.7302C22.6463 38.5346 22.9686 38.4563 23.2225 38.4074C23.4764 38.3585 23.74 38.3878 23.74 38.4172C23.7889 38.4367 23.7889 38.6422 23.7108 38.8085C23.6326 38.9846 23.2811 39.415 23.1248 39.7085C22.8807 40.1683 22.744 41.0096 22.8514 41.5281C22.9197 41.8607 23.076 42.1934 23.3201 42.6238C23.5545 43.0542 23.8768 43.5825 24.1111 43.9934C24.3455 44.3945 24.492 44.6782 24.5897 44.9423C24.6873 45.2065 24.7361 45.4706 24.7557 45.5489C24.7752 45.4706 24.8338 45.2065 24.9217 44.9423C25.0193 44.6782 25.1658 44.3945 25.4002 43.9934C25.6346 43.5923 25.9471 43.064 26.1912 42.6238C26.4256 42.1934 26.5916 41.8607 26.66 41.5281C26.7674 41.0096 26.6307 40.1683 26.3865 39.7085C26.2303 39.415 25.8787 38.9846 25.8006 38.8085C25.7225 38.6324 25.7225 38.4367 25.7713 38.4172C25.7811 38.3976 26.0447 38.3683 26.2889 38.4074C26.5428 38.4563 26.865 38.5346 27.0897 38.7302C27.3143 38.9259 27.4412 39.2194 27.5389 39.552C27.6268 39.8846 27.7049 40.2661 27.6951 40.6868C27.6854 41.6259 27.4315 43.0445 27.0115 43.8662C26.4842 44.9032 25.3807 45.8032 24.9705 46.9282C24.8045 47.388 24.7947 47.7793 24.8729 48.1609C25.1268 49.3348 26.3279 50.1272 27.4608 49.9903C26.699 49.55 25.7713 48.7674 26.0447 48.0533C26.1522 47.7598 26.494 47.3489 26.7479 46.9967C27.0115 46.6445 28.5057 45.6173 28.74 45.3043C28.9744 44.9912 29.1307 44.6684 29.1502 44.3162C29.1697 43.9543 29.0916 43.426 29.0525 43.289C29.2772 43.4358 29.2479 43.4064 29.5115 43.5923C29.7752 43.7782 30.1365 43.9151 30.4979 43.9347C30.869 43.9543 31.2498 43.8467 31.6014 43.6608C31.9529 43.4749 32.285 43.2206 32.49 42.9564C32.6951 42.6923 32.7635 42.389 32.783 42.2618C32.8025 42.1347 32.6756 42.3792 32.4315 42.5162C32.1873 42.6434 31.7479 42.7608 31.3279 42.7314C30.908 42.7021 30.3904 42.3792 30.1072 42.0466L30.0584 41.9781C29.4334 41.1857 29.2772 39.327 28.8572 38.2998C28.6131 37.703 28.2029 37.3215 27.6268 37.028C27.1971 36.8128 26.6893 36.6661 26.2107 36.6661C26.2498 36.5878 26.4744 36.3921 26.66 36.3237C27.4315 36.0693 28.4861 36.1378 29.199 36.5193C30.3709 37.1454 31.66 39.0824 31.2303 40.3835C31.1229 40.6966 30.8201 40.8922 30.4686 40.8825C30.8397 41.0585 31.4744 40.8433 31.6404 40.5401C31.8162 40.227 31.865 39.8748 31.8358 39.6205C32.0799 39.8161 32.4998 39.9237 32.7049 39.9531C33.0272 40.0118 33.4959 39.9531 33.7986 39.8748C34.1014 39.7966 34.3748 39.6694 34.6775 39.4737C34.9803 39.2683 35.3123 38.9944 35.5467 38.7204C35.7811 38.4465 35.908 38.1726 36.0057 37.9183C36.1033 37.6639 36.0936 37.615 36.1326 37.4291C36.1424 37.3704 36.2108 36.8519 36.0545 36.6367C36.074 37.1845 35.742 37.8009 35.1658 37.8106C35.244 37.7226 35.3123 37.5269 35.3807 37.2824C35.7225 36.0204 34.7361 34.9247 33.6522 34.4454C33.7791 34.5921 33.9451 34.9638 34.0233 35.2475C34.1014 35.5312 34.1209 35.6976 34.1307 35.991C34.1404 36.2943 34.1209 36.5389 34.0233 36.803C33.7791 37.478 32.9979 37.7324 32.3533 37.5172C32.1092 37.4389 31.8846 37.253 31.7674 37.0672C31.3182 36.2943 31.3279 35.8247 30.4979 35.2475C30.3807 35.1595 30.2147 35.0715 29.7068 34.8954C29.951 34.5823 30.0486 34.4062 30.1658 34.1421C30.3709 33.6529 30.3318 32.8801 29.9998 32.4692C29.8045 32.2247 29.2869 31.8236 28.7596 31.7844C29.0135 32.0192 29.0525 32.1953 29.0916 32.4105C29.1307 32.616 29.1404 32.7627 29.0916 33.0855C29.0428 33.4084 28.9061 33.6921 28.7205 33.8877C28.4666 34.1519 27.3045 34.2301 26.9139 34.3084C26.24 34.4454 25.8201 34.6704 25.4686 35.091C25.2635 35.3356 25.0389 35.6095 24.9022 36.2063C24.8338 36.5095 24.7947 36.7835 24.7752 37.2824C24.7654 37.5856 24.7654 37.9476 24.7654 38.378C24.7654 37.9476 24.7654 37.5856 24.7557 37.2824C24.7361 36.7835 24.6971 36.5095 24.6287 36.2063C24.492 35.6095 24.2576 35.3356 24.0623 35.091C23.7108 34.6704 23.2908 34.4551 22.617 34.3084C22.2361 34.2301 21.0643 34.1421 20.8104 33.8877C20.6248 33.6921 20.4881 33.4084 20.4393 33.0855C20.3904 32.7627 20.4002 32.616 20.4393 32.4105C20.4783 32.2051 20.5272 32.0192 20.7713 31.7844C20.2537 31.8236 19.7361 32.2344 19.5311 32.4692C19.1893 32.8801 19.16 33.6529 19.365 34.1421C19.4725 34.4062 19.5701 34.5725 19.824 34.8954C19.326 35.0812 19.16 35.1693 19.033 35.2475C18.2029 35.8247 18.2127 36.2943 17.7635 37.0672C17.6561 37.253 17.4315 37.4389 17.1775 37.5172C16.533 37.7324 15.7518 37.478 15.5076 36.803C15.41 36.5487 15.3904 36.2943 15.4002 35.991C15.41 35.6878 15.4295 35.5312 15.5076 35.2475C15.5857 34.9638 15.7518 34.5921 15.8787 34.4454C14.7947 34.9247 13.8084 36.0204 14.1502 37.2824C14.2186 37.5269 14.2869 37.7226 14.365 37.8106C13.7889 37.8009 13.4568 37.1845 13.4764 36.6367C13.3201 36.8519 13.3885 37.3704 13.3982 37.4291C13.4275 37.615 13.4275 37.6639 13.5252 37.9183C13.6229 38.1726 13.7498 38.4465 13.9842 38.7204C14.2186 38.9944 14.5506 39.2781 14.8533 39.4737C15.1561 39.6792 15.4295 39.8063 15.7322 39.8748C16.035 39.9531 16.494 40.0118 16.826 39.9531C17.0311 39.914 17.451 39.8161 17.6951 39.6205C17.6658 39.865 17.7147 40.227 17.8904 40.5401C18.0662 40.8531 18.6912 41.0585 19.0623 40.8825C18.701 40.8825 18.3982 40.6966 18.3006 40.3835C17.8709 39.0824 19.16 37.1454 20.3318 36.5193C21.0447 36.1378 22.0994 36.0693 22.8709 36.3237C23.0565 36.3824 23.2908 36.5878 23.3201 36.6661C22.8416 36.6661 22.3338 36.8226 21.9041 37.028C21.3279 37.3117 20.9178 37.6933 20.6736 38.2998C20.2537 39.327 20.0975 41.1857 19.4725 41.9781L19.4236 42.0466C19.1404 42.3792 18.6229 42.7021 18.2029 42.7314C17.783 42.7608 17.3436 42.6434 17.0994 42.5162C16.8553 42.389 16.7283 42.1444 16.7479 42.2618C16.7674 42.389 16.8357 42.6923 17.0408 42.9564C17.2459 43.2206 17.5779 43.4749 17.9295 43.6608C18.2811 43.8467 18.6717 43.9445 19.033 43.9347C19.4041 43.9151 19.7557 43.7782 20.0193 43.5923C20.283 43.4064 20.2537 43.4358 20.4783 43.289C20.4393 43.426 20.3611 43.964 20.3807 44.3162C20.4002 44.6782 20.5565 44.9912 20.7908 45.3043C21.0252 45.6173 22.5193 46.6445 22.783 46.9967C23.0467 47.3489 23.3787 47.7598 23.4861 48.0533C23.74 48.7674 22.8123 49.55 22.0506 49.9903Z" fill="#EA6079"/><path fill-rule="evenodd" clip-rule="evenodd" d="M6.61104 24.9266C6.90401 24.7309 7.26534 24.5352 7.5876 24.3787C7.90987 24.2222 8.12471 24.1635 8.36886 24.1341C8.613 24.1048 8.99386 24.1244 9.29659 24.3004C9.59932 24.4668 9.81417 24.682 10.0192 24.9266C9.8044 25.1711 9.59932 25.3863 9.29659 25.5527C8.98409 25.719 8.613 25.7385 8.36886 25.719C8.12471 25.6896 7.90987 25.6309 7.5876 25.4744C7.26534 25.3179 6.90401 25.132 6.61104 24.9266ZM0.00947789 22.2363C-0.127241 23.3809 0.663775 24.5744 1.83565 24.8287C2.21651 24.907 2.60713 24.907 3.06612 24.7309C4.18917 24.32 5.0876 23.2146 6.12276 22.6863C6.95284 22.2656 8.35909 22.0113 9.29659 22.0015C9.71651 22.0015 10.0974 22.07 10.4294 22.158C10.7614 22.2461 11.0544 22.383 11.2497 22.608C11.445 22.833 11.5329 23.1559 11.572 23.4102C11.6208 23.6646 11.5915 23.9287 11.5622 23.9287C11.5427 23.9776 11.3376 23.9776 11.1716 23.8994C10.9958 23.8211 10.5661 23.4689 10.2732 23.3124C9.81417 23.0678 8.97432 22.9309 8.45675 23.0385C8.12471 23.1069 7.79268 23.2635 7.363 23.508C6.93331 23.7428 6.40596 24.0657 5.99581 24.3004C5.59542 24.5352 5.31221 24.682 5.04854 24.7798C4.78487 24.8776 4.5212 24.9265 4.44307 24.9461C4.5212 24.9657 4.78487 25.0244 5.04854 25.1124C5.31221 25.2103 5.59542 25.357 5.99581 25.5918C6.3962 25.8266 6.92354 26.1396 7.363 26.3842C7.79268 26.619 8.12471 26.7853 8.45675 26.8538C8.97432 26.9614 9.81417 26.8244 10.2732 26.5798C10.5661 26.4233 10.9958 26.0711 11.1716 25.9929C11.3474 25.9146 11.5427 25.9146 11.5622 25.9635C11.5817 25.9733 11.611 26.2374 11.572 26.482C11.5232 26.7364 11.445 27.0592 11.2497 27.2842C11.0544 27.5092 10.7614 27.6364 10.4294 27.7342C10.0974 27.8223 9.71651 27.9005 9.29659 27.8907C8.35909 27.881 6.94307 27.6266 6.12276 27.2059C5.0876 26.6777 4.18917 25.5722 3.06612 25.1613C2.60713 24.995 2.21651 24.9852 1.83565 25.0635C0.663775 25.3179 -0.127241 26.5211 0.00947789 27.656C0.448931 26.8929 1.23018 25.9635 1.94307 26.2374C2.23604 26.3451 2.6462 26.6875 2.99776 26.9418C3.34932 27.2059 4.37471 28.7027 4.68721 28.9375C4.99971 29.1723 5.32198 29.3288 5.67354 29.3484C6.03487 29.3679 6.56221 29.2897 6.69893 29.2506C6.55245 29.4756 6.58175 29.4462 6.3962 29.7103C6.21065 29.9745 6.07393 30.3364 6.0544 30.6984C6.03487 31.0702 6.14229 31.4517 6.32784 31.8039C6.51339 32.1561 6.76729 32.4887 7.03096 32.6941C7.29464 32.8995 7.59737 32.968 7.72432 32.9876C7.85128 33.0072 7.60714 32.88 7.47042 32.6354C7.34346 32.3908 7.22628 31.9506 7.25557 31.5299C7.28487 31.1093 7.60714 30.5908 7.93917 30.3071L8.00753 30.2582C8.79854 29.6321 10.654 29.4756 11.6794 29.0549C12.2751 28.8103 12.656 28.3994 12.9489 27.8223C13.1638 27.3918 13.3103 26.8831 13.3103 26.4038C13.3884 26.4429 13.5837 26.6679 13.6521 26.8538C13.906 27.6266 13.8376 28.6832 13.4567 29.3973C12.8317 30.5712 10.8982 31.8626 9.59933 31.4321C9.28682 31.3245 9.09151 31.0212 9.10128 30.6691C8.9255 31.0408 9.14034 31.6767 9.44307 31.843C9.75557 32.0191 10.1071 32.068 10.361 32.0387C10.1657 32.2832 10.0583 32.7039 10.029 32.9093C9.97042 33.2322 10.029 33.7017 10.1071 34.005C10.1853 34.3083 10.3122 34.5822 10.5075 34.8855C10.7126 35.1887 10.986 35.5213 11.2595 35.7561C11.5329 35.9909 11.8064 36.1181 12.0603 36.2159C12.3142 36.3137 12.363 36.304 12.5485 36.3431C12.6071 36.3529 13.1247 36.4214 13.3396 36.2648C12.7927 36.2844 12.1775 35.9518 12.1677 35.3746C12.2556 35.4529 12.4509 35.5213 12.695 35.5898C13.9548 35.9322 15.0485 34.9442 15.5271 33.8583C15.3806 33.9854 15.0095 34.1517 14.7263 34.23C14.4431 34.3083 14.2771 34.3278 13.9841 34.3376C13.6814 34.3474 13.4372 34.3278 13.1735 34.23C12.4997 33.9854 12.2458 33.2028 12.4607 32.5571C12.5388 32.3126 12.7243 32.0876 12.9099 31.9702C13.6814 31.5202 14.1501 31.5299 14.7263 30.6984C14.8142 30.581 14.9021 30.4147 15.0778 29.906C15.3903 30.1506 15.5661 30.2484 15.8298 30.3658C16.3181 30.5712 17.0896 30.5321 17.4997 30.1995C17.7439 30.0038 18.1442 29.4853 18.1833 28.9571C17.9489 29.2114 17.7732 29.2506 17.5583 29.2897C17.3532 29.3288 17.2067 29.3386 16.8845 29.2897C16.5622 29.2408 16.279 29.1038 16.0837 28.9179C15.82 28.6636 15.7419 27.4994 15.6638 27.1081C15.5271 26.4331 15.3025 26.0124 14.8825 25.6603C14.6384 25.4548 14.365 25.2298 13.7692 25.0929C13.4665 25.0244 13.1931 24.9852 12.695 24.9657C12.3923 24.9559 12.031 24.9559 11.6013 24.9559C12.031 24.9559 12.3923 24.9559 12.695 24.9461C13.1931 24.9265 13.4665 24.8874 13.7692 24.8189C14.365 24.682 14.6384 24.4472 14.8825 24.2515C15.3025 23.8994 15.5173 23.4787 15.6638 22.8037C15.7419 22.4221 15.8298 21.2482 16.0837 20.9939C16.279 20.808 16.5622 20.671 16.8845 20.6221C17.2067 20.5732 17.3532 20.583 17.5583 20.6221C17.7634 20.6612 17.9489 20.7102 18.1833 20.9547C18.1345 20.4362 17.7341 19.9177 17.4997 19.7123C17.0896 19.3699 16.3181 19.3406 15.8298 19.546C15.5661 19.6536 15.4001 19.7514 15.0778 20.0058C14.8923 19.5069 14.8044 19.3406 14.7263 19.2134C14.1501 18.3818 13.6814 18.3916 12.9099 17.9416C12.7243 17.834 12.5388 17.609 12.4607 17.3546C12.2458 16.709 12.5095 15.9264 13.1735 15.6818C13.4275 15.584 13.6814 15.5644 13.9841 15.5742C14.2868 15.584 14.4431 15.6035 14.7263 15.6818C15.0095 15.7601 15.3806 15.9264 15.5271 16.0535C15.0485 14.9676 13.9548 13.9796 12.695 14.322C12.4509 14.3905 12.2556 14.4589 12.1677 14.5372C12.1775 13.96 12.7927 13.6274 13.3396 13.647C13.1247 13.4904 12.6071 13.5589 12.5485 13.5687C12.363 13.598 12.3142 13.598 12.0603 13.6959C11.8064 13.7937 11.5329 13.9209 11.2595 14.1557C10.986 14.3905 10.7028 14.7231 10.5075 15.0263C10.3024 15.3296 10.1755 15.6035 10.1071 15.9068C10.029 16.2101 9.97042 16.6699 10.029 17.0025C10.0681 17.2079 10.1657 17.6286 10.361 17.8731C10.1169 17.8438 9.75557 17.8927 9.44307 18.0688C9.13057 18.2449 8.9255 18.871 9.10128 19.2427C9.10128 18.8808 9.28682 18.5775 9.59933 18.4797C10.8982 18.0492 12.8317 19.3406 13.4567 20.5145C13.8376 21.2286 13.906 22.2852 13.6521 23.058C13.5935 23.2439 13.3884 23.4787 13.3103 23.508C13.3103 23.0287 13.154 22.52 12.9489 22.0895C12.6657 21.5123 12.2849 21.1015 11.6794 20.8569C10.654 20.4362 8.79854 20.2797 8.00753 19.6536L7.93917 19.6047C7.60714 19.321 7.28487 18.8025 7.25557 18.3818C7.22628 17.9612 7.34346 17.521 7.47042 17.2764C7.59737 17.0318 7.84151 16.9046 7.72432 16.9242C7.59737 16.9438 7.29464 17.0123 7.03096 17.2177C6.76729 17.4231 6.51339 17.7557 6.32784 18.1079C6.14229 18.4601 6.04464 18.8514 6.0544 19.2134C6.07393 19.5851 6.21065 19.9373 6.3962 20.2014C6.58175 20.4656 6.55245 20.4362 6.69893 20.6612C6.56221 20.6221 6.0251 20.5438 5.67354 20.5634C5.31221 20.583 4.99971 20.7395 4.68721 20.9743C4.37471 21.2091 3.34932 22.7059 2.99776 22.97C2.6462 23.2341 2.23604 23.5667 1.94307 23.6743C1.23995 23.9287 0.448931 22.9993 0.00947789 22.2363Z" fill="#EA6079"/><path fill-rule="evenodd" clip-rule="evenodd" d="M31.3965 18.4015C32.1582 17.8928 32.959 17.6874 33.8867 18.4015C34.1992 17.9026 33.9746 16.9732 33.3887 16.4058C32.8223 15.8189 31.8945 15.5939 31.3965 15.9069C32.1094 16.8363 31.9043 17.6385 31.3965 18.4015Z" fill="#EA6079"/><path fill-rule="evenodd" clip-rule="evenodd" d="M18.3593 31.168C17.5976 31.6767 16.7968 31.8821 15.8691 31.168C15.5566 31.6669 15.7812 32.5963 16.3671 33.1637C16.9335 33.7506 17.8612 33.9756 18.3593 33.6626C17.6366 32.7332 17.8515 31.931 18.3593 31.168Z" fill="#EA6079"/><path fill-rule="evenodd" clip-rule="evenodd" d="M31.3965 31.168C32.1582 31.6767 32.959 31.8821 33.8867 31.168C34.1992 31.6669 33.9746 32.5963 33.3887 33.1637C32.8223 33.7506 31.8945 33.9756 31.3965 33.6626C32.1094 32.7332 31.9043 31.931 31.3965 31.168Z" fill="#EA6079"/><path d="M29.3555 21.9918H28.7012C28.4277 20.7885 28.125 19.9374 27.8125 19.4385C27.2949 18.6265 26.5332 18.2156 25.5273 18.2156C24.873 18.2156 24.3457 18.4308 23.9258 18.8613C23.5156 19.2917 23.3105 19.8298 23.3105 20.4852C23.3105 21.444 23.9258 22.3048 25.1562 23.0777C26.2988 23.7429 27.4512 24.4081 28.6133 25.0636C29.8437 25.9636 30.459 27.0495 30.459 28.3311C30.459 29.7887 29.8437 30.9137 28.6133 31.7355C27.5586 32.4301 26.2402 32.7822 24.6777 32.7822C23.1738 32.7822 21.6992 32.4105 20.2637 31.667L19.541 27.3528L20.2148 27.2256C20.6348 28.4778 21.2109 29.4952 21.9531 30.2974C22.8711 31.2855 23.9062 31.7746 25.0879 31.7746C25.8105 31.7746 26.416 31.5594 26.8848 31.1289C27.3535 30.6985 27.5879 30.1311 27.5879 29.417C27.5879 28.4191 26.9727 27.5289 25.7422 26.756C24.5801 26.1201 23.4277 25.4745 22.2852 24.819C21.0547 23.9581 20.4395 22.9309 20.4395 21.7277C20.4395 20.3483 21.0059 19.233 22.1387 18.3917C23.1836 17.6091 24.4238 17.2178 25.8594 17.2178C27.207 17.2178 28.4375 17.5406 29.5605 18.1961L29.3555 21.9918Z" fill="#EA6079"/></g><defs><clipPath id="clip0"><rect width="50" height="50" fill="white"/></clipPath></defs></svg>