<?xml version="1.0" encoding="utf-8"?>
<!-- Generator: Adobe Illustrator 22.1.0, SVG Export Plug-In . SVG Version: 6.00 Build 0)  -->
<svg version="1.1" id="Слой_1" xmlns="http://www.w3.org/2000/svg" xmlns:xlink="http://www.w3.org/1999/xlink" x="0px" y="0px"
	 viewBox="0 0 50 50" style="enable-background:new 0 0 50 50;" xml:space="preserve">
<style type="text/css">
	.st0{clip-path:url(#SVGID_2_);}
	.st1{fill:#EA6079;}
	.st2{display:none;fill:#EA6079;}
</style>
<g>
	<defs>
		<rect id="SVGID_1_" width="50" height="50"/>
	</defs>
	<clipPath id="SVGID_2_">
		<use xlink:href="#SVGID_1_"  style="overflow:visible;"/>
	</clipPath>
	<g class="st0">
		<path class="st1" d="M18.4,18.4c-0.8-0.5-1.6-0.7-2.5,0c-0.3-0.5-0.1-1.4,0.5-2c0.6-0.6,1.5-0.8,2-0.5
			C17.6,16.8,17.9,17.6,18.4,18.4z"/>
		<path class="st1" d="M25,6.6c0.2,0.3,0.4,0.7,0.5,1c0.2,0.3,0.2,0.5,0.2,0.8c0,0.2,0,0.6-0.2,0.9C25.4,9.6,25.2,9.8,25,10
			c-0.2-0.2-0.5-0.4-0.6-0.7c-0.2-0.3-0.2-0.7-0.2-0.9c0-0.2,0.1-0.5,0.2-0.8C24.6,7.3,24.7,6.9,25,6.6z M27.6,0
			c-1.1-0.1-2.3,0.7-2.6,1.8C25,2.2,25,2.6,25.1,3.1c0.4,1.1,1.5,2,2,3.1c0.4,0.8,0.7,2.2,0.7,3.2c0,0.4-0.1,0.8-0.2,1.1
			c-0.1,0.3-0.2,0.6-0.4,0.8c-0.2,0.2-0.5,0.3-0.8,0.3c-0.3,0-0.5,0-0.5,0c0,0,0-0.2,0-0.4c0.1-0.2,0.4-0.6,0.6-0.9
			c0.2-0.5,0.4-1.3,0.3-1.8c-0.1-0.3-0.2-0.7-0.5-1.1c-0.2-0.4-0.6-1-0.8-1.4c-0.2-0.4-0.4-0.7-0.5-0.9C25,4.8,25,4.5,24.9,4.5
			c0,0.1-0.1,0.3-0.2,0.6c-0.1,0.3-0.2,0.5-0.5,0.9c-0.2,0.4-0.5,0.9-0.8,1.4c-0.2,0.4-0.4,0.8-0.5,1.1c-0.1,0.5,0,1.4,0.3,1.8
			c0.2,0.3,0.5,0.7,0.6,0.9c0.1,0.2,0.1,0.4,0,0.4c0,0-0.3,0-0.5,0c-0.3,0-0.6-0.1-0.8-0.3c-0.2-0.2-0.4-0.5-0.4-0.8
			C22.1,10.1,22,9.7,22,9.3c0-0.9,0.3-2.4,0.7-3.2c0.5-1,1.6-1.9,2-3.1c0.2-0.5,0.2-0.9,0.1-1.2c-0.3-1.2-1.5-2-2.6-1.8
			c0.8,0.4,1.7,1.2,1.4,1.9c-0.1,0.3-0.4,0.7-0.7,1.1c-0.3,0.4-1.8,1.4-2,1.7c-0.2,0.3-0.4,0.6-0.4,1c0,0.4,0.1,0.9,0.1,1
			c-0.2-0.1-0.2-0.1-0.5-0.3c-0.3-0.2-0.6-0.3-1-0.3c-0.4,0-0.8,0.1-1.1,0.3c-0.4,0.2-0.7,0.4-0.9,0.7c-0.2,0.3-0.3,0.6-0.3,0.7
			c0,0.1,0.1-0.1,0.4-0.3c0.2-0.1,0.7-0.2,1.1-0.2c0.4,0,0.9,0.4,1.2,0.7l0,0.1c0.6,0.8,0.8,2.7,1.2,3.7c0.2,0.6,0.7,1,1.2,1.3
			c0.4,0.2,0.9,0.4,1.4,0.4c0,0.1-0.3,0.3-0.4,0.3c-0.8,0.3-1.8,0.2-2.5-0.2c-1.2-0.6-2.5-2.6-2-3.9c0.1-0.3,0.4-0.5,0.8-0.5
			c-0.4-0.2-1,0-1.2,0.3c-0.2,0.3-0.2,0.7-0.2,0.9c-0.2-0.2-0.7-0.3-0.9-0.3c-0.3-0.1-0.8,0-1.1,0.1c-0.3,0.1-0.6,0.2-0.9,0.4
			c-0.3,0.2-0.6,0.5-0.9,0.8c-0.2,0.3-0.4,0.5-0.5,0.8c-0.1,0.3-0.1,0.3-0.1,0.5c0,0.1-0.1,0.6,0.1,0.8c0-0.5,0.3-1.2,0.9-1.2
			c-0.1,0.1-0.1,0.3-0.2,0.5C14,14,15,15.1,16,15.6c-0.1-0.1-0.3-0.5-0.4-0.8c-0.1-0.3-0.1-0.4-0.1-0.7c0-0.3,0-0.5,0.1-0.8
			c0.2-0.7,1-0.9,1.7-0.7c0.2,0.1,0.5,0.3,0.6,0.4c0.4,0.8,0.4,1.2,1.3,1.8c0.1,0.1,0.3,0.2,0.8,0.4c-0.2,0.3-0.3,0.5-0.5,0.8
			c-0.2,0.5-0.2,1.3,0.2,1.7c0.2,0.2,0.7,0.6,1.2,0.7c-0.3-0.2-0.3-0.4-0.3-0.6c0-0.2,0-0.4,0-0.7c0-0.3,0.2-0.6,0.4-0.8
			c0.3-0.3,1.4-0.3,1.8-0.4c0.7-0.1,1.1-0.4,1.4-0.8c0.2-0.2,0.4-0.5,0.6-1.1c0.1-0.3,0.1-0.6,0.1-1.1c0-0.3,0-0.7,0-1.1
			c0,0.4,0,0.8,0,1.1c0,0.5,0.1,0.8,0.1,1.1c0.1,0.6,0.4,0.9,0.6,1.1c0.4,0.4,0.8,0.6,1.4,0.8c0.4,0.1,1.6,0.2,1.8,0.4
			c0.2,0.2,0.3,0.5,0.4,0.8c0,0.3,0,0.5,0,0.7c0,0.2-0.1,0.4-0.3,0.6c0.5,0,1-0.4,1.2-0.7c0.3-0.4,0.4-1.2,0.2-1.7
			c-0.1-0.3-0.2-0.4-0.5-0.8c0.5-0.2,0.7-0.3,0.8-0.4c0.8-0.6,0.8-1,1.3-1.8c0.1-0.2,0.3-0.4,0.6-0.4c0.6-0.2,1.4,0,1.7,0.7
			c0.1,0.3,0.1,0.5,0.1,0.8c0,0.3,0,0.5-0.1,0.7c-0.1,0.3-0.2,0.7-0.4,0.8c1.1-0.5,2.1-1.6,1.7-2.8c-0.1-0.2-0.1-0.4-0.2-0.5
			c0.6,0,0.9,0.6,0.9,1.2c0.2-0.2,0.1-0.7,0.1-0.8c0-0.2,0-0.2-0.1-0.5c-0.1-0.3-0.2-0.5-0.5-0.8s-0.6-0.6-0.9-0.8
			c-0.3-0.2-0.6-0.3-0.9-0.4C33.7,10,33.2,10,32.9,10c-0.2,0-0.6,0.1-0.9,0.3c0-0.2,0-0.6-0.2-0.9S31,8.9,30.6,9.1
			c0.4,0,0.7,0.2,0.8,0.5c0.4,1.3-0.9,3.2-2,3.9c-0.7,0.4-1.8,0.4-2.5,0.2c-0.2-0.1-0.4-0.3-0.4-0.3c0.5,0,1-0.2,1.4-0.4
			c0.6-0.3,1-0.7,1.2-1.3c0.4-1,0.6-2.9,1.2-3.7l0-0.1c0.3-0.3,0.8-0.7,1.2-0.7c0.4,0,0.9,0.1,1.1,0.2c0.2,0.1,0.4,0.4,0.4,0.3
			c0-0.1-0.1-0.4-0.3-0.7c-0.2-0.3-0.5-0.5-0.9-0.7c-0.4-0.2-0.7-0.3-1.1-0.3c-0.4,0-0.7,0.2-1,0.3c-0.3,0.2-0.2,0.2-0.5,0.3
			c0-0.1,0.1-0.7,0.1-1c0-0.4-0.2-0.7-0.4-1c-0.2-0.3-1.7-1.3-2-1.7s-0.6-0.8-0.7-1.1C26,1.2,26.9,0.4,27.6,0z"/>
		<path class="st1" d="M43.4,24.9c-0.3,0.2-0.7,0.4-1,0.5s-0.5,0.2-0.8,0.2c-0.2,0-0.6,0-0.9-0.2c-0.3-0.2-0.5-0.4-0.7-0.6
			c0.2-0.2,0.4-0.5,0.7-0.6c0.3-0.2,0.7-0.2,0.9-0.2c0.2,0,0.5,0.1,0.8,0.2C42.7,24.5,43.1,24.7,43.4,24.9z M50,27.6
			c0.1-1.1-0.7-2.3-1.8-2.6c-0.4-0.1-0.8-0.1-1.2,0.1c-1.1,0.4-2,1.5-3.1,2c-0.8,0.4-2.2,0.7-3.2,0.7c-0.4,0-0.8-0.1-1.1-0.2
			s-0.6-0.2-0.8-0.5c-0.2-0.2-0.3-0.5-0.3-0.8c0-0.3,0-0.5,0-0.5c0,0,0.2,0,0.4,0c0.2,0.1,0.6,0.4,0.9,0.6c0.5,0.2,1.3,0.4,1.8,0.3
			c0.3-0.1,0.7-0.2,1.1-0.5c0.4-0.2,1-0.6,1.4-0.8c0.4-0.2,0.7-0.4,0.9-0.5c0.3-0.1,0.5-0.1,0.6-0.2c-0.1,0-0.3-0.1-0.6-0.2
			c-0.3-0.1-0.5-0.2-0.9-0.5c-0.4-0.2-0.9-0.5-1.4-0.8c-0.4-0.2-0.8-0.4-1.1-0.5c-0.5-0.1-1.4,0-1.8,0.3c-0.3,0.2-0.7,0.5-0.9,0.6
			c-0.2,0.1-0.4,0.1-0.4,0c0,0,0-0.3,0-0.5c0-0.3,0.1-0.6,0.3-0.8s0.5-0.4,0.8-0.5c0.3-0.1,0.7-0.2,1.1-0.2c0.9,0,2.4,0.3,3.2,0.7
			c1,0.5,1.9,1.6,3.1,2c0.5,0.2,0.8,0.2,1.2,0.1c1.2-0.3,2-1.5,1.8-2.6c-0.4,0.8-1.2,1.7-1.9,1.4c-0.3-0.1-0.7-0.5-1.1-0.7
			c-0.4-0.3-1.4-1.8-1.7-2c-0.3-0.2-0.6-0.4-1-0.4c-0.4,0-0.9,0.1-1,0.1c0.1-0.2,0.1-0.2,0.3-0.5c0.2-0.3,0.3-0.6,0.3-1
			c0-0.4-0.1-0.8-0.3-1.1c-0.2-0.4-0.4-0.7-0.7-0.9c-0.3-0.2-0.6-0.3-0.7-0.3c-0.1,0,0.1,0.1,0.3,0.4c0.1,0.2,0.2,0.7,0.2,1.1
			c0,0.4-0.4,0.9-0.7,1.2l-0.1,0c-0.8,0.6-2.6,0.8-3.7,1.2c-0.6,0.2-1,0.7-1.3,1.2c-0.2,0.4-0.4,0.9-0.4,1.4c-0.1,0-0.3-0.3-0.3-0.5
			c-0.3-0.8-0.2-1.8,0.2-2.5c0.6-1.2,2.6-2.5,3.9-2c0.3,0.1,0.5,0.4,0.5,0.8c0.2-0.4,0-1-0.3-1.2c-0.3-0.2-0.7-0.2-0.9-0.2
			c0.2-0.2,0.3-0.7,0.3-0.9c0.1-0.3,0-0.8-0.1-1.1c-0.1-0.3-0.2-0.6-0.4-0.9c-0.2-0.3-0.5-0.6-0.8-0.9c-0.3-0.2-0.5-0.4-0.8-0.5
			c-0.3-0.1-0.3-0.1-0.5-0.1c-0.1,0-0.6-0.1-0.8,0.1c0.5,0,1.2,0.3,1.2,0.9c-0.1-0.1-0.3-0.1-0.5-0.2C36,13.9,35,14.9,34.5,16
			c0.1-0.1,0.5-0.3,0.8-0.4c0.3-0.1,0.4-0.1,0.7-0.1c0.3,0,0.5,0,0.8,0.1c0.7,0.2,0.9,1,0.7,1.7c-0.1,0.2-0.3,0.5-0.4,0.6
			c-0.8,0.5-1.2,0.4-1.8,1.3c-0.1,0.1-0.2,0.3-0.4,0.8c-0.3-0.2-0.5-0.3-0.8-0.5c-0.5-0.2-1.3-0.2-1.7,0.2c-0.2,0.2-0.6,0.7-0.7,1.2
			c0.2-0.3,0.4-0.3,0.6-0.3c0.2,0,0.4,0,0.7,0c0.3,0,0.6,0.2,0.8,0.4c0.3,0.3,0.3,1.4,0.4,1.8c0.1,0.7,0.4,1.1,0.8,1.4
			c0.2,0.2,0.5,0.4,1.1,0.6c0.3,0.1,0.6,0.1,1.1,0.1c0.3,0,0.7,0,1.1,0c-0.4,0-0.8,0-1.1,0c-0.5,0-0.8,0.1-1.1,0.1
			c-0.6,0.1-0.9,0.4-1.1,0.6c-0.4,0.4-0.6,0.8-0.8,1.4c-0.1,0.4-0.2,1.6-0.4,1.8c-0.2,0.2-0.5,0.3-0.8,0.4c-0.3,0-0.5,0-0.7,0
			c-0.2,0-0.4-0.1-0.6-0.3c0,0.5,0.4,1,0.7,1.2c0.4,0.3,1.2,0.4,1.7,0.2c0.3-0.1,0.4-0.2,0.8-0.5c0.2,0.5,0.3,0.7,0.4,0.8
			c0.6,0.8,1,0.8,1.8,1.3c0.2,0.1,0.4,0.3,0.4,0.6c0.2,0.6,0,1.4-0.7,1.7c-0.3,0.1-0.5,0.1-0.8,0.1c-0.3,0-0.5,0-0.7-0.1
			c-0.3-0.1-0.7-0.2-0.8-0.4c0.5,1.1,1.6,2.1,2.8,1.7c0.2-0.1,0.4-0.1,0.5-0.2c0,0.6-0.6,0.9-1.2,0.9c0.2,0.2,0.7,0.1,0.8,0.1
			c0.2,0,0.2,0,0.5-0.1c0.3-0.1,0.5-0.2,0.8-0.5c0.3-0.2,0.6-0.6,0.8-0.9c0.2-0.3,0.3-0.6,0.4-0.9c0.1-0.3,0.1-0.8,0.1-1.1
			c0-0.2-0.1-0.6-0.3-0.9c0.2,0,0.6,0,0.9-0.2c0.3-0.2,0.5-0.8,0.3-1.2c0,0.4-0.2,0.7-0.5,0.8c-1.3,0.4-3.2-0.9-3.9-2
			c-0.4-0.7-0.4-1.8-0.2-2.5c0.1-0.2,0.3-0.4,0.3-0.5c0,0.5,0.2,1,0.4,1.4c0.3,0.6,0.7,1,1.3,1.2c1,0.4,2.9,0.6,3.7,1.2l0.1,0
			c0.3,0.3,0.7,0.8,0.7,1.2c0,0.4-0.1,0.9-0.2,1.1c-0.1,0.2-0.4,0.4-0.3,0.4c0.1,0,0.4-0.1,0.7-0.3c0.3-0.2,0.5-0.5,0.7-0.9
			c0.2-0.4,0.3-0.7,0.3-1.1c0-0.4-0.2-0.7-0.3-1c-0.2-0.3-0.2-0.2-0.3-0.5c0.1,0,0.7,0.1,1,0.1c0.4,0,0.7-0.2,1-0.4s1.3-1.7,1.7-2
			c0.4-0.3,0.8-0.6,1.1-0.7C48.8,25.9,49.6,26.9,50,27.6z"/>
		<path class="st1" d="M24.7,43.4c-0.2-0.3-0.4-0.7-0.5-1C24,42.1,24,41.9,24,41.6c0-0.2,0-0.6,0.2-0.9c0.2-0.3,0.4-0.5,0.6-0.7
			c0.2,0.2,0.5,0.4,0.6,0.7c0.2,0.3,0.2,0.7,0.2,0.9c0,0.2-0.1,0.5-0.2,0.8C25.1,42.7,24.9,43.1,24.7,43.4z M22.1,50
			c1.1,0.1,2.3-0.7,2.6-1.8c0.1-0.4,0.1-0.8-0.1-1.2c-0.4-1.1-1.5-2-2-3.1c-0.4-0.8-0.7-2.2-0.7-3.2c0-0.4,0.1-0.8,0.2-1.1
			c0.1-0.3,0.2-0.6,0.4-0.8c0.2-0.2,0.5-0.3,0.8-0.3c0.3,0,0.5,0,0.5,0c0,0,0,0.2,0,0.4c-0.1,0.2-0.4,0.6-0.6,0.9
			c-0.2,0.5-0.4,1.3-0.3,1.8c0.1,0.3,0.2,0.7,0.5,1.1c0.2,0.4,0.6,1,0.8,1.4c0.2,0.4,0.4,0.7,0.5,0.9c0.1,0.3,0.1,0.5,0.2,0.6
			c0-0.1,0.1-0.3,0.2-0.6c0.1-0.3,0.2-0.5,0.5-0.9s0.5-0.9,0.8-1.4c0.2-0.4,0.4-0.8,0.5-1.1c0.1-0.5,0-1.4-0.3-1.8
			c-0.2-0.3-0.5-0.7-0.6-0.9c-0.1-0.2-0.1-0.4,0-0.4c0,0,0.3,0,0.5,0c0.3,0,0.6,0.1,0.8,0.3c0.2,0.2,0.4,0.5,0.4,0.8
			c0.1,0.3,0.2,0.7,0.2,1.1c0,0.9-0.3,2.4-0.7,3.2c-0.5,1-1.6,1.9-2,3.1c-0.2,0.5-0.2,0.9-0.1,1.2c0.3,1.2,1.5,2,2.6,1.8
			c-0.8-0.4-1.7-1.2-1.4-1.9c0.1-0.3,0.4-0.7,0.7-1.1c0.3-0.4,1.8-1.4,2-1.7c0.2-0.3,0.4-0.6,0.4-1c0-0.4-0.1-0.9-0.1-1
			c0.2,0.1,0.2,0.1,0.5,0.3c0.3,0.2,0.6,0.3,1,0.3c0.4,0,0.8-0.1,1.1-0.3c0.4-0.2,0.7-0.4,0.9-0.7c0.2-0.3,0.3-0.6,0.3-0.7
			c0-0.1-0.1,0.1-0.4,0.3c-0.2,0.1-0.7,0.2-1.1,0.2c-0.4,0-0.9-0.4-1.2-0.7l0-0.1c-0.6-0.8-0.8-2.7-1.2-3.7c-0.2-0.6-0.7-1-1.2-1.3
			c-0.4-0.2-0.9-0.4-1.4-0.4c0-0.1,0.3-0.3,0.4-0.3c0.8-0.3,1.8-0.2,2.5,0.2c1.2,0.6,2.5,2.6,2,3.9c-0.1,0.3-0.4,0.5-0.8,0.5
			c0.4,0.2,1,0,1.2-0.3c0.2-0.3,0.2-0.7,0.2-0.9c0.2,0.2,0.7,0.3,0.9,0.3c0.3,0.1,0.8,0,1.1-0.1c0.3-0.1,0.6-0.2,0.9-0.4
			c0.3-0.2,0.6-0.5,0.9-0.8c0.2-0.3,0.4-0.5,0.5-0.8c0.1-0.3,0.1-0.3,0.1-0.5c0-0.1,0.1-0.6-0.1-0.8c0,0.5-0.3,1.2-0.9,1.2
			c0.1-0.1,0.1-0.3,0.2-0.5c0.3-1.3-0.6-2.4-1.7-2.8c0.1,0.1,0.3,0.5,0.4,0.8c0.1,0.3,0.1,0.5,0.1,0.7c0,0.3,0,0.5-0.1,0.8
			c-0.2,0.7-1,0.9-1.7,0.7c-0.2-0.1-0.5-0.3-0.6-0.5c-0.4-0.8-0.4-1.2-1.3-1.8c-0.1-0.1-0.3-0.2-0.8-0.4c0.2-0.3,0.3-0.5,0.5-0.8
			c0.2-0.5,0.2-1.3-0.2-1.7c-0.2-0.2-0.7-0.6-1.2-0.7c0.3,0.2,0.3,0.4,0.3,0.6c0,0.2,0,0.4,0,0.7c0,0.3-0.2,0.6-0.4,0.8
			c-0.3,0.3-1.4,0.3-1.8,0.4c-0.7,0.1-1.1,0.4-1.4,0.8c-0.2,0.2-0.4,0.5-0.6,1.1c-0.1,0.3-0.1,0.6-0.1,1.1c0,0.3,0,0.7,0,1.1
			c0-0.4,0-0.8,0-1.1c0-0.5-0.1-0.8-0.1-1.1c-0.1-0.6-0.4-0.9-0.6-1.1c-0.4-0.4-0.8-0.6-1.4-0.8c-0.4-0.1-1.6-0.2-1.8-0.4
			c-0.2-0.2-0.3-0.5-0.4-0.8c0-0.3,0-0.5,0-0.7c0-0.2,0.1-0.4,0.3-0.6c-0.5,0-1,0.5-1.2,0.7c-0.3,0.4-0.4,1.2-0.2,1.7
			c0.1,0.3,0.2,0.4,0.5,0.8c-0.5,0.2-0.7,0.3-0.8,0.4c-0.8,0.6-0.8,1-1.3,1.8c-0.1,0.2-0.3,0.4-0.6,0.5c-0.6,0.2-1.4,0-1.7-0.7
			c-0.1-0.3-0.1-0.5-0.1-0.8c0-0.3,0-0.5,0.1-0.7c0.1-0.3,0.2-0.7,0.4-0.8c-1.1,0.5-2.1,1.6-1.7,2.8c0.1,0.2,0.1,0.4,0.2,0.5
			c-0.6,0-0.9-0.6-0.9-1.2c-0.2,0.2-0.1,0.7-0.1,0.8c0,0.2,0,0.2,0.1,0.5c0.1,0.3,0.2,0.5,0.5,0.8c0.2,0.3,0.6,0.6,0.9,0.8
			c0.3,0.2,0.6,0.3,0.9,0.4C16,40,16.5,40,16.8,40c0.2,0,0.6-0.1,0.9-0.3c0,0.2,0,0.6,0.2,0.9c0.2,0.3,0.8,0.5,1.2,0.3
			c-0.4,0-0.7-0.2-0.8-0.5c-0.4-1.3,0.9-3.2,2-3.9c0.7-0.4,1.8-0.4,2.5-0.2c0.2,0.1,0.4,0.3,0.4,0.3c-0.5,0-1,0.2-1.4,0.4
			c-0.6,0.3-1,0.7-1.2,1.3c-0.4,1-0.6,2.9-1.2,3.7l0,0.1c-0.3,0.3-0.8,0.7-1.2,0.7c-0.4,0-0.9-0.1-1.1-0.2c-0.2-0.1-0.4-0.4-0.4-0.3
			c0,0.1,0.1,0.4,0.3,0.7c0.2,0.3,0.5,0.5,0.9,0.7c0.4,0.2,0.7,0.3,1.1,0.3c0.4,0,0.7-0.2,1-0.3c0.3-0.2,0.2-0.2,0.5-0.3
			c0,0.1-0.1,0.7-0.1,1c0,0.4,0.2,0.7,0.4,1c0.2,0.3,1.7,1.3,2,1.7c0.3,0.4,0.6,0.8,0.7,1.1C23.7,48.8,22.8,49.5,22.1,50z"/>
		<path class="st1" d="M6.6,24.9c0.3-0.2,0.7-0.4,1-0.5c0.3-0.2,0.5-0.2,0.8-0.2c0.2,0,0.6,0,0.9,0.2c0.3,0.2,0.5,0.4,0.7,0.6
			c-0.2,0.2-0.4,0.5-0.7,0.6c-0.3,0.2-0.7,0.2-0.9,0.2c-0.2,0-0.5-0.1-0.8-0.2C7.3,25.3,6.9,25.1,6.6,24.9z M0,22.2
			c-0.1,1.1,0.7,2.3,1.8,2.6c0.4,0.1,0.8,0.1,1.2-0.1c1.1-0.4,2-1.5,3.1-2C7,22.3,8.4,22,9.3,22c0.4,0,0.8,0.1,1.1,0.2
			c0.3,0.1,0.6,0.2,0.8,0.4c0.2,0.2,0.3,0.5,0.3,0.8c0,0.3,0,0.5,0,0.5c0,0-0.2,0-0.4,0c-0.2-0.1-0.6-0.4-0.9-0.6
			C9.8,23.1,9,22.9,8.5,23c-0.3,0.1-0.7,0.2-1.1,0.5c-0.4,0.2-1,0.6-1.4,0.8c-0.4,0.2-0.7,0.4-0.9,0.5c-0.3,0.1-0.5,0.1-0.6,0.2
			C4.5,25,4.8,25,5,25.1c0.3,0.1,0.5,0.2,0.9,0.5c0.4,0.2,0.9,0.5,1.4,0.8c0.4,0.2,0.8,0.4,1.1,0.5c0.5,0.1,1.4,0,1.8-0.3
			c0.3-0.2,0.7-0.5,0.9-0.6c0.2-0.1,0.4-0.1,0.4,0c0,0,0,0.3,0,0.5c0,0.3-0.1,0.6-0.3,0.8c-0.2,0.2-0.5,0.4-0.8,0.4
			c-0.3,0.1-0.7,0.2-1.1,0.2c-0.9,0-2.4-0.3-3.2-0.7c-1-0.5-1.9-1.6-3.1-2C2.6,25,2.2,25,1.8,25.1c-1.2,0.3-2,1.5-1.8,2.6
			c0.4-0.8,1.2-1.7,1.9-1.4c0.3,0.1,0.7,0.5,1.1,0.7c0.4,0.3,1.4,1.8,1.7,2s0.6,0.4,1,0.4c0.4,0,0.9-0.1,1-0.1
			c-0.1,0.2-0.1,0.2-0.3,0.5c-0.2,0.3-0.3,0.6-0.3,1c0,0.4,0.1,0.8,0.3,1.1c0.2,0.4,0.4,0.7,0.7,0.9C7.3,32.9,7.6,33,7.7,33
			c0.1,0-0.1-0.1-0.3-0.4c-0.1-0.2-0.2-0.7-0.2-1.1c0-0.4,0.4-0.9,0.7-1.2l0.1,0c0.8-0.6,2.6-0.8,3.7-1.2c0.6-0.2,1-0.7,1.3-1.2
			c0.2-0.4,0.4-0.9,0.4-1.4c0.1,0,0.3,0.3,0.3,0.5c0.3,0.8,0.2,1.8-0.2,2.5c-0.6,1.2-2.6,2.5-3.9,2c-0.3-0.1-0.5-0.4-0.5-0.8
			c-0.2,0.4,0,1,0.3,1.2c0.3,0.2,0.7,0.2,0.9,0.2c-0.2,0.2-0.3,0.7-0.3,0.9c-0.1,0.3,0,0.8,0.1,1.1c0.1,0.3,0.2,0.6,0.4,0.9
			c0.2,0.3,0.5,0.6,0.8,0.9c0.3,0.2,0.5,0.4,0.8,0.5c0.3,0.1,0.3,0.1,0.5,0.1c0.1,0,0.6,0.1,0.8-0.1c-0.5,0-1.2-0.3-1.2-0.9
			c0.1,0.1,0.3,0.1,0.5,0.2c1.3,0.3,2.4-0.6,2.8-1.7c-0.1,0.1-0.5,0.3-0.8,0.4c-0.3,0.1-0.4,0.1-0.7,0.1c-0.3,0-0.5,0-0.8-0.1
			c-0.7-0.2-0.9-1-0.7-1.7c0.1-0.2,0.3-0.5,0.4-0.6c0.8-0.4,1.2-0.4,1.8-1.3c0.1-0.1,0.2-0.3,0.4-0.8c0.3,0.2,0.5,0.3,0.8,0.5
			c0.5,0.2,1.3,0.2,1.7-0.2c0.2-0.2,0.6-0.7,0.7-1.2c-0.2,0.3-0.4,0.3-0.6,0.3c-0.2,0-0.4,0-0.7,0c-0.3,0-0.6-0.2-0.8-0.4
			c-0.3-0.3-0.3-1.4-0.4-1.8c-0.1-0.7-0.4-1.1-0.8-1.4c-0.2-0.2-0.5-0.4-1.1-0.6C13.5,25,13.2,25,12.7,25c-0.3,0-0.7,0-1.1,0
			c0.4,0,0.8,0,1.1,0c0.5,0,0.8-0.1,1.1-0.1c0.6-0.1,0.9-0.4,1.1-0.6c0.4-0.4,0.6-0.8,0.8-1.4c0.1-0.4,0.2-1.6,0.4-1.8
			c0.2-0.2,0.5-0.3,0.8-0.4c0.3,0,0.5,0,0.7,0c0.2,0,0.4,0.1,0.6,0.3c0-0.5-0.4-1-0.7-1.2c-0.4-0.3-1.2-0.4-1.7-0.2
			c-0.3,0.1-0.4,0.2-0.8,0.5c-0.2-0.5-0.3-0.7-0.4-0.8c-0.6-0.8-1-0.8-1.8-1.3c-0.2-0.1-0.4-0.3-0.4-0.6c-0.2-0.6,0-1.4,0.7-1.7
			c0.3-0.1,0.5-0.1,0.8-0.1s0.5,0,0.7,0.1c0.3,0.1,0.7,0.2,0.8,0.4C15,15,14,14,12.7,14.3c-0.2,0.1-0.4,0.1-0.5,0.2
			c0-0.6,0.6-0.9,1.2-0.9c-0.2-0.2-0.7-0.1-0.8-0.1c-0.2,0-0.2,0-0.5,0.1c-0.3,0.1-0.5,0.2-0.8,0.5c-0.3,0.2-0.6,0.6-0.8,0.9
			c-0.2,0.3-0.3,0.6-0.4,0.9C10,16.2,10,16.7,10,17c0,0.2,0.1,0.6,0.3,0.9c-0.2,0-0.6,0-0.9,0.2s-0.5,0.8-0.3,1.2
			c0-0.4,0.2-0.7,0.5-0.8c1.3-0.4,3.2,0.9,3.9,2c0.4,0.7,0.4,1.8,0.2,2.5c-0.1,0.2-0.3,0.4-0.3,0.4c0-0.5-0.2-1-0.4-1.4
			c-0.3-0.6-0.7-1-1.3-1.2c-1-0.4-2.9-0.6-3.7-1.2l-0.1,0c-0.3-0.3-0.7-0.8-0.7-1.2c0-0.4,0.1-0.9,0.2-1.1c0.1-0.2,0.4-0.4,0.3-0.4
			c-0.1,0-0.4,0.1-0.7,0.3c-0.3,0.2-0.5,0.5-0.7,0.9c-0.2,0.4-0.3,0.7-0.3,1.1c0,0.4,0.2,0.7,0.3,1c0.2,0.3,0.2,0.2,0.3,0.5
			c-0.1,0-0.7-0.1-1-0.1c-0.4,0-0.7,0.2-1,0.4S3.3,22.7,3,23c-0.4,0.3-0.8,0.6-1.1,0.7C1.2,23.9,0.4,23,0,22.2z"/>
		<path class="st1" d="M31.4,18.4c0.8-0.5,1.6-0.7,2.5,0c0.3-0.5,0.1-1.4-0.5-2c-0.6-0.6-1.5-0.8-2-0.5
			C32.1,16.8,31.9,17.6,31.4,18.4z"/>
		<path class="st1" d="M18.4,31.2c-0.8,0.5-1.6,0.7-2.5,0c-0.3,0.5-0.1,1.4,0.5,2c0.6,0.6,1.5,0.8,2,0.5
			C17.6,32.7,17.9,31.9,18.4,31.2z"/>
		<path class="st1" d="M31.4,31.2c0.8,0.5,1.6,0.7,2.5,0c0.3,0.5,0.1,1.4-0.5,2c-0.6,0.6-1.5,0.8-2,0.5
			C32.1,32.7,31.9,31.9,31.4,31.2z"/>
		<path class="st2" d="M25.3,26.4h-0.4c-0.2-0.7-0.3-1.2-0.5-1.5c-0.3-0.5-0.8-0.7-1.3-0.7c-0.4,0-0.7,0.1-0.9,0.4
			c-0.2,0.3-0.4,0.6-0.4,1c0,0.6,0.4,1.1,1.1,1.5c0.7,0.4,1.4,0.8,2,1.2c0.7,0.5,1.1,1.2,1.1,1.9c0,0.9-0.4,1.5-1.1,2
			c-0.6,0.4-1.4,0.6-2.3,0.6c-0.9,0-1.8-0.2-2.6-0.7l-0.4-2.5l0.4-0.1c0.2,0.7,0.6,1.3,1,1.8c0.5,0.6,1.1,0.9,1.8,0.9
			c0.4,0,0.8-0.1,1.1-0.4c0.3-0.3,0.4-0.6,0.4-1c0-0.6-0.4-1.1-1.1-1.6c-0.7-0.4-1.4-0.8-2-1.1c-0.7-0.5-1.1-1.1-1.1-1.8
			c0-0.8,0.3-1.5,1-2c0.6-0.5,1.3-0.7,2.2-0.7c0.8,0,1.5,0.2,2.2,0.6L25.3,26.4z"/>
		<g>
			<path class="st1" d="M25,30.4h-6l0.8-1v-4.8c-0.5,0-0.8,0.2-1.1,0.6c0.1-0.9,0.5-1.4,1.1-1.4v-3.9l-0.8-1h5.7
				c-0.4,0.9-0.8,1.8-1,2.7c-0.2-0.8-0.5-1.4-0.7-1.6c-0.2-0.2-0.6-0.4-1.2-0.4c-0.3,0-0.7,0-1,0.1v4.1h1.4l0.7-1.4v3.5l-0.7-1.4
				h-1.4v5c0.3,0,0.6,0.1,0.7,0.1c0.7,0,1.2-0.1,1.4-0.4c0.2-0.2,0.5-0.8,0.9-1.8c0.1,0.7,0.2,1.2,0.4,1.6
				C24.4,29.4,24.7,29.9,25,30.4z"/>
			<path class="st1" d="M31.3,27c0,1.1-0.2,1.9-0.7,2.6c-0.5,0.7-1.1,1-1.8,1c-0.4,0-0.9-0.1-1.4-0.4c-0.6-0.3-1-0.4-1.2-0.4
				c-0.2,0-0.5,0.2-0.8,0.5c0.4-1.1,0.8-2.3,1-3.5c0.1,0.6,0.2,1.1,0.3,1.5c0.2,0.5,0.5,0.9,0.9,1.2c0.4,0.2,0.7,0.4,1.2,0.4
				c0.5,0,0.8-0.2,1.1-0.5c0.3-0.4,0.5-0.9,0.5-1.6c0-0.4-0.1-0.8-0.2-1.1c-0.2-0.6-0.6-1-1.1-1.2c-0.5-0.2-0.9-0.3-1.4-0.5
				c-0.5-0.2-0.9-0.5-1.2-0.9c-0.3-0.6-0.5-1.3-0.5-2.2c0-1,0.2-1.8,0.6-2.4c0.4-0.6,1-0.9,1.6-0.9c0.4,0,0.9,0.2,1.5,0.5
				c0.3,0.1,0.5,0.2,0.6,0.2c0.2,0,0.4-0.1,0.7-0.3c-0.2,0.4-0.4,0.9-0.5,1.5c-0.1,0.5-0.3,1-0.4,1.5c-0.1-1.1-0.4-1.8-0.9-2.3
				c-0.3-0.3-0.6-0.4-0.9-0.4c-0.4,0-0.7,0.2-1,0.5c-0.3,0.4-0.4,0.8-0.4,1.4c0,1,0.5,1.7,1.4,2.1c0.4,0.2,0.9,0.3,1.3,0.5
				c0.5,0.2,0.9,0.6,1.1,1C31.1,25.4,31.3,26.2,31.3,27z"/>
		</g>
	</g>
</g>
</svg>
